<svg width="14" height="16" viewBox="0 0 14 16" fill="none" xmlns="http://www.w3.org/2000/svg">
<g opacity="0.4">
<path d="M8.03974 2.59276V1.35031H8.60687C8.97971 1.35031 9.28202 1.048 9.28202 0.675156C9.28202 0.302308 8.97977 0 8.60687 0H5.39312C5.02027 0 4.71797 0.302308 4.71797 0.675156C4.71797 1.048 5.02027 1.35031 5.39312 1.35031H5.96025V2.59276C2.73365 3.09426 0.256317 5.89135 0.256317 9.25628C0.256317 12.9748 3.28156 15.9999 6.99999 15.9999C10.7184 15.9999 13.7437 12.9747 13.7437 9.25628C13.7437 5.89135 11.2663 3.09426 8.03974 2.59276ZM6.99999 14.6497C4.02607 14.6497 1.60663 12.2302 1.60663 9.25633C1.60663 6.28246 4.02612 3.86297 6.99999 3.86297C9.97387 3.86297 12.3934 6.28246 12.3934 9.25633C12.3934 12.2302 9.97392 14.6497 6.99999 14.6497Z" fill="#91BACF"/>
<path d="M7.67514 8.97601V5.79527C7.67514 5.42242 7.37283 5.12012 6.99999 5.12012C6.62714 5.12012 6.32483 5.42242 6.32483 5.79527V9.3655C6.32483 9.4753 6.36858 9.58057 6.44636 9.65803L8.33512 11.5388C8.5994 11.802 9.0268 11.801 9.28995 11.5368C9.55305 11.2726 9.55213 10.8451 9.28795 10.582L7.67514 8.97601Z" fill="#91BACF"/>
</g>
</svg>
