<svg width="30" height="30" viewBox="0 0 30 30" fill="none" xmlns="http://www.w3.org/2000/svg">
<path opacity="0.5" d="M30 15C30 19.0066 28.4397 22.7735 25.6066 25.6066C22.7735 28.4397 19.0066 30 15 30C12.1952 30 9.50842 29.2344 7.17668 27.8038L8.89641 26.0841C10.7075 27.0853 12.7882 27.6562 15 27.6562C21.9787 27.6562 27.6562 21.9787 27.6562 15C27.6562 12.7882 27.0853 10.7075 26.084 8.89646L27.8038 7.17674C29.2344 9.50842 30 12.1952 30 15ZM1.70754 29.9497L0.0502734 28.2925L3.59684 24.7459C1.26955 22.0315 0 18.6134 0 15C0 10.9934 1.56029 7.22654 4.39336 4.39336C7.22654 1.56029 10.9934 0 15 0C18.6134 0 22.0315 1.26955 24.7459 3.59684L28.2925 0.0502734L29.9497 1.70754L1.70754 29.9497ZM5.26482 23.0779L23.0779 5.26482C20.8846 3.44174 18.0683 2.34375 15 2.34375C8.02131 2.34375 2.34375 8.02131 2.34375 15C2.34375 18.0683 3.44168 20.8846 5.26482 23.0779Z" fill="#91BACF"/>
</svg>
