<svg width="16" height="16" viewBox="0 0 16 16" fill="none" xmlns="http://www.w3.org/2000/svg">
<path d="M8 0C3.60594 0 0 3.60594 0 8C0 12.3941 3.60594 16 8 16C12.3941 16 16 12.3941 16 8C16 3.60594 12.3941 0 8 0ZM3.03463 11.5298C2.29625 10.4939 1.90625 9.27303 1.90625 8C1.90625 4.64 4.64 1.90625 8 1.90625C9.27303 1.90625 10.4939 2.29625 11.5298 3.03463C11.5514 3.05006 11.5707 3.06734 11.5887 3.08541L3.08541 11.5888C3.06734 11.5707 3.05006 11.5514 3.03463 11.5298ZM8 14.0938C6.72697 14.0938 5.50609 13.7037 4.47019 12.9654C4.44859 12.9499 4.42934 12.9327 4.41125 12.9146L12.9145 4.41131C12.9327 4.42944 12.95 4.44872 12.9653 4.47022C13.7037 5.50609 14.0938 6.72697 14.0938 8C14.0938 11.36 11.36 14.0938 8 14.0938Z" fill="#70808D"/>
</svg>
