<svg width="16" height="16" viewBox="0 0 16 16" fill="none" xmlns="http://www.w3.org/2000/svg">
<path opacity="0.4" fill-rule="evenodd" clip-rule="evenodd" d="M3.24537 1.60203C3.10379 1.60173 2.96732 1.61781 2.83763 1.64838C2.65986 1.25515 2.42503 0.902354 2.15795 0.634315C1.70464 0.179376 0.989694 0 0 0V1.6C0.604591 1.6 0.952505 1.68729 1.03062 1.76569C1.33192 2.06806 1.59429 2.68245 1.59429 3.2L1.6023 3.31314L2.38339 8.80041C1.07643 8.86846 0.0639289 9.88706 0.000979354 11.1604L0 12C0.0771803 13.3151 1.08631 14.3268 2.34618 14.3987L2.52715 14.399C2.85516 15.3317 3.74124 16 4.78286 16C5.8241 16 6.70992 15.3322 7.03821 14.4H8.90465C9.23294 15.3322 10.1188 16 11.16 16C12.4807 16 13.5514 14.9255 13.5514 13.6C13.5514 12.2745 12.4807 11.2 11.16 11.2C10.1188 11.2 9.23294 11.8678 8.90465 12.8H7.03821C6.70992 11.8678 5.8241 11.2 4.78286 11.2C3.74161 11.2 2.8558 11.8678 2.52751 12.8H2.39143C1.98489 12.7755 1.62022 12.4099 1.59285 11.9521L1.59429 11.2C1.61578 10.785 1.97796 10.4216 2.43093 10.399L4.0046 10.3994L4.01601 10.4H12.0503L12.168 10.3625C12.7724 10.1701 13.2562 9.7133 13.4853 9.12202L13.8421 8.4127C14.1244 7.85113 14.4067 7.28861 14.6818 6.73904C15.3555 5.39286 15.7793 4.53733 15.8731 4.32724C16.355 3.24836 15.3788 2.41797 14.381 2.40029L3.24537 1.60203ZM11.7733 8.8H4.07569C4.0245 8.78572 3.9855 8.74221 3.97786 8.68801L3.19675 3.20059L14.2636 3.99594C14.0699 4.39226 13.7179 5.10013 13.2571 6.02087L13.2456 6.04394C12.9825 6.56949 12.7006 7.13124 12.4187 7.69206L12.0429 8.43907L12.004 8.52978C11.9624 8.6462 11.8797 8.74188 11.7733 8.8ZM11.16 14.4C11.6002 14.4 11.9571 14.0418 11.9571 13.6C11.9571 13.1582 11.6002 12.8 11.16 12.8C10.7197 12.8 10.3629 13.1582 10.3629 13.6C10.3629 14.0418 10.7197 14.4 11.16 14.4ZM5.58 13.6C5.58 14.0418 5.22311 14.4 4.78286 14.4C4.34261 14.4 3.98571 14.0418 3.98571 13.6C3.98571 13.1582 4.34261 12.8 4.78286 12.8C5.22311 12.8 5.58 13.1582 5.58 13.6Z" fill="#91BACF"/>
</svg>
