<svg xmlns="http://www.w3.org/2000/svg" viewBox="0 0 300 63.04"><defs><style>.cls-1{fill:#f15a4e;}.cls-2{fill:#00324a;}</style></defs><title>Asset 1</title><g id="Layer_2" data-name="Layer 2"><g id="Layer_1-2" data-name="Layer 1"><path class="cls-1" d="M139.21,37.49h-4.39L125,62h4.58l2.64-6.89h9.57L144.45,62H149l-9.74-24.4Zm1.31,14.33h-7.14L137,42.26Z"/><rect class="cls-2" x="129.66" y="1.15" width="4.29" height="24.52"/><path class="cls-2" d="M163,26c-.63,0-4.78-.16-4.78-5.29V10h-2.46V6.71h2.46V1.15h4.22V6.71H167V10h-4.57V20.36A1.8,1.8,0,0,0,163,21.7a2,2,0,0,0,1.28.41,3.39,3.39,0,0,0,2.15-.82l1.65,3A7.36,7.36,0,0,1,163,26"/><path class="cls-2" d="M215.06,14.35a5.66,5.66,0,0,1,2.41-2.86,7.73,7.73,0,0,1,3.83-1.1h.14V6.59a3,3,0,0,0-1-.06A6.23,6.23,0,0,0,217,7.83a8.62,8.62,0,0,0-2.25,2.63V6.71h-3.93v19h4.22Z"/><path class="cls-2" d="M238.62,20.91V14.14a7.24,7.24,0,0,0-2.2-5.61,9.09,9.09,0,0,0-6.12-2.33,11.68,11.68,0,0,0-7.24,2.32l-.1.07,1.6,2.89A9.8,9.8,0,0,1,230,9.7a4.66,4.66,0,0,1,3.29,1.06,4.09,4.09,0,0,1,1.13,3v.88a21,21,0,0,0-4.78-.67c-1.17,0-8,.26-8,6.08a5.76,5.76,0,0,0,.49,2.38,5.91,5.91,0,0,0,1.35,1.9,6.35,6.35,0,0,0,2.15,1.26,8.78,8.78,0,0,0,2.86.46c3.6,0,5.46-1.45,6.53-2.89a3,3,0,0,0,1,2.1,3.13,3.13,0,0,0,2.09.61,9.27,9.27,0,0,0,1.77-.2V22.05s-1.21.27-1.21-1.14m-9.5,2a3.64,3.64,0,0,1-2.54-.91,2.91,2.91,0,0,1-1-2.23,2.52,2.52,0,0,1,1.28-2.23,6,6,0,0,1,3.36-.78,16.07,16.07,0,0,1,4.22.67v1c0,1.55-1.08,4.52-5.33,4.52"/><path class="cls-1" d="M211.64,56.15a2.93,2.93,0,0,1-.67.94,5.24,5.24,0,0,1-1.07.79,5.53,5.53,0,0,1-1.35.53,5.35,5.35,0,0,1-3.6-.27,5.53,5.53,0,0,1-1.76-1.29A6.23,6.23,0,0,1,202,54.9a6.6,6.6,0,0,1-.44-2.43A6.82,6.82,0,0,1,202,50a6,6,0,0,1,1.16-1.91,5.22,5.22,0,0,1,1.74-1.25,5.13,5.13,0,0,1,2.16-.45,5.49,5.49,0,0,1,2.62.63,4.93,4.93,0,0,1,1.88,1.76l.06.1,3.87-1.35-.07-.15A8.22,8.22,0,0,0,212.21,44a9.6,9.6,0,0,0-5.06-1.29,10.22,10.22,0,0,0-4.06.78A9.24,9.24,0,0,0,198,48.71a10.37,10.37,0,0,0-.69,3.77,10.14,10.14,0,0,0,.71,3.77,9.8,9.8,0,0,0,2,3.13,9.48,9.48,0,0,0,3.1,2.16,9.93,9.93,0,0,0,4,.8A9.8,9.8,0,0,0,212.37,61a7.81,7.81,0,0,0,3.16-3.51l.07-.15L211.69,56Z"/><path class="cls-1" d="M276.14,56.15a2.93,2.93,0,0,1-.67.94,5.24,5.24,0,0,1-1.07.79,5.53,5.53,0,0,1-1.35.53,5.35,5.35,0,0,1-3.6-.27,5.53,5.53,0,0,1-1.76-1.29,6.23,6.23,0,0,1-1.2-1.95,6.6,6.6,0,0,1-.44-2.43,6.82,6.82,0,0,1,.42-2.45,6,6,0,0,1,1.16-1.91,5.22,5.22,0,0,1,1.74-1.25,5.13,5.13,0,0,1,2.16-.45,5.49,5.49,0,0,1,2.62.63A4.93,4.93,0,0,1,276,48.81l.06.1L280,47.56l-.07-.15A8.22,8.22,0,0,0,276.71,44a9.6,9.6,0,0,0-5.06-1.29,10.22,10.22,0,0,0-4.06.78,9.24,9.24,0,0,0-5.08,5.24,10.37,10.37,0,0,0-.69,3.77,10.14,10.14,0,0,0,.71,3.77,9.8,9.8,0,0,0,2,3.13,9.48,9.48,0,0,0,3.1,2.16,9.93,9.93,0,0,0,4,.8A9.8,9.8,0,0,0,276.87,61,7.81,7.81,0,0,0,280,57.46l.07-.15L276.19,56Z"/><rect class="cls-1" x="216.96" y="36.78" width="4.25" height="4.3"/><rect class="cls-1" x="216.96" y="43.01" width="4.25" height="18.96"/><path class="cls-1" d="M253.93,42.69a7.29,7.29,0,0,0-6.49,3.7V43h-3.86V62h4.22V50.75c1.22-4.14,4.45-4.27,5-4.27,2.37,0,3.59,1.8,3.59,4.89V62h4.22V50.63c0-6.26-4.62-7.94-6.68-7.94"/><path class="cls-2" d="M147.65,6.39a7.29,7.29,0,0,0-6.49,3.7V6.71H137.3v19h4.22V14.45c1.22-4.14,4.45-4.27,5-4.27,2.37,0,3.59,1.8,3.59,4.89v10.6h4.22V14.33c0-6.26-4.62-7.94-6.68-7.94"/><path class="cls-2" d="M186.95,12.49a9.2,9.2,0,0,0-1.85-3.08A9.49,9.49,0,0,0,182,7.29a9.81,9.81,0,0,0-4-.8,10.22,10.22,0,0,0-4.06.78,9.27,9.27,0,0,0-3.1,2.14,9.75,9.75,0,0,0-2,3.15,10.29,10.29,0,0,0-.71,3.78,10.14,10.14,0,0,0,.71,3.77,9.59,9.59,0,0,0,2,3.12,9.4,9.4,0,0,0,3.1,2.12,10.13,10.13,0,0,0,4,.78,10.93,10.93,0,0,0,5.46-1.36,8.07,8.07,0,0,0,3.37-3.51l.07-.15L183,20l-.05.11a3.55,3.55,0,0,1-.78,1A5,5,0,0,1,181,22a5.79,5.79,0,0,1-1.42.53,6.13,6.13,0,0,1-3.56-.18,5.41,5.41,0,0,1-1.72-1,5.51,5.51,0,0,1-1.23-1.6,5.39,5.39,0,0,1-.57-1.94h15l0-.12q0-.25.07-.63c0-.26,0-.53,0-.82a10.69,10.69,0,0,0-.64-3.68m-3.59,2.24H172.53a6,6,0,0,1,.54-1.9,5.08,5.08,0,0,1,1.17-1.59,5.41,5.41,0,0,1,1.67-1,6,6,0,0,1,4.15,0,5.22,5.22,0,0,1,3.3,4.52"/><path class="cls-1" d="M241.61,48.69a9.2,9.2,0,0,0-1.85-3.08,9.49,9.49,0,0,0-3.12-2.12,9.81,9.81,0,0,0-4-.8,10.22,10.22,0,0,0-4.06.78,9.27,9.27,0,0,0-3.1,2.14,9.75,9.75,0,0,0-2,3.15,10.29,10.29,0,0,0-.71,3.78,10.14,10.14,0,0,0,.71,3.77,9.59,9.59,0,0,0,2,3.12,9.4,9.4,0,0,0,3.1,2.12,10.13,10.13,0,0,0,4,.78A10.93,10.93,0,0,0,238.05,61a8.07,8.07,0,0,0,3.37-3.51l.07-.15-3.86-1.11-.05.11a3.55,3.55,0,0,1-.78,1,5,5,0,0,1-1.14.84,5.79,5.79,0,0,1-1.42.53,6.13,6.13,0,0,1-3.56-.18,5.41,5.41,0,0,1-1.72-1,5.51,5.51,0,0,1-1.23-1.6,5.39,5.39,0,0,1-.57-1.94h15l0-.12q0-.25.07-.63c0-.26,0-.53,0-.82a10.69,10.69,0,0,0-.64-3.68M238,50.93H227.19a6,6,0,0,1,.54-1.9,5.08,5.08,0,0,1,1.17-1.59,5.41,5.41,0,0,1,1.67-1,6,6,0,0,1,4.15,0,5.22,5.22,0,0,1,3.3,4.52"/><path class="cls-1" d="M299.36,48.69a9.2,9.2,0,0,0-1.85-3.08,9.49,9.49,0,0,0-3.12-2.12,9.81,9.81,0,0,0-4-.8,10.22,10.22,0,0,0-4.06.78,9.27,9.27,0,0,0-3.1,2.14,9.75,9.75,0,0,0-2,3.15,10.29,10.29,0,0,0-.71,3.78,10.14,10.14,0,0,0,.71,3.77,9.59,9.59,0,0,0,2,3.12,9.4,9.4,0,0,0,3.1,2.12,10.13,10.13,0,0,0,4,.78A10.93,10.93,0,0,0,295.8,61a8.07,8.07,0,0,0,3.37-3.51l.07-.15-3.86-1.11-.05.11a3.55,3.55,0,0,1-.78,1,5,5,0,0,1-1.14.84,5.79,5.79,0,0,1-1.42.53,6.13,6.13,0,0,1-3.56-.18,5.41,5.41,0,0,1-1.72-1,5.51,5.51,0,0,1-1.23-1.6,5.39,5.39,0,0,1-.57-1.94h15l0-.12q0-.25.07-.63c0-.26,0-.53,0-.82a10.69,10.69,0,0,0-.64-3.68m-3.59,2.24H284.94a6,6,0,0,1,.54-1.9,5.08,5.08,0,0,1,1.17-1.59,5.41,5.41,0,0,1,1.67-1,6,6,0,0,1,4.15,0,5.22,5.22,0,0,1,3.3,4.52"/><path class="cls-2" d="M204.27,6.71v3.1a7.39,7.39,0,0,0-2.58-2.45,8.7,8.7,0,0,0-7.6-.19,8.71,8.71,0,0,0-2.78,2.11,9.74,9.74,0,0,0-1.81,3.12,11.14,11.14,0,0,0-.65,3.82,10.63,10.63,0,0,0,.63,3.66,10,10,0,0,0,1.78,3.08A8.44,8.44,0,0,0,194,25.07a8,8,0,0,0,3.53.78,9.51,9.51,0,0,0,4-.89,6.45,6.45,0,0,0,2.69-2.34v2.67c0,3.53-2.61,5.21-6.24,5.21a8.81,8.81,0,0,1-6.37-2.71l-2.33,2.83a12.3,12.3,0,0,0,8.7,3.63,13.73,13.73,0,0,0,4-.58A9.18,9.18,0,0,0,205.23,32c2.36-2,2.93-4.48,2.93-7.35V6.71Zm-.82,11.9a5.25,5.25,0,0,1-5,3.61c-.8,0-3.49-.11-5-3.61a5.72,5.72,0,0,1-.43-2.29,7.13,7.13,0,0,1,.38-2.31,6.87,6.87,0,0,1,1.07-2,5.39,5.39,0,0,1,1.67-1.43,5.19,5.19,0,0,1,4.59,0A5.39,5.39,0,0,1,202.42,12a6.86,6.86,0,0,1,1.07,2,7.14,7.14,0,0,1,.38,2.31,6,6,0,0,1-.43,2.29"/><path class="cls-1" d="M168.37,58.33c-.86,0-1.07-.6-1.07-1.39V36.79h-4.24v9.11a7.77,7.77,0,0,0-2.44-2,8.39,8.39,0,0,0-4-.95,7.59,7.59,0,0,0-3.41.77,8.62,8.62,0,0,0-2.69,2.09,9.76,9.76,0,0,0-1.78,3,10.53,10.53,0,0,0-.63,3.68,11,11,0,0,0,.67,3.86,9.87,9.87,0,0,0,1.87,3.14,8.94,8.94,0,0,0,2.83,2.13,8.2,8.2,0,0,0,3.57.78,7.44,7.44,0,0,0,6.66-3.55l0,.62a2.92,2.92,0,0,0,.89,2,3.18,3.18,0,0,0,2,.71,3,3,0,0,0,1.87-.36V58.33Zm-15.92-5.82a6.61,6.61,0,0,1,.42-2.31A6.33,6.33,0,0,1,154,48.28a5.61,5.61,0,0,1,1.72-1.37,4.68,4.68,0,0,1,2.17-.51,5.08,5.08,0,0,1,2,.47,6.08,6.08,0,0,1,1.81,1.3,5.73,5.73,0,0,1,1.24,1.88,8.86,8.86,0,0,1,.45,2.79,6.65,6.65,0,0,1-.41,2.31,6.87,6.87,0,0,1-1.14,2,5.57,5.57,0,0,1-1.7,1.39,4.52,4.52,0,0,1-2.15.52,5.1,5.1,0,0,1-2-.48,6.13,6.13,0,0,1-1.83-1.33,6.2,6.2,0,0,1-1.25-2,8.8,8.8,0,0,1-.45-2.79"/><path class="cls-2" d="M248.82,22.12a3.28,3.28,0,0,1-2.31-.27,1.73,1.73,0,0,1-.57-1.33V1.15h-4.22V20.66c0,5.14,4.15,5.29,4.78,5.29a9.58,9.58,0,0,0,2.32-.27Z"/><rect class="cls-1" y="45.02" width="12.25" height="17.17"/><path class="cls-1" d="M104.64,45a7.48,7.48,0,0,1-7,5.87h-.35A7.51,7.51,0,0,1,90,45H77.74a20.66,20.66,0,0,0,.44,2.75A19.61,19.61,0,0,0,96.79,63h.56a19.63,19.63,0,0,0,19.54-18Z"/><polygon class="cls-1" points="15.2 62.2 27.74 62.2 35.14 45.02 22.57 45.02 15.2 62.2"/><polygon class="cls-1" points="73.36 45.02 60.98 45.02 68.17 62.2 80.7 62.2 73.36 45.02"/><path class="cls-1" d="M195.81,51.92a5.73,5.73,0,0,0-1.69-2,10,10,0,0,0-2.59-1.33,31,31,0,0,0-3.41-1c-1-.25-1.94-.48-2.7-.69a9,9,0,0,1-1.9-.73,3,3,0,0,1-1.09-.93,2.48,2.48,0,0,1-.35-1.36,2.56,2.56,0,0,1,1.12-2.22,6.28,6.28,0,0,1,3.59-.81,10.56,10.56,0,0,1,2.17.22,12,12,0,0,1,1.94.58,10.5,10.5,0,0,1,1.54.75,12.54,12.54,0,0,1,1.15.83l2-3.47-.1-.07a16.12,16.12,0,0,0-3.85-2,14,14,0,0,0-4.8-.81,13,13,0,0,0-3.64.49,8.67,8.67,0,0,0-2.93,1.46,7,7,0,0,0-2,2.4,7.19,7.19,0,0,0-.72,3.27,6,6,0,0,0,.49,2.53,5.3,5.3,0,0,0,1.41,1.83,8.17,8.17,0,0,0,2.32,1.45,30.32,30.32,0,0,0,3.23,1c1.06.27,2,.53,2.86.77a12.07,12.07,0,0,1,2.12.82,3.92,3.92,0,0,1,1.31,1,2.43,2.43,0,0,1-.75,3.5,7,7,0,0,1-3.51.72,12.24,12.24,0,0,1-2.74-.3,18.62,18.62,0,0,1-2.46-.74,12.55,12.55,0,0,1-2-.94,14.46,14.46,0,0,1-1.45-1l-1.93,3.59.1.07a16,16,0,0,0,4.9,2.5,18.71,18.71,0,0,0,5.63.86,15.58,15.58,0,0,0,3.62-.4,9,9,0,0,0,3-1.27,6.25,6.25,0,0,0,2-2.25A6.9,6.9,0,0,0,196.4,55,7.31,7.31,0,0,0,195.81,51.92Z"/><path class="cls-2" d="M9.82.74H2.42A2.43,2.43,0,0,0,0,3.16V45H12.25V3.16A2.43,2.43,0,0,0,9.82.74Z"/><path class="cls-2" d="M112.67,31.19a19.67,19.67,0,0,0-10.73-6.83S96.26,23.1,95,22.74a5.4,5.4,0,1,1,6.77-6.27,2.52,2.52,0,0,0,1.08,1.61,2.55,2.55,0,0,0,1.9.37l6.93-1.4A2.52,2.52,0,0,0,113.29,16a2.55,2.55,0,0,0,.37-1.9,17.54,17.54,0,0,0-34.73,3.47,17.36,17.36,0,0,0,12.9,16.92l7.26,1.71a7.5,7.5,0,0,1,4.09,2.61,7.38,7.38,0,0,1,1.63,4.66,7.5,7.5,0,0,1-.08,1.12s-.05.32-.09.47H116.9l0-.39c0-.41,0-.82,0-1.21A19.67,19.67,0,0,0,112.67,31.19Z"/><path class="cls-2" d="M49.69.8h-3.4a7.31,7.31,0,0,0-6.72,4.44L22.57,45H35.14L48,15.28l7.92,18.07H47.63a4.67,4.67,0,0,0-4.82,3.21L39.25,45h34.1L56.41,5.24A7.31,7.31,0,0,0,49.69.8Z"/></g></g></svg>