<?xml version="1.0" encoding="utf-8"?>
<!-- Generator: Adobe Illustrator 23.1.0, SVG Export Plug-In . SVG Version: 6.00 Build 0)  -->
<svg version="1.1"
	 id="svg2" xmlns:cc="http://creativecommons.org/ns#" xmlns:dc="http://purl.org/dc/elements/1.1/" xmlns:inkscape="http://www.inkscape.org/namespaces/inkscape" xmlns:rdf="http://www.w3.org/1999/02/22-rdf-syntax-ns#" xmlns:sodipodi="http://sodipodi.sourceforge.net/DTD/sodipodi-0.dtd" xmlns:svg="http://www.w3.org/2000/svg"
	 xmlns="http://www.w3.org/2000/svg" xmlns:xlink="http://www.w3.org/1999/xlink" x="0px" y="0px" viewBox="0 0 209 209"
	 style="enable-background:new 0 0 209 209;" xml:space="preserve">
<style type="text/css">
	.st0{clip-path:url(#SVGID_2_);fill:#CB2124;}
	.st1{clip-path:url(#SVGID_4_);fill:url(#SVGID_5_);}
	.st2{clip-path:url(#SVGID_7_);fill:#FFFFFF;}
	.st3{clip-path:url(#SVGID_9_);}
	.st4{fill:url(#SVGID_10_);}
	.st5{clip-path:url(#SVGID_12_);fill:none;stroke:#CB2124;stroke-width:2;stroke-miterlimit:10;}
	.st6{clip-path:url(#SVGID_14_);}
	.st7{fill:none;stroke:#A11A1C;stroke-width:2;stroke-miterlimit:10;}
</style>
<g>
	<g>
		<defs>
			<rect id="SVGID_1_" width="209" height="209"/>
		</defs>
		<clipPath id="SVGID_2_">
			<use xlink:href="#SVGID_1_"  style="overflow:visible;"/>
		</clipPath>
		
			<path id="rect1942" inkscape:export-filename="C:\Documents and Settings\Molumen\Desktop\path3511111.png" inkscape:export-xdpi="7.7063322" inkscape:export-ydpi="7.7063322" class="st0" d="
			M188-14.5H24C4.4-14.5-11.5,1.4-11.5,21v164c0,19.6,15.9,35.5,35.5,35.5h164c19.6,0,35.5-15.9,37.5-34.8v-164
			C223.5,1.4,207.6-14.5,188-14.5z"/>
	</g>
	<g>
		<defs>
			<rect id="SVGID_3_" width="209" height="209"/>
		</defs>
		<clipPath id="SVGID_4_">
			<use xlink:href="#SVGID_3_"  style="overflow:visible;"/>
		</clipPath>
		
			<linearGradient id="SVGID_5_" gradientUnits="userSpaceOnUse" x1="73" y1="1666.167" x2="73" y2="1793.795" gradientTransform="matrix(1 0 0 1 34 -1680)">
			<stop  offset="0" style="stop-color:#FFFFFF;stop-opacity:0.85"/>
			<stop  offset="0.66" style="stop-color:#FFFFFF;stop-opacity:0"/>
		</linearGradient>
		<path class="st1" d="M188-14.5H24C4.4-14.5-11.5,1.4-11.5,21v69.4c36.3,14.8,76,22.9,117.7,22.9c42.3,0,82.6-8.4,119.3-23.6v-68
			C223.5,1.4,207.6-14.5,188-14.5z"/>
	</g>
	<g>
		<defs>
			<rect id="SVGID_6_" width="209" height="209"/>
		</defs>
		<clipPath id="SVGID_7_">
			<use xlink:href="#SVGID_6_"  style="overflow:visible;"/>
		</clipPath>
		<path class="st2" d="M117.2,148.5c-11.9-0.9-16.9-6.8-26.2-12.5c-5.1,26.9-11.4,52.7-30,66.2c-5.7-40.7,8.4-71.2,15-103.6
			c-11.2-18.9,1.3-56.8,25-47.5c29.1,11.5-25.2,70.1,11.2,77.4c38,7.6,53.5-66,30-89.9C108.1,4.1,43,37.9,51,87.3
			c1.9,12.1,14.4,15.8,5,32.5c-21.8-4.8-28.3-22-27.5-45C29.8,37.3,62.2,11,94.7,7.4c41.1-4.6,79.6,15.1,84.9,53.7
			C185.6,104.7,161.1,151.9,117.2,148.5z"/>
	</g>
	<g>
		<defs>
			<rect id="SVGID_8_" width="209" height="209"/>
		</defs>
		<clipPath id="SVGID_9_">
			<use xlink:href="#SVGID_8_"  style="overflow:visible;"/>
		</clipPath>
		<g class="st3">
			
				<linearGradient id="SVGID_10_" gradientUnits="userSpaceOnUse" x1="73" y1="1793.001" x2="73" y2="1900.5118" gradientTransform="matrix(1 0 0 1 34 -1680)">
				<stop  offset="0" style="stop-color:#000000;stop-opacity:0.15"/>
				<stop  offset="0.6626" style="stop-color:#000000;stop-opacity:0"/>
			</linearGradient>
			<path class="st4" d="M-11.5,90.4V185c0,19.6,15.9,35.5,35.5,35.5h164c19.6,0,35.5-15.9,37.5-34.8v-96
				c-36.8,15.2-77.1,23.6-119.3,23.6C64.5,113.3,24.8,105.2-11.5,90.4z"/>
		</g>
	</g>
	<g>
		<defs>
			<rect id="SVGID_11_" width="209" height="209"/>
		</defs>
		<clipPath id="SVGID_12_">
			<use xlink:href="#SVGID_11_"  style="overflow:visible;"/>
		</clipPath>
		<path class="st5" d="M225.5,89.7v-68c-2-20.3-17.9-36.2-37.5-36.2H24C4.4-14.5-11.5,1.4-11.5,21v69.4"/>
	</g>
	<g>
		<defs>
			<rect id="SVGID_13_" width="209" height="209"/>
		</defs>
		<clipPath id="SVGID_14_">
			<use xlink:href="#SVGID_13_"  style="overflow:visible;"/>
		</clipPath>
		<g class="st6">
			<g>
				<g>
					<path class="st7" d="M-11.5,90.4V185c0,19.6,15.9,35.5,35.5,35.5h164c19.6,0,35.5-15.9,37.5-34.8v-96"/>
				</g>
			</g>
		</g>
	</g>
</g>
</svg>
