<svg xmlns="http://www.w3.org/2000/svg" viewBox="0 0 186 56">
            <path d="M157,26.49,156.33,25A8.88,8.88,0,0,1,161,23.7c3.21,0,4.75,1.77,4.75,5.05v7.93h-1.56L164,35.26A7.1,7.1,0,0,1,159.61,37c-2.45,0-4-1.49-4-3.7,0-2.42,1.54-3.94,4.7-3.94h3.62v-.42c0-2.27-1-3.5-3.23-3.5A7.41,7.41,0,0,0,157,26.49Zm6.93,4.34h-3.55c-2,0-2.94.81-2.94,2.2s1.06,2.23,2.6,2.23a6,6,0,0,0,3.89-1.57Zm-42.3,5.85-2.31-13.61-4.85,13.61h-1.39L108.26,23l-2.33,13.66H104L107,19.54h1.88l4.88,14.25,4.85-14.25h1.88l3,17.14Zm13.72-.9a8.83,8.83,0,0,1-4.48,1.15c-3.8,0-6.25-2.7-6.25-6.62,0-3.69,2.43-6.61,5.8-6.61s5.39,2.62,5.39,5.9c0,.47,0,.93,0,1.4h-9.28c.3,2.6,2,4.29,4.53,4.29a8.46,8.46,0,0,0,3.7-.93ZM134,29.41v-.1c0-2.25-1.32-4-3.5-4s-3.63,1.74-3.94,4.07ZM148.9,19V36.66h-1.57l-.17-1.33a6.25,6.25,0,0,1-4.21,1.6c-3.43,0-5.34-3-5.34-6.59s2.18-6.64,5.66-6.64a6.33,6.33,0,0,1,3.8,1.28V19Zm-5.56,16.26a5.88,5.88,0,0,0,3.73-1.49v-7a5.5,5.5,0,0,0-3.48-1.4c-2.57,0-4.12,2.11-4.12,5C139.47,33.06,140.82,35.26,143.34,35.26Zm10.1-11.51V36.68h-1.83V23.75ZM32.1,25.91c-.2,1.12-.49,2.37-.66,3.11l-1.86,7.66H25.19L20.25,19.54h4l2.33,8.57c.17.76.49,2.06.73,3.13l2.84-11.7H34l2.86,11.7c.27-1.07.59-2.37.76-3.13l2.28-8.57h4L39,36.68H34.62L32.76,29C32.59,28.28,32.29,27,32.1,25.91Zm35-2.16h3.18l.25,1.35a6.28,6.28,0,0,1,1.91-1.25,5.59,5.59,0,0,1,2.15-.39,3.86,3.86,0,0,1,3.14,1.34,6,6,0,0,1,1.1,3.82v8.06H75.19V28.84a2.46,2.46,0,0,0-.49-1.66,1.92,1.92,0,0,0-1.54-.54,3.78,3.78,0,0,0-2.4,1v9.08H67.11ZM91.26,33.2l1.13,2.48a9.28,9.28,0,0,1-5,1.3,6.43,6.43,0,0,1-6.56-6.79c0-3.77,2.52-6.73,6.25-6.73,3.57,0,5.8,2.52,5.8,6.34,0,.49,0,1.15,0,1.52h-8.4C84.7,33.11,85.9,34,87.91,34A7.47,7.47,0,0,0,91.26,33.2ZM84.38,29h5.09v-.13A2.77,2.77,0,0,0,88.81,27a2.25,2.25,0,0,0-1.73-.74,2.41,2.41,0,0,0-1.79.74A3.63,3.63,0,0,0,84.38,29ZM65,23.74a2.59,2.59,0,0,0-.48,0,5.6,5.6,0,0,0-4,1.69l-.24-1.64H57.13V36.68h3.65V27.84a5.91,5.91,0,0,1,3-.86,7.29,7.29,0,0,1,1.23.1Zm37.65,3.34,0,0,.58-3.22-.19-.06a4.31,4.31,0,0,0-.93-.12,5.6,5.6,0,0,0-4,1.69L98,23.75H94.77V36.68h3.65V27.84a5.9,5.9,0,0,1,3-.86A7.44,7.44,0,0,1,102.68,27.08ZM152.49,19a1.18,1.18,0,1,0,1.18,1.18A1.18,1.18,0,0,0,152.49,19Zm-103,4.46a12.38,12.38,0,0,0-5,1.05l.7,2.86a9.07,9.07,0,0,1,3.65-.83c1.59,0,2.42.64,2.42,2.3V29H48.8c-3.6,0-5.24,1.44-5.24,4.06a3.9,3.9,0,0,0,4.24,4,5.65,5.65,0,0,0,3.89-1.54l.22,1.22h3V28.62C54.9,25.32,52.94,23.46,49.46,23.46Zm1.81,10a4.55,4.55,0,0,1-2.32.84,1.53,1.53,0,0,1-1.74-1.5c0-.88.64-1.47,1.84-1.47h2.22Z"></path>
        </svg>
