<svg xmlns="http://www.w3.org/2000/svg" viewBox="0 0 576 512"><path d="M576 24v127.984c0 21.46-25.96 31.98-40.97 16.97l-35.707-35.71L255.8 376.77c-9.373 9.373-24.568 9.373-33.94 0l-22.627-22.627c-9.373-9.373-9.373-24.57 0-33.94L442.756 76.676 407.053 40.97C391.982 25.9 402.656 0 424.024 0H552c13.255 0 24 10.745 24 24zM407.03 270.794l-16 16A23.999 23.999 0 0 0 384 303.765V448H64V128h264a24.003 24.003 0 0 0 16.97-7.029l16-16C376.09 89.85 365.38 64 344 64H48C21.5 64 0 85.5 0 112v352c0 26.5 21.5 48 48 48h352c26.5 0 48-21.5 48-48V287.764c0-21.382-25.852-32.1-40.97-16.97z"/></svg>