<?xml version="1.0" standalone="no"?><!DOCTYPE svg PUBLIC "-//W3C//DTD SVG 1.1//EN" "http://www.w3.org/Graphics/SVG/1.1/DTD/svg11.dtd"><svg class="icon" width="64px" height="64.00px" viewBox="0 0 1024 1024" version="1.1" xmlns="http://www.w3.org/2000/svg"><path fill="#ffffff" d="M512 788.70097351c-152.60267258 0-276.70097351-124.09830093-276.70097351-276.70097351 0-5.9094429 0.34761428-11.81888581 0.69522858-17.72832871l48.66600037 3.1285286c-0.34761428 4.86660004-0.34761428 9.73320007-0.3476143 14.59980011 0 125.83637238 102.19860078 228.03497315 228.03497314 228.03497315 58.74681473 0 114.36510086-22.24731445 156.77404405-62.5705719l33.37097167 35.45665741c-51.79452896 49.01361465-119.2317009 75.77991486-190.49263 75.77991485zM788.70097351 512h-48.66600036c0-7.99512863-0.34761428-15.99025727-1.39045716-23.98538589-12.16650009-116.4507866-109.49850083-204.04958725-226.99213027-204.04958726-45.88508606 0-89.68448639 13.55695725-127.57444382 38.9328003L357.31164169 282.57456971C402.84911346 251.63689804 456.38171386 235.29902649 512 235.29902649c142.17424392 0 260.71071625 106.36997224 275.31051636 247.84898758 1.04284287 9.38558579 1.39045716 19.11878586 1.39045715 28.85198593z"  /><path fill="#ffffff" d="M259.63202667 361.83062744L183.50449753 498.09542847c-2.08568573 3.47614289 0.69522858 7.99512863 4.51898575 7.99512863h151.907444c4.17137146 0 6.60467148-4.17137146 4.51898575-7.99512863L268.66999817 361.83062744c-2.08568573-3.82375718-7.29990006-3.82375718-9.0379715 0zM755.33000183 623.23657227l-76.12752914-136.26480103c-2.08568573-3.47614289 0.69522858-7.99512863 4.51898575-7.99512863h151.907444c4.17137146 0 6.60467148 4.17137146 4.51898574 7.99512863L764.36797333 623.23657227c-1.73807144 3.47614289-6.95228576 3.47614289-9.0379715 0z"  /><path fill="#ffffff" d="M347.92605591 301.69335556a24.33300019 24.33300019 0 1 0 48.66600036 0 24.33300019 24.33300019 0 1 0-48.66600036 0Z"  /><path fill="#ffffff" d="M659.04084397 697.27841568a24.33300019 24.33300019 0 1 0 48.66600036 0 24.33300019 24.33300019 0 1 0-48.66600036 0Z"  /></svg>