<?xml version="1.0" standalone="no"?><!DOCTYPE svg PUBLIC "-//W3C//DTD SVG 1.1//EN" "http://www.w3.org/Graphics/SVG/1.1/DTD/svg11.dtd"><svg class="icon" width="64px" height="64.00px" viewBox="0 0 1024 1024" version="1.1" xmlns="http://www.w3.org/2000/svg"><path fill="#ffffff" d="M645.59374973 814.34374973l-80.85937473-84.375c105.46875-14.06250027 189.84375-101.95312473 189.84375-207.42187473 0-101.95312473-77.34375027-189.84375-179.296875-207.42187473l-73.828125-73.828125h31.640625c161.71875027 0 291.79687473 126.5625 291.79687473 281.24999973 0 105.46875-63.28125 200.390625-151.17187446 246.09375027v70.31249973l-28.12500054-24.60937527z m-77.34374946-14.06249946c-10.546875 0-24.60937527 3.51562527-38.67187554 3.51562446-161.71875027 0-291.79687473-126.5625-291.79687473-281.24999973 0-105.46875 63.28125-200.390625 151.17187527-246.09375027V195.59375l45.70312446 45.70312527 70.31250054 70.31249973c-108.98437527 10.546875-193.35937527 101.95312473-193.35937527 210.9375 0 105.46875 80.85937473 193.35937527 186.32812473 207.42187473l70.31250054 70.31250054z"  /></svg>