<?xml version="1.0" standalone="no"?><!DOCTYPE svg PUBLIC "-//W3C//DTD SVG 1.1//EN" "http://www.w3.org/Graphics/SVG/1.1/DTD/svg11.dtd"><svg t="1653493314815" class="icon" viewBox="0 0 1024 1024" version="1.1" xmlns="http://www.w3.org/2000/svg" p-id="22372" xmlns:xlink="http://www.w3.org/1999/xlink" width="64" height="64"><defs><style type="text/css">@font-face { font-family: feedback-iconfont; src: url("//at.alicdn.com/t/font_1031158_u69w8yhxdu.woff2?t=1630033759944") format("woff2"), url("//at.alicdn.com/t/font_1031158_u69w8yhxdu.woff?t=1630033759944") format("woff"), url("//at.alicdn.com/t/font_1031158_u69w8yhxdu.ttf?t=1630033759944") format("truetype"); }
</style></defs><path d="M687.9 449.4c-71.2 0-129.1-57.9-129.1-129.1s57.9-129.1 129.1-129.1S817 249 817 320.2s-57.9 129.2-129.1 129.2z m0-203.4c-40.9 0-74.2 33.3-74.2 74.2s33.3 74.2 74.2 74.2c40.9 0 74.2-33.3 74.2-74.2S728.8 246 687.9 246zM664.5 832.9c-29 0-58.1-9.7-82.1-29.5-26.6-22-43-53-46.3-87.3-3.3-34.3 7-67.9 29-94.5 22-26.6 53-43 87.3-46.3 34.2-3.3 67.9 7 94.5 29 26.6 22 43.1 53 46.3 87.3 3.3 34.3-7 67.9-29 94.5-25.5 30.9-62.5 46.8-99.7 46.8z m0.2-203.3c-2.4 0-4.8 0.1-7.2 0.3-19.7 1.9-37.5 11.3-50.2 26.6-12.6 15.3-18.5 34.6-16.7 54.3 1.9 19.7 11.3 37.5 26.6 50.2 15.3 12.6 34.4 18.5 54.3 16.7 19.7-1.9 37.5-11.3 50.2-26.6 12.6-15.3 18.5-34.6 16.7-54.3-1.9-19.7-11.3-37.5-26.6-50.2-13.4-11-29.9-17-47.1-17zM336 614.2c-29 0-58.1-9.7-82.1-29.5-26.6-22-43-53-46.3-87.3-3.3-34.3 7-67.9 29-94.5s53-43 87.3-46.3c34.2-3.3 67.9 7 94.5 29 26.6 22 43.1 53 46.3 87.3 3.3 34.3-7 67.9-29 94.5-25.5 30.8-62.4 46.8-99.7 46.8z m0.3-203.3c-2.4 0-4.8 0.1-7.2 0.3-19.7 1.9-37.5 11.3-50.2 26.6-12.6 15.3-18.5 34.6-16.7 54.3 1.9 19.7 11.3 37.5 26.6 50.2 15.3 12.6 34.5 18.5 54.3 16.7 19.7-1.9 37.5-11.3 50.2-26.6C406 517 411.9 497.8 410 478c-1.9-19.7-11.3-37.5-26.6-50.2-13.4-11-29.9-16.9-47.1-16.9z" fill="#ffffff" p-id="22373"></path><path d="M419.498 422.624l169.708-75.884 22.45 50.21-169.707 75.884zM392.295 569.344l30.42-45.704L599.04 640.998l-30.42 45.705z" fill="#ffffff" p-id="22374"></path></svg>