<?xml version="1.0" standalone="no"?><!DOCTYPE svg PUBLIC "-//W3C//DTD SVG 1.1//EN" "http://www.w3.org/Graphics/SVG/1.1/DTD/svg11.dtd"><svg class="icon" width="64px" height="64.00px" viewBox="0 0 1024 1024" version="1.1" xmlns="http://www.w3.org/2000/svg"><path fill="#ffffff" d="M760.67457151 830.63194705H419.2304368a71.04367018 71.04367018 0 0 1-71.04367018-71.04367019V419.2304368c0-39.2369628 31.80670738-71.04367018 71.04367019-71.04367018h341.44413469c39.2369628 0 71.04367018 31.80670738 71.04367019 71.04367019v341.44413469c-1.08629466 38.15066814-32.89300204 69.95737553-71.04367018 69.95737555z m-341.44413471-418.87521745a7.25644827 7.25644827 0 0 0-7.43025541 7.47370721v341.44413469c0 4.21482325 3.17198038 7.38680363 7.38680362 7.38680365h341.4875865c4.21482325 0 7.38680363-3.17198038 7.38680363-7.38680364V419.2304368a7.25644827 7.25644827 0 0 0-7.38680363-7.43025541H419.2304368z"  /><path fill="#ffffff" d="M295.17558765 675.81323337h-30.76386451a71.04367018 71.04367018 0 0 1-71.04367019-71.04367018V264.41172314c0-39.2369628 31.80670738-71.04367018 71.04367019-71.04367019h341.4441347c39.2369628 0 71.04367018 31.80670738 71.04367019 71.04367019v33.89239311a31.24183417 31.24183417 0 0 1-31.80670739 31.85015917 31.28528595 31.28528595 0 0 1-31.80670738-31.80670738v-33.9358449a7.25644827 7.25644827 0 0 0-7.43025541-7.43025542H264.41172314a7.25644827 7.25644827 0 0 0-7.43025542 7.38680363v341.48758649c0 4.21482325 3.17198038 7.38680363 7.38680363 7.38680363h30.76386451a31.28528595 31.28528595 0 0 1 31.80670739 31.85015918c0 17.98903942-14.81705904 30.72041273-31.80670739 30.72041272z"  /></svg>