<svg xmlns="http://www.w3.org/2000/svg" xmlns:xlink="http://www.w3.org/1999/xlink" viewBox="0 0 179.3 161.5" style="enable-background:new 0 0 179.3 161.5;" y="0"><style><![CDATA[.E{clip-path:url(#B);fill:#fff}]]></style><defs><path id="A" d="M-10.5 3.4h200.3v154.8H-10.5z"/></defs><clipPath id="B"><use xlink:href="#A"/></clipPath><path d="M151.4 19.3v27.3l-16.2 3.8 29.6 66 12.9 2.8v23h-88v-22.8l10.1-3-3.8-9.9H69.7l-3.8 9.9 10.1 3v22.8H1.7v-23l12.9-2.8 29.6-66L28 46.6V19.3h123.4zM75.1 87.1h16.7L83 60.9l-7.9 26.2z" clip-path="url(&quot;#C&quot;)" fill="#c6243b"/><path class="E" d="M97.5 27.7L94 37H83.7l7.9 6.6-2.9 9.9 8.8-6.4 8.8 6.4-2.9-9.9 7.9-6.6H101zm13.8 27l-3.5 9.3H97.5l7.9 6.6-2.8 9.9 8.7-6.4 8.8 6.4-2.9-9.9 7.9-6.6h-10.2zm13.8 27.8l-3.5 9.3h-10.3l7.9 6.6-2.8 9.9 8.7-6.4 8.8 6.4-2.9-9.9 8-6.6h-10.3zM139 110l-3.6 9.2h-10.3l8 6.6-2.9 9.9 8.8-6.4 8.7 6.4-2.8-9.9 7.9-6.6h-10.3z"/></svg>