<svg xmlns="http://www.w3.org/2000/svg" height="162" viewBox="0 0 179.312 161.487" width="180"><path d="M178.186 129.943c.421-21.829-16.726-37.336-16.726-37.336-1.851-13.8-6.866-33.76-33.588-48.497C87.298 21.748 64.847 40.013.885.833 2.216 8.157 6.431 18.294 11.801 24.59l-6.613-2.169c4.808 10.132 12.507 19.324 16.539 22.307l-7.413-2.329c7.853 19.27 23.195 30.684 23.195 30.684 3.496 29.502 25.137 34.529 26.886 52.674 28.194 4.372 57.995 34.563 57.995 34.563 15.603-26.822 37.359-32.019 55.799-30.379"/><path d="M124.486 47.805c-29.395-16.111-65.32-5.649-111.224-34.089 4.548 13.59 32.96 29.506 32.96 29.506l-25.141-8.174c6.403 11.112 32.612 25.035 32.612 25.035l-23.447-7.577c9.712 16.13 31.744 27.016 31.744 27.016l-13.54-.979c1.752 15.166 22.705 28.225 23.819 39.929 9.478 3.622 21.691 9.937 31.212 18.122 18.2-8.946 13.181-39.217-21.52-82.157 47.729 2.884 46.413 38.269 73.808 33.181-2.008-9.505-3.305-24.468-31.281-39.815" fill="#97233f"/><path d="M142.086 91.968c-6.132 9.868-16.497 7.118-20.193-5.187l7.474.455c-6.552-3.921-12.504-9.689-17.105-15.372-1.354 27.183 24.227 39.386 32.689 20.295a24.7 24.7 0 0 1-2.865-.191" fill="#fff"/><path d="M155.909 95.405c-3.393 6.938-11.67 11.398-18.941 13.418 17.071 2.047 31.109 8.835 37.791 15.486-1.534-11.23-11.613-24.326-18.85-28.904zm-17.168 19.73l-2.82.178s5.114 8.693 2.303 18.271c11.1-6.231 25.402-9.248 35.848-7.141-6.265-5.3-21.166-11.732-35.33-11.309z" fill="#ffb612"/></svg>