<svg xmlns="http://www.w3.org/2000/svg" height="183" viewBox="0 0 192.011 182.324" width="193"><path d="M179.222 39.685C153.629 23.529 95.006 11.171 51.272 1.006L.996 55.046l43.156-.922c-21.489 34.716-17.11 116.354 37.23 127.2-2.798-5.362-7.655-15.214-1.358-27.41l29.416-56.365h5.968c8.082 0 10.742 3.038 7.157 7.321 21.543-.274 34.771-8.42 40.706-17.124-4.519-8.268-18.895-18.003-24.722-21.948h30.141c8.643 0 10.592 3.622 8.557 7.564 14.106-2.773 21.317-21.472 1.969-33.685" fill="#a5acaf"/><path d="M175.772 41.335C140.914 21.784 54.599 8.751 54.599 8.751L17.624 48.357H55.96C27.655 85.756 33.927 161.251 75.551 176.945c-2.952-7.02-4.448-15.167.873-25.534l29.254-57.579h11.173c9.273 0 12.238 3.921 10.98 6.946 7.626 0 21.567-.748 31.684-13.025-8.427-11.774-36.294-25.503-36.294-25.503h47.805c7.025 0 10.536 2.499 9.565 6.73 12.213-5.963 9.038-19.877-4.818-27.647" fill="#fff"/><path d="M52.161 14.276l3.367 4.283-21.525 23.172 75.703 5.789-.422.84H58.439l3.938 3.715c-3.215 4.524-5.953 9.411-8.248 14.525l42.516-8.688-.686 1.027L45.307 75.82l4.453 2.522c-2.095 6.952-3.451 14.153-4.101 21.357l43.037-26.121-.371 1.188-47.459 37.447 4.377 1.097c.245 8.121 1.385 16.037 3.363 23.383l38.633-45.539.215 1.088-38.264 56.151 3.602.246c4.436 9.979 10.737 18.166 18.762 23.254-3.097-6.89-2.11-15.16 1.484-22.525l43.68-87.152-6.773-3.629h63.031c6.454 0 10.03 2.711 9.959 6.351 3.989-3.366 4.879-13.564-8.611-20.967-29.32-16.092-122.17-29.697-122.17-29.697zm67.033 49.264l.881 2.613-12.113 24H127.3c.262 3.425 3.664 6.331 7.195 7.103-2.092-2.795-1.261-5.569.299-7.103h9.133c2.538 0 1.756 3.046-2.373 6.217 6.461-1.476 11.286-4.416 14.441-8.613-5.99-9.143-36.801-24.217-36.801-24.217z"/><path d="M177.66 49.772l.809 3.58c-5.517 1.037-15.278 1.863-18.036 2.087l-.417.831h14.53c5.765 0 8.192 2.734 8.704 4.305.755-2.15.059-7.917-5.59-10.803zm-16.159-7.076c3.222 1.074 10.472 5.119 13.219 8.285h-5.21c-2.055-3.379-8.008-8.285-8.008-8.285" fill="#fff"/><path d="M59.868 26.145l-6.146 6.656 100.47 13.902.543-1.076c-20.54-5.985-61.017-14.252-94.859-19.482zm33.775 27.139l-27.281.619c-1.366 1.871-2.633 3.818-3.812 5.828l30.289-5.41.805-1.037zM84.005 69.27L54.204 79.977c-.662 2.457-1.224 4.95-1.687 7.461L83.481 70.53l.523-1.26zm33.084 13.395l-2.227 4.31h23.654l.516-1.035-21.94-3.277zm-37.19 6.454l-28.81 24.491a99.26 99.26 0 0 0 .904 8.025l27.953-31.187-.047-1.334zm5.092 19.395l-25.145 37.914a54.71 54.71 0 0 0 4.365 6.98l21.369-43.805-.59-1.09z" fill="#a71930"/></svg>