<svg xmlns="http://www.w3.org/2000/svg" viewBox="0 0 180 162"><style><![CDATA[.A{fill:#041A74}]]></style><path class="A" d="M101.6 159.8c-1.7-1.4-3.6-2.6-5.1-4.1-2.3-2.3-2.5-4.7-1-7.6 1.7-3.2 1.5-4.3-.7-7.2-.4-.6-.5-1.9-.2-2.6 2.3-5.1 2.4-10.5 1.5-15.8-.3-1.4-1-2.8-1.8-4.1-2.4-3.7-2.4-7.8-1.7-11.9.6-3.5.7-6.9-.5-10.4-.9-2.7-.7-5.9-.7-8.8 0-2.6-.5-4.7-2.3-6.8-4.5-5-6.4-11.2-7.2-17.7-.3-2.6-.5-2.6-2.9-1.7-2.5 1-5.2 1.7-7.8 2.5-2.5.7-3.4 1.7-3.4 4.3L67.4 92c-.1 2.5-.4 5.1-.8 7.5-.4 2-2 2.7-3.7 1.5-2.5-1.9-4.2-4.4-4.5-7.6-.1-1 .5-2.2 1-3.1.8-1.3 1-2.5.2-3.9-1.3-2.3-1.7-4.5-.1-7.1.9-1.5 1.1-3.7 1-5.5 0-3.5-.2-7.1-.7-10.6-.5-4.2.8-6.4 5-7.1 3-.5 5.8-2 8.6-3.3 1.7-.8 1.5-1.8-.2-2.6-.3-.1-.6-.3-.9-.3-5.1-.6-9-3.5-12.8-6.6-3.6-2.9-5.5-3.2-9.4-.6-2.9 2-5.7 4.3-8.6 6.3-3.2 2.3-6.4 4.6-9.7 6.6-5 3.1-10.5 3.5-16.1 2.4-3.5-.7-4.1-2.6-1.7-5.2 1.1-1.2 2.4-2.3 3.7-3.2 1.7-1.2 3.2-1 4.8.5 1.7 1.5 3.4 1.2 4.5-.8.3-.6.5-1.3.8-1.9.6-1.3 1.5-1.9 3.1-1.9 5.4.2 9.9-1.7 13.4-6 1.8-2.3 3.7-4.5 5.7-6.7 1.9-2.1 3.8-2.3 5.9-.8 8.6 5.9 15.9 4.3 22.8-1.3 2.5-2 4.9-4 7.5-5.9C88.5 23.2 91 22 94 22c.7 0 1.4-.9 2.1-1.4l-1.8-1.5c-.5-.4-1-.9-1.4-1.4-.1-.2-.1-.5-.2-.7-.3-.8-5.4-3.4-6.3-3.4-1 .1-2.1 0-3.6 0a44.29 44.29 0 0 1 2.1-3.3h-6.1c0-.2-.1-.5-.1-.7 2.8-3.3 5.8-6.3 10.2-7.6h3.8c1 .3 2 .6 3 1 5.5 2.1 8.2 6.6 7.5 12.4l-.9 7.9c-.2 1.6.4 2.7 1.5 3.9 1.6 1.7 3.3 3.6 4.3 5.7 2.5 5.2 3.2 10.8 3.2 16.5 0 3.5 1.1 6.6 3.1 9.4 1.3 1.8 2.7 1.9 4.6.9 1.5-.8 3.1-1.2 4.7-1.9.7-.3 1.7-.7 1.9-1.2l4.4-13.4c-3.4-2-4-5-3.6-8.6.3-2.5.2-4.9-1.1-7.2-1-1.7-.7-3.5.5-5 1.9-2.4 3.7-4.8 5.8-7 7.4-7.5 14-9.1 24.4-2.7 5.8 3.6 10.2 8.3 11.7 15.2v4.6c-.8 3.8-3.1 6.9-5.2 10-.5.8-1.7 1.7-2.5 1.7-3.8-.2-5.9 1.9-7.8 4.8-1.1 1.7-2.9 3.1-4.5 4.5-.5.4-1.5.2-1.9.7-2 2.6-4 5.4-5.7 7.7l5.2 6.5c.1.1.3.3.4.3 1.4.3 1.2 1.3 1.1 2.4 0 .9.1 1.8.4 2.7.2 1 .8 1.9.8 2.8.3 3.2-.4 6.2-2.3 8.8-.4.5-.4 1.3-.5 1.9.7 0 1.5.2 2.1.1 1.4-.3 2.9-.7 4.4-1.1-.3 5.2-3.2 8.2-8.2 8.5-1.8.1-2.8.9-3.5 2.7-.7 2-2 3.9-2.9 5.9-.4.9-.5 2.2-.1 2.9 1.4 2.2 1.7 4.5 1.5 6.9-.1 1.2-.4 2.4-.4 3.6.2 5.6 1.7 10.8 4.5 15.7 1.1 1.8 1.5 4.1 1.8 6.3.4 2.6.4 5.2.7 7.8.3 2.1.9 4.2 1.2 6.3.3 2-.3 2.6-2.3 2.6-3.1 0-5.7-1.2-7.3-3.9-11.5 9.9-22 6.6-32.4-2.4.1 1.7.2 3.2.4 4.6.3 2.3-.1 4.3-1.8 5.9-.3.1-.8.1-1.3.1zM145.9 10c.7 2.9.4 3.7-1.2 3.9-2.7.3-4.3 2-5.6 4-.8 1.2-.5 2.4.7 3.3 1.6 1.2 3.3 1.1 4.8.2 1.8-1.1 3.4-2.7 5.1-3.9.8-.5 1.7-1 2.7-1.1.5 0 1.1.8 1.7 1.2-.5.5-1 1-1.6 1.3-1 .6-2.1.9-3 1.6-2.1 1.9-4.3 3.5-7.2 3.9-2.4.3-4.7-.9-5.7-2.9s-.5-4.3 1.5-5.9c1.3-1 2.7-1.8 4.2-2.6.9-.5 1.8-.9 1.5-2.5-1.3.4-2.6.6-3.7 1.1-5.8 2.6-9.9 7.2-13.6 12.2-.4.5-.3 1.8.1 2.4 1.1 1.6 1.3 3.3 1.2 5.2-.1 2-.1 4.1.1 6.1.2 2.4 1.3 3 3.7 2.8 1.2-.1 2.5.2 3.5.8 2.1 1.2 3.1 1.3 4.4-.8a144.79 144.79 0 0 0 4.8-8.6c1.5-3 4-4.3 7-2.7 2.6 1.4 5 3.2 7.3 5.1 1 .8 1.6.8 2.1-.2 1.1-2.1 2.4-4.2 3-6.5.8-3 .2-6-2.2-8-3.2-2.7-6.5-5.2-10-7.5-1.5-1.1-3.5-1.3-5.6-1.9zm-22.2 123.4c-7.4.1-13.1 3.4-17.6 9-1.6 2-1.5 3.1.2 5 .8.9 1.7 1.9 2.7 2.7 9.6 8.1 21 7.2 28.1-2.1 3.1-4.1 2.7-7.6-1.3-10.9-3.7-2.8-7.7-3.7-12.1-3.7zm11 .2c.1-.3.2-.4.2-.5 0-.9-.1-1.9-.2-2.8-.8-5.6-2-11.1-6.1-15.4-1.1-1.2-1.8-2.8-2.4-4.3-.9-2.3-1.2-2.5-3.4-1.4-4.8 2.5-8.8 6.2-12.6 10-1.7 1.7-2.5 1.7-4.4.4-.5-.4-1.4-.8-1.8-.6-.5.3-.9 1.2-.9 1.8 0 3.3-.1 6.6.4 9.9.4 2.7 1.5 5.2 2.4 8.2 8.8-8.1 18.3-9.7 28.8-5.3zm-3.6-37h-3.5c-2.4 0-3.8 1.1-4.7 3.4-.5 1.3-1.4 2.4-2.3 3.4-2.2 2.3-4.6 4.5-7 6.7-2.1 2-4.3 3.9-7.7 3.3-.4-.1-1.3.4-1.4.9-.2.4 0 1.5.4 1.6 1 .6 2.3 1.3 3.4 1.2 1.2-.2 2.4-1.1 3.3-1.9 4.7-4.4 9.7-8.5 15.7-11.2 2.7-1.3 4.1-4 3.8-7.4zm1.3-55c-.5 1-1 1.8-1.3 2.7l-12.2 32.3c-.3.9-.3 2.8-.1 2.8 1.6.4 1.7-1.2 2-2.1l12.9-31.7c.6-1.5.3-2.7-1.3-4zm3.9 3.2c-.3-.1-.6-.1-.9-.2l-5.2 12.8c2.3.5 4.4 1 6.4 1.3.5.1 1.3-.1 1.6-.4 1.1-1.4 2.1-3 3.3-4.6-3-2.2-4.9-5.1-5.2-8.9zm-33.2 58.4c.3.1.6.3.9.4 1.9-.8 3.7-2 4.3-4 .9-2.6 1.3-5.4 1.9-8.1.1-.4-.4-1.1-.7-1.2-1.4-.4-4.5 1.3-4.8 2.7-.6 3.4-1.1 6.8-1.6 10.2zM16.4 56.9c.7-.4 1.2-.6 1.7-1 .7-.7 1.5-1.4 2-2.2.4-.6.4-1.4.6-2.1-.9-.1-1.9-.6-2.6-.3-1.1.6-2.1 1.6-3 2.6-.4.4-.8 1.4-.6 1.8.4.5 1.2.7 1.9 1.2zm123 3.3c.5-.2.7-.2.8-.3 1.9-2.4 3.7-4.7 5.5-7.2.1-.2-.1-.9-.3-1.1s-1-.1-1.1.1c-1.8 2.4-3.6 4.8-5.3 7.3-.2.2.2.8.4 1.2zm-41.2 94.1l-.3.9c1 .8 1.9 1.7 3 2.3.5.3 1.5.3 1.9 0 .5-.4.8-1.3.7-2-.1-.5-.9-1.1-1.4-1.2-1.3-.1-2.6 0-3.9 0zM165.8 32c-1.5 2-2.7 3.6-4 5.1-1.2 1.3-.8 2.3.5 3.4 2.1-2.4 3-5.1 3.5-8.5zm-22.7 122.5c.7-.5 1.5-.8 1.5-1.2 0-.5-.4-1.2-.8-1.5-1-.6-2.1-1.1-3.2-1.5-.5-.2-1 0-1.6 0 .1.5 0 1.2.2 1.5 1.2.9 2.5 1.7 3.9 2.7zM61.2 95.8c0 1.8.8 3 2.1 3.9.3.2 1 .2 1.3 0s.5-1 .3-1.3c-.7-1.3-1.8-2.4-3.7-2.6zm60.1-1.7c-.9-1-2-.6-2.6.3-.5.8-.3 1.9-.4 2.9.5 0 1.3.2 1.5 0 .5-1 .9-2 1.5-3.2zm20.2-42.9l.4-.4-3.5-4.1c-.3 2.5 1.1 4.2 3.1 4.5zm6.6-7.5c.7-1.1 1.3-1.7 1.6-2.4.1-.2-.4-.7-.7-1-.5.6-1.1 1.2-1.5 1.9-.1.2.3.7.6 1.5zm-15.6-13.2c0-2.3 1.4-3.9 2.8-3.9 1.2 0 1.5.7 1.4 1.7 0 1.7-1.5 3.7-2.8 3.4-.7-.2-1.2-1-1.4-1.2z"/></svg>