<svg xmlns="http://www.w3.org/2000/svg" height="95" viewBox="0 0 192.695 94.583" width="193"><path d="M191.16 57.886c-.768-4.676-3.849-11.543-14.183-17.722l-2.187-1.224 3.932-1.321-11.453-4.466c-.98-.382-2.008-.727-3.049-1.061l1.556-1.579-8.782-1.23c-3.795-.532-6.788-.655-9.081-.622l-.089-1.017c0-.003-1.466-10.998-1.466-10.998l-3.736 5.1a22.82 22.82 0 0 0-2.481-3.398c0-.002-9.472-10.712-9.472-10.712l.681 5.666c-3.071-2.142-6.448-4.056-10.184-5.658C105.926 1.107 86.653-.25 68.291 3.912 52.928 7.4 30.75 16.481 12.328 39.962L1.697 53.515 17.7 47.14c.127-.051 12.481-4.867 22.443-6.271 3.715-.524 6.56-.566 4.251 4.523-1.82 4.016-5.954 9.878-5.997 9.937l-8.013 11.655 13.367-4.641c6.429-2.236 12.2-3.337 15.118-3.441 1.042.019 1.234.708.905 1.457-.094.26-.148.395-.87 1.505l-8.382 11.963 13.748-4.924c9.977-3.58 23.093-5.937 27.785-4.144.382.145 1.622.803.394 2.606l-5.4 8.59 9.105-1.385c.626 7.844 4.561 12.122 5.046 12.616l5.792 5.94 2.034-8.044c1.46-5.789 4.211-8.943 6.665-10.661a8285.54 8285.54 0 0 0 .472 3.305l5.369-1.936c4.513-1.632 8.087-3.592 10.659-5.828 3.402-.269 11.716-.765 19.7.025 13.762 1.361 22.993-.469 25.495-1.063 3.347-.792 6.168.638 6.198.654l4.091 2.225 2.207-4.144c.261-.497 1.509-3.084 1.509-6.919 0-.95-.077-1.909-.233-2.851" fill="#fff"/><path d="M189.241 58.683c-.681-4.142-3.484-10.265-12.989-15.952-2.542-1.514-5.303-2.81-8.096-3.911l3.366-1.132-4.623-1.804c-2.29-.894-4.697-1.63-7.178-2.228l.993-1.01-3.543-.499c-5.457-.763-9.225-.676-11.442-.469l.037-1.493c0-.714-.027-1.417-.102-1.986l-.594-4.442-2.466 3.369c-.712-1.979-1.881-4.432-4.013-6.848l-3.828-4.33.434 3.615c-3.441-3.197-8.203-6.558-14.731-9.358-14.809-6.351-33.587-7.663-51.506-3.6-15.025 3.403-36.712 12.291-54.747 35.275l-4.544 5.797 6.842-2.729c.128-.05 12.854-5.091 23.199-6.474 4.056-.539 6.856-.059 7.881 1.356.956 1.326.649 3.949-.837 7.024-2.034 4.219-6.19 10.275-6.232 10.339l-3.427 4.981 5.715-1.983c7.531-2.619 17.024-4.555 19.225-3.116.508.333.783.725.889 1.273.352 1.83-1.222 4.603-1.803 5.435l-3.588 5.111 5.881-2.104c9.395-3.369 26.239-7.233 31.447-3.241 2.408 1.847.158 5.497.057 5.65l-2.311 3.68 4.29-.655 2.099-.325-.035.998c0 8.305 4.201 12.721 4.403 12.932l2.478 2.541.87-3.444c2.438-9.668 8.209-13.015 11.426-14.149l.537 3.773 2.295-.829c5.629-2.032 8.782-4.262 10.512-5.935 2.59-.226 12.078-.943 21.187-.044 13.416 1.329 22.333-.435 24.748-1.009 4.448-1.052 8.063.872 8.101.891l1.766.964.948-1.777c.061-.112 1.203-2.335 1.203-5.696 0-.755-.059-1.568-.201-2.432" fill="#bb9334"/><path d="M175.072 44.736c-3.968-2.806-9.314-4.848-14.5-6.308 2.16-.698 4.322-.652 4.322-.652-3.323-1.27-6.792-2.064-10.02-2.564l1.208-1.084c-5.911-1.007-10.037-.931-12.485-.676.308-1.211.558-3.062.242-5.532 0 0-.717 2.129-2.456 3.452-.23-2.763-1.112-6.761-4.112-9.473l.556 4.878c-2.642-3.98-7.671-9.068-17.177-13.515-25.843-12.079-71.378-7.5-96.375 24.784 0 0 9.72-4.858 23.187-5.18 7.056-.166 8.77 3.785 6.2 10.444-2.585 6.692-7.116 12.564-7.116 12.564s30.476-10.8 20.854 4.203c0 0 23.006-6.89 29.907 1.192 3.208 3.75-.528 8.995-.528 8.995l6.526-1.412c-2.117 8.289 1.589 13.583 1.589 13.583 2.693-10.836 12.085-13.722 15.41-14.269l.719 2.936c5.572-2.015 8.192-4.158 9.69-5.924 11.798-1.855 19.81-.269 28.906.226 13.249.724 20.097-1.584 22.285-1.57 1.606.014 3.511 1.415 3.511 1.415s5.506-9.295-10.343-20.515"/><path d="M128.985 33.189c.822 1.948-.311 4.11-2.532 4.832s-4.689-.274-5.511-2.222.312-4.115 2.532-4.834 4.689.272 5.511 2.223" fill="#c60c30"/><path d="M123.272 36.052c-.618-1.463.276-3.108 1.992-3.667.663-.215 1.35-.239 1.978-.1-.857-.542-2.019-.711-3.108-.355-1.721.558-2.614 2.199-1.992 3.672.379.902 1.246 1.528 2.257 1.745-.497-.314-.897-.754-1.127-1.294M82.132 47.561l.932-.596.528-.327.437-.26.574-.336.429-.249c4.106-2.319 9.108-4.442 14.745-5.781a9.86 9.86 0 0 0 .551-1.012c1.892-4.07-1.1-8.147-6.381-8.836 5.102-1.087 10.527-4.453 11.633-6.936 1.366-3.073 2.27-8.46-11.011-9.816S58.246 17.447 48.309 25.16c0 0 15.365-3.253 31.171-4.007-2.352.8-5.287 2.172-6.946 4.196-2.791 2.77-6.958 8.434-11.575 24.593l.669-.081 11.465-1.148 5.943-.343 1.981-.059.225-.153.465-.32.426-.277m82.062 14.806c6.598-.037 11.536-.631 15.419-1.538-14.336-6.144-42.403-8.772-46.75-8.417 0 0-2.376.669.359 3.296-3.825-1.506-7.644-4.376-7.908-5.83-.279-1.544 2.515-1.976 9.131-1.199 24.773 2.926 46.212 7.073 49.112 13.142 0 0 1.512-7.598-10.839-14.833-10.568-7.046-26.805-8.198-26.805-8.198l4.102 3.307-7.632-.661 6.042 4.369c-6.483-2.12-23.946-7.841-38.416-4.224 0 0 15.878-.178 23.125 4.147-26.821-4.378-40.769 4.937-40.769 4.937 15.087-4.308 27.127-3.119 31.08-2.529-6.345 1.516 1.125 6.16 5.69 8.587.518 1.274 1.769 3.874.545 6.064 0 0 1.375-1.75 2.378-4.324l3.712 2.98c11.08-1.368 19.253.967 28.426.923" fill="#fff"/><path d="M128.782 34.377c.449 1.167-.193 2.472-1.431 2.917s-2.601-.143-3.049-1.313.198-2.47 1.433-2.912 2.601.14 3.047 1.308"/><path d="M89.305 15.177c-1.968.005-4.35.118-6.936.464-2.728.365-15.992 1.715-27.285 7.228 9.877-2.405 21.549-3.287 28.94-3.554l6.522-.013c2.211 0 4.26.653 5.046 1.943.814 1.334 1.039 2.934-.493 4.888-.843 1.077-1.833 2.212-4.706 3.382l3.312-.706c4.95-1.058 9.443-3.839 10.476-5.995.754-1.575.797-2.837.188-3.837-1.242-2.039-4.273-3.245-9.655-3.519 0 0-2.129-.289-5.408-.28zm-4.46 6.816c-1.509.021-6.558.765-10.492 4.518-3.655 3.231-7.602 11.622-10.742 21.615l10.297-.824 5.135-.221a37.87 37.87 0 0 0 4.203-.234c3.937-2.429 8.863-4.742 14.487-6.308a8.27 8.27 0 0 0 .905-1.503c.566-1.213.631-2.72.228-3.912-.607-1.809-1.817-3.014-5.629-3.906-5.017-1.171-12.345-.655-12.345-.655 1.686-4.094 2.945-6.488 4.206-8.563-.068-.004-.152-.006-.253-.005zm-4.436 9.605h5.454c2.815 0 4.109 1.154 4.702 2.126.929 1.522.763 3.573-.388 6.142-2.22 4.955-7.599 5.401-9.214 5.401l-6.189.236c2.682-8.51 5.634-13.905 5.634-13.905z" fill="#bb9334"/><path d="M357.89 76.613l-10.666.033s-1.842 1.517-5.215 6.617c12.406.108 17.449 6.297 10.883 20.393-.822 1.785-1.702 3.308-2.607 4.615 7.605-2.263 13.489-6.469 16.383-11.486 6.362-11.112 1.486-19.082-8.777-20.172zm-37.146 49.139l-3.387 6.879h5.324c12.654 0 19.672 7.116 11.793 24.086-2.014 4.329-4.711 7.663-7.758 10.238 8.045-1.989 16.742-6.809 21.529-17.111 7.892-16.977.86-24.092-11.781-24.092h-15.721z" transform="matrix(.25 0 0 .25 1.697498 1.539379)" stroke="#000" stroke-width=".6"/><path d="M88.757 10.791c-20.748.136-39.99 7.797-52.198 19.488 0 0 17.098-5.38 22.227-.094 5.965 6.147-3.073 20.601-3.073 20.601l5.911-.926-.669.081c4.617-16.159 8.785-21.823 11.575-24.593 1.659-2.024 4.594-3.397 6.946-4.197-15.808.751-31.173 4.004-31.173 4.004 9.938-7.712 32.977-13.101 46.26-11.746s12.377 6.743 11.011 9.816c-1.106 2.483-6.531 5.849-11.633 6.936 5.282.689 8.273 4.766 6.381 8.836a9.85 9.85 0 0 1-.552 1.012c-5.637 1.339-10.64 3.461-14.745 5.78l-.429.249-.574.336-.437.26-.527.327-.437.276-.496.32-.426.277-.465.32c-3.374 2.319-5.824 4.641-7.094 6.442 0 0 34.54-6.996 28.558 10.4l8.922-2.445c-.63 1.1-1.626 2.355-2.98 3.866-4.217 4.684-3.927 9.137-3.927 9.137s1.238-4.872 9.218-8.213c7.277-3.041 8.955-8.211 8.955-8.211s2.424 3.583.44 8.6c0 0 3.352-.837 6.351-4.952 1.222-2.186-.028-4.788-.546-6.061-4.564-2.427-12.035-7.071-5.69-8.587-3.952-.59-15.993-1.778-31.08 2.529 0 0 13.947-9.315 40.768-4.937-7.247-4.326-23.125-4.147-23.125-4.147 5.525-1.382 11.484-1.399 17.102-.779-2.258-.628-5.328-1.359-8.937-1.908-5.516-.653-10.781-.362-15.638.536 5.457-5.664 15.399-4.92 15.399-4.92-6.63-4.467-15.275-3.037-15.275-3.037 9.692-5.016 20.467-3.318 20.467-3.318-3.388-4.474-11.389-5.458-11.389-5.458 15.861-.642 21.417 7.693 21.417 7.693-3.954-1.723-6.771-1.463-6.771-1.463s3.812.618 6.393 5.441c2.733 5.11 5.051 4.963 5.051 4.963s4.346-16.464-24.353-25.028a84.51 84.51 0 0 0-24.717-3.507zm-1.558 11.564c-.818 1.234-1.995 3.305-3.469 6.7h2.381c1.135 0 2.199-.165 3.157-.448a7.62 7.62 0 0 0 .652-1.154c1.642-3.524.381-5.071-2.721-5.098zm-6.163 12.342c-2.191 4.639-3.554 8.889-3.554 8.889h3.395a10.28 10.28 0 0 0 2.499-.308 7.38 7.38 0 0 0 1.939-2.56c1.97-4.243.215-6.022-2.948-6.022h-1.331z" fill="#241773"/></svg>