<svg xmlns="http://www.w3.org/2000/svg" viewBox="0 0 193 183"><style><![CDATA[.A{fill:#004990}.B{fill:#fff}.C{fill:#FDDBC0}.E{fill:#E03A3E}]]></style><path class="A" d="M37.3 108.5c.7-4.3 4.3-7 7.2-10.2 5.9-5.6 8.7-13.2 14.2-18.9-3.3-7.1-10-15.2-5-23.6 4.8-6.2 8.8-12.5 15.2-17.4.3-1 .3-1.6.9-2.3 1-1.3 2.9-2.4 4.9-3.1.5-.2 2 .2 2.4 0 1.4-.5 2.2-1.7 3.9-2 .3-.2.1-.6.3-.8 1-1.9-2.1-4-.7-6.2-2.7-5.4-9.7-3.5-12.4-8.4 0 0-.6-1.1.1-1.5.6-.5 3.4-1.3 4.2-1.9.8-.5 3.5-2.2 4.5-2.7s6.7-2.4 6.9-2.5c3-4.3 8.2-5.3 13.1-6 3.8.1 7.4.3 10.2 2.7 5.9.6 12 .9 16.6 4.6 3 3.5-2.5 3.2-3.6 5.6-2.4 1.4-4.2 3.5-6 5.8.2.9.2 1.8 1 2.5 3.1-.9 7.5-2.6 10.3 0 5.5-.6 10.9-.2 15 3.3 5.1 6.9-.2 14.7-2.2 21.4l-.4 1.4c1.2-1 1.9-3.7 3-4.3l.2 3.5c1.4 7.2 2.1 14.7 2.3 22l4.3 11c.2 3.1-2.7 5.1-1.4 8.4 5.1 5 3.3 13.2 7.7 18.6.6 1.8.5 4 .7 6-.8.9-.8 1.5-.4 2.1.2.3.8.5 1 .8.3.6-.1 1.7-.3 2.4 1.9 1.4 1.9 2.6 1.9 3.6 0 .3.8 1.4 1.3 2.1.5 1.4-.4 1.6-.3 2.3s1.4 1.2 1.3 2.3c0 .9-.6 2.2-.6 2.3.2.8.8 1 1.2 1.4.7.6.9 1.5 0 3.1-.1.7.6 1.1.9 1.8s0 1.7-.7 2.4c-.1 1.4 1.8 2.7.6 4.1 0 1.3.6 1.2.7 1.8.1.9-.5 1.8-.5 2.3 0 .3.5.8.5 1.1.1.7-.4 1-.3 1.6 0 .2.7 1.1.7 1.4-.2.6-.5.6-.4 1.1.4 2.5 4.3 3.6 6.1 5.4 3.6 1.9 7.6 3.5 10.5 6.5.4.4.5 1.1.8 1.5 1.1-.7 1.9-.1 2.9.3.6.3 1.2.5 1.9.3.6 1.3 3.1.6 2.7 2.2-1.4 1-3-2.1-3.9.3-.7-1-1.4-.4-2.3 0-2.4-.5-3.7 2.6-6.3 1.2l-1.4-.8c-1.3.1-2.7.2-4.1.2-.6 0-1.1.4-1.7.4-.5 0-1-.3-1.4-.3H161c-.8.2-2.4.2-3.5 0-1.5.2-3.6.5-4.5-1-1.7.5-4 .6-5.9.6-.1 0 .6-.5.5-.9-.2-.3-.8-.5-.8-.5-.1 0-.9.1-.9.5s.9 1 .7 1c-1.7 0-3.3-.1-4.8.2-1.1-1-2.8-1.1-4.3-.6-2.7-.9-8 2.2-8-2.5 1.2-1.4 2.7.8 4.2-.2 1.3 0 2.8-.8 3.4-1.6.8-.1 1.9.5 2.5 1.7.5-.8.8-1.4 1.5-1.6.5-.1 1 .5 1.6.5.4 0 .5-.4 1-.5.5 0 1.4.4 1.6.4 1.3-2.3-.7-5.2.1-7.7-.1-1.7-.7-3.9-.2-5.8 1-5.7-4.3-8.8-6.9-13.3-1.7-2.4-3.7-4.9-4.3-8-2.2-3.1-2.5-7.1-3.5-10.8-1.8-1.4-3.9-2.7-3.9-5.2 2.5-3.6-2.6-3.5-3.7-6.2-1.2-.8-1.8-2.7-3.5-3.1-3.6 3.8-3.5 9.3-7.9 12.7-2 1.2-3.5 1.3-5.7 1.3-.7 0-2 .6-2.7.5-.3 0-.8-.5-1-.5-1-.1-2 .4-3 .3-.8-.2-.3-.3-.7-.5-.5-.2-1.6-.2-2.2-.2-1.2-.4-.4-1.5-.4-2.5 1.4-1.8 2.3-3.8 3.3-5.8-1.6-.2-3.6 1.4-5.2.2-.4-2.6 2.7-4.1 3.5-6.4 1.6-1.2 3.5-2.6 4.6-4.4-.7-3.4-1.4-6.9-3.6-9.7-1.5-.2-2.9.3-3.1 1.8-.4 3.7-1.6 7.1-1.1 11.2-2.7 1.6-7.1 1.2-9.6-.4-.2-2.3-.2-4.9-2.2-6.2-.6 1 .4 2.1.6 3.1 1.4 3.1-.3 7-1.2 9 .3.3 1.1.9 1.3 1.2 1.1 2.3-.2 5.9 1.6 8.1.7 4.6-3.5 7.2-3.1 11.6-1 1.7-2.4 3.5-1.5 5.8 4.9 4.3 10.2 8.2 15.2 12.1.4.9.2 1.8.5 2.5.6.9 2.6 3.3 3.3 5.2 3.5 5.7 2.2 14.5-1.2 19 1 2.2 2.1-.2 3.1-.1 2.2 2.3 5.2-.6 7.5 1.8 2.5-1.5 5.6 2.3 7.4-1 1.1.1.8 1.9 1.9 2.5.8-.9 1.7-1.9 2.7-.4.2.3.8.5.6 1-4.3 1.2-8.4-.8-12.7 1-1.3-.6-2.7-1.1-4.3-1.1-.4-1.8-1.4.2-2.3 0-2.2 1.6-4.6-.8-6.8 1-1.7-.6-3.5 0-4.8 1-3.1.5-6.1-.8-9.2-1.2l-.4 1-3.6-.7c-1.4.5-3.5-1.3-5.1.2-.4-.9-1 .1-1.5 0-1-.5-2.7-1.6-3.1.2-2.2-.5-4.9.1-7.2-1-2.1 1.4-3.8-.2-5.9-.2-.6.4-1.1.4-1.7.5-1.2.1-3.3-.8-4.8-1 1.9-.8 5.1.4 6.8-.3.3-.1.1-.7.4-.9 1.1-.2 1.9.2 2.7 1 .9.1.4-1.2.7-1.4.4-.3.8.4 1.3.5.3.1.9-.5 1.2-.4.4.1.8.1 1.2 0 .2.3.6.6.9.6.6-3 1-.4 2.7-1.3 1.3-.3 4 1.2 5.1-.4.9-.3 3.8.2 4.8-.9.2-.2-.1-.6 0-1-2-1.1-2.6-3.4-4-4.8-1.4.5-3.4.2-3.5-1.5.1-.7.1-1.2 0-1.9 0-.2-.4-.5-.5-.7-.1-.7 0-1.5-.3-2.2-.9-2.5-2-4.9-1.2-7.8.9-4.8 1.4-9.8 1.8-14.9-.8-1.6-3-2-3.3-4-.2-1.4-.2-3.3-1.5-3.9l-.6-.6s-2.2-1.2-2.3-3.5c0-2.1 1.1-3.3 1.2-3.6 0-.4.2-.8.2-1 .4-2.3.6-4.7 1.4-6.9-1.5-.2-2.8 1.3-4.5 1.3-.9 1.8-1.9 3.5-3.3 5-.6 1.9-1.4 3.7-1.7 5.6-2.3 6-7.5 10.4-12.5 14.7-1.5 2.2-3.1 4.5-3.3 7.3.4 2.7 2.5 5.3 1.2 8.3-.5.2-1.3 0-1.4.8v1c.9.6 1.7-.5 2.1-1.2.8-3.1 3.6.2 5.6 0 .6-1.2 2.3-.7 3.3-.6 1.6.2 2.2 3 4 1.4.4-.4.7-1.4 1.5-1.1.3.4.2 1 .8 1.3 1.1-.2 2.4-2.3 3.5-.3 1.7.5 3.5.4 5 1.5-1.3 1.1-3.5-.7-4.8-.4-.3.1-.3.6-.5.9-.3.2-1.2-.1-1.5 0-.6.1-.4.4-1 .3-1.3-.2-2.6-.8-3.9.2-.5-1-1.8-.5-2.5-.4-.3.6-.6-.2-1-.2-2.4-.2-4.7 2.2-6.8.2-1.4 1.1-3.5.6-5.1.6-1 1.4-3.1.4-4.2.2-3.2-.3-5.7 2.3-8.9.8-1.1 1.2-2 .2-3.1-.4-2.7-.8-6.1.9-8.7-.8-1.7.5-3.5.1-5.1-.4 0-1.2 1.8-.6 2.3-1.7 1.3.2 2.5.4 3.2-.3.1-.1.1-1 .2-1.2.5-.7.8-1.4 1.2-2.2 3.9-3.5 9.1-5.1 11.6-10.1 0-1.2.1-2.4 1.4-3.2-.4-.8-.5-1.7-.4-2.4 0-.2.2-.2.2-.4.2-.9.3-1.9-.2-2.7 1-1.9-1.2-3.8 1-5.4.3-.6-.2-1.3-.2-2 0-.4.8-1.1.8-1.5 0-.8-.4-1.5-.3-2.2.1-.8.7-1.6 1.5-2.3-.6-1.3 0-2.3.7-3.1.3-.3.7-.2.9-.5.5-.6-.4-.9.3-2.1.6-1.2 1.2-.9 1.5-1.2.8-1.1.6-3 2.6-3 1.4-1.2 1.3-3.1 2.1-4.6l.8-1.8zm91 61c-2.2-.2-5.1-.2-7.4-.1-1 .2-2.3.1-3.4.2-1.2 0-2.3.1-3.1-.9 1.7 0 2.1-1.3 3.1-1.3.6 0 .9.8 1.4.8s.5-.6 1.1-.8c.5-.1 1 0 1.5.2 1.2.4 1.7 1.2 3.4 1.1-.2-1.6.7-1.6 1.8-1.1.4 0 .7-.3 1-.5.4.8.2 1.6.6 2.4zm-15.2-.4H112v-.7c.6-.2.8.4 1.1.7z"/><path class="B" d="M63.1 131.7c.7-.7.9-1.8.1-5.2-.4-.7-.8-1.9-1.6-1.9 0 .2-.4.6-.3.9 1.1 2.1 1.8 3.8 1 5.8 0-.1.5.5.8.4zm-25.9-22.2c-.9 2.7-1.3 5.8-1.3 6.9.5 1.9 1.1 4.2 3.3 4.8 1.8.6 3.7.4 5.4.4.5.2 0 .8-.2 1.1 2.4 1.4 4.5-1.8 6.9-1.5v.5l-.8.7c1.6.9 3.3-.3 4.6-1.4.2-.6 1-1 .8-1.8-.4-1-1.4-.4-2.1-.6v-.4c3.2-.2 5.9-1.7 8.4-3.5-3.9-5.5-3.1-13.5-2.1-19.9 0-.2 0-.5-.2-.6-1 .6.4 2.6-1.1 2.7-1.9-3-.9-6.8-1.1-10.2-2.5 1.8-3.1 5.1-5.2 7.2-1 1.6-1.7 3.3-2.2 5-.6.3-.5 1.3-1.3 1.2.2-2.1 1.8-3.5 2.3-5.5 2.1-3.7 5.1-7.6 7.2-10.9l-.2-.2-3.1 3.5c-.5-.6-.9.3-1.3.6-3.5 4.1-4.7 9.1-7.6 13.5-.2 1-.1 2.4-1.4 3.1h-.4c-.2-2 1.9-3.4 2.2-5.4h-1c-2.5 2.1-3.9 4.6-6.4 6.2.2.1-1.2 2.1-2.1 4.5zm31.7-94c3.3-.8 6.3-3.2 9.5-4.7 4.1-1 8.1-2.7 12-3.5 1.4 1.2-.5 4.1 1.9 4.4 2.5 0 6 .7 8.6-.3.3-.1 1-.1 1.3-.3s.3-.8.6-1.1c.6-1.7-2.5-4.1.7-4.4 5.4-.4 12.2 1.2 17.1 2.3.4 0 .3-.3.7-.2-4.8-2.7-11.8-3-17.5-3.4-1.2.3-2.5.7-3.1 1.9.2 1 .9 2.1.3 3.3-1.8 1-3.7.9-6.1 1.1-1.5 0-2.7-.6-2.7-2.1.1-.8.5-2.1-.8-2.2-2.3.3-4.5.4-6.6 1.1 0 0-1.9.5-2.3.5s-4.7 1.8-5.6 2.2-3.4 2.1-4.1 2.4c-1.5.6-4.1 1.6-4.1 2.2-.1.7.2.8.2.8z"/><path class="C" d="M96.4 19.5c1.2-.7 2.4-2 3.7-2.4l.3 2c1 .1.9-1.3 1.7-1.5 1.5-.2 3.1-1.4 4.8-.5.3.6.6 1.3.8 2 .1.2.5.4.6.6.1.5-.2 1.2-.1 1.7l.3 2.2c0 .2.4 0 .4.2.1.5-.2 1.5-.1 2 .1.4.5.7.6 1.1s-.2.7-.1 1.1c1.4 5.9-2.7 8.4-3 13.6-.1.5-.9 1.8-1.4 2.2-1.6 1.3-3.8 1-4.1.9-.6-.3-.8-1.1-1.2-.6-.1.2-.1.9-.3 1-.3.3-3.1.4-3.7-.1-1.9-1.4-3.2-4.4-5.8-4.7-4.3-3.1-3-8.7-4.3-13.2.6-1-1.2-3.1 1.1-3.6-.7-.7-.4-2.1-.6-3 2.1-.2 4.5 1.7 6.4-.3-1.6-2 1.3-1.9 1.5-3.5 2.2-.3 1.6 2.1 2.5 2.8z"/><path class="A" d="M105.3 18.9c-.8-.2-2 .2-2.5.8.2-1 1.5-1.8 2.5-1.2v.4zM91 18.7c.1.2.1.6-.1.5l-1.8.1c-.2-.5.8-1.1 1.9-.6zm15.1 2.2c-.6.7-2.3.8-2.6 2.2.6.6 1.4.5 2.2.7.6.6-.2 1.1-.6 1.5-1.7-.6-2.2 2.2-3.5.6-1.1-.4-.5 1-1 1.3-1-.1-1.8 1.1-2.9.4-.3-.6-.1-1.4-.2-2.1.5-.7 1.5-.3 2.1-.2 2.3-1 2.8-3.4 3.9-5.1 1-.2 1.8 0 2.6.7z"/><path class="C" d="M113.7 22.5c-.6 1.2-.8 2.6-1.2 4.1-.2.9-.4 2.1-.9 2.7-.2.2-.9.3-1.3-.4 0-1.1.7-1.7.2-3.8.8-.6 1.6-.9 1.9-1.6.2-.5-.1-1.2-.2-1.8-.1-.4.1-.8.1-1 1.7-.4.9 1.4 1.4 1.8z"/><path class="B" d="M127.4 25.5c-5.3-1.8-8.3 3.2-13.4 1.9 0 0-.5-.3-.4-.5s.2-.5.2-.5c2.4.9 5-.4 7-1.6-1.2-.5-3 1.1-3.9.5 1.5-1.1.2-2.7.7-3 .3-.5 1.4-.7 2.2-.6 1.2-.2 2.3.9 3.5.2.8 1.4-1 2-1.9 2.5 0 0 2.3-.7 4.4-.2s3.2.9 4.4.5c.1-.2.8 1.3-2.8.8z"/><path class="A" d="M94.7 25.5c.8.5 1 1.8.6 2.7-1.1 1-2.6-1-3.9.2-1-.2-2.1-1.4-3.3-1 .5-.7.7-1.5.6-2.5-.4-.7-1.7-.2-1.2-1.4-.1-1.1 1.4-.2 2.2-.2 1.4 1.2 2.7 4.2 5 2.2z"/><path class="B" d="M116.8 23.8c.2.8-.6.4-1 .8-.3-.1-.8.2-1-.2 0-1 1.5-1.4 2-.6z"/><path class="C" d="M84.6 28.8c-.4 1.1.9 2.3.4 3.4-2.6-.3-2.1-4.3-3.3-6.2.2-.8 2 .5 2.5.5-2 .8-.2 1.5.4 2.3z"/><path class="B" d="M126.9 27.5c-.2 13.3-7.7 25.2-17.6 34-.2 0-.5-.5-.6-.8 1-1.5 3.3-2.5 3.5-4.2-.7.6-1.9 1.4-2.6 2 .3-.6 2.1-2.5 1.9-3.1-1.1 1.2-1.8 2.3-2.7 2.2.2-1.4 2.6-2.3 3.3-3.9 2.5-3.2 5.6-10.6 5.6-10.6-1.4 1.7-2.5 4.6-4.2 7.2-1 1.5-2.5 2.9-3.4 3.9 4-6.9 10.5-18.2 10.8-27.1 1.2-1.4 4.7-1.6 5.8-.9l.2 1.3z"/><path class="A" d="M104.7 26.5c.2.5-.5.9-.8 1-.2 0-.2-.1-.4-.2.2-.4.6-1 1.2-.8zM90 29c0 .6-1 .6-1.5.8-.3-1.1 1-1.2 1.5-.8zm11.2 3c0 .7-1 .5-1.4.8-.9 1.3-2.6 1.3-3.9 1-.4-1.2-3.1.2-1.9-1.8.2 1.7 2.2.4 2.9 1.6 1.6 0 2.3-1.4 3.5-2.2v-1c.8.3.8 1.3.8 1.6zm2.9.3c-.4-.1-.9.2-1.2-.2l3.3-1.5c.1 1.2-1.3 1.1-2.1 1.7z"/><path class="B" d="M111.6 33.7c.3 1.5.7 3.6-1.1 4.6-.7.7-1.6 1.7-2.5 1.8.1-2 1.5-4.7 2.4-6.9.1-.4.5-.7.5-1 .5-.2.6 1 .7 1.5z"/><path class="A" d="M90 36.3c-.3-1.5 1.4-2 2.3-2.7.3 1.2-1.6 1.6-2.3 2.7z"/><path class="B" d="M76.3 35.2v1c-.2-.1-.3.1-.4.2.2 1.4 1.2-.2 1.9 0 2-.6 3-3 5.4-1.9 1.6 1.1.2 2.8-.5 3.7-2.4 1.4-4.1 2.3-6.9 3.3-1.6.8-2.8 1.7-4.4 2.5-.5.2-1 .5-1.6.5-.5-.2.2-.7.7-1.1 1-.5 1.7-1.4.6-1.9-1.8.2-3.2 1.4-3.4 3.2l-.6-.1c-.1-2.2 1.1-2.6 2.2-3.6 1.8-.3 3.7-1.5 4.9-2.9-.9.6-2.5-.2-2.7-1.3.2-1.7 2.2-1.6 3.3-2.3.5 0 1.4-.1 1.5.7z"/><path class="A" d="M105.5 34.8c.5 2.9-3 3.3-4.9 4.4-2.4.1-4.3-.8-6.5-1.3-.3-.1-.7 0-1 0-.3-.3 0-1-.1-1.4.3-.2.6.1 1 .1 3.2.1 6.3-.1 9.2-1.4.2-.1.5 0 .6-.1.2-.1.3-.4.6-.5l1.1.2z"/><path class="B" d="M83.1 36.1c-.9 1.4-2.8 2.2-3.9.6h-.6c1.9.6 1.9-2.7 3.6-1.5l.9.9zm-1.2 0c.2.5-.4.4-.6.6H81c-.4-.4.5-1.1.9-.6zm14.9 1.3c1.5-.3 4.3-.6 6-1.2.4-.1.2.3.5.2-1.5 2-4.8 1.9-6.7 1.4.1-.1 0-.3.2-.4zm16.8-.9c0 .7-.3 1.7-.3 1.7-2.4 2.7-6.8 5.1-8.2 11.2-.2-7.4 5.6-8.9 7.7-11.9.2-.3.3-2.9.5-3.2 0 0 .4 1.5.3 2.2z"/><path class="A" d="M91.9 36.9c.2.8-.6 1.1-.6 1.8-.3-.2-.3-.7-.3-1.2.4-.2.4-.8.9-.6z"/><path class="B" d="M71.7 38.5c0 .2.1.5-.2.6-.9.1-.6-1-1.1-1.4l.2-.4c.6 0 .7.7 1.1 1.2zm7.5-.4c.2.5-.2.9-.6 1-.2-.3-.5-1.2.2-1.2.1.1.2.2.4.2zm8.1 6.5c1.4 2.3 5.3 1.2 7.1 2.8-2.3-.9-6.8.4-7.6-2.7-.8-2.2-.6-5.2-.4-7.4.7 2.2.7 5 .9 7.3zm-9-3.7c1.6-.6 4.2-2.3 5.6-3.2-.4 2.5-3.9 2.9-5.6 3.2zm15.5 4.5c-1.9.1-4.3.2-5.5-1.5v-3.1c1.9 1.1 4.8 1.9 5.5 4.6zM81 41.9c2.4 3.5 5.1 7.2 8.4 10.4-.2.2-.8.2-.8.6 2.3 2.6 5 3.8 7.4 5.9-.1.4.4 1.3 0 1.5-.6-.1-1.5-1.1-2.2-.9.5 1.7 2.6 1.7 3.7 2.5-.2.1.1.7-.1.8-.4.2-1-.2-1.5-.2-.3 0-.4.5-.7.4-2.1-.5-4.3-2.5-6-3.2-5.7-3.6-9.9-9.6-13.9-14.7v-.7h.6c2.6 2.5 3.7 6 6.8 8.4l.4-.4-6.6-8.7c.5-2 2.7-1.7 4.5-1.7zm-10.6.4c-.4.5-.6 1.4-1.4.7-.1-.7.7-.7 1.4-.7zm5 .2c-.5 1.6-3.4 2.6-4.6 3l-1.3-.2c1.3-.7 4.4-2 5.9-2.8zm36.5 2.7l-.1 4.2c-1 2.7-3 5.2-4.9 7.4-.1.1-.8-.2-.9-.6-.4-1.7.5-4.5.2-6.3.2-2.6 1.4-5.7 4-6.8 1.4-.5 1.2 1.4 1.7 2.1zm-8.2.8c-2.2.8-5.4 2.7-7.2.6 2.7.3 5-.7 7.2-.6zm.2 1.5c-.6 2.2-3.3.7-4.6 1.9 1 .5 2.4-.2 3.2.6-.6 1-2.4 1-3.6.7-.7-.4-1-1.4-1.4-2.1 2.1.1 4.3-1.4 6.4-1.1z"/><path class="A" d="M110.9 48.4c0 1.2-.6 2.3-1.9 2.3-1 .5-1.4-.6-1.8-1.1-.2-1.1.9-2.3 1.9-2.3.7.2 1.6.4 1.8 1.1z"/><path class="B" d="M98.1 52.7l.4 5.4c-1.8-.6-4-1.8-5.3-3.2-.8-1.3-.8-4.8-.7-6.7 2.3.4 5.1 2.1 5.6 4.5zm11.8-3.9c.2.6-.3.8-.6 1.2-.5 0-1 0-1.1-.6-.4-1.2 1.5-1.2 1.7-.6zm17.7 11.4c.1-4.2 4.9-8.6 7.5-12-1.9 3.9-5.3 8.4-7.5 12z"/><path class="A" d="M97.4 52.5c0 1-.7 1.6-1.6 1.9-1 .2-1.7-.5-2.5-1 .1-1 .5-2.3 1.5-2.7 1.2-.2 2.2.9 2.6 1.8z"/><path class="B" d="M105.3 53.5c-.8 0-.4 1-.8 1.4l-2.1-1.2c.3-1.2 1.7-1.7 2.5-2.5.7.5.2 1.5.4 2.3zm-4.1-.6c-.6.6-1.1-.4-1.4-.6.4-.4 2.5-1 1.4.6zm-5-.2c.1.4 0 .7-.4 1-1 .1-1.4-.9-1-1.7.7 0 1.4-.2 1.4.7zm34.3 6.6c.3-1.7 2.1-4.6 3.3-6.1.2 1.8-2.2 4.5-3.3 6.1zm-30.1-4.4c.3.6.3 1.8 0 2.3l-.7-.1-.2-3.5.9 1.3zm32.7 14.2c-.6 0-.3-1.2 0-1.4 1.9-3.9 4.8-7.8 6.4-11.8-.9 4.2-2.9 10-6.4 13.2zM101.5 58c1.9-.4 4.1 0 6 0 1 2.4.3 5.8.1 8.5-1.8 1.1-4.4 4.8-6.6 1.5-3.4-1.5-1.7-6.2-1.9-8.7.6-.7 1.4-1.1 2.4-1.3zm12.6 2.6c-.1.8-.5 1.6-.8 2-.3.1-.8.4-1.3.3-.4-.9.9-1.5 1.1-2.4 0 0-.4-1.4 0-1.6.5-.2 1.2.8 1 1.7z"/><path class="A" d="M100.2 59.9c1-.8 4.3-.5 6.2-.5-.3 0 .3.3-.5.4-1.3.2-4 .1-5.1.5-.4.1-.1 1.1-.2 1.2.9.9 2.1-.6 3.4-.3.9 1 2.2-1.3 2.2.6-1.4 1.3-6.9-1.3-5.2 2.9-.2.2-.5.6-.8.4-.1-1.2-.6-5 0-5.2z"/><path class="B" d="M112.2 60.4c.4.8-.6.8-.9 1.5-.3 0-.5-.3-.4-.7-.4-.7.5-1 1-1.2.1-.1.4.3.3.4zm-20.9 5.2c.1-1 0-2.1.5-2.6.2-.2 1-.3 1.3-.1.6 1.1-.4 2.9 1 3.7-.4.7-2.1 1.6-3 1.3-.1-.5.1-1.4.2-2.3zm28.2.7l5.5 1.3c.1 1.4-1-.2-1.4.8l1.8.7c-.2.3-.8.1-1 .6.6.2 1.4.4 1.5 1l-1 .4.6 1-16.6-5.2c-.6-.8-.2-1.8.2-2.7 1.2-.3 2.9 1.4 3.3 0-1.4.2-2.4-1-3.3-1.4l5.5 1.7 4.9 1.8z"/><path class="B" d="M114.2 64.7c-.6-.1-1.1-.2-1.6.2 3.2 1.1 6.4 2.5 9.6 3.5.3-.1.8.1 1-.2-.6-1.1-2.6 0-3.1-1.4-.2 0-.6.2-.8-.2l-5.1-1.9z"/><path class="A" d="M104.3 65.3l-2.7-.4v-.6c1.4-.5 3.4.3 4.5-.7.5.9-1 1.4-1.8 1.7z"/><path class="B" d="M96.6 64.7c.1.6-.6 1-1 1.1-.9 0-1.4-.6-1.8-1.3.5-1.7 2-.2 2.8.2z"/><path class="A" d="M105.3 66.6c-.5 1-1.9 1.1-2.9.8l-.4-.6c1-.2 2.3-.4 3.3-.2z"/><path class="B" d="M100.1 68.7c-4.8 3.2-12.3 8-16.9 9.9.1-.1.1-.6.2-.8.6-.5 2.3-1.1 2.4-1.3.1-.1.1-.3.1-.4-.8-.4-1.8.7-2.7.7-.2-.6 1-.8 1-1.3-.5 0-1 0-1-.3s.3-.6.4-1c.1-.5-.8-.7-.3-1.2 5-1.1 10.2-5.6 14.6-7.3L94.8 68C91 69.8 89 72 85 73.4l-1.4.5c4.9-1.4 10.1-4.1 14.6-7.1.7 0 1.9 1.9 1.9 1.9zm14.4 1c.4.4.3 1.3.4 1.9l5.8 4.5c.7 1-.7 1.4-.8 2.3-1.6.9-3.4-.1-4.8.8-2.3-1-3.6-4-5.8-5.4-1.3-1.4-2.4-3.2-1.9-5.2l.7-1.1 6.4 2.2zm-39.9 2c-2.7-.6-6.6-2.4-9.6-2.9 3-1.5 7.5.4 9.6 2.9z"/><path class="A" d="M113.4 71.4c.2.9-1 .6-1.4 1-.9 0-1.9-.6-2.1-1.5-.2-.8.7-1.3 1.3-1.4.9.3 2.1.8 2.2 1.9z"/><path class="B" d="M124.6 70.9l-1.6-.5c.8-.2 1.2.1 1.6.5zm-12.4.1v.6c-.3.2-1.7 0-1.3-1 .5.2 1-.2 1.3.4zm28 2.2l-1.3 1.1c-.2-.1-.8.6-.8-.2.1-.9 1.6-1.9 1.6-1.9l.6-1.6c1.1.6-.1 1.9-.1 2.6zm-68.9 0v.3l-8.3-.7c.2-.8 1.4-.4 2.2-.8 2 .3 4.4 0 6.1 1.2zm24.5-.7c.3-.4 1-.5 1.5-.6-1.5 4.1-3.7 9.4-8.4 11-2.3.1-4.2-1.1-6.2-1.8.1-.7-.2-1.3.2-1.7 1.2-1.2 3.8-1.3 5.1-2.5 1.1-.7 2.4-1.5 3.5-1.7.3.2 1.1.1 2 .2 1.2-.5 1.6-2 2.3-2.9zm-7.9 1.3c-1 .4-1.8 1.5-2.9 1.1.9-.6 2-1.1 2.9-1.1zm5.2 1c-.2-.1-.3-.4-.3-.5.4-.2 1.1-.8 1.6-.7l-1.3 1.2zm33.4-.7c-.6.4-1.7.8-2.5 1.5-.5.2-1.8 2.2-2.2 3.3-.8-1.3.6-3.2 1.4-4.2.8-.5 2.3-.7 3.3-.6z"/><path class="A" d="M117.8 75.7c.2 1-1.1 1-1.4 1.7-.9-.7-2.9-.6-2.7-2.3 1.1-1 3.4-.7 4.1.6z"/><path class="B" d="M116.8 75.9c.1.4-.1 1-.6.8-.6.2-1.5-.6-1.2-1.2.7.1 1.5-.4 1.8.4zm-57.3 2.6l-.7-2-.7-.9 1.4.6.4 1.3-.4 1z"/><path class="A" d="M91 78.4c-.1.9-.6 1.8-1.5 1.9-1-.1-2.1.6-2.5-.7.1-1.4 1.6-1.8 2.7-2.2.4.4 1.4.1 1.3 1z"/><path class="B" d="M134.5 77.5c2.5-.1 4.7.5 5.8.9 0 0-.3.2-1.2.2-1.3 0-3.4-.1-4.7-.1-2.2 0-5.8.8-5.8.8 1.2-1.1 3.7-1.7 5.9-1.8zm-44.5.9c.4.6-.3 1.1-1 1.2-.2.1-.3-.2-.6-.4.2-.4 1-.8 1.6-.8zm27.1 2.4c.1 1.3-.7 2.9-1.5 3.5-.8.5-4.9 1.6-5.2 4.6-.2 1.1-.2 2.5-.4 3.6-.2.9-.8 1.4-1.8 2-2.3-.6-4-2.7-6-4.1v-1c3.1-3.5 5.1-8.7 9.8-10.1 1.7.2 3.6 1.1 5.1 1.5zm-14.7-.8c.3.1 1.7.7 2.3 2.1l-.6.5C97.4 89 89.3 92.7 81.5 96.7 79.6 94.6 79 92 79.1 89c.5.2.2 1.5 1.1 1.4.9-2.3.8-5.4 2-7.6 1.9.3 5.8 1.6 6.5 1.5s3-1.3 4-2.2c.2.1 2.7 1.9 3.1 1.9.3.1 6-4.2 6.6-4zm-29.1 5l-5.8-2.7.2-.3c1.9.5 4 1.1 5.6 3z"/><path class="A" d="M111.5 83.4c-2.7 1.8-4.4 5.5-7.6 6.5 2.1-2.5 4.2-6.5 7.6-7.5v1z"/><path class="B" d="M134.8 84.9l-.4-.2c-.1-.8 2.3-2 3-2.3.3.4-2.3 2.1-2.6 2.5zm5.4-1.5c-.3 0-2.4.9-2.7.9l.5-.9h2.2zm-35.9.6c-.8 2.7-2.7 5.8-5.8 6.2-.4 0-1-.2-.8-.8 1.9-2.4 4.1-4.2 6.6-5.4zm-33.9 1.5l-3.3-.2c.2-.6 2.2-.5 3.1-.2 0 .2.2.3.2.4zm44.8.6c.2 1.5-1.5 3.5-2.7 4.8l-.9-.1c.1-1.8.9-4.7 3.6-4.7z"/><path class="A" d="M97.1 86.7c-.2.7-1.4.8-2.1 1.1-2.7 1.8-6.1 2.9-9.5 3.5l3.1-1.5-1.8-.4c1 0 1.8-.7 2.9-.6-.1.1-.2.2-.2.4l.3.4c2.6-1.1 5.3-1.4 7.3-2.9z"/><path class="B" d="M149 96.4c.8 4.5 1.9 8.6 4.7 12.3.7 1.1.6 2.9 0 4.1-.1.3-.5 1.3-1.2 1.5l-.5-1.6c-1.7 2.7-4.3 5.3-7.4 6.2-4.5 1.2-8.5-.6-12.5-1.8l-.4.4c.5.2.4.7.4 1.1-.6.8-1.6.1-2.3 0-2-2.3-2.7-6-1.5-8.8-.1-.4.1-.8-.2-1-.9.3-.5 2.7-2.1 1.5-1.4-1-3.5-2.3-3.5-4.3 1.3-.5 2.2-1.6 3.6-2.2.3-.1 1.6-.2 2.7-.5 3.5-1.1 3.8-6.1 4-6.4.3-.6.9-1 1.3-1.6.6-2-1.1-4-.7-5.6 1.5-1.1 3.5-2.9 5.7-2.7 4.5 1.3 8.8 4 9.9 9.4zm-72.8-7c-1.8-.2-4.5-1-6.4-1.5 2.3-.2 4.7 0 6.4 1.5zm53 5c0 1.8-1.7 4-3.3 4.2-.9.1-1.6-.7-1.6-.7-.1.3-.5.8-.7.9-.9-1.3.9-3.2 1.2-4.2 1 .5-1.4 2.5.2 2.9.1-1.3.5-2.5 1.3-3.3.3-.3.9-.5 1.2-.8.8-.4 1.5.5 1.7 1zM79.4 106c-2.7-3.3-7.1-5.5-9.6-9.3 3.5 2.5 7.1 5.8 9.6 9.3z"/><path class="C" d="M113.4 98.3c.1 1.7-2.8 1.5-2.2 3.2 1 0 1.2-1.5 2.3-1.1.1.4.6.9 1 1 .7-.2 1.5.2 1.5 1 .6-.4 1-.9 1.8-.4 1.6 2.8-4.4.1-1.4 2.5.3 0 1.4-.6 1.8.2v.6c-.5.3-1.1.1-1.4-.4.3 1.4-1.3.6-1.8 1.4-.2 1.3 2.2 2.8.4 3.5.8 3.3-1.7 6.5-4.6 8.4-1.2.4-1.9.2-2-.4 1.2-1.9 3.2-3.9 3.9-5.8-1.7.7-2.3 3.2-3.7 4.2-1.4 1.4-3.2 2.9-4.9 3.7-.3.1-1.5.2-.9-.5.7-1.6 2.6-2.6 2.9-4.1-.9.9-1.9 1.6-2.9 2.2-.9.6-1.2 1.7-2.5 1.6-.8 0-.2-.9-.2-.9 1.6-1.7 2.6-3.6 3.7-5.6-.1-.1-.2-.2-.4-.2-.8 1.4-1.8 3.3-3 4.3-.9-.6-1.9.3-2.3 1 .4 1.7-.9 1.7-2.2 1.8-.2-.2-.2-1-.2-1.6.6-.7.9-.5 1.2-.9 1-1.4.8-3.6 2.5-4.6 1-1.4 1-3.7 3.1-4.4 0-.7 1-1.2.4-1.9-.7.9-1.4 1.1-2 1.7-1.8 1.8-3.3 4.1-5.7 4.1l.1-1.3c-.1.2-.2.2-.3.2-.4-.2-.2-.6-.2-.8l.6-.4c.4.3 0 1.2.8 1 1.1-1.3-.2-4.6 2.7-4.4 1.1-1.4 2.9-3.7 4.4-4.6 3.5.4 6.8-.7 9.4-3.1l.3-.2z"/><path class="B" d="M128.5 99.6c.7-.7 2.1-1.4 2.8-1.7.5 1.3-.5 1.3-1.3 1.8-.4.2-.7.7-1.1.9-.2.1-.5-.1-.7.1 0-.3-.1-.7.3-1.1zm-54.3 6.2c-2.6-.8-4.8-3.1-7-5.4l-1-1.8c2.7 2.1 5.2 5.1 8 7.2z"/><path class="C" d="M116.3 100.6v.4l-1.2-1.4c.5.2 1 .5 1.2 1z"/><path class="B" d="M129.4 101.1c.8-.5 1.1-.9 1.4-.7.4.6-1.8 2-2.9 2.2 0-.2-.5-.5-.1-.9.3-.1 1.1-.3 1.6-.6zm-50 7.2c-2.5-1.4-4.7-4.3-6.8-6.1 2.4 1.6 5.3 3.4 6.8 6.1zm-7.9-.7c-1.4.4-2.7-.6-3.9-1.4l-.6-1c1.8.2 3.2 1.5 4.5 2.4z"/><path d="M122.2 105.4c-.2.2-.6.4-1.1.2v-.4c.4.1.9-.1 1.1.2z" fill="none" stroke="#ec1c24" stroke-width=".729"/><path class="A" d="M112.5 108.3s.1-2.2.5-2.3.2 1.9.2 1.9l-.7.4zM40 114.7h-.4c.1-2.1-.4-4.7 1.1-6.4.6 2.2-1.9 4.2-.7 6.4zm108-3.5c.5-.1.8-1.3.9-2.6.4-2.7-.3-4.5 0-4.8.2.9.8 2.9.6 4.8-.2 2-1.1 4-1.4 4.7-.5.3-1.1.3-1.7.5-.7.3-1.5.7-2.2.7.9-.6 1.7-1.2 2.1-2.6.3-1.9.7-3.8 1.2-5.7.5.6-.2 4.5.5 5zm-43.3.8c-1.1-1.8 1-2.3 2.1-3.1.1 1.1-1.5 2-2.1 3.1zm5.2-2c-.9 1.8-2 3.5-3.3 5 1.2-1.2 1.2-4.2 3.3-5zm-68.2 4.5c-.2.3-.6.5-1 .4-.3-1 .7-1.9.6-3.1 1.4.5.4 1.7.4 2.7zm19.3-.2c-.2.9-1.5.5-2.1 1.1.4-.6 1.4-.9 2.1-1.1zm-4.4 1.9l1.5-.5-.1.1-1.4.4z"/><path class="B" d="M34.4 116c0 .2.2.6-.2.8-.2 0-.5.1-.6-.2.1-.3.4-.8.8-.6z"/><path class="A" d="M55.6 116.4c-.4.2-.7.6-1.4.4.2-.7 1-.2 1.4-.4zm-1.6.4c0 .2-.2.3-.2.4h-.6c0-.3.5-.2.8-.4z"/><path class="B" d="M82.9 117.8c-.1.3-.6 1-.7 1.3-.2 1.7 0 3.6-.2 5.1-.1.4 0 .8-.5.7 0-.6-.3-.5-.4-1.7-.2-2.1-.3-4.8 1.5-5.9 0 .3.4.2.3.5zm-50.6.9c.2.8-.5 1.5-1 1.8-.4-.7.1-1.9 1-1.8zm51.3.2c.9 1.3-.2 3.2-.4 4.4-.4-.8-.9-3.9.4-4.4zm-53.5 5c-.3.2-.8-.1-.8-.1-.2-.2.3-1.1 1-1.2 0 .1.3.9-.2 1.3zm-1.4 2.4c.8.8-.4 2-.5 2.1-.7-.6-.2-2 .5-2.1zm45.4 2.3c.7 0 1.8.3 2.1.7-.8.2-1.6.5-2.4.8-3.1 1.2-6.4 3-7.5 6.5-.5.5-.9.2-.9-.5-.1-1.4 1.9-3.1 2.6-4.3 1.7-1.3 3.9-3.1 6.1-3.2zm5.3 1.9l-.2.6c-.6-.1-1.6-.9-2.3-1.2-.2-.1-.2-.3-.4-.4.8-.9 2.5 0 2.9 1z"/><path class="C" d="M78.2 131.3c.8.5.2 1.3-.2 1.8.3 1 .9 1.9 1 3.1-.5.1-1.1-.2-1.4.4.3 1.2 1.5 1.4 2.5 2 .4.2.3.8.5 1.1.3.3.9.3 1.2.6 3.4.5 4.2 4.4 7.1 5.2.8 1 3.2.6 3.4 2.5-1 1.6 1 2 2.3 2.3.3.6 0 1.1-.2 1.2-.8.3-2.5-.5-3.1-.7-3.8-1-6.5-5-10.2-4.7-1.9 3.9-6.9 5.8-5.9 10.9-.2 3.1.5 5.7-1 8.2-.6-.1-.6-.6-.7-1.2s-.2-1.7-.5-2.2c-.2-.3-.6-.4-1-.6-.4-1 .2-1.9-.1-2.8-.7-.9-.7-1.7-.4-2.7.1-.4.4-1.1.9-1.5.1-1.1-.8-1.1-1-1.9-.1-.2-.1-.7.1-1.2.1-.4.4-.8.8-1.1.1-.6-.2-1-.6-1.4-.7-.3-1 .6-1 1.1.1 1 .4 2 .3 3-.1 3.2-.9 6.5.3 9.5l1 .5c-.1.1.1.7 0 .9-.1.9-.6-.4-.7-.2-.2.6.4 2.1.5 2.7.3.2.5.9.5 1.2l-1.2.6c.3-2.3-.3-3.5-1.7-4-.1-1.4.2-3.4-1-4.3-.1-2.5-.9-5.9.8-8-.6-.5.3-1.8-.8-1.9l-.3 2.2-.9.2c-.6-.6-.1-2.6.1-3.5l.6.6.6-1-.6-.2c.1-.8.7-1.5-.2-2.2.1-1.2 1-2.1 1.5-3.1.1 0 .2-1.9.1-2.7l-.9-.2-.2-.9c.4-1 1.5-1.2 1.1-2.4-.2-.3-1.2.4-1.6-.2-.3-.5.8-.6.9-.9.2-.4 0-.7.2-1.1.4-.9 1.1-1.7 2.5-1.6.3.8-.7 1.1-.5 1.6.1.3.6.4.6.6 0 .3-.3.6-.4.9l1.3 1.3c1.1-2.3-1-7 2.9-6.9.7 1.2 1.6 1.3 2.7 1.1z"/><path class="A" d="M79.2 145.8c-.4.7-1.4 1.6-1.9 2 .2-.8.9-1.6.9-1.8-.3-.7-1.2-1.1.1-1.2l.9 1z"/><path class="C" d="M67.6 156.5c0 .9.2 2.1.3 3.2.1.5.1.9.1 1.3-.4 1.5-.8.3-.8.6-.1-.4 0-1.2-.2-1.6-.9-1.9-1.5-3.1-.3-4.7.8 0 1.1.7.9 1.2z"/><path class="B" d="M37.6 156.2c.2.5.2 1.3-.2 1.7h-.6c-.4-.6 0-1.5.8-1.7zm-22.1 1.5c.2.7-.6 1.2-1.1 1.5-.2 0-.5.1-.6-.2-.2-.9.7-1.2 1.2-1.6.1.1.4.1.5.3zm11.6.6c0 .6-.2 1.6-1 1.5-1.1-.3-.3-1.6-.3-2.3.7-.5 1.2.4 1.3.8zm-9.4 1.8c.2-.1.4-.2.6-.2.9-.1 1.8-.1 2.7 0 .3 0 .5.1.8.2 2.3-.2 3.8.7 5.3 1.1v.8c-.6-.1-1 .1-1.6.1-.7 0-1-.3-1.8-.3-1.7.3-3.4 0-4.8-.6-1 0-2.7.8-3.6 0 .7-.6 1.5-.9 2.4-1.1z"/><path class="C" d="M68.5 165c-1 .2-.3-1.4-.8-1.8l.4-1c.7.4.8 2 .4 2.8z"/><path class="B" d="M176.3 165.5c.2.5-.4.5-.6.7-1.5-.6-2.3-1.8-4.7-1.9-.2-.5.3-1.2 1.1-1.4 1.7.1 3.5.9 4.2 2.6z"/><path class="C" d="M69.4 167.5c-.2.2-.4.2-.6.2-.6-.6-.4-1.7-.2-2.3 1.2.5.6 1.2.8 2.1zm1.1-.4c-.7-.1-.2-1.2-.4-1.5.7.1.3 1.1.4 1.5z"/><path class="B" d="M136.5 167.9l.2 1.1c-.6.3-2-.3-2.6-.2-.5-.5.4-1.4.5-1.8.6.2 2.3-.3 1.9.9zm13 .8c-.2.3-.9.4-1.3.5 0 0-.9-1.3-.3-1.4.7-.2 2-.5 1.6.9zm12.1.4c0 .4 0 1-.3 1.3h-.6c-.4-.4.3-1.8.7-2.1.2-.2.3.6.2.8zm-4.5-.5c-.1.2.4 1.4-.5 1.4 0 0-.7-.5-.5-1.3.2-.7 1-.1 1-.1zm18.2 1c0 .2.6.8-.2 1.3l-.6-.5.8-.8z"/><path class="C" d="M93.1 148.3s-.5.7.1.9c.5.2 1 .3 1.2-.1.1-.4-.8-.7-1.3-.8z"/><path class="B" d="M60.9 126.5s1.9 1.2.9 4.1c0 0-1.4-.6-1.6-2.3-.1-1.7.7-1.8.7-1.8zm19.4-16.1c-.2-.1-2.8-.6-3.8-.4s-4.1.5-4.8.4-4.8 2.2-5.2 3-.7 2.3-1.5 2.7-2.2 2.9-2.3 3.7c-.2.9-1 3.2-.9 3.7 0 0 1.6.9 2.1 4.4s-.5 4.3-.5 4.3.5.6.8 1.3l.5 1.8s1.3-4.6 8-7.3c2.1-.9 4.7-.4 5.8.2 1.6.7 1.5 1.7 1.5 1.7s.8-.3.9-.9.2-3.2.2-3.2-1.2-4.4-.5-7.3c.7-3 2.1-2.8 2.1-2.8s.2-1.6-.1-1.9c-.1-.2-.6-3-2.3-3.4z"/><path class="A" d="M57.5 113.7s2.2-.9 2.6-.5-2.6.5-2.6.5zm-1.4.4l-3.1 1.3c-.5.2-2.9.1-2.8.5.1.5 1.6.3 2.2-.1.5-.4 1.2-.2 1.5-.5.3-.1 2.2-.9 2.2-1.2zm-3-.6s1.4.5 1.6-.2c.2-.6 1.5.3 1.9-.2s-1.7-.5-1.9-.2-1.2.3-1.6.6zm-2.4 4s-1.9.1-1.9.9c.1.9.8-.2 1.2-.5.4-.2.7-.4.7-.4zm-1.7-1.3s-1.6.6-1.2 1c.3.4.6.1.9-.1.1-.1 0-.9.3-.9zm16.7 3c-.3.1-.9 1.5-1 2.1-.2.6-.5 3.4-.2 4.1.4.6 1.2 2.9 2.4 2.6 1.2-.2 1.8-1.6 1.8-1.6s.6-.9.6-1.3c0-.5-1.2-1.1-1.1-1.7.2-.6.8-1.1.9-1.7s-.5-1.6-1-2.1-.9-.9-2.4-.4z"/><path class="B" d="M68 120.6s-.6 1.2-.4 2.4c0 0 .5-.2.7-.8.3-.5-.3-1.6-.3-1.6z"/><path class="A" d="M72.6 116s-.7 1.1-.6 2.5-.2 4.1.5 4.8c.8.7 3.1 1.4 4.1 1.3.9-.1 1.2 0 1.4-.6s.5-3 .2-3.9-.5-4-1.9-4.3c-1.6-.3-2.7-.3-3.7.2zm29.5-5.4s1.8-.8 1.6-1.4c-.3-.6-1.2.7-1.6 1.4zm10.9 4.8c.2-.5-.1-.2-.5 0s-.9 1-.2.8c.7-.3.7-.8.7-.8z"/><path class="B" d="M114.8 88.8s-1.6 2.3-2.7 2.7c0 0-.2 1 .8.5.9-.4 3.2-2.7 1.9-3.2zm1.7-4.3s.2.9.2 1.6c-.1.7-.7 1.7-.6 2.2s-.5 2.3-1.3 3.1c-.9.8-3 2.7-3.7 1 0 0-.2 1.2-.9 1.8-.6.6-1.2 2.1-.9 2.6.4.5 1 1.2 1.6 1 .5-.2 0-1.3.2-1.3s3-.2 3.6.2 2.5 2.6 3.7 3.4c1.2.9 3.7 3.4 3.8 4.4 0 0-1.5.5-1.9.5s.5 1.2 1.6.9 2.6-1.8 3.4-2.5 1.4-2.7 1.9-3c.8-.5 1-1.4 1.6-2.3 0 0-1.2 1.1-2.1 1.3 0 0-3 .4-3.5.2s-1.2-2.7.2-4.7c1.4-1.9 4.7-2.8 5.6-2.2s1.5 2.8.1 5.1c0 0 1.6-.6 2.3-.6s.5-.4 1-.9.9-1.9.5-2.4-4.5-9.7-11.2-11.7c-4.2-1.3-5.2 2.3-5.2 2.3z"/><path class="A" d="M116.8 90.3s-1.2 2.4.5 4.3c1.8 1.9 7-2.9 7-3.2s-.9.1-.9-.4.5-2.6-.8-3.4c-1.1-.8-3.7-1.2-5.8 2.7z"/><path class="B" d="M93.4 81.1l2.4 2 5.9-3.7.5-9.2s-1.3-.6-1.6-1.2l-2.3 2.3c.1-.1-2 5.2-4.9 9.8zm10.3-10.9l-.2 9.4s2.3 2.3 2.7 2.3c.3 0 3-3.4 5.5-3.8 0 0-.5-2-1.1-2.2s-3.7-4-3.9-4.6-.1-2.8-.1-2.8-1.8 1.7-2.9 1.7zm23.7-46.9s.2.8 1.4.8.4-1.2-.3-1.2c-.7-.1-1.1.4-1.1.4z"/><path class="A" d="M94.7 21.7s-.5.9.2 1.6c.6.6-.2-1.6-.2-1.6z"/><path class="B" d="M91.7 27.3a.47.47 0 1 1-1 0c0-.3.2-.5.4-.5h.1c.2-.1.5.2.5.5zm11.7-2.4a.47.47 0 1 1-1 0c0-.3.2-.5.4-.5h.1c.2 0 .5.2.5.5z"/><path class="A" d="M97.3 40.7s2.3.5 2.8.2c.5-.2 1-.5 1.6-.5s2.9-.4 2.6-1.7c0 0-.9.9-1.6 1-.6.1-1.4-.2-1.9-.1-.5.2-1.2.9-1.8.8-.6 0-1.9-.3-1.7.3z"/><path class="E" d="M113.2 19.1s7.6-7 9.7-8c0 0 .3-.9-.4-1.2-.7-.4-10.8-3.6-17.9-3.3 0 0-.4.4-.7.4s-.9 0-.8.4 1.7 3.4-.5 4.5c-2.2 1.2-8.3 1.2-10.1 1s-1.9-.8-2.3-1.4c-.3-.6.2-2.5-.9-2.7s-6.5 1.4-8.1 2.1-3.1.9-3.7 1.7c-.6.9-6.2 3-7.6 3.7 0 0 .9 1.5 2.8 2.1 4.4 1.4 7.1 3.1 8 4.3 0 0 1-.4 1-.9s1.3-1.7 2-1.8.5-1.1 1.1-1.2c.5-.2.5-.6.8-.7s-.3-1.7.3-1.8 3.5-.7 3.9-.5.4 1.1.8.9.3-1.3.8-1.3.6 1.2 1.1 1.2.2-1.6.8-1.6 1.9-.4 2.4-.2.2.8.9.7c.8-.1-.2-1.3.5-1.2.8.1 1.7.5 2 .2s.6-.5 1.2-.5 3.3-.5 3.8.5c0 0 1.8 0 2.3.9s1.2-.3 2 .8 1 1.9 1.4 2.1 1 0 1.4.3c.7.2 2 .5 2 .5zm-26.8-13s.9-3.2 9.4-3.7c7.5-.4 8.7.7 9.1 1.2 0 0-4.1 0-4.9 1.2-.4.7-.2 1.4-.2 2.1.1.8 0 1.5 0 1.8 0 .5-5.1 1.1-6.1.4-.5-.4-.5-1.9-.4-2.5.1-.5-1.8-2-6.9-.5z"/><path class="A" d="M41.9 111.2s-.3-1.2.4-1.2c0 0-.2-1 .3-1s.2 1.2-.4 1.3c0 0 .3 1.1-.3.9z"/><path class="B" d="M44.4 122.5s-3.7-1.1-4.1-.1c-.5 1 1.2.8 1.9.4.7-.3.7 1 2.2-.3zM40 159.7s1.4-.4 1 .6c-.3 1-1 0-1-.6z"/><path d="M83.3 159.2c-.2.3-1.6.3-1.9.3-.4 0 0 .5-.6.6s-2.8 1.4-3.2 1.2-.2-3-.2-3 1.6.8 1.9.5c.3-.2-.2-1.6-.2-2.1s.2.3.9-.6-.5-2.9-.5-2.9c.9-.2 1.9-1.7 1.9-1.7.5.7 2.3.3 3 .5.6.2.7 2.1.5 2.6s.5-.2.8.5c.2.6.2 3.9.2 3.9-.6-.1-2.4-.1-2.6.2zm-1.2-9.4s1.6-.6.6-1.2c-.9-.5-1.7.9-.6 1.2zm4.8 6.4c.2.3 1.9-.3 2.3-.3.5 0 .5.6-.1 1s-2-.9-2.3.4c-.3 1.2 1.2.8 1.8.5s1.5-1.8 2.5-1.6.7.5-.1 1.1.9.5 1.4.5c.5-.1 0-2.6.2-1.8s1.6 2.2 1.6 2.2.1-.2.5-.4 1.6.8 1.5-.2-1.7-2.5-2.3-2.5-1.6-.6-1.7-1.1-.2-2-1.4-2-.8-.9-1.8-1.1-3.4-.9-2.5.9 3.7-.2 3.7 1.2c0 1.5-3.3 1.8-3.3 1.8s-.2 1 0 1.4zm-.9 17c-.9-.9-.8-2.5-.2-3s.9.5.9.5.6-4.4-1.6-8.9c0 0-1.6-.5-2.1.3-.5.9-3.3.6-4.1.9-.6.2-1.7 1.3-2.2 2.6 1 0 1.5.7.8.9-.4.1-.8-.2-1-.5-.1.4-.1.9-.1 1.3 0 0-1.9-.6-1.9-.2l.9 1.8c.1.1 1.1-.1 1.2 0 .2.3-.6 1-.5 1.3.3.5.6.8.8.9.6.2.9-.4 1.3-.3s-.5 1.9 0 2.3 1 .5 1.6.8c.6.2 1.2-.8 1.9-.8s.5.5 2.6.3c0 0 1.3 2.6 2.6 2.5 1.5-.1-.1-1.8-.9-2.7zm-4.1-4.3c.2.3 2.3.4 2.2-.4s-1.9-.8-2.4-.7.1 1.2-.4 1-1.7.5-1.5.7c1.9 1.2 1.9-.9 2.1-.6zm4.8-8.5c-.4.4-1.3 1.9-1 2.2s.7-.4.9-.2-.2 1.4.2 1.5c.3.1.2 1.4.2 1.4s1.1 2.1 1.1 2.7c0 .5.2 2.2.5 2.2.2 0 .4-4.4.2-5.1s-.4-1.9-.7-2c-.3-.2-.6-.9-.5-1.2.2-.2-.5-1.4-.2-1.4s1.2.6 1.6.6c.3 0 .5-.9.8-.9.2 0 2.4.3 2.8-.1s2.5.4 2.6-.2c.2-.5-1.9-.5-2.3-.2-.3.3-.6-.8-.9-.5-.3.2-3.3.8-3.6.5-.3-.2.8-.9.3-.9-.5-.1-.9.4-.9.8s-1.1.8-1.1.8zm2.5 1.3c.1.6.5 1.1.8 1.6.4.6.7 1 1 1.7.3.6.7.9.8 1.7 0 .7 0 1.4-.9 1.3v.9c.8.1.9.6.8 1.4 0 .5 0 1.4-.1 1.8-.1.6-.5.9-.5 1.5-.1.6-.2 1.2-.4 1.8.4-.6 1-.9 1.5-1.4.4-.4.7-.9 1-1.4s.6-1.4.9-1.7.9-.3 1.2-.7c.4-.6-.1-.8-.3-1.2-.2-.5-.2-1.1-.1-1.6.1-.6.1-.9 0-1.5 0-.5-.1-1.3.2-1.6.5 1 2.3.9 2.4.2.1-.4-.3-1.6-.5-1.9s-.6-.3-1.1-.6c-.6-.4-1-.6-1.7-.7-.8-.1-.8 0-1.3.5-1.1.9-2.2-.3-3.3.1h-.4v-.2zm8-.8h.3c.3.7.9.4 1.3.9s0 1.2-.2 1.6c.7.2.5 1.2.4 1.7-.1.7 0 1.7-.2 2.4-.3.9-1.1 2.1-1.6 2.9-.1 0-.4.1-.5 0 0 .6.1 1.1.1 1.6s-.3.9-.5 1.3c-.1.5.1 1.1-.2 1.5-.2.4-.7.4-.9.8.6-.2 2.6-1.1 1.7-1.9.2-.2.5-.2.7-.4 1-.9 1.1-2.8 1.4-4.1.3-1.2.8-2.4.8-3.7v-2.1c0-.7-.3-1.2-.4-1.9-.1-.6 0-1.1-.7-1.2-.5-.1-1.3 0-1.8-.1l.3.7z" fill="#6c4826"/><path class="E" d="M18.2 155.3c.6.1 1.2-.3 1.9-.4l2.4-.1c1.2-.2 2.1-.2 3.3 0 .9.1 2.3-.2 3.1.3.3.2.4.6.6.9.1.2-.1.4 0 .5.1.2.3.1.4.2.3.4.6 1 1 1.4.2.2.4.2.6.5.1.2.2.6.3.9.2.3.5.5.7.9.1.3-.1.7.2.9.9.6.2-1.7 1.4-1.4l1-3.3c.4-1.1 1.4-1.9 1.3-3-.1 0-.1.1-.2.2-.5-.5-.1-1.3-.4-1.8-.3-.6-1.3-.3-1.1-1.2.5 0 1.8-.2 1.8-.9 0-1-1.3-.6-1.6-.9-1.1-.8 1.3-2.1 1.2-3.1l.2-.2c.3.4.7.7 1.1.2-.2-.2-.4-.4-.7-.5.4-.3 1.4-.1 1.7-.5s-.3-1.1-.5-1.5c.5-.1.9.1 1.2.2-.1-.2 0-.5-.1-.7.5 0 .9-.1 1.3-.2.1-.7-.4-1-1-1.2.4-.4 1.1-.3 1.5 0 .1-.4 0-.8-.1-1.2h2c0-.5.3-.8.4-1.3-.4-.2-1-.4-1.1-.8 1 0 2.3.1 2.9-.9-.4 0-.8-.2-1.1-.5 1.1 0 2.5-.6 3.2-1.4-.7 0-1.5.1-2.1-.1.6-.4 2-.7 1.4-1.8 1 0 2.5-.5 3.3-1v-.3c-.7-.1-1.6.4-2.2.3-1.2-.4.2-.9.8-.9.1-.3.4-.9.7-1.1.4-.3 1-.3 1-.9-1 .1-1.2-.4-1.1-1.2 0-.4.2-.4.1-.8-.1-.3-.4-.4-.4-.9.5 0 1.1 0 1.6-.1.6-.1 2.2-1 1.7-.5-.3.3-1.8.1-2.3 0s-2.6-.2-2.6-.2c.8 0 2-.3 2.8-.6.4-.2 2.1-1.3.9-1.3l-.3.2c0-.1-.7.1-.7.2-.1.1-2.8.5-3.5.4-2-.2-4.7.5-6.4-.7-.5-.4-.9-.8-1.5-1-.5-.2-1.2.1-1.7-.1-1.1-.4-.2-1.6-.3-2.5-.3.1-.8.4-.9.8-.2.5.4.9-.3 1.2 0 .4 0 .7-.2 1.1-.2 0-.3 0-.4-.1-.2-.7.3-1.1.4-1.7.1-.3 0-.7.1-1s.5-.3.3-.8H35c-.1.4-.5.6-.6 1-.1.3-.1.8-.2 1.2-.3.9-.4 1.3 0 2.2-.5.1-.8-.2-.7-.7-.6 0-.5 1.4-.6 1.9-.2-.6-.6-2-.1-2.6.2-.3.8-.2.9-.5.2-.4-.1-.9-.1-1.2.3-.1.4-.3.6-.5-.3-.6.4-1 .3-1.6l-.2-.4c-.2.3-.5.6-.7.9-.2.4-.2.9-.4 1.3-.1.2-.5.4-.7.8s-.1 1.1-.7.8c-.2.3-.4.8-.3 1.2-1.1.7-.7 2.7-1.3 3.7-.2 0-.5.1-.8 0-.1.3-.1.5-.2.8h.3c-.2.6-.2 1.3-.6 1.8-1.2 1.6-.6.8-1.3.2l-.3 1.5c.2-.2.7-.2 1.1-.3.1 1.3-.1 2.6-.3 3.9-.1.9.2 1.4 0 2.2-.2.6-.4.6-.4 1.2-.2.1-.1.5-.2.5v.6c0 .8-.3 1.5-.5 2.2s-.1 1.8-.3 2.5c-.2.6-.8 1.1-1.1 1.7l-.9 1.9c.2.2.3.4.4.6-.1 0-.2.1-.2.1v.9l.3.3c.3.3 1.1-.1 1.5-.2 0 0 .4-.1.5-.2-.3 0-1.4-.3-1.6-.4 0-.1.4-.3.5-.4.7-.4 1.5.1 2.2.4.6.2 1.4.9 2.1.8v.6c-.5-.2-.9-.5-1.5-.5s-.9.3-1.5.4c-1 .2-2.2 0-3.2 0v-.2h.3c.1-.4-.1-.8-.3-1.1-.9 1.2-1.8 2.1-3.1 3.1-.9.7-2.3 2.9-3.4 3.1"/><path class="B" d="M148 165.5s-.8.7-.2 1.1c.7.3 1.5-.7.2-1.1zm6.4 3.3s-.6.9 0 .9.4-.8 0-.9zm5.2-.2s-1.3.6-.8 1.2c.4.6 1.2-.3.8-1.2z"/><path class="E" d="M159.2 151.5c-.3-.6 0-1.9-.1-2.9 0-.6.4-2.2.2-2.7-.1-.1-.5-.2-.6-.4-.1-.1.1-.6.1-.8-.1-.5-.3-1.1-.3-1.7s.1-1.4.1-2c0-.7.3-.8-.2-1.2-1.1-1 .2-3.5-.7-3.4-.3-.5.7-1.1-.1-1.3v-.3c-.3-.4-.2-2.1-.4-2.9-.1-.7-.2-1-.5-1.7-.6-1.2-.1-2.8-.6-4.2-.1.1-.4.1-.5.2.1-1.1-.9-5.8-2.1-6.1-.2-.9-.5-1.6-.8-2.3-.1-.3-.4-.8-.5-1-.1-.4 0-.9-.2-1.2l-.3-.2c-1.3.8-2.1 2.1-3.4 2.9-1 .6-2.4 1.3-3.5 1.7-1.7.6-4 .6-5.7.3l-4.6-1.1c-.4-.1-.9-.1-1.2-.4l.2.5c.2.5.7.4 1.1.7-.3.5-1.1.6-1.1 1.2.4.2.9.2 1.4.3v.3c-.3 0-.4.2-.7.2v.2c.9.3 1.5.8 2.4 1 0 .1 0 .2-.1.3-.6.1-1.5.3-1.6 1 .3.2.8.3 1.1.4-1.2.5-1.9.3-3.1.2.5.5 2.8.7 2 1.5.6.2 1.1.2 1.7.3.2.8-1.1.4-1 1.4-.7 0-1.5 0-2.2.3.7.9 2 .4 3 .5 0 .7 1.1.7.3 1.2-.4.2-1.2.1-1.7.1v.4c.9.2 1.6.5 2.6.6l-.3.4c-.4.6-1.9.9-2 1.3.3 0 .6.1.9.1.1.9 1.9.6 2.5.7.2.8-.8.5-.7 1.4-.2 0-.3.1-.5.1-.1.5.2.8.7.7 0 1.2.5 1.4 1.7 1.4-.1 1.4 0 2.3 1.7 2.3v1h.9c-.1.5-.6.8-.3 1.3l-.1.6c.4.5.8 1 1.4 1-.1 1.1 1.5 2.1 2.4 2.3 0 1.1.2 2.1.4 3.2.2 1.3 1 1.4 1.7 2.3-.3.6-1.2.3-1.3.6-.3.6.6.7.3 1.2-.3.6-1.1-.1-1.2.7 0 .4 1.1 1 1.3 1.3-.9.9 2.3 1.7 2.8 2.1-.7.4-1.3.6-1.9 1.1-.7.6-.9.6-.7 1.4.1.4.4.4.4.9 0 .3-.2.5-.3.8-.2.9-.1.8.6 1.2 1.2.6 2.7 1.9 3.1 3.4.2.8-.3 1.6.8 1.5.7 0 1.4-.7 1.4-1.4.4-.3.7-.7 1.1-1.1.2-.2.2-.4.5-.6.4-.2 1.6 0 2.1.1.8.1 1.3.4 2.1.4.7 0 1.7 0 2.4-.3.5-.2 1.2-.3 1.7-.6.6-.4.5-.6 1.3-.7l3.4-.7c0-.2.1-.4 0-.5.6-.3 1.1-.3 1.8-.4-.9-2-4.3.5-5.3 1-.9.4-1.8.8-2.8.9-1.2.1-2.1-.2-3.2-.5 1-.5 2.3-.5 3.4-.5 1.2-.1 1.7-.6 2.8-.8 0-.2.1-.3.1-.4 1.1.4 1.7-1.5 3-1.5 0-.3-.1-.6-.2-.8-.4.1-.7-.1-.8-.5-.9-.1-1.6-.9-2.3-1.4s-1.8-.9-2.4-1.6c-.4-.4-.5-.9-.8-1.2-.3-.4-.8-.6-1-1-.5-1 .3-2.3-.3-3.3-.1.1-.3.2-.3.3"/><path class="A" d="M152.3 157.8c.7.2.6-.2.9-.5.4-.3.7-.6 1.3-.7 1.1-.2 2.5 0 3.6-.2-.4 1.1-1.7 1.4-2.6 1.8-.7.3-1.1.5-1.9.3-.5-.1-1.4-.2-1.7-.6l.4-.1z"/><path class="B" d="M159.6 142.1s-.9 1.5.1 1.9c.4.2-.1-1.9-.1-1.9zm-.4-5s-1 1.8.1 2.2.8-2.2-.1-2.2zm-.2-1.9s-.9-1-.3-1.9 1 1.6.3 1.9zm-1.2-6.4s-.5 1.5.4 1.6c.5.1.5-.7.5-1.1-.1-.3-.5-.9-.9-.5zm-.3-2.8s.4-.5.1-1.2c-.4-.7-1.1-.8-1.2-.1-.1.8.5 1.3 1.1 1.3zm-1.7-4.3s.5-.9-.1-1.4c-.5-.4-1.2 1.6.1 1.4zm-2.3-5s.1 1.5 1 1.3c.9-.3-.2-1.9-1-1.3zm-30.9-27.1c-.3 1.4-.9 2.6-2 3.6-1.2.2-3.1 1.5-3.4-1-.1-1.6.9-3.4 2.5-4 1.1-.4 2.8-.4 2.9 1.4zm-45.8 29c.8 1.6-.5 2.5-.4 3.9-.8.9-1.9.9-2.4 0-1.4-1-1.3-3.1-1.2-4.9.4-.6.4-1.6 1.4-1.5 1.3-.2 2.4 1.4 2.6 2.5zm-9.2 4.4c-.2 1.3.9 3.3-.4 4.2-1.3.2-2-1.4-2.3-2.4 0-1.7-.1-3.3.9-4.6 2.1-.3 1 2 1.8 2.8zm9.9.4c-.2.3-.5.1-.5.2-.3-.3-.2-.9 0-1.2l.5-1c.6.1.1 1.4 0 2z"/></svg>