<svg xmlns="http://www.w3.org/2000/svg" height="104" viewBox="0 0 191.073 103.821" width="192"><g transform="matrix(.3125 0 0 -.3125 .415001 175.127457)"><path d="M558.45 526.12c.136.322.247.625.339.92.084.251.145.498.207.731-.004.013-.004.026-.013.035-.88 2.532-2.642 2.717-6.345 2.422-5.398-1.03-10.395-1.682-14.591-2.1l.004-.004-.678-.066-.493-.044-1.823-.163-.251-.022-8.841-.458c13.834-10.461 15.45-26.66 15.45-26.66l.704.603c10.62 7.705 16.33 24.806 16.33 24.806" stroke="#000"/><path d="M414.72 440.1c6.86-20.209-4.689-47.282-4.689-47.282 15.155 12.997 27.064 39.701 27.064 39.701 24.907 5.05 38.622 0 38.622 0 3.245-19.492-3.971-35.364-3.971-35.364 14.437 11.544 20.931 42.228 20.931 42.228s-5.772 5.411-31.392 7.212c-25.634 1.805-46.565-6.494-46.565-6.494m18.691-77.3s-7.525-20.945-15.256-28.68c0 0 9.986-5.474 27.382-3.866 17.409 1.616 21.596 8.052 23.208 14.5s0 15.472-2.901 22.238c0 0 1.29-17.078-10.633-25.779 0 0-12.848-2.689-21.231-.109 0 0 3.293 6.872-.568 21.697m-41.021 162.81l.528-.111-.528.111c-10.505 1.994-14.935-5.936-14.935-5.936-3.324-4.922-2.06-7.282-2.06-7.282 32.366.564 49.818-4.663 49.818-4.663s-12.06 13.178-31.503 17.603l-1.321.278m129.321-16.62c-4.262 3.971-13.345 9.082-23.282 7.097-9.933-1.991-10.505-12.778-10.505-12.778 10.792 9.937 33.788 5.68 33.788 5.68" fill="#bfc0bf"/><path d="M280.82 487.74s53.341 10.215 114.34-4.196c2.193 1.964 4.724 3.967 7.648 6.001 0 0-55.943 15.52-121.99-1.805m.292-20.84s46.75 11.654 103.74 3.8c1.088 2.156 2.558 4.433 4.482 6.79-20.57 2.36-62.323 4.208-108.23-10.59m1.198-20.17s44.174 13.645 99.884 9.793c-.277 1.994-.299 4.38.216 7.076-22.331.608-59.932-1.427-100.1-16.867m-130.29-139.1h.022l.264-.027 4.258-.397 5.816-.608 23.036-3.232c17.479 63.969 66.655 98.163 66.655 98.163-66.51-32.173-94.477-84.535-100.05-93.9m313.619 88.609c-4.156 19.298 6.842 32.507 6.842 32.507-24.995-21.914-9.867-43.854-2.298-60.88 7.56-17.022 4.535-29.507-3.025-38.203-7.568-8.705-28.376-9.462-42.369-6.811s-21.187 17.405-24.969 34.8c-3.782 17.405 3.025 48.044 3.025 48.044-10.215-15.512-10.215-47.288-2.267-73.014 7.938-25.722 28.746-32.149 43.879-32.149s42.364 12.856 38.168 43.486-12.821 32.925-16.986 52.218M302.93 380.59c-26.1 26.426-26.893 56.322-26.893 56.322s-8.955-34.857 12.315-60.958 73.074-28.948 73.074-28.948-32.396 7.163-58.497 33.584M434.93 494.96c30.679-11.913 30.318-30.318 30.318-30.318 4.689 17.686 26.347 27.065 26.347 27.065s-11.188 5.419-26.708 6.499c-15.52 1.086-29.957-3.246-29.957-3.246m-42.54 30.651c-18.488 3.671-36.218-3.735-37.116-4.118-.009-.003-.013-.003-.018-.009-.004 0-.009-.003-.013-.003l-.004-.005c17.035-.286 22.217-1.8 22.217-1.8s4.429 7.929 14.935 5.935m60.079-240.061h-.004c-.198-.073-11.051-3.896-24.484-1.483 0 0 17.77-17.198 35.817-54.803l.026-.062.696.053c-1.748 17.14-9.066 45.857-10.747 51.154l-1.303 5.141" fill="#0085ca"/><path d="M471.75 397.15s7.216 15.872 3.971 35.364c0 0-13.715 5.05-38.622 0 0 0-11.91-26.704-27.064-39.701 0 0 11.549 27.073 4.689 47.282 0 0 20.931 8.299 46.565 6.494 25.62-1.801 31.392-7.212 31.392-7.212s-6.494-30.684-20.931-42.228zm-16.546-55.943c11.923 8.7 10.633 25.779 10.633 25.779 2.901-6.767 4.513-15.793 2.901-22.239s-5.799-12.883-23.208-14.499c-17.396-1.607-27.382 3.866-27.382 3.866 7.731 7.736 15.256 28.68 15.256 28.68 3.861-14.824.568-21.697.568-21.697 8.383-2.58 21.231.11 21.231.11zm27.408 2.813c4.196-30.631-23.036-43.487-38.168-43.487s-35.941 6.428-43.879 32.15c-7.947 25.726-7.947 57.502 2.267 73.013 0 0-6.807-30.64-3.025-48.044 3.782-17.396 10.972-32.154 24.969-34.8s34.8-1.893 42.369 6.811c7.56 8.696 10.584 21.182 3.025 38.204-7.569 17.026-22.697 38.966 2.298 60.879 0 0-10.998-13.209-6.842-32.506 4.165-19.294 12.786-21.592 16.986-52.218zM384.855 470.7c-56.995 7.855-103.74-3.8-103.74-3.8 45.904 14.798 87.657 12.949 108.23 10.589-1.924-2.356-3.395-4.632-4.482-6.789zm-2.673-14.177c-55.71 3.853-99.884-9.792-99.884-9.792 40.168 15.441 77.768 17.475 100.1 16.867-.515-2.695-.493-5.081-.216-7.075zm-93.83-80.568c-21.27 26.1-12.315 60.958-12.315 60.958s.792-29.896 26.893-56.322 58.497-33.585 58.497-33.585-51.804 2.849-73.074 28.949zm114.46 113.59c-2.923-2.034-5.455-4.037-7.648-6.001-61.002 14.411-114.34 4.196-114.34 4.196 66.048 17.325 121.99 1.805 121.99 1.805zm-47.569 31.938c.004 0 .009.004.013.004s.009.004.018.009c.916.392 19.483 8.154 38.437 3.839 19.443-4.425 31.503-17.603 31.503-17.603s-17.453 5.226-49.818 4.663c0 0-1.264 2.36 2.06 7.282 0 0-5.182 1.515-22.217 1.801l.004.004zm143.19-5.398c9.937 1.986 19.02-3.126 23.282-7.098 0 0-22.996 4.258-33.788-5.68 0 0 .572 10.787 10.505 12.777zm32.7-50.413c-.361 2.056-.938 3.808-1.655 5.327-.004 0-.581 1.453-2.325 3.734-1.492 1.898-3.166 3.39-4.689 4.83-3.324 3.13-9.303 4.988-9.303 4.988s-.004 0-.009.004c4.165-3.157 7.357-7.705 7.674-14.239.973-20.117-19.795-28.236-19.795-28.236 4.865 3.245 13.631 14.279 11.355 28.562S491.6 491.706 491.6 491.706s-21.658-9.378-26.347-27.064c0 0 .361 18.404-30.318 30.318 0 0 14.437 4.332 29.957 3.245 15.52-1.079 26.708-6.499 26.708-6.499s2.875 7.569 18.113 10.153c15.23 2.589 31.705-1.145 31.705-1.145-3.047 5.556-6.556 13.653-21.865 19.91s-29.037.594-29.037.594-.995 7.388-12.13 14.591c-18.083 11.698-65.916 18.673-75.135 19.161-9.22.497 6.904-5.442 13.372-9.127 7.344-4.187 15.569-11.289 16.269-18.034.181-1.814-.242-3.399-1.061-4.707-.643 1.884-2.008 4.293-4.398 7.362-13.099 16.832-46.345 24.11-71.283 22.446s-44.751-11.1-44.751-11.1c.282-2.298-9.198-10.347-35.351-13.222-24.92-2.739-42.501 1.818-48.837 2.752-.163.044-.326.084-.476.097-2.567.321-4.491.203-5.297-1.642-.035-.084-.062-.167-.088-.26l-.053-.335c-.11-1.286.683-3.06.683-3.06l-.37.696c1.779-3.412 12.385-22.948 26.347-32.978 0 0 8.348 1.766 18.254 2.827 0 0-153.07-74.492-215.09-190.89 27.029 3.166 62.578 5.2 101.18 1.81l-.264.026h-.022c5.574 9.365 33.541 61.728 100.05 93.9 0 0-49.176-34.193-66.655-98.162 22.239-3.778 44.949-9.629 67.188-18.281 71.49-27.866 131.75-56.991 199.67-56.388l11.558.502-.026.062c-18.047 37.605-35.817 54.803-35.817 54.803 13.433-2.413 24.286 1.409 24.484 1.484 1.017.361 1.889.731 2.611 1.061 22.221 11.976 25.933 32.251 27.751 46.776 2.1 16.797-.889 27.544-.889 27.544s38.45 50.475 48.225 90.202c0 0 2.259 7.185.969 14.538" stroke="#000"/><path d="M608.06 440.19c-22.481 12.262-47.978 16.075-67.527 16.837 0 0-.04-.004-.119-.004l.119.004 2.492 9.022.744.048c39.186 1.286 59.901-9.083 59.901-9.083l-1.973 1.519c-19.095 8.85-39.282 12.077-56.749 12.579l-.713-.004 1.545 8.225.405-.018c30.146-.313 46.6-7.459 46.6-7.459l-1.977 1.554c-14.961 6.38-30.252 9.268-44.57 10.224.084 5.574-.845 10.171-2.959 14.142 11.051 9.594 15.137 24.211 15.723 29.984 0 0 0 .004.004.004v.013c.048.194.145.722.159.828l.04.33c.026.202.035.392.035.572l-.004.299c-.009.172-.031.335-.053.497l-.044.26-.123.431-.079.216c-.053.136-.119.264-.185.379l-.106.189c-.075.115-.145.216-.229.322-.048.048-.084.106-.128.154-.084.097-.172.181-.269.269-.044.044-.092.088-.141.128-.097.079-.198.15-.295.225l-.145.101-.313.176c-.053.027-.097.057-.141.084l-.321.141-.141.057c-.101.044-.198.075-.304.11-.044.013-.084.031-.128.04a2.98 2.98 0 0 1-.291.084c-.026.009-.07.018-.101.022-.097.026-.176.044-.26.057-.026.004-.053.013-.079.018l-.211.035c-.013 0-.04.004-.053.009l-.238.022c-19.086-.207-34.778 6.274-34.778 6.274l-1.286.462c-42.466 15.542-86.543 19.989-125.79 19.276l-.013.04c-17.524-.159-30.323-1.598-30.323-1.598-56.344-4.764-96.736-18.259-96.736-18.259s-15.335-4.328-35.756-3.311c0 0-7.582.132-9.079-4.689-1.286-3.073-1.457-6.732 1.431-14.741 3.329-9.233 16.647-26.589 16.749-26.721-40.31-16.35-145.26-75.22-239.29-193.58 0 0 19.87 5.165 51.117 8.823v.004c62.019 116.4 215.09 190.89 215.09 190.89-9.906-1.061-18.254-2.827-18.254-2.827-13.962 10.03-24.568 29.565-26.347 32.978l.37-.696s-.792 1.774-.682 3.06c.013.114.031.229.053.335.026.092.053.176.088.26.806 1.845 2.73 1.964 5.297 1.642.15-.013.313-.053.476-.097 6.336-.934 23.916-5.49 48.837-2.752 26.153 2.875 35.632 10.924 35.351 13.222 0 0 19.813 9.44 44.751 11.1s58.184-5.614 71.283-22.446c2.391-3.069 3.756-5.477 4.398-7.362.819 1.308 1.242 2.893 1.061 4.707-.7 6.745-8.925 13.847-16.269 18.034-6.468 3.685-22.591 9.625-13.372 9.127 9.22-.489 57.052-7.463 75.135-19.161 11.135-7.203 12.13-14.591 12.13-14.591s13.724 5.662 29.037-.594 18.818-14.353 21.865-19.91c0 0-1.616 16.198-15.45 26.66 0 0 3.425.022 8.841.458l.251.022 2.316.207.678.066-.004.004c4.196.418 9.193 1.07 14.591 2.1 3.703.295 5.464.11 6.345-2.422.009-.009.009-.022.013-.035l-.207-.731c-.092-.295-.202-.599-.339-.92 0 0-5.711-17.101-16.33-24.806l-.704-.603s-16.476 3.734-31.705 1.145c-15.238-2.584-18.113-10.153-18.113-10.153s18.514-6.785 20.786-21.063-6.49-25.317-11.355-28.562c0 0 20.768 8.119 19.795 28.236-.317 6.534-3.509 11.082-7.674 14.239.004-.004.009-.004.009-.004s5.979-1.858 9.303-4.988c1.523-1.44 3.197-2.932 4.689-4.83 1.744-2.281 2.32-3.734 2.325-3.734.718-1.519 1.294-3.271 1.655-5.327 1.29-7.353-.969-14.538-.969-14.538-9.774-39.727-48.225-90.202-48.225-90.202s.013.009.018.013c29.068 24.797 48.445 68.676 56.925 90.774 45.834-.498 70.873-13.253 70.873-13.253l-1.699 1.726" stroke="#0085ca" fill="#0085ca"/></g></svg>