<svg xmlns="http://www.w3.org/2000/svg" height="130" viewBox="0 0 192.873 129.47" width="193"><path d="M59.39 9.863c-21.813 9.024-31.733 22.714-36.201 32.602-2.874 6.427-5.695 11.249-8.878 15.184-3.264 3.397-9.23 7.144-12.717 8.465l-.652.247-.118 2.375.901.179c4.517.898 10.144 4.293 11.968 6.619 2.345 2.358 3.978 3.989 8.093 11.283l2.106 3.332c1.334 2.245 2.713 4.567 6.407 8.656 2.841 3.991 16.448 16.545 31.254 21.947 10.403 5.156 24.065 7.705 41.66 7.753 25.841.148 45.401-5.503 63.42-18.315 7.471-5.788 9.887-8.118 16.186-15.6 4.22-4.988 8.807-13.783 9.004-23.498l.025-1.087-36.559-.04-.201.81c-2.972 11.931-14.99 19.371-21.89 22.746-18.005 7.655-40.681 7.748-57.715.211-15.924-7.979-24.39-18.773-23.792-30.371.606-11.822 10.672-23.124 25.64-28.786 28.951-10.609 56.781-1.487 67.293 8.382l.307.287 42.599-.041-.576-1.455c-8.762-22.207-40.45-34.727-54.424-37.309-31.282-7.162-58.299-1.897-73.135 5.421" fill="#0b162a"/><path d="M20.827 54.425c2.225-3.516 3.108-5.499 4.323-8.247l1.304-2.884c3.923-8.347 10.524-15.997 19.082-22.12 8.365-5.604 17.63-10.093 25.396-12.305 33.747-9.804 68.254-1.389 83.216 6.659 5.914 2.713 21.916 12.212 28.387 24.55h-36.048c-25.101-19.527-58.962-14.562-75.662-6.411-6.747 3.747-10.667 6.769-15.576 12.003-7.622 9.226-11.722 24.94 1.679 39.025 6.057 5.891 12.114 9.882 19.664 12.977 17.459 7.235 41.959 6.43 59.575-1.963 11.254-5.871 18.725-13.659 21.748-22.555h30.409c-1.077 7.723-3.327 15.71-14.857 26.872l-1.283 1.15c-5.584 5.04-13.236 11.948-28.184 17.403-25.496 9.892-63.629 8.75-85.024-2.536-.013-.005-1.344-.677-1.344-.677-4.806-2.406-11.392-5.698-19.689-13.413-5.79-5.315-9.824-10.567-14.898-19.379-5.531-10.121-12.456-13.812-16.181-15.38 3.246-1.635 9.59-5.529 13.964-12.771" fill="#fff"/><path d="M22.14 60.025c3.614-3.999 6.467-14.274 12.18-22.076C42.43 26.516 53.166 20.53 61.152 16.71c18.267-8.946 44.531-11.495 70.224-5.33 9.324 2.21 18.65 5.521 25.307 9.859 6.664 3.958 14.465 9.668 18.844 15.225h-27.445c-8.143-6.508-17.089-9.669-25.081-11.382-8.944-2.282-23.027-3.5-39.775.499-9.897 2.471-16.748 5.896-23.408 10.654-13.129 9.326-27.592 33.836-1.903 55.153 8.375 7.076 15.414 9.364 23.216 12.066 14.465 4.185 32.545 3.387 43.011.531 15.796-4.188 21.694-9.706 26.832-14.083 4.759-4.567 8.755-10.088 9.86-12.942l22.533-.038c-1.563 8.413-7.652 15.263-13.551 20.973-6.757 6.369-11.8 9.706-21.772 14.694-23.33 11.188-57.586 10.808-78.71 3.158-10.848-3.961-13.894-5.747-22.076-11.42-6.661-5.365-11.04-8.906-17.319-18.611-2.854-4.759-4.187-7.421-7.421-11.797-2.285-2.476-3.807-4.761-7.803-6.663 3.664-2.567 5.66-4.471 7.423-7.229" fill="#c83803"/></svg>