<svg xmlns="http://www.w3.org/2000/svg" height="266" viewBox="0 0 378.82 266.451" width="379"><path d="M340 128.75c-2-1.015-1.75-2.825-.31-3.9 17-12.625 28.625-28.875 28.625-53.875 0-29.625-21.25-71.25-104.125-71.25H50.44L2.065 84.1h35.5c3.975 0 7.175 3.2 7.175 7.163v84.125c0 3.963-3.2 7.163-7.175 7.163H-.56l48.875 84 226.25-.026c72.875 0 104.375-38 104.375-78.875 0-27-19.25-49-38.75-58.875" fill="#fff"/><path d="M213.75 115h-35.125V81.25c.033-3.537 2.9-6.4 6.45-6.4H213.7c16.875 0 23 8.575 23 19.75 0 11.875-6.25 20.375-23 20.375zm0 77.75h-28.625a6.45 6.45 0 0 1-6.45-6.438v-33.75H213.8c16.875 0 23 8.238 23 19.75 0 11.85-6.25 20.375-23 20.375zM314 131.25c-2.575-.606-2.15-3.763-.27-4.463 23.125-8.775 36.75-24.375 36.75-51.875.323-36.875-32.25-62.25-85.25-62.25H63.98l-35.25 62.25h24.25c4.8 0 8.675 3.875 8.675 8.675v100.5c0 4.8-3.875 8.675-8.675 8.675h-24l35.5 62 210-.026c60 0 84.625-39.875 84.625-69.125 0-25.75-19-48-45.375-54.375" fill="#fb4f14"/><path d="M132.5 237.5c-37.25-70-47-150-33.125-225h-35.25l-35.25 62.25h24.25c4.8 0 8.675 3.875 8.675 8.675v77.125c18.125 29.375 44.25 57.5 70.625 76.5zM308.75 20C266.125 83.25 243 163.75 253.375 237.5c12.75-61.75 45.875-118.75 97.5-160l.066-1.838c.217-25.375-15.25-45.375-42.125-55.375zm-71.5-6.925c-6.687 17.5-13.75 38.625-19.625 62.375-1.055-.079-2.175-.125-3.325-.125h-28.625c-3.55 0-6.413 2.85-6.45 6.4v33.75h30.125c-1.987 12.113-3.6 24.625-4.675 37.5h-25.5v33.75a6.44 6.44 0 0 0 6.45 6.438h17.625c.264 20.25 2.062 41 5.85 61.875h-26.25c-20.625-49.875-49.125-133.75-20.875-242.5H237.1"/></svg>