<svg xmlns="http://www.w3.org/2000/svg" height="221" viewBox="0 0 285.7 220.9" width="286"><defs><clipPath id="A"><path d="M.2 160h610v471H.2V160z"/></clipPath><clipPath id="B"><path d="M0 0h612v792H0V0z"/></clipPath><clipPath id="C"><path d="M.2 160h610v471H.2V160z"/></clipPath><clipPath id="D"><path d="M0 0h612v792H0V0z"/></clipPath><clipPath id="E"><path d="M.2 160h610v471H.2V160z"/></clipPath><clipPath id="F"><path d="M0 0h612v792H0V0z"/></clipPath></defs><g transform="matrix(.47 0 0 -.47 .75 296.25)"><path d="M593 184l-.3-.2c.3.2.5.4.8.5l-.5-.4zm-244 28s-16-2-28.6.5c-32-49-119-45.6-171-4.3l-3 2.2c-3.6-2.8-19.2-13.6-49-18.2-25-4.8-35.4 11.4-32.4 22.5-7.4 16.3-9.5 22-12 31.2-1.5 6.5-.6 11.4 0 14-7.4 14.2-15.3 32-21.6 52-90.2 288 285 408 407 191 2.4-.2 3.8-.8 4.6-2.3l3.3 1.3 14.7-33.2c-1.8.4-6.8.8-8 1l.1-.2-2.5.2-1.2.1-10.2 29.6c-1.6.4-4.5.4-5.2.4l.1-.2c2.2-4.2 9-25 11.3-31 3-8 3-12.4 3-12.4l-14.6.3c-.2 4.3-4.3 12.3-4.3 12.3l-12.6 26c-.6 1.3-1.6 4.2-2 6.5-1 7.7 6.6 7.7 6.8 7.7 4-.1 7-1.5 10.3-6h2c-4.6 9-7 11.8-10 16.8-56.6 80.8-151 105-234 84.5 105 15.4 185-29.8 225-97.4l-11.5-5.8a119 119 0 0 1-6.9 0c-2.5-.2-4.8-.3-3-6.3 1.3-4.4 1.7-5.4 2.7-8.2l7.8-21.5-3-.6-10 27.5c-.6 2-1.5 5.5-.4 8.6 0 0-4-3-.4-11.6l9-25-72.5-19.6s-11.2-4-19.2-10.5c-.3-.2-.4-.4-.5-.6-2.3-.7-4.4-2.2-6-4.2-1-1-3.7-3-4.8-4.2-3.2-3.6-6-6.8-9.4-11.7l-24-38a9 9 0 0 1-2.4-1.4c-2.6-2-4.3-5.6-3.7-9.2L242 341.3a9 9 0 0 1-6.8-4.2c-2-4-10.3-17.6-11.8-19-1-1-3-4.6-2-8.8l-.8-1.5-18.4-27.5c-1.6-2.2-1.8-4.8-.7-7 1.5-3.2 5.3-5.6 9.2-6 2-.1 4 .4 5.6 1.5l116.7-19.4c-1-11.3-3.8-21.2-8-29.7l1.7-.2c27-2.2 46.3 2.6 59.7 11.7l3.6-6.3c-10.4-7-23.8-11.3-40.3-12.4zm109 233c.5-5.5.1-12.2-2.7-17.3a21 21 0 0 0-16.3-11.3c-.2 0-.7-.1-1.2-.1-.2 0-.7-.1-1.2-.1l-.8-.1a22 22 0 0 1-1.8-.2l37-87.6-11.4-1.4-35.8 84c-1-1-1.5-1.7-1.8-2.2l-1-1.3c-5.6-7-9-16-10.8-25.5l-.6-3c17-26 39.6-35.7 39.6-35.7l5.6-13.8c-22.6 6.6-41.4 27-46.7 33.2v-1.7c-.1-11.4 1.3-22.2 3.2-30l3-10.2-7.7-.8c-1.7 6.8-4 13.2-6.3 19-12.8 30.2-47.6 16.4-45.2-1.8l-29.5 65c3 3.4 9.4 9.8 19.6 16.3-7-3-12.7-8-12.7-8-2.8-2-5.3-4.4-7.6-6.6l-7.2 16c5.2 3.3 10.5 6.8 17.2 9.2 19.3 8 41.7 13.2 63 17.7l3.6.7c.7-10.7-4.7-14.7-14-16.7-6-1.2-11-1.5-13.5-2.3l5.8-.2c.3 0 6.7 0 15.5 3 5.8 2.2 10.2 6 8.3 16.6l3 .6c1.6-10 .1-19.6-19.2-21.5 3.3-2.3 33.4 3.3 51.5-1 .4-.2 8-2.8-.6-6.6 16.8 3.7 17.7 20.5 14.5 33l.7-.1a75.4 75.4 0 0 0 8-1c0 0 0 0 0 0l5.6-.7c12.5-1.2 11.4 13.6 4.8 15.5l-9.3 2L448 503l8.6 4 22.4-40.3c10.4-16.5-6.8-23.3-16.3-18.3-2.2-1-3.3-2-4.4-3.6zm41.8-112c-7.5-2-25-3.8-25-3.8l-3.6 8c18.2-2.5 31.8-1 31.8-1-3-.4-3.3-3.3-3.3-3.3zm16.3 2.3c-2 1.6-4 1.8-4.5 2a1.4 1.4 0 0 0-.1 0h.1c5.6-.4 22.2 1.3 22.2 1.3-3-1.3-17.8-3-17.8-3zm37-1.5a4.8 4.8 0 0 0-4.1-5.1l-1.4-.3a184 184 0 0 0-17.1-4l-7.8-1.4c-1 2-1.5 4-4 9l24 5.2a49 49 0 0 0 6 1.1c3-.5 4.3-2.3 4.6-4.7zm35-124c0 2.5-4 7.2-10.6 8.6 0 0 .1 2.6-.1 5.7l-7.8 48c9.5 3 8.6 22.4-7.5 22.3-4 17.5-9.5 31.5-9.5 31.5 8.8 4.8 4.7 13-.1 14.4 0 0 8.8 2 12.8-13.3 14.7-41.2 26-97.6 22.8-117zM568 275s-4.8-2.4-27-6.4l-2.6 10.4 26 6.6s-.1 2.4-3.7 2.4l-23.4-5.2-1 3L558 290s11.5 4 14-4.8c0 0 2.5-7.6-4-10.3zm5.2-77.2l-25-6.7c1 4.6.8 12 .8 12 37 8 2 11.3 2 11.3 8.2-2.5 8-5.4 8-5.4-3.5-.2-9.8 1.7-9.8 1.7.2 2.3-.4 11.7-.4 11.7 9.6-4.2 11-3 21-5.2 10.2-2.3 5.2-6.5 5.2-6.5-5.2-6.5-24.4-9.2-24.4-9.2 32.2 4.2 29.2 13 29.2 13 13.2-8.6.2-14.6-6.5-16.5zm-257 187l30-66.3c-14 1.6-23 5.6-32.5 12.3-3.5 18-4.5 36.5 2.4 54zm-3.8 8.3l2-4.5c-9-17-9-36.2-5.5-54.3l-1 .7-30 30 27.3 43.3 7-15.3zM309 431c1.3 0 2.6-.4 2.6-.5l51-113s-7-.3-12.5.8l-47 103c-1 2-1 3.8 0 5.6 1.4 2.4 4.2 3.8 6 3.7zm119 15.7s3.8 2.6 4 5.3l13.2-.1s-3.3-6.2-17.2-5.2zm43 17.3l.1-.1h.1c2.2-.3 3.5-3 3.3-5.5-.1-1.3-1-4-5.2-4-4 1-14 1.8-19.4 2.3 0 4.4-2.7 10.7-2.7 10.7L471 464zm-63.3 37.7l3.7 2s.3.2.3.1c-.2-.4-.2-1.4-.2-1.4-.1-1.3 0-2 1.4-5.8 2.2-6 13.8-30 15-33.4 6.7-17.3-10.6-20.6-12.4-13 18.4 1.4 11 20.6.5 18-4 9.8-7 19.6-7 19.6s-4 10.7-1.4 14zm-3-1.4c-1.6-5 1.4-12.7 1.4-12.7l7.2-20-3.8-.7-7.6 21.7c-2.2 6.8-.6 10-.6 10l3.4 1.6zm12-35.7c3.5.5 6.5-2 7-4.5.3-2.3-.8-5-5.2-5.6l-83.8-22a57 57 0 0 1-16.6-8.6l-3.3 7c-1.4 2.5-1.6 2.7-2.8 3.4a88 88 0 0 0 14.7 7.4 475 475 0 0 0 90.1 23zm-118-39s-.2-2.8 1.2-5.7c1.2-2.4 3.6-8.3 3.6-8.3.4.4-5.4-6.8-8.6-11.8L275.7 368l-5.2 5.7s-2.2 2.7-4.3 2.7l22.5 35.8c3.3 5.4 11.2 14.7 10 13.5zm89-165s-4.7-1-12.6-.3c-3.8 7-8 16.8-18.5 40 7.2-.8 12.7-.1 12.7-.1l18.4-39.6zm31 37V295.7l54.7-9.4 5-12-59.6 8.3A94 94 0 0 0 416 263l-8-.8c4 13 4.4 27.2 2.6 41l7.6.8.7-6.7zm78.4-22.6l-4.2 9.6 24-.1c1.7-6.2-4-6.4-4-6.4l-15-3zm-2.7-.8c-2-.8-11-2.2-11-2.2-2.2 4.2-16 38.2-16 38.2l11 1.7 16.2-37.8zm-260 22.3l26.2-16c10.6-6.7 18.8 3 21.4 6.4 2 2.7 8.2 11 8 18-.2 7-5.5 10.6-10.2 13.7L258 333l10.3 16.7 21.4-20.8c6.8-7.3 13.6-12.7 20.5-16.7l5-2.6 11.2-34c-1.7 10.2-4.7 21-7.7 32.3a97 97 0 0 1 33.7-7.2l1.5-.1.7-1.5c-4.2-11-12-23-22-30.2l.1-1.7-106.3 17 8.4 12.4zm4 29L269 307c5.3-3 6.4-4.4 6.4-4.4 6.2-6 5-11.7 2-15.8-3.4-4.6-10-7.5-15.4-4L229 303.4c0 0-3.8 1.8-4.8 5.3-.6 2.4.1 5 2.3 8l8.3 12.6c1-2.3 4.3-4.2 4.3-4.2zm13.7 1L277 310c3.7-2.6 7.3-7.2 5.2-13.3-.3 5.7-7.4 10.3-7.4 10.3l-34.5 20.6c-4.6 3-4.2 7-1.7 9-.4-6.3 9.4-11.4 14-10.2zm26-14.3L255 327.8l2 2 24.4-16.4c8.6-6.5 4-14.4 4-14.4 1 4.7-1.3 9.4-6.8 13.2zM257 361c3.3-4.6 8.7-9.4 8.7-9.4l-13.4-21.3c-1.8-1.4-5.6 0-8 2.3-.6.5-3.2 3.2-1.6 5l.1.1.1.1 14.2 23zm-47-90.3c-2.7.2-5.4 2-6.4 4-.6 1.3-.5 2.5.4 3.8l17.5 26.8c1-2 10-7.4 10-7.4l-17-25c-1.2-2-3.2-2.2-4.6-2zm194-34l-3.7 6.7 9.4 1c-1.7-2.7-3.6-5.3-5.7-7.8zm88.8 18.7l11.8 2.5c10-15 26-26 26-26l.8-13.4c-25.3 12.3-38.6 36.8-38.6 36.8zm38-67.6c-27-7-56-7.4-80.4-1-22 5.8-48.3 18.7-63 51 0 0-2 3.5-2.3 5.2H397.7c22.6-48.3 80.7-57.4 131-44.6 0 0 4.6.8 5.8 2.2 1 2.4 1 8.6 1 8.6-.1 1.4-1.2 31.2-6.7 51-.5 2-1 3.4-1.7 4 0 0-1.5.6-2.6.7-2.7.1-6.2-.6-6.2-.6-30.7-7.3-78.3-13.4-116-17.2-.1 0-3-.4-8-.7l-4-.1c-7-.1-17.2.4-30 2.4l-139 22.8 7.5 10.3 135-22 30.4-1.6 120 16.3s8.8 2 10 3.2c.7.7-1 7.3-1 7.3l-10 29.8c-.1.3-1.5 5-3 5.6h-1l-4.3-1-123-16c3 .2-13.8-.6-26.7.3-18.5 1-39 5.6-59.4 27.8l-32 31.7c-2.3 3.2-1 6.8 1.3 8.6 1.7 1.3 5 2 7-.2a597 597 0 0 1 38.1-39.4c12.5-9.7 21.5-14.8 39-16.8 9.4-1 20.6-1 21.2-1 23-.6 107 9.7 131 14.5a23 23 0 0 1 5 1.2v.5l.1 1c0 .4 1.5 1.5 2.6 2 2.3 1 5.3 1 7.8-1 17.6-32.4 35-92.5 31-138-.2-2.4-1.2-4.4-3-5.3 0 0-4-1.8-8 .3 0 0 .2-.3-4.2-1.8zm80.3 31.8v.5c-2.7 37-11 74.6-25.4 115l-1.8 4.3c-6 15.5-18.4 22.2-36.8 20l-11.6-1.2c-14-1.3-34.5-3-52.4-1.4L461 409.3c4.6 3 8.5 6.5 11 11a38 38 0 0 1 4 11.1c6.8 1 13.3 4 18 9 6.8 7.4 10.6 20.7 1 36l.5-.8-29.8 53.8-17.6-7.5c-72 113-207 131-306 88-90.4-39-178-142-127-303C20.2 289.8 27 273 35 257a46 46 0 0 1 1-15.1l.1-.3.1-.3a166 166 0 0 1 11-29.6c-.3-8.8 3-17.8 9.3-24.6 10-10.7 25.7-15 43.2-11.5l-.8-.1c23.2 3.3 38.3 10 46.2 14.6C180 166 225.3 155 266 161.7c26.3 4.4 47.6 15.7 62.2 33 11.2-.8 21.3.4 23.3.7a107 107 0 0 1 33.8 7.8c15-17.4 35-30 59.3-36.3 28.3-7.4 60.3-7 90.8 1.2 6-.6 11.7 1 15.8 3 32 7.3 39.2 10.4 44 14.4a.6.6 0 0 1 .2.2c11.4 7.8 15 22.5 14.7 33.3" clip-path="url(#A)" fill="#fff"/><g fill="#ff3c00"><path d="M291 191a67 67 0 0 1 25.1 22.2h-.1a52.7 52.7 0 0 1 6.7 12.9c-6.6-16-17.8-27.6-31.7-35m-13 174l26.4-26.7a96 96 0 0 0 .1 35c1.6 7.6 4.4 14 7.7 19.8l-7 15.3-7-11c0 0-10-15.8-20.2-32.4m26-58a165 165 0 0 0 12.5-37.7l7-1-2 9.8c-1.3 6-6.5 18.5-11.2 33.8-7 4-13.8 9.4-20.5 16.7l-21.4 20.8-10.3-16.7 22-14.5c4.7-3 10-6.8 10.2-13.7.2-7-6-15.4-8-18-2.6-3.4-10.8-13-21.4-6.4l-26.2 16-8.3-12.4 86.7-13.8c-2 13.7-6.4 26.2-9 37" clip-path="url(#B)"/><path d="M340 420a94 94 0 0 0 40.5 13.1c-.1 0 5 .7 5 .7 3.4.5 10 2 11.8 5.3 1 2 1.5 4.5 1.3 7.6l-63-17.7c-6.7-2.4-12-5.8-17.2-9.2l5.4-12a83 83 0 0 0 13.9 10.7l2.3 1.5M194 277c-2.3-.8-4.8-1.2-7.4-1-7 .1-14 3.2-19.4 8.7-10.3 10.7-11 27.3-1.5 37 4.3 4.3 10 6.7 16.3 6.7 7 0 14-3.2 19.4-8.7a29 29 0 0 0 8.2-19.5L194 277zm35-24.3c-19.3-20.5-57.7-20.3-79.5 7.6 37-34.2 71.3-11.6 79.5-7.6zm-56.8-31c-1.7-1.4-4-2-6.2-1.7-2.6-1.6-6.6-.7-9.5 2.3-2.7 2.8-3.4 6.5-2.2 9-.6 4 .7 8 3.6 10.2 4.4 3 11 1.2 14.8-4.2 3.8-5.4 3.6-12.2-.5-15.6zm90.8 36.5a11.6 11.6 0 0 0 11.5-11.6c0-4.7-3-8.8-7-10.6-1.4-1.5-3.3-2.4-5.4-2.4-3 0-5.6 1.8-6.8 4.4-2.4 2-3.8 5.2-3.8 8.6 0 6.4 5.2 11.5 11.6 11.5zm123 243c.6 1 1.4 1.6 2.4 2.2-33 56-112 114-216 97-99.5-32-177-130-143-268 14.5-52.7 31.4-80.6 49.8-107 0 0-.8-12.7 21-6 20 6 32 6.5 52.7-9 36-27 98.3-39 138-18.3 14 7.5 25.2 19 31.7 35a64 64 0 0 1 3.3 23.6l-7.7 1.3c-1.7-32.8-34.2-64.3-92.3-60.7-24.2 1-50 12.7-65.5 21-7 4.8-27 16-36.7 18 8.3-.4 29.2-11.4 38-16.4a169 169 0 0 1 64.2-19c38.8-3.7 82.8 16.2 87.5 57.7l-98 16.3c-1.5-1-3.4-1.6-5.6-1.5-4 .3-7.7 2.7-9.2 6-1 2.4-1 5 .7 7 0-.1 18.4 27.5 18.4 27.5l.8 1.5c-1 4.2 1 8 2 8.8 1.5 1.5 10 15.3 11.8 19 .2.4 2.4 4 6.8 4.2l14.6 23.6c-.6 3.7 1 7.2 3.7 9.2a9.2 9.2 0 0 0 2.4 1.4l33.4 49.7c1 1.3 3.7 3.4 4.8 4.2 1.5 2 3.6 3.5 6 4.2 0 .2.2.4.5.6a75 75 0 0 0 19.2 10.5c15 6.3 41.6 13.5 69 19l-8 23c-.3.8-4.5 9.3-1.2 14.5" clip-path="url(#C)"/></g><g clip-path="url(#D)"><path d="M313 270l3.4-.5a170 170 0 0 1-12.5 37.7l9-37m-87-76c-21.3 1-46.3 9.8-64.2 19-8.7 5-29.6 16-38 16.4 9.6-2 29.6-13.3 36.7-18C176 203 202 191 226 190.2c58-3.6 90.6 28 92.3 60.7l-4.8.8c-5-41-49-61-88-58M182 328c-6.2 0-12-2.3-16.3-6.7-9.4-9.6-8.8-26.2 1.5-37 5.2-5.5 12.3-8.6 19.4-8.7a22.6 22.6 0 0 1 7.4 1.1l15.5 23a29 29 0 0 1-8.1 19.5C196 325 189 328 182 328m-32-67c21.8-28 60-28 79.5-7.6-8.2-4-42.6-26.6-79.5 7.6m113-5c7.5 0 12.7-9.6 6.5-16 2.7 5.8.5 13.3-6.7 13.6-7.5.3-10-7.2-8.6-11-2.5 2.4-1.7 13.6 8.8 13.6zm3.7-8.4c-1.6 1.8-5.7 2.7-8 1-1-.6-2 .2-.8 1.6 2.6 2.3 7.6 2.2 9.8-1.2 1-1.7-.1-2.8-1-1.5zm-5-12.7c-3.5 0-6.3 2.8-6.3 6.4 0 3.5 2.8 6.3 6.3 6.3 3.5 0 6.3-2.8 6.3-6.3 0-3.5-2.8-6.4-6.3-6.4zm-6.8 3c1.2-2.6 3.8-4.4 6.8-4.4 2.2 0 4 1 5.4 2.4a11.5 11.5 0 0 1 7 10.6c0 6.4-5 11.6-11.5 11.6-6.4 0-11.5-5.2-11.6-11.5 0-3.4 1.5-6.5 3.8-8.6" fill="#2b1d14"/><path d="M258 251c-1.3-1.4-.2-2.2.8-1.6 2.3 1.6 6.4.7 8-1 1-1.3 2-.2 1 1.5-2.2 3.3-7.2 3.5-9.8 1.2m5 3c7.2-.3 9.4-7.7 6.7-13.6 6.3 6.5 1 16-6.5 16-10.5 0-11.4-11.2-8.8-13.6-1.3 4 1.2 11.4 8.6 11m-1-17a5 5 0 0 0-5 5 5 5 0 1 0 10 0 5 5 0 0 0-5-5zm6.3 5c0 3.5-2.8 6.3-6.3 6.3s-6.3-2.8-6.3-6.3c0-3.5 2.8-6.4 6.3-6.4 3.5 0 6.3 2.8 6.3 6.4" fill="#fff"/><path d="M258 241c.1.6.4.3.6-.2 1.4-2.2 5.2-2.3 6.3-.7.6.8.6-.3.6-.3-2.4-4.7-8-1.7-7.5 1zm3.7 5.2a5 5 0 1 1 0-10 5 5 0 0 1 5 5 5 5 0 0 1-5 5" fill="#2b1d14"/><path d="M265 241c-1-1.7-5-1.5-6.3.7-.1.5-.4.8-.6.2-.4-3 5-5.8 7.5-1 0 0 0 1.2-.6.3" fill="#fff"/><path d="M170 222c7.7 10-7.3 21.7-13.2 12.4 5 15 24.8-4 13.2-12.4zm-2 8c-.8 1.6-3.2 3.7-4.6 4-1.4.3-1 2.5.8 2 1.6-.5 4-2.6 4.6-3.6 1.5-2.5-.1-3.8-.8-2.4zm-10.3-7c-2.7 2.8-3.2 6.8-1 8.8 2 2 6 1.3 8.7-1.5s3.2-6.8 1-8.8c-2-2-6-1.3-8.7 1.5zm.7 18.3c-3-2-4-6-3.6-10.2-1.3-2.5-.5-6.2 2.2-9 3-3 7-4 9.5-2.3 2.3-.2 4.6.3 6.2 1.7 4 3.4 4.3 10.2.5 15.6s-10.4 7.3-14.8 4.2" fill="#2b1d14"/><path d="M164 236c-1.7.6-2.2-1.7-.8-2 1.4-.3 4-2.4 4.6-4 .7-1.4 2.3-.1.8 2.4a12 12 0 0 1-4.6 3.6m-8-1c6 9.3 21-2.4 13.2-12.4 11.6 8.6-8.3 27.6-13.2 12.4m9-12c-1.8-1.3-4.7-.2-7 1.8-2.4 2.2-2.6 5.5-1 7 1.8 1.7 5 .6 7-1.6 1.6-1.8 3-5.7 1-7.3zm.1 8.2c-2.7 2.8-6.6 3.5-8.7 1.5-2-2-1.7-6 1-8.8 2.7-2.8 6.6-3.5 8.7-1.5 2 2 1.7 6-1 8.8" fill="#fff"/><path d="M164 223c-3.6-.3-6.8 4-5.5 6 0 0 1 1.4 1.2.1a7 7 0 0 1 4.7-5c.5-.1.7-1-.4-1zm-6.4 8c-1.6-1.6-1.4-5 1-7 2.2-2 5.2-3 7-1.8 2 1.5.7 5.5-1 7.3-2 2.2-5.2 3.3-7 1.6" fill="#2b1d14"/><path d="M159 230c-.2 1.3-1.2-.1-1.2-.1-1.3-2 2-6.3 5.5-6 1 .2 1 1 .4 1a7 7 0 0 0-4.7 5m-18-19l2 1.4c-10 6.3-22 10.4-42 4l-1-.3a71 71 0 0 0 15.5 1.8 42 42 0 0 0 20.3-5.8l-3.7-2c-17.4-8.4-32-10.8-40.3-11.4-8.2-.6-6.6 4.2-1.2 7 3 1.5 5.4 4.4 6.5 9.6-1-.5-1-.3-2.2-.5h-.1c-1.8-12.8-26.8-11.5-24 6L65 232.2c0-.2-.5 2.7-.2 2.8l8.6-13c-3.4-12 14-16.8 18.7-8-15.3-2.8-16 5-15.7 7.6-.1.4-.2.8-.3 1.2C73.5 225.5 65 237 55 255c-1.3-10.6 10.6-35 11.6-37.4l1-2.5c-3.6-10 6.8-23 25.5-20 18.4 1.7 39 9.4 47.8 15.8" fill="#fff"/><path d="M399 243l3.7-6.7 5.7 7.8-9.4-1m9 19l8 .8c1.7 6.2 2.7 12.8 3 19.6v2l59.6-10-5 12-55 10-.1 1.7-.7 6.8-7.6-.8c1.8-13.8 1.3-28.2-2.6-41M304 338l3.5-3.4 1-.7c-3.5 18-3.7 37.2 5.5 54.3l-2 4.5c-3.3-5.6-6-12.2-7.7-19.8-2.4-11.2-2-23.2-.1-35m20-70l9-1.4V268.3c10 7.2 17.8 19 22 30.2l-.7 1.5-1.5.1c-10.5.6-22 2-33.7 7.2l7.7-32.3c-2 8.8-7 20.6-11.2 34l-5 2.6L324 268" fill="#2b1d14"/><path d="M405 352c-3.6 16.8.2 48 12.5 57-17.5-2-22.4-46-12.5-57" fill="#fff"/><path d="M346 318l-30 66.3c-7-17.5-6-36-2.4-54A64 64 0 0 1 346 318m59 34c-10 11-5 54.8 12.5 57-12.2-9-16-40-12.5-57zm58 96.7c9.5-5 26.7 1.8 16.3 18.3l-22.4 40.3-8.7-4 17.4-35c1.3-.2 2.5-.2 7.6-1.7 6.6-2 7.7-16.7-4.8-15.5l-5.6.7c0 0 0 0 0 0l-8.7 1c3.2-12.4 2.3-29.2-14.5-33 8.7 3.8 1 6.4.6 6.6-18 4-48.2-1.4-51.5 1 19.3 2 20.8 11.5 19.2 21.5l-3-.6c2-10.5-2.5-14.4-8.3-16.6-9-3-15.2-3-15.5-3l-5.8.2c2.5.8 7.4 1 13.5 2.3 9.3 2 14.7 6 14 16.7l-3.6-.7c.1-3-.3-5.7-1.3-7.6-2-3.4-8.4-4.7-11.8-5.3l-5-.7c-20-2.6-27.8-6.3-40.5-13l-2.3-1.5a75.3 75.3 0 0 1-13.9-10.7l1.8-4c2.3 2.3 4.8 4.5 7.6 6.6 0 0 5.6 5 12.7 8-10.2-6.5-16.5-13-19.6-16.3l29.5-65c-2.4 18.2 32.4 32 45.2 1.8l6.3-19 7.7.8-3 10.2a131 131 0 0 0-3.2 29.9v1.7c5.3-6 24-26.6 46.7-33.2l-5.6 13.8s-22.7 9.7-39.6 35.7l.6 3c2 9.5 5.3 18.5 10.8 25.5l1 1.3a14.7 14.7 0 0 0 1.8 2.2l35.8-84 11.4 1.4-37 87.6a22.3 22.3 0 0 0 1.8.2l2 .2c8.6 1.5 13 5.4 16.3 11.3 2.8 5 3.2 11.8 2.7 17.3 1 1.4 2.2 2.4 4.4 3.6" fill="#2b1d14"/><path d="M245 306c-.8-10.4 8.7-12 14-10 1.2-8.4 8.5-8.7 12-8a10 10 0 0 0-14.6 7c-6.7-2-14.3 3.4-11.5 11zm1.8 2.2c1.6 1.4 3 2 5.3 1.8-1-1.6-1.4-4-1.6-6.4-.5.4-1 .4-1.4 1V303c.3-.6.8-.7 1.5-1.2 0-1.5.1-2.7.4-3.7-.3.1-.5.4-1 .6-5 2.8-3.3 9.7-3.3 9.7zm8.4 1.5c3.6-1 6.2-4.3 6-7.5h.4c-.3-2.3-2.8-5.6-7.8-4.8-.3 1-.3 2-.3 3.2a7.2 7.2 0 0 1 2.7-.4c0 .5.1 1.5.1 1.5-1 .1-2 .4-3 .8.1 2.7.7 5.2 1.8 7.3zm8.5-7.7c7.2.2 13-7 9.3-12.3l-1.3-.2c-6.3-.8-10 1.7-11 7.3 1 .7 2.6 2.6 3 5.2zm-8.5-9.3s.4-1 1.2-2.6.4-1 1.2-2.6c.7-1.3 2-2.5 3.2-3.3 9.7-5.8 15 1.6 15 1.6 0 .1 4.5 5.8-2 12-.2.2-4 3.7-9.4 3a11 11 0 0 1-11.4 8.2h-.1-.1c-6.4-.4-8-4-8.7-6 0 0-1.7-4.4.8-8.2 0-.1 3.2-6.2 11.4-5" fill="#fff"/><g fill="#2b1d14"><path d="M425 491c-2 1.4-5.4 6-5 9.8 5-.1 6.4-7.3 5-9.8m5-13c-2.5 2.5-3.8 5.2-4 9.2 4-.8 6.4-5.7 4-9.2m-21 10s3-9.8 7-19.6c10.4 2.7 18-16.5-.5-18 1.8-7.7 19-4.5 12.4 13-1.3 3.5-13 27.5-15 33.4-1.4 3.8-1.5 4.5-1.4 5.8 0 0 0 1 .2 1.4 0 .1-.3-.1-.3-.1l-3.7-2c-2.7-3.2 1.4-14 1.4-14m-7 0l7.6-21.7 3.8.7-7.2 20s-3 7.7-1.4 12.7l-3.4-1.6s-1.6-3.3.6-10m26-42c14-1 17.2 5.2 17.2 5.2l-13.2.1c-.2-2.7-4-5.3-4-5.3m-162-70c2 0 4.3-2.7 4.3-2.7l5.2-5.7 19.4 31.8c3.2 5 9 12.2 8.6 11.8l-3.6 8.3c-1.5 3-1.2 5.7-1.2 5.7 1 1.2-6.8-8-10-13.5L266 376m246-39c.5 0 2.5-.3 4.5-2a155 155 0 0 0 17.8 3.1s-16.6-1.7-22.2-1.3m0 0h-.1.1m5-53s-10-.1-24 .1l4.2-9.6 15.8 3s5.8.2 4 6.4m-38 28l-11-1.7 16-38.2a89 89 0 0 0 11 2.2L479 312m24-55l-11.8-2.5s13.4-24.4 38.6-36.8L529 231s-16 11-26 26m76-43s3-8.8-29.2-13c0 0 19.2 2.7 24.4 9.2 0 0 5 4.2-5.2 6.5-10 2.2-11.5 1-21 5.2l.4-11.7s6.3-2 9.8-1.7c0 0 .2 3-8 5.4 0 0 35-3.3-2-11.3 0 0 .2-7.3-.8-12l25 6.7c6.7 2 19.6 8 6.5 16.5m-222 86l18.5-40a51 51 0 0 1 12.6.3L369.7 300s-5.4-.8-12.7.1m-54 127c-1-1.8-1-3.7 0-5.6l47-103c5.5-1.2 12.5-.8 12.5-.8l-52 113c-.1.1-1.3.5-2.6.5-2 0-4.7-1.4-6-3.7M542 189c2 1 2.8 3 3 5.3 4 45.4-13.3 106-31 138-2.5 2-5.5 2-7.8 1-1.2-.5-2.6-1.7-2.6-2l-.1-1v-.5s-2-.7-5-1.2c-24.6-5-108-15-131-14.5-.6 0-11.7-.1-21.2 1-17.4 2-26.4 7-39 16.8-11.3 10.5-34 34-38 39.4-2 2.2-5.2 1.6-7 .2-2.4-2-3.6-5.4-1.3-8.6l32-31.7a81 81 0 0 1 59.4-27.8c13-1 29.7-.1 26.7-.3L507.6 320c1.5-.7 3-5.3 3-5.6v.2c3.3-8.3 10-29.8 10-30 0 0 1.8-6.6 1-7.3-1-1-10-3.2-10-3.2-16.2-4.3-83.4-14.3-120-16.3-.3-.1-9.8-1.5-30.4 1.6 0 0-135 22-135 22l-7.5-10.3c-.6 0 139-22.8 139-22.8 12.7-2 22.8-2.5 30-2.4l4 .1c5 .2 8 .7 8 .7l116 17.2a31 31 0 0 0 6.2.6c1 0 2.6-.7 2.6-.7.5-.5 1.2-1.8 1.7-4 5.5-19.8 6.6-49.6 6.7-51 0 0 .1-6.2-1-8.6-1.3-1.4-5.8-2.2-5.8-2.2-49.8-12.8-108-3.8-131 44.6l-12.3-.3c.4-1.7 2.3-5.2 2.3-5.2 14.5-32.2 40.7-45 63-51 24.4-6.4 53.4-6 80.4 1 4.4 1.5 4.2 1.8 4.2 1.8 4-2 8-.3 8-.3M243 306c.7 2 2.2 5.5 8.7 6h.1.1a11 11 0 0 0 11.4-8.2c5.3.7 9.3-2.8 9.4-3 6.4-6.3 2-12 2-12-.1-.1-5.4-7.4-15-1.6a9 9 0 0 0-3.2 3.3 9 9 0 0 0-3.2 3.3c-.8 1.5-1.2 2.6-1.2 2.6-8.2-1.3-11.3 5-11.4 5-2.4 3.8-.8 8.2-.8 8.2zm-8.3 23.3c-1-1.8-3.4-5.7-8.3-12.6-2-3-3-5.7-2.2-8 1-3.6 4.8-5.3 4.8-5.3h.1l.1-.1 25.7-15.7 7.4-4.6c5.5-3.6 12-.7 15.4 4 3 4 4.2 10-2 15.8 0 0-1 1.4-6.4 4.4L239 325.2s-3.2 2-4.3 4.2"/><path d="M282 313l-24.4 16.4-2-2 23.6-15.7c5.5-3.7 7.7-8.4 6.8-13.2 0 0 4.7 8-4 14.4m-41 15l34.5-20.6s7-4.5 7.4-10.3c2.2 6-1.5 10.7-5.2 13.3L253.2 327c-4.6-1.2-14.3 4-14 10.2-2.4-2-3-6 1.7-9m20-31c1-5.6 4.6-8 11-7.3l1.3.2c3.6 5.3-2 12.5-9.2 12.3-.4-2.6-2-4.5-3-5.2m-4-2c1.6-8 10.2-9.8 14.6-7-3.6-.6-11-.4-12 8-5.4-2-15-.5-14 10-3-7.7 4.8-13 11.5-11m286 42l-24-5.2 4-9c-.4-.2 3.6.6 7.8 1.4l18.5 4.3c3.8.7 4.3 4.2 4 5-.4 2.4-1.6 4.2-4.6 4.7l-6-1m15-47l-21.7-4.4 1-3c4.4.4 23.4 5.2 23.4 5.2 3.6.1 3.8-2.4 3.8-2.4-7.3-2.7-26-6.6-26-6.6l2.6-10.4 27 6.4c6.5 2.7 4 10.3 4 10.3-2.5 8.8-14 4.8-14 4.8m7 37c-4 15.2-12.8 13.3-12.8 13.3 4.8-1.5 9-9.6.1-14.4 0 0 5.6-14 9.5-31.5 16 .1 17-19.2 7.5-22.3l7.8-48c.2-3 .1-5.7.1-5.7 6.7-1.4 10.6-6 10.6-8.6 3.3 19.5-8 76-22.8 117m-93 10l3.6-8a276 276 0 0 0 24.9 3.8s.2 3 3.3 3.3c0 0-13.6-1.5-31.8 1m-240-39s-8.8 5.3-10 7.4l-17.5-26.8c-1-1.3-1-2.6-.4-3.8 1-2 3.8-3.8 6.4-4 1.4-.1 3.3.2 4.5 2 0 0 13.2 19.6 17 25m80 136c1.2-.7 1.4-1 2.8-3.4l3.3-7a56 56 0 0 0 16.6 8.6c25.2 10.2 55.2 16.2 81.8 21.6l2 .4c4.3.7 5.5 3.3 5.2 5.6-.4 2.5-3.3 5-7 4.5-33.2-5.4-71.6-15.3-90-23L312 434m-69-96l-.1-.1c-1.6-2 1-4.6 1.6-5 2.4-2.3 6.2-3.7 8-2.3l13.4 21.3s-5.3 4.8-8.7 9.4L243 338m204 129s2.7-6.3 2.7-10.7L469 454c4.3 0 5 3 5.2 4 .2 2.3-1 5.2-3.3 5.5h-.1l-.1.1c-3 1-18 2.7-23.7 3.3M256 301a7.2 7.2 0 0 0-2.7.4l.4-3.2c5-.8 7.5 2.4 7.8 4.8h-.4c.2 3.2-2.4 6.4-6 7.5-1-2-1.7-4.5-1.8-7.3 1-.4 2-.8 3-.8 0 0-.1-1-.1-1.5"/></g></g><path d="M250 299c.3-.2.5-.4 1-.6-.3 1-.4 2.2-.4 3.7-.6.4-1 .6-1.5 1.2v1.7c.5-.5 1-.5 1.4-1a14 14 0 0 0 1.6 6.4c-2.4.1-3.7-.5-5.3-1.8 0 0-1.7-7 3.4-9.7m185 182c1.3-5.8-3-9-7-4a16 16 0 0 0-3.3 6.2l-.1.4c-.7 3-.4 5.5-.4 5.5-2.6 2.3-3.7 4.4-4.5 6-2.5 7.3 0 9 1 9.4 4 1 9.6-5 9.3-14 2.2-2.2 4-4.3 5-9.4zM55 255a196 196 0 0 1 21.2-32.4l.3-1.2c-.2-2.6.4-10.5 15.7-7.6-4.7-9-22-4-18.7 8l-8.6 13c-.3-.1.3-3 .2-2.8l5.7-11.7c-2.8-17.4 22.3-18.7 24-6 .1 0 .1 0 .1.1 1.3.2 1.3 0 2.2.5-1-5.2-3.6-8-6.5-9.6-5.4-2.7-7-7.5 1.2-7 8.3.6 23 3 40.3 11.4l3.7 2a43 43 0 0 1-20.4 5.8c-4 .3-10.7-.8-15.5-1.8l1 .3c20 6.6 32.2 2.5 42-4l-2-1.4c-8.8-6.3-29.5-14-47.8-15.8-18.7-3-29 10-25.4 20l-1 2.5c-1 2.4-13 26.8-11.6 37.4zm405 214l-14.7 33.2-3.3-1.3c-.8 1.5-2.2 2-4.6 2.3-122 218-497 97-407-191A320 320 0 0 1 52 260.1c-.6-2.6-1.6-7.4 0-14 2.4-9.2 4.5-15 12-31.2-3-11 7.4-27.3 32.4-22.5 29.8 4.6 45.4 15.4 49 18.2l3-2.2c53-41.3 139-44.6 171 4.3 12.7-2.6 28.6-.5 28.6-.5 16.6 1 30 5.5 40.3 12.4l-3.6 6.4c-13.4-9-32.6-14-59.7-11.7l-1.7.2a81 81 0 0 1 8.1 29.7l-6.2 1a63 63 0 0 0-3.3-23.6 53 53 0 0 0-6.7-12.9c0 0 0 0 .1 0a67 67 0 0 0-25.1-22.1c-40-21-102-8.7-138 18.2-20.8 15.5-33 15-52.7 9-22-6.7-21 6-21 6a310 310 0 0 0-49.8 107c-34.7 139 43.3 236 143 268a211 211 0 0 0 216-96.5c-1-.6-1.8-1.3-2.4-2.2-3.3-5.2 1-13.7 1.2-14.5l8-23 3.7.7-9 25c-3.6 8.4.4 11.5.4 11.5-1-3-.2-6.7.4-8.6a504 504 0 0 1 8.4-22.8l1.7-4.7 3 .6-10.5 29.6c-1.7 6 .6 6 3.2 6.3 1.4.1 5.7 0 7 0l11.5 5.8c-40 67.6-120 113-225 97.5 83 20.2 177-3.7 234-84.5l10-16.8h-2c-3.2 4.5-6.4 6-10.2 6-.2 0-7.7 0-6.8-7.7.3-2.4 1.3-5.2 2-6.5.3-2.4 1.3-5.2 2-6.5l12.5-26s4-8 4.3-12.3l14.6-.3s.2 4.4-3 12.4l-11.4 31c.7 0 3.6-.1 5.2-.4l11.4-29.7 2.5-.2c0 0 0 .1-.1.2l8-1" clip-path="url(#E)" fill="#2b1d14"/><path d="M430 478c-2.5 2.5-3.8 5.2-4 9.2 4-.8 6.4-5.7 4-9.2zm-5.2 13.5c-2 1.4-5.4 6-5 9.8 5-.1 6.4-7.3 5-9.8zm10-10c-1 5-2.8 7.2-5 9.4.4 9-5.2 15-9.2 14-1-.4-3.6-2-1-9.3 1-1.7 2-3.8 4.5-6 0 0-.3-2.5.4-5.5l.1-.4c.7-2.4 1.6-4.2 3.3-6.2 4.2-4.8 8.3-1.7 7 4" clip-path="url(#F)" fill="#fff"/><g fill="#311d00"><path d="M181 277.4a28 28 0 0 0-21.1 27.2c0 5.2.4 7 2.3 11 5.5 11.3 18.5 15.4 30.3 10a30 30 0 0 0 16.5-21.4c.5-3.3.3-3.8-7.4-15-7.4-11-8.2-11.7-11-12.2-4-.7-5-.6-9.4.6zm40.8-99.2c-26 3.8-51 14.2-72.5 30.3-2.7 2-2.8 2-5 .6-15-9.7-39.6-17.2-56-17.2a20 20 0 0 0-12.6 2.7c-7.3 3.8-10 7.7-10.7 15.8a46 46 0 0 1-4.5 15.2c-6 14-8.2 22.2-7.8 29.2.4 5.7.3 6-3.7 14L35 304C8 383.3 14.3 457 52.8 514.5c21 31.2 49 56.2 84.8 74C212 625.7 301.6 622 368 579c25.4-16.6 48.7-40.7 65-67 5.4-8.8 7.5-10.7 12-11 1.3-.1 3-3.2 8.5-15.4l6.6-15.7c-.1-.1-2.5 0-5.3.3l-5 .6-10.2 28.7c-.5.6-2 1-3.4 1-2 0-2.4-.3-2-1.5l14-42H434l-.5 2.7a208 208 0 0 1-9 20.2c-9.4 19.6-10.6 23.8-7.3 27 1.2 1 3 1.8 4.8 1.8 3 0 8-2.6 8.8-4.6.3-.7 1.3-1.2 2.2-1.2 1.7 0 1.7.2-1 4.8a220 220 0 0 1-48.2 56.3c-47.7 38.4-108.8 54.3-172 45l-15-3-6.2-1.6 17.5 1.6c11 1 34.8 1 45.5 0 20.3-2 40.6-6.5 57.8-13 18.7-7 41.7-19.8 57.4-32.4a257 257 0 0 0 28.5-28.2c5.4-6.4 17.8-24 17.8-25 0-1.2-10.3-5.5-13.5-5.5-5.7-.1-7.7-1-8-3.4a106 106 0 0 1 5.2-17.4l5.5-15.5c0-.2-.5-.3-1-.3-1.7 0-10.8 25.3-11.3 31.2-.4 4.4-.5 4.8-1.5 3.4-2-2.7-1.3-6.6 4-20.8 2.8-7.6 5-14 4.6-14.3-1.4-1.4-3.2 1.8-7.4 14.2-5.3 15.2-6 19.8-3 22.8l1.8 2-6 8.6c-28 39.4-69.6 69.5-116 83.2a221 221 0 0 1-72 7.6c-19.2-1.4-24.8-2.6-38.4-8-52-20.6-92-56.4-115.2-104-17-34.3-24.3-74-20.8-114.4a311 311 0 0 1 48.9-139.2l8.5-14.2c0-1.7 3-4.8 5.5-5.8 3.4-1.3 7.2-1 17.5 2A61 61 0 0 0 121 222c12.4.1 17.7-2 36.2-15 13.8-9.7 36.6-19 55-22.7 26-5.2 49.4-4.3 69.3 2.8a64 64 0 0 1 45.6 56.5l.6 6.5 2.2-.6c1.2-.3 2.3-.7 2.5-.8a75 75 0 0 0-4.2-19.5l-3-8.4c-1-3.3 25.6-2.6 40 1a83 83 0 0 1 13.8 5.2l7.2 3.6 1.4-3c.8-1.6 1.3-3 1-3-1.3-1.2-13-6.4-17.4-7.8a131 131 0 0 0-43.2-4.3l-7 .8-2.5-3c-17.7-22-43.4-32.8-77.6-32.6L222 179zM103.4 196c14.5 2.8 32.5 9.6 38.8 14.7l2 1.6-5.4 2.7c-6.8 3.3-11 4.3-18.7 4.3-6 0-17.4-2-19-3.4-.5-.5.3-.5 2-.1a72 72 0 0 0 25.1-.9c7.4-2.4 7.6-3.3 1-6.3-12-5.4-32.2-10.6-39-10-4.2.4-4 2.6 1 6 2.8 2 4.6 4 5.5 6.4.8 2 1.2 3.6 1 3.8-.8.8-3-1-4-3.4-2.3-4.8-9.3-6.8-15-4.4-4.3 1.8-6.5 4.8-7.2 9.8a37 37 0 0 1-2 7.7c-1.8 4.3-1.3 4.6 1.3.7 1.2-1.8 2.3-5 2.5-7.3.4-3.2 1-4.6 3-6.4 4.5-4 10.5-4 15-.3l2.3 2h-5.2c-7.6 0-11 2-11 6.8 0 1-2.2 4.5-4.8 8.2A256 256 0 0 0 61.6 245L55 255.2c-1 0 .7-9.3 2.7-15.7a187 187 0 0 1 5.8-15.1c3-6.7 3.8-9.6 3.8-13 0-5 1.2-8 4.7-11.2 6.2-6 15.4-7 31.4-4zm330.4 279.2c2.7 1.8 2 8.4-1.6 13.7a18 18 0 0 0-2.4 6.5c-.8 6-6.3 11.5-9.5 9.5-2.4-1.5-2-8.5.8-12.6 1.2-1.8 2.5-4.8 2.8-6.6 1.4-7.6 6.4-13 10-10.5zM193 238.2c1 .2 2.5.2 3.3 0s-.1-.4-2-.4-2.5.2-1.4.4zm-33.6 13.6c-.6-.6 10.4-7.3 15-9a79 79 0 0 1 9.4-2.8c12.5-2.7 26.7-.3 37.3 6.4l3.7 2.8c-.1.1-3.4-1-7.3-2.6-18.3-7.4-35-6.7-51.5 2.2l-6.5 3zm4.2-9a8 8 0 0 1-1.8-.2c-3.7-1-6-4-6.5-8.7-.4-3.6-.4-3.6 1-1.8.8 1 2.3 2 3.6 2 1.6 0 2.5.6 3.2 2 .8 1.8.8 2-.5 2-.8 0-2.5-.8-3.7-1.7-2.7-2-3-.8-.2 2.2 4.6 5.4 14 .1 15.3-8.6.4-2.8.1-3.7-1.8-5.8-1.7-1.8-2-2-1.6-.8 1.3 3.5 1.3 7 0 9.4-.7 1.4-1.7 2.6-2.2 2.6s-.3-.8.4-1.8c1.6-2.3 1.7-4 .1-4-1 0-1-.7-.7-3 .3-2 .1-3.4-1-4.6-1.4-1.6-1.4-1.6.7-1.6 1.2 0 3.4 1 5 2.4 2.4 2 2.7 3 2.7 6.5 0 7-5.8 13.4-11.8 13.3zm-4-10.6c-.7 0-3-2.7-3-3.6 0-.5.6-.2 1.3.7 1 1.3 1.4 1.4 1.8.5.2-.7 1.6-2.4 3-3.8 2.3-2.4 2.6-2.5 3-1 .4 2.3-1.3 5.2-3.7 6.3a15 15 0 0 1-2.4.9zm87 61.3c-18.7 11.4-22 14-22 17.4 0 1 2.3 5.5 5.2 10l5.2 8 2-2c1.2-1 10-6.7 19.6-12.5a201 201 0 0 0 19.8-12.9c5.6-5.8 3.8-14.2-3.7-18.2-5-2.5-6.8-1.8-26 10zM274 288c4.8 4.8 2.6 12.6-4.4 15.4-1.8.7-4 1.3-4.5 1.3s-1.8 1-2.6 2.4c-2 3.3-5.8 5.4-10 5.4-4.4 0-7.6-2-9.2-6a10 10 0 0 1 9-13.5c1.8 0 3.3-.3 3.3-.8s1-2 2.2-3.3c4-5 12-5.4 16.4-1zm-67.4-15.3c-1.4 1-1.8 2-1.6 3.5.4 2.4 16.5 27.6 17.6 27.6.4 0 1.7-.8 3-1.7l6.2-4.6-9-13c-8.4-12.3-9-13-11.6-13-1.5 0-3.5.6-4.6 1.4zm47.2 26.4c-.3 1 0 1.3 1.2 1.3 2 0 2 1.7 0 2.3-1.3.3-1.6 1-1 2.6 1 4.5 1.6 4.8 4.4 2 1.4-1.4 2.6-3.4 2.6-4.3 0-3.6-5.8-6.8-7-3.8zm-4.8 1.6c-1.6 2-2.2 7.2-.8 8 3 2 4.5-.4 2-3-1.2-1.2-1.2-1.7-.3-3.4 1.2-2.3.7-3.5-.8-1.7zm14.4-8c-1.2 1.5-2 3-2 3.2a50 50 0 0 1 1.5 3.2c1.3 3 2.7 3.3 6.4 1 3.2-2 4.6-4.4 4.3-7.4-.2-2-.6-2.3-4-2.5-3.4-.2-4 0-6 2.4zM469 183a139 139 0 0 0-41.2 11.4c-18.6 9.4-34.8 26.2-42.4 44.6l-1.3 3h11.6l2-4c3.3-6.5 11.8-17.2 17.5-22 14-11.8 30.7-19 51.7-22.2 9.3-1.4 30.7-1.2 41 .4l24 5.6c3.4 2.8-1.3 50.8-6 62-1 2.5-1.5 2.8-4.4 2.8a127 127 0 0 1-15.2-2.5c-21.7-4.6-51-9-88.8-13.3-24.6-2.8-36.6-3-51.3-1.2l-145.6 24c-.8.8 5.6 9 7 9a6320 6320 0 0 0 70-11.4l68.8-11.4 45 1c45.4 5 91.2 12 106.4 16.4l4.5 1.3-.5 3.7a294 294 0 0 1-12.9 38.7c-1.4 1.7-1.4 1.7-9.8.1l-100.8-13.8a336 336 0 0 0-55-.4 85 85 0 0 0-39 16.4 579 579 0 0 0-43.8 44.2c-.7 2.8 2 6.4 5 6.7 2 .2 3.2-.7 7.8-5.8l40-39c16-11 29-13.8 60.6-13 23.8.7 58.8 4.2 100 10.2 27.5 4 30.4 4.5 30.4 6 0 .6 1.2 1.8 2.7 2.5 5.8 2.8 8.5-.6 16.8-21a286 286 0 0 0 21.6-102.4c.1-13.6-.1-15.7-1.4-17.8-1.3-2-2-2.3-5.8-2.2-2.4.1-8-.8-12.4-2a175 175 0 0 0-55.7-3.8zm71.2 90.4l-1.2 4.8 12.4 3 12.8 3.5c1 1-.6 3-2.3 3a128 128 0 0 1-12.6-2.6c-7.5-1.8-11-2.3-11.7-1.7-.5.5-.7 1-.5 1.2 1 1 26.6 5.6 28.8 5 5.2-1 8-8.2 4.8-12.7-1.7-2.4-12.2-5.6-26.3-8l-3-.5-1.2 4.8zM585 215c-1.4 1-3.5 2.3-4.8 2.5-2.2.5-2.3.8-2.3 4.8 0 4.4-3 24.4-5.8 39.7l-1.7 8.7 2 2c7.2 6.6 3.7 18.3-6.3 21.2-3.5 1-3.7 1.2-4.8 5.6a327 327 0 0 1-4.5 15.2c-3.4 10.6-3.4 10.7-1.7 11.8 2.6 1.8 3.5 5.4 2.3 9-1.3 3.7-.6 4 2.2.8 3-3.3 4-5.7 9-20.4l17.5-73c2-13.3 3.2-30 2-30-.4 0-2 1-3.2 2zm-63.2 111.2c-1 2-1.6 4-1.6 4.5s1.8 1.2 4 1.5c2.2.3 8.6 1.6 14.3 3 11 2.6 12.5 2.5 14.2-1 1.2-2.2-.7-5.3-3.5-6l-23.8-5.2c-1.6-.4-2.2.1-3.5 3zm-48 6.4c-.7 1.7-1.2 3.2-1 3.3a279 279 0 0 0 14.2-.3c11-.4 13.8-.7 13.3-1.6-.7-1-10-3-19.5-4l-5.4-.6-1.3 3.2zm-68-5.6c-4.2 14.4-10.3 24-18 27.8a28 28 0 0 1-18.8 1c-6-2-12-8-13-13l-.7-3.6-28.6 63 3 3c1.7 1.7 6 5.3 9.4 8a39 39 0 0 1 6.1 5c-.7.7-7.4-3.5-13.4-8.2-5-4-6.6-5-7-4-2.4 4 22 19 37.5 23.2a193 193 0 0 0 16.6 3.3c13.2 2 17.3 3.6 18.8 7.3.6 1.5 1.2 3.7 1.2 5 0 1.3.5 2 1.2 2 1.8 0 1.6-5.7-.4-9-2.3-3.8-7-6-16.7-7.5-4.6-.7-8.3-1.7-8.3-2.2 0-1 10.7-.1 17 1.5 9.5 2.5 13 6.2 13 14 0 3 .3 3.8 1.4 3.8 1 0 1.3-.8 1-5-.6-8-5-12.4-14-14.3-8.7-1.8-5.3-2.5 8.6-1.8 32 1.6 45.5-.4 39-5.7l-2-1.6 2 .6c4 1 8.3 4 10.3 7 3 4.6 4 9 3.7 17.4l-.3 7.7 5.4-.7c9.6-1.2 13-1 15.4 1.3 1.7 1.6 2 2.8 2 6 0 5.4-2.3 7.7-9 9l-5 1-15.2 34 3.3 1.7c1.8 1 3.6 1.7 4 1.7a259 259 0 0 0 13.1-22.2l12.4-26.2c0-3.3-.4-4.4-2.4-6.5-3.3-3.4-8-4.7-13-3.4-3.3 1-4 .8-5.8-.6-2-1.4-2.2-2.3-2.6-8.7-.4-5.6-1-8-2.7-11-3.7-6.3-8.8-9.8-16.2-11-2-.3-3.4-.8-3.4-1S443 395.6 453 372l16.8-43.4c-.7-.3-3-.7-5.2-1l-4-.4-38.4 81.4a64 64 0 0 1-9.8-19.6c-3-10.6-3.2-9.4 3-17.6a100 100 0 0 1 29.1-25.7c5-3 5.5-3.7 7.7-9 1.3-3.2 2-6 2-6.2s-4.3 1.6-9 4c-10.5 5.2-19.2 11.6-29 21.3l-7.7 7.2c-1.5 0 1-23.5 3.8-34a38 38 0 0 0 1.4-7.2c-.2-.1-1.6-.5-3.3-.7l-3-.5-2 6.4zm-1.2 26.6c-1 4-1.4 14-.6 21.6a58 58 0 0 0 10.2 30.5c2.6 3.3 2 4-1.7 2-7.6-4-13.5-19.6-13.5-35.7 0-9.2 2.7-19.8 5-19.8.5 0 .7.7.4 1.5zm-68.4-33c-8 2-9.8 3-16.8 6.8l-6 3.4-1 6.3c-1.6 10.6-2 22.7-1 29.8 1.2 8.4 3.4 16.6 4.3 15.7.6-.6 26.6-57 28.3-61.7 1-2.3 0-2.4-8-.2zm14.4-1.6a2164 2164 0 0 0-48.2 105.6c0 2.5 3.7 6 6.3 6 1.3 0 2.3-.8 3-2.3L361 319.5c.8-1.4.4-1.5-4-1.5-2.7 0-5.5.5-6.3 1zM329 267.8c-4.8.8-5 1-5.6 5a248 248 0 0 1-6 20l-5 17c1.5 1.5 3.4-2.2 8.2-16.5l6.3-15.6-6.8 27.6c-.5 1.2.3 1 5.8-.6a106 106 0 0 1 24.2-4.5c2 0 3.8-.3 4-.8 1.5-2.4-9.4-19.8-16.3-26.3a42 42 0 0 1-4.8-5c-.3-.6-1.7-.7-4-.3zM222.6 191a141 141 0 0 0-32.2 7.5c-13 4.8-33.2 14.6-32.2 15.5a47 47 0 0 0 8.2-3.4C208 191 247.2 188 277.6 203a66 66 0 0 1 29.1 25.9c3 5 7 16.4 7 20 0 1.6.4 2 2 2 1.8 0 2-.4 2-2.6 0-6.5-4.4-18-10-26.2-15.4-22.3-48.3-34.3-85.6-31zm37.6 49.6l-2.4 1.7c-.7.6 2.8 3.6 4.2 3.6 3 0 6.7-5.5 3.8-5.6a8 8 0 0 1-2.3-.6c-.7-.3-2.2.1-3.3 1zm-5.6 3.2c-.7 1.2 1 6.5 2.2 7.3.6.4.7.1.4-1-.5-1.3-.1-1.4 3-1 2.5.4 4 .2 5.2-.7 1.5-1 1.3-1.2-2.3-.8-4.2.5-6-.4-7.2-3.4-.4-1-.8-1.3-1.2-.6zm-1.6-1.6c-1.5 3-1.7 5.7-.5 9 1.3 3.3 1.7 2 .6-1.6a6 6 0 0 1 .6-6c.8-1.6 1.3-3 1-3.4s-1 .7-1.8 2zm15.2-2.4c.2 1.8 0 4-.5 5-.6 1.2-.7 1.8-.1 1.8.5 0 1 .8 1 2 0 1.7.1 1.8 1 .4.5-.8.8-3.2.6-5.2-.3-4 .4-4.7 1.8-2 1 2 1 7.2 0 9.4-.5 1-.7 2-.4 2.2 1 1 3-6 2.6-8.6-.5-2.7-4-7.8-5.4-7.8-.4 0-.5 1.4-.2 3.2zm98.4 39.2l-9 19.6c-.2.4 2.4.6 5.7.4l6-.2 18-38.8h-12l-8.6 19zm42.4-16a161 161 0 0 0 1.3 7.5 93 93 0 0 1 1 19.4l-.3 12.4 2.4.5c4.5 1 4.7.7 4.7-3.6 0-4 .1-4 2.7-4.6l52.5-9 2-5c1-2.7 1.8-5 1.6-5.4a436 436 0 0 0-28.5 4.3l-29 4.7c-.5 0-1-2.6-1.4-6.5a92 92 0 0 0-1.4-10.8c-1-4.4-1-4.4-4.2-4.4-1.8 0-3.3.3-3.3.6zm-8-23.2l-1.4 3 3.7.3c2 .2 3.7.1 3.7-.2s-1-1.7-2.3-3.2l-2.3-2.8-1.4 3zm81.6 34.4l-7.7 18.5c-7 16.5-7 17.5-3.3 17.5.7 0 2.5.2 3.8.5 2.5.5 2.5.5 6-8.6L494 274l-10-2c-.2 0-1 1-1.4 2.3zm13.6 4.8l-1.7 4.2c0 .2 5.2.3 11.7.3 12.2 0 13-.3 10.6-3.6a66 66 0 0 0-18.2-4.8c-.4 0-1.5 1.7-2.4 4zm27.2-56.8a110 110 0 0 0-25.8 24.4l-5 7.5a37 37 0 0 0 5.6 1.4c4.5 1 5.3 1 6-.1a120 120 0 0 1 23.4-23.3c2.2-1.6 2.3-2 2-7.6l-.2-6-5.8 3.5zm25.6-25.6c.3 3 .8 5.5 1 5.8s2.4 1 4.7 1.5c6.2 1.5 11.3 4 11.3 5.5 0 1.8-4.6 3.6-10.6 4.2l-4.8.5 3.5-1.8c4.2-2.2 4.7-3.7.8-3-5.6 1-5.5 1-5.8 6.5l-.1 5.4c.1.2 1-.2 2-.7s6.3-2 11.8-3 10.6-2.4 11-3c4-3.3-2.2-8-16-11.7l-6-1.6 4.5.5a75 75 0 0 1 11.3 2.6c5.3 1.7 7.5 2.8 9.8 5.3l3 3.2 2-2c1-1 2-3 2-4 0-4.6-4.6-7-22-11.7l-12.6-3.4c-1.3-.4-1.4.1-1 4.8zM315.4 429.4l-2.6 5 6 3c16.2 8 45.8 16.6 80 23.4 18.4 3.7 21 3.8 23 1.3 4-4.8 1.3-6.2-17.4-10l-58.2-15c-13-4.4-25.5-9.8-26.5-11.5-1-1.6-1.7-1-4.3 4zm90.4 50.4c-4.8 14-5.3 17.5-2.7 19 1.6.8 1.7.6 1.7-3.2a56 56 0 0 1 4.1-15.6c4-11 4-12.7 1.7-12.8-.2 0-2.4 5.7-4.8 12.7z"/><path d="M418.6 447c-2.7 1-2 2.4 2 3.8 4.4 1.5 6.2 4 6.2 8.3 0 4.8-3 8.5-7.5 9.2-1.8.3-3.4 1-3.7 2l-8.2 25.7c-.5 3-.3 3.8 1.2 5.3l1.8 1.8 10.4-25c9.4-20.5 9.8-22 7.3-26.7-1-2-5.8-5.2-7.2-4.8-.1 0-1 .4-2.2.8zm12 1.6c1.3 1.8 2 2 7.2 2 4 0 5.5-.3 5-1-1-1.6-6-3.2-10-3.2H429l1.5 2zm28.8 7.2L451 457c-.7.8-2.3 8.5-1.8 9 .3.3 5.4-.2 11.5-1 9-1.2 11.3-1.7 12.5-3.2 2-2.2 1.8-4.3-.1-6-1.7-1.5-2.2-1.5-13.7-.2zm-31.2 26.4c-.8 1.6-1 3.2-.8 3.5 1 1 2.8-1.5 3.5-4 .8-3.3-1-3-2.7.6zm-5.6 12c-2 3.2-2.4 5.7-1 5.7 1.5 0 3.5-4 3.2-6.4l-.3-2.3-2 3zM271.4 372.6l-4 4.2 31 47 1-3.2a53 53 0 0 1 2.6-6.2l1.5-3-3-4c-1.7-2.2-8-11.8-13.8-21.5l-11-17.5c-.1 0-2 2-4.2 4.2zm-24.8-40.8c-4.3 3-4 3.7 3.6 16.4l7.3 12a73 73 0 0 0 4.1-4.4l4-4.5-6.5-10.4c-5.5-8.8-6.8-10.4-8.6-10.4a8 8 0 0 0-4 1.3zm34.4-29.6c-2 3-4 4.4-23.3 15.8L240 329c-1 1-2 2.7-2 4.2v2.5l2-2.8c2.5-3.7 7-6.6 10-6.6 1.8 0 6-2.3 15.4-8.5 13-8.6 16.4-11.7 17.4-15.4.8-3 .1-3-1.8-.2zm4.8 2.4c-1 3.5-5.2 7-17.3 15.2-6.8 4.6-12.2 8.6-12 9a116 116 0 0 0 26-17c2.5-2.4 5-7.6 4-8.6-.2-.2-.7.4-1 1.3zm27.2-31.2a232 232 0 0 1-2.5 11.3c-3.6 14.6-2 12.8 2.6-2.7 3.3-11.6 3.3-11.7 1.7-11.7-.7 0-1.4 1.2-1.7 3zm-7.2 64c-1 .8-1.6 3.3-2.2 10.3a86 86 0 0 0 2 28.4 48 48 0 0 0 6.3 15.2c1.6 0 1.6-3.5-.1-6.7-4.6-9-6.8-26.6-5-40.3a55 55 0 0 0 .7-7.7c-.1-.1-1 .2-1.6.8zm-52-85.6c-.1 1 0 1.4 1.2 2.7 2.3 2.3 4.2 3 8 3 2.7 0 3.5-.1 4.8-.8 2-1 4.4-3 3.8-3.3-.2-.1-.4-.5-.4-.8 0-.5-.2-.4-1.3.6-1.8 1.8-3.6 2.6-6.3 2.7-3.8.2-7-1.4-9-4.4l-.6-1-.2 1.3zm14.4-2.4c-.1.8-2.8 2.4-4.3 2.6-2 .3-3.5 0-5-1-1-.6-1.2-.7-1.2-.3 0 .3-.2.5-.4.5-1 0 2 1.7 3.5 2 2.2.5 4.4.2 6.2-1 1.4-.8 2.5-2.2 1.8-2.2-.2 0-.4-.3-.5-.6s-.2-.4-.2-.2zm-8-12.8c-.4.2-1.2 1-1.8 1.5-1 1-1 1.5-1 3 0 1.6 0 1.7.5 1 .3-.4.5-1 .5-1.6 0-2 1.6-3.3 4-3.3 1.3 0 1.6.2 3 1.6.8 1 1.5 1.4 1.5 1.2 0-.7-1-2.2-2-3-1-.7-3.6-1-4.7-.6zm-.8-2.4c-1.3.6-2 1.4-4.2 4-.7 1-.7 1-.2 1 .4 0 .5.2.4.5-.1.3-.3 1-.4 1.8-.2 1-.1 1.2.5 1.2.6 0 .6-.2.5-1.2a7 7 0 0 1 3.9-6.6c2.6-1 6.2-.1 7.7 2.2l.8 1.2v-1c0-.5.2-1 .4-1s-.6-.6-1.7-1.4c-1.8-1.2-2.4-1.4-4.2-1.5-1.5-.1-2.4.1-3.4.5zm7.2 12c-.7.5-.7.7-.2.7.4 0 .5.2.4.5-.1.3 0 .5.1.5.4 0 .7-.8.6-1.6-.1-.7-.1-.7-1 0z"/><path d="M165.8 229.4c-1.4 2-3.4 3.4-5.6 3.7-1 .2-1.4.3-.8.3.6 0 1.3.3 1.7.5.7.5 1 .4 2-.2 1.4-.7 3.6-2.7 4-3.7.1-.3.1-1-.1-1.4l-.4-1-1 1.5zm0 5.6c-.8.6-1.8 1-2 1-.4 0-.6.2-.6.7 0 .6.1.7 1 .5 1.4-.3 4.2-2 3.7-2.2-.2-.1-.4-.5-.5-.7-.1-.4-.4-.3-1.6.6zm97.6 52.8c-3 1-5.5 3.4-6.4 6.3l-.4 1.2h-2.8c-3.3 0-4.6.5-6.8 2.5-1.6 1.5-2.6 3.7-2.6 5.7 0 1.2 0 1 .4-.5.8-3 2.2-5 4.8-6.3 1.6-.8 6.6-1.2 8.2-.6 1 .3 1 .3 1.2-1 .7-4 3.8-6.5 8.5-7 1.6-.2 1.8-.3 1.2-.5-1.4-.4-3.8-.3-5.3.2zm44 8.8c-2.4 8.4-2.3 8.7.3 2.3 1-2.7 1.6-4.2 1.3-4.4-.2-.1-.3-.8-.1-1.6.1-.8.2-1.4.1-1.4a60 60 0 0 0-1.6 5.2zm-148-82.4c-.8.4-1.2.4-1.4.1-.1-.2-2 .6-4.8 2.3-5.3 3-14.4 8-18.6 9.7l-2.8 1.4a107 107 0 0 0 16.2-6.9l12.8-7c.5-.4-.1-.3-1.5.3zm-4 40c-1.5 1.5-2.7 2.7-2.6 2.8s1-.6 2-1.4a57 57 0 0 1 3.7-2.8l1.8-1.3c0-.1-.5-.1-1 0-1 .1-1.7.6-4 2.7zm-88.6-24.8c-2 4.6-2 5.5.3 1.8 1-1.7 1.6-3 1.4-3s-.3-.7-.1-1.3c.1-.6.2-1 .1-1s-.8 1.6-1.7 3.6z"/></g></g></svg>