<svg xmlns="http://www.w3.org/2000/svg" height="115" viewBox="0 0 172.882 114.264" width="173"><path d="M85.758.965C39.658.969.71 26.806.71 57.387c0 31.835 36.565 55.84 85.047 55.84 28.296 0 55.124-9.946 71.766-26.601 9.161-9.167 14.199-19.554 14.189-29.239-.013-15.078-8.883-29.241-24.976-39.883C130.6 6.838 108.946.965 85.758.965" fill="#ffb612"/><path d="M26.283 94.778C11.491 84.912 3.344 71.629 3.344 57.384c0-28.651 38.512-53.785 82.414-53.789 45.919-.002 83.295 24.127 83.322 53.789.008 8.986-4.758 18.707-13.42 27.377-16.158 16.171-42.289 25.829-69.903 25.829-23.071 0-44.194-5.618-59.475-15.814" fill="#203731"/><path d="M122.657 42.603c-6.621-9.861-21.117-16.7-38.187-16.7-23.429 0-42.426 12.887-42.426 28.782s13.41 29.85 42.426 29.834c17.425-.007 31.435-7.533 37.98-17.419l-49.494.086-.152-12.857 85.915-.03c.116 1.03.236 2.035.236 3.08 0 24.748-32.77 44.809-73.191 44.809s-73.188-20.06-73.188-44.809S47.29 11.811 85.764 11.661c32.024-.122 59.245 13.11 69.173 30.92l-32.278.02" fill="#fff"/></svg>