<svg xmlns="http://www.w3.org/2000/svg" viewBox="0 0 193 203"><style><![CDATA[.B{fill:#fff}]]></style><path d="M137.3 116h3.2V83.1h-9.6l-6.4-31.2h1.7V23.1h-8L114 2H80.8l-5.1 21.1h-8.1v28.8h1.5l-6.8 31.2h-9.7V116h3l-18.5 85.9h30.2l5.2-22.9 24-27.4 23.1 27.4 4.8 23h30.4l-17.5-86zm-12.9 60.7l-27.7-32.9L68 176.7l-4.6 20.2H43.5L62 111h-4.2V88.2h8.8l9-41.3h-2.7V28.1H80L85.1 7h25l4.2 21.1h7.1v18.7h-2.8l8.5 41.3h8.7v22.7h-4.4l17.6 86h-20.1l-4.5-20.1z" fill="#bd292e"/><path class="B" d="M102.4 131.2l21.3 25.5-7.2-42.3-14.1 16.8zM112 86l-4.8-25.2-5.4 8.2L112 86zm-29.1 21.7L97 124.3l14-16.6H82.9zm48.2 3.2h4.4V88.2h-8.7l-8.5-41.3h2.8V28.1H114L109.8 7h-25l-5.1 21.1h-7.1v18.7h2.7l-9 41.3h-8.8v22.7h4.2l-18.5 85.9h19.9l4.6-20.2 28.7-32.9 27.7 32.9 4.2 20.3h20.1l-17.3-85.9zm-3.8 64.3l-30.6-36.3L65 175.2l-4.2 18.5H47.3l18.5-85.9h-5V91.3H69l10.3-47.7h-3.5V31.3h6.4l5.1-21.1h19.9l4.2 21.1h6.5v12.3h-3.5l9.8 47.7h8.1v16.4h-5.1l17.6 86h-13.6l-3.9-18.5zM105.4 48.4l-.9-4.8H90.6l-.8 4.8 7.9 12.7 7.7-12.7zM89.7 91.3H106l-8.2-14.8-8.1 14.8zm-20.2 65.2L91 131.4l-13.9-17.1-7.6 42.2zm17.8-95.7L82.8 86l10-17-5.5-8.2zm13.6-37.3H94l-1.7 7.8h10.4l-1.8-7.8z"/><path d="M127.2 107.7h5.1V91.3h-8.1l-9.8-47.7h3.5V31.3h-6.5l-4.2-21.1H87.3l-5.1 21.1h-6.4v12.3h3.5L69 91.3h-8.1v16.4h5l-18.5 85.9h13.5l4.2-18.5 31.6-36.2 30.6 36.3 3.9 18.5h13.6l-17.6-86zm-20-46.9L112 86l-10.2-17 5.4-8.2zM106 91.3H89.7l8-14.8 8.3 14.8zM94 23.5h6.9l1.8 7.8H92.3l1.7-7.8zm-3.4 20.1h13.9l.9 4.8-7.7 12.7-7.9-12.7.8-4.8zm-3.3 17.2l5.5 8.1-10 17.1 4.5-25.2zm-17.8 95.7l7.6-42.1 13.9 17-21.5 25.1zm13.4-48.8H111l-14 16.6-14.1-16.6zm19.5 23.5l14.1-16.8 7.2 42.3-21.3-25.5z" fill="#34a6d4"/></svg>