<svg xmlns="http://www.w3.org/2000/svg" height="175" viewBox="0 0 191.475 174.893" width="192"><path d="M140.756 30.504c40.545 30.855 9.69 35.474-21.974 39.98 0 0-13.361-3.686-36.514-15.187-52.51-26.08-35.979-38.369 5.291-45.805C21.509-19.284-33.541 30.816 27.189 79.533L10.524 91.445c13.689 8.392 42.051 25.995 37.931 52.952l-14.077 10.061 42.991 19.481 33.924-15.372c.246-14.929 26.929-22.684 38.41-53.051 63.2-14.5 47.103-70.093-8.945-75.014" fill="#fff"/><path d="M91.869 122.679l-12.188-13.863-13.993 2.086 6.468-10.655-12.185-13.871 16.186 7.285 6.453-10.658 3.529 15.152 16.184 7.273-13.999 2.092 3.544 15.158zm19.994-49.343C32.529 42.696 27.275 17.557 76.794 8.87 14.864-7.957-21.26 36.926 40.016 79.727L23.575 91.481c17.459 11.663 35.961 28.94 29.684 56.126l-8.285 5.914 31.82 14.425c29.612-32.434 45.1-63.947 35.069-94.611" fill="#03202f"/><path d="M152.144 35.329c27.227 21.317 8.322 34.935-24.871 38.635 8.398 35.399-17.351 67.822-44.614 92.928l24.996-11.324c1.849-14.388 27.21-21.869 39.226-53.794 56.445-12.594 47.232-53.101 5.262-66.445" fill="#a71930"/></svg>