<svg xmlns="http://www.w3.org/2000/svg" height="203" viewBox="0 0 192.537 202.567" width="193"><path d="M96.249 201.094c-19.222.086-33.959-5.402-41.014-9.125-13.817-7.254-25.206-16.857-35.007-30.188-14.091-19.109-16.816-34.493-17.941-42.873-.657-4.363-1.441-14.849.031-24.255 1.663-13.574 4.751-20.334 6.957-26.95 1.713-4.704 7.251-16.024 10.533-21.215l9.967-14.214c.571-.832-.169-.438-.48-.43-.765.186-1.156.232-1.746.186-.438 0-1.322-.147-1.81-.294-2.747-.584-6.666-3.625-6.175-8.92-.1-1.175 1.175-11.267 2.156-14.405 1.272-4.407 3.919-6.466 8.626-6.86 2.351 0 12.245-.197 16.744.504 9.003.895 15.594 3.514 19.513 11.453 3.135 6.957 2.059 17.836-2.251 26.165-1.472 2.841-4.415 8.135-6.963 11.564-2.351 3.428-3.332 5.197-5.388 9.016-2.059 4.016-8.919 19.011-11.27 28.81-4.474 18.287-1.96 28.813 6.663 43.122 6.372 9.504 13.82 16.368 19.599 19.502 9.51 5.976 22.492 7.645 29.256 7.645s19.746-1.669 29.253-7.645c5.779-3.135 13.23-9.998 19.596-19.502 8.629-14.31 11.137-24.835 6.666-43.122-2.35-9.798-9.213-24.794-11.27-28.81-2.057-3.819-3.038-5.588-5.391-9.016-2.547-3.429-5.485-8.723-6.957-11.564-4.313-8.329-5.388-19.209-2.251-26.165 3.916-7.938 10.51-10.558 19.512-11.453 4.493-.701 14.394-.504 16.744-.504 4.706.394 7.351 2.453 8.626 6.86.981 3.137 2.253 13.23 2.156 14.405.488 5.294-3.431 8.335-6.178 8.92-.485.147-1.369.294-1.813.294-.585.047-.978 0-1.743-.186-.313-.009-1.048-.402-.482.43 2.079 2.647 7.179 10.144 9.97 14.214 3.285 5.192 8.82 16.511 10.538 21.215 2.203 6.616 5.288 13.376 6.957 26.95 1.469 9.407.685 19.893.025 24.255-1.125 8.379-3.847 23.765-17.941 42.873-9.801 13.329-21.187 22.934-35.007 30.188-7.054 3.723-21.789 9.036-41.011 9.125" fill="#fff"/><path d="M96.136 182.206c1.275 0 2.306-1.031 2.306-2.303s-1.031-2.309-2.306-2.309a2.31 2.31 0 0 0-2.306 2.309c0 1.272 1.034 2.303 2.306 2.303zM34.75 153.004c1.272 0 2.306-1.031 2.306-2.306a2.31 2.31 0 0 0-2.306-2.309c-1.275 0-2.306 1.034-2.306 2.309s1.031 2.306 2.306 2.306zM21.03 99.695c1.275 0 2.306-1.034 2.306-2.306 0-1.278-1.031-2.309-2.306-2.309s-2.306 1.031-2.306 2.309a2.31 2.31 0 0 0 2.306 2.306zm27.05-62.722c1.272 0 2.306-1.031 2.306-2.306s-1.034-2.306-2.306-2.306c-1.278 0-2.309 1.031-2.309 2.306s1.031 2.306 2.309 2.306zm111.981 113.725a2.31 2.31 0 0 0-2.306-2.309 2.31 2.31 0 0 0-2.306 2.309c0 1.275 1.034 2.306 2.306 2.306s2.306-1.031 2.306-2.306zm13.722-53.309c0-1.278-1.034-2.309-2.309-2.309s-2.309 1.031-2.309 2.309a2.31 2.31 0 0 0 2.309 2.306 2.31 2.31 0 0 0 2.309-2.306zm-27.046-62.721a2.31 2.31 0 0 0-2.309-2.306c-1.275 0-2.306 1.031-2.306 2.306s1.031 2.306 2.306 2.306a2.31 2.31 0 0 0 2.309-2.306zM53.271 185.506c-12.545-7.444-23.911-16.852-34.888-34.96-4.9-8.942-16.27-27.953-10.666-61.075 6.469-30.284 19.485-45.573 26.93-56.059 3.528-5.094-.094-8.035-2.938-6.957-2.384.903-4.019.962-4.019.962-4.213-.571-3.623-3.313-2.841-10.469l.981-5.879c.879-5.194 3.232-5.097 9.407-4.978 9.801.194 11.561.274 16.857 1.253 7.057 1.569 16.265 8.626 9.014 28.027-4.507 10.388-9.21 13.914-14.31 24.696-5.485 11.957-18.811 38.807-9.798 61.74 12.351 30.771 36.26 41.747 58.996 42.141 22.736-.296 49.001-13.722 59.506-42.141 9.014-22.934-4.313-49.784-9.801-61.74-5.094-10.782-9.798-14.307-14.307-24.696-7.251-19.402 1.962-26.459 9.016-28.027 5.291-.979 7.054-1.059 16.855-1.253 6.173-.119 8.529-.216 9.407 4.978l.984 5.879c.784 7.156 1.369 9.898-2.844 10.468 0 0-1.638-.058-4.019-.961-2.838-1.078-6.469 1.862-2.941 6.957 7.448 10.485 20.464 25.775 26.93 56.059 5.61 33.122-5.763 52.133-10.663 61.075-10.973 18.107-22.34 27.515-34.888 34.96-17.169 11.96-49.312 11.27-43.136 10.882 6.467.49-23.617 1.272-42.826-10.882" fill="#002c5f"/></svg>