<svg xmlns="http://www.w3.org/2000/svg" height="146" width="193" viewBox="0 0 193 145.055"><path d="M185.082 52.164s-3.105-6.813-11.941-12.619c2.214-2.839 3.073-6.251 2.05-8.948-1.06-2.802-8.497-7.92-11.3-9.372l-6.67-3.576s-9.939-6.029-17.748-9.435c-9.414-4.1-26.372-9.562-44.813-5.669 0 0-11.067-3.629-31.077 2.553l-25.547 6.194c-9.876 1.647-19.894 1.815-27.655 2.637-4.09.435-6.813-.472-8.143 1.835-5.843 10.122 11.581 27.256 17.896 29.962-1.87 10.528.503 22.981 11.554 35.428 12.016 13.541 28.641 16.109 38.388 23.309 10.94 8.079 13.208 18.282 22.346 27.829 8.407 8.784 24.841 16.275 39.563 9.101 15.968-7.783 18.865-20.772 19.443-23.21.191-1.245-.53-2.506-2.135-3.279l-1.51-.763c.636-2.543 2.257-10.193.657-16.863 0 0-4.514 6.606-7.926 10.262-.954-.895-5.335-5.33-4.609-10.585 2.003-.795 4.328-1.881 6.103-3.215a37.98 37.98 0 0 0 2.75-2.294c8.985-2.575 11.003-6.288 11.003-6.288.334.911 1.467 2.077 1.467 2.077 1.324-.747 3.089-2.077 3.089-2.077.17 1.081.148 2.993.148 2.993.668-.249 1.319-.307 1.319-.307-.668 3.322-4.556 8.953-4.556 8.953 13.631-3.904 19.369-13.97 19.369-13.97l-.005-.053c.514-.106.874-.244.874-.244s9.149-2.601 13.35-11.57-3.396-17.663-5.737-18.797z"/><path d="M82.319 21.942c.837.36 1.52 1.096 1.98 1.869l-3.676-.211c.567.196.958.386 1.059.434 0 0-1.016-.154-1.705-.17 0 0 .344.19.535.402 0 0 .037.403-.021.631-.053.233-.17.578-.037.959.132.387.518 1.246.576 1.553l-1.863-.111 2.479 1.272s-.386-.021-.635 0c0 0-.653.382-.785.631-.138.249.001 1.383-.635 1.881-.63.498-1.479.38-1.744.688-.27.307.154.732.154.732l-1.801-.35s.656.661 1.074.969c0 0-.539-.123-1.096-.049s-2.284.212-3.211-.514c-.922-.731-.438-1.308-.227-1.535s.264-.521-.346-1.231c-.615-.71-.519-.709-.402-1.09 0 0 2.146.005 2.914.217 0 0-2.093-1.181-2.914-1.356 0 0 .037-.266.498-.615.461-.344 1.075-.621 1.281-1.484l2.428.43c-.959-.365-1.405-.906-2.979-1.346l1.51-.09s.754-.132 1.104-.461c.143-.132.323-.301.551-.449-3.046.059-6.083.344-9.076 1.049l-14.42 3.512c.805-.503 1.506-1.213 2.146-1.912-1.409.35-2.84.64-4.275.889-2.341.413-4.751.774-7.141.637-3.947-.228-7.894-1.129-11.74-2.014l-1.018-.238a90.01 90.01 0 0 0 1.838 1.139c1.896 1.118 3.852 2.136 5.918 2.904l1.875.641c.699.217 1.409.402 2.119.566.652.148 1.314.265 1.971.365 1.176.175 2.374.245 3.561.213 1.197-.027 2.389-.191 3.57-.408 1.367-.254 2.724-.551 4.059-.938l.656-.191c1.844-.567 3.628-1.382 5.35-2.262l1.342-.689c.016-.005.026-.014.031-.02.011 0 .021-.006.031-.012-.026.032-3.2 2.666-4.758 3.619l-1.033.613-1.732.928-1.498.721-.801.334c-.016.005-.025.016-.041.021l-.42.217c-.911.566-1.844 1.097-2.818 1.552-.011.005-.025.009-.041.02l-.975.445c-.005.005-.016.006-.021.012-.011.005-.017.005-.027.01a44.01 44.01 0 0 1-2.691 1.061l-2.166.688c-5.176 1.515-8.334 1.479-8.334 1.479.35.159.821.301 1.256.396 1.557.35 5.288.679 5.463.732.016-.005.026-.006.031-.012-.011.011-.107.117-.309.297-2.331 2.135-5.308 3.428-8.338 4.26a35.42 35.42 0 0 1-4.979.975l-.779.084c-.106.037-.181.086-.207.145-.826 2.58-.852 5.366-.709 8.047.079 1.441.254 2.876.514 4.301.005.005.004.016.004.021a8.67 8.67 0 0 1 .662-.594s.769-.636 2.109-.832c0 0-.016-.021-.059-.053a.53.53 0 0 0-.059-.053c-.286-.244-.725-.366-1.111-.424-.106-.026-.207-.036-.297-.047.026 0 .116-.022.254-.043.837-.175 1.828-.329 2.639-.154.021 0 .037.001.059.012.493.111.927.439 1.191.863l.068.133a1.27 1.27 0 0 1 .08.174c.005.016.01.032.016.043.021.058.042.121.053.18.016.058.027.117.037.176 0 .01.006.026.006.037a2.03 2.03 0 0 1 .01.18c0 .217-.041.434-.137.641-.318.705-.896 2.05-.896 2.559 0 .233-1.202 1.07-1.525 1.398-.021.021-.037.043-.053.059.032 0 .07-.006.102-.006.021-.005.052-.004.078-.01.355-.032.706-.096 1.061-.133l.518-.031h.018s.826 1.535 1.467 2.049c.641.508 1.212 1.596 1.408 2.428.005 0 .016.004.021.004.079.005.17-.02.266-.057.011-.005.021-.012.031-.012.032-.011.069-.026.111-.047l.238-.111.361-.154.375-.189s-1.208 1.778-2.617 2.615c.09.016 1.213.182 1.769-.057.005 0 .01-.006.016-.006 0 0 .097 2.124-1.975 4.412-.143.159 1.541 2.157 2.574 3.328l.117.137c.032.037.069.074.09.105l.217.238.137.16.934-.789c.503-.403 1.027-.778 1.563-1.139.503-.344 1.668-.965 1.668-.965.005 0 .01-.006.016-.012.058-.524.234-.826.383-1.012.196-.244.493-.296.736-.439.101-.058.212-.122.318-.238.037-.037.072-.08.109-.133l.064-.1a.89.89 0 0 0 .074-.143c.021-.042.037-.084.053-.127a3.02 3.02 0 0 0 .158-.482c.085-.323.355-.625.355-.625-.005 0-.016-.006-.016-.006-.371-.138-.747-.254-1.123-.371l-1.816-.482-1.225-.27c3.179-2.103 6.696-3.671 10.314-4.894l3.771-1.139c-.36-.334-.714-.727-.895-1.092-.45-.896.317-2.241.635-2.75.323-.514-.254-.832-.254-.832.514-.387.896-1.022.896-1.022-.011 0-.017.006-.027.006-1.139.249-2.209.313-2.209.313l-.006-.006c-.636-.508-.889-1.594-.762-2.172l.381-1.473h-.021c-.212.021-.445.004-.662-.027-.371-.047-.695-.137-.779-.158l-.004-.006c2.426-.318 3.639-1.213 3.639-1.213-.011 0-.021.006-.031.006-.641.122-1.754.186-1.754.186v-.006c.011-.069.09-.716.572-1.039.18-.122.556-.122 1.006-.059a8.75 8.75 0 0 1 .811.16l.398.1 1.287.387c.011 0 .011.006.021.006.959.323 1.408 1.6 1.408 1.6.26.827.668 1.425 1.15 1.875.005.005.01.012.016.012a4.36 4.36 0 0 0 .709.508 1.67 1.67 0 0 0 .303.16l.307.137a7.28 7.28 0 0 0 .922.307l.578.139.281.063a1.55 1.55 0 0 1 .465.186c.429.244.741.689.953 1.129l5.082-.43a7.73 7.73 0 0 0-.684-.703c-1.701-1.568-4.08-2.574-6.215-3.258 4.249-.567 8.545-.736 12.82-.885l7.338-.176c-.514-.429-1.223-.678-1.838-.922 1.436-.164 2.934-.026 4.369.08-1.224-.614-2.611-.965-3.92-1.352l-2.775-.773c.016 0 .064.006.111.006-.016-.005-.033-.006-.049-.012l1.908.176c.106.005.206.017.307.027l10.951 1.303 13.705 2.309 12.354 2.867 5.16 1.371-9.182-2.416-6.643-5.99a246.77 246.77 0 0 0-17.529-3.974l-11.141-1.842 11.379 1.356 14.834 2.58c-2.49-1.77-5.128-3.248-7.719-4.848-.895-.551-1.818-1.127-2.586-1.854-.392-.365-.81-.827-.863-1.389a1.64 1.64 0 0 1 0-.322c0-.005.006-.016.006-.021.005-.069.015-.138.031-.207l.016-.064c.005-.016.018-.031.018-.047.021-.053.041-.123.057-.176a.81.81 0 0 1 .043-.1c.228-.53.635-1.012 1.043-1.352l.182-.158c.042-.037.085-.063.127-.105l.164-.139c.064-.047.126-.106.174-.148.005-.005.006-.004.012-.004.021-.016.041-.039.063-.055.011-.01.027-.021.037-.031l.012-.01c.021-.016.036-.027.047-.043l.143-.291c3.523-6.32 12.338-7.935 12.338-7.935-.911-1.277-1.986-1.971-1.986-1.971 1.187-.418 2.676-.16 3.248-.033-.005-.026-.005-.052-.016-.078-.191-.768-.101-1.213.09-1.367 0 0 1.287.042 1.668.18a6.61 6.61 0 0 1-1.096-.656l-4.467-.971c-6.05-1.176-12.241-1.626-18.387-1.853l-3.295-.068zm38.09 6.656c-.25.175-.62.452-.959.785v.08c0 .975.705 3.016 2.205 4.24 1.944 1.589 5.564 3.179 5.564 3.179-.174-.615-.09-1.41-.09-1.41.53.879 1.682 2.205 3.445 3.18.113.064.233.123.361.182a32.65 32.65 0 0 0 1.977.848c.521.205 1.112.389 1.564.514 1.899.392 3.915.71 5.82.234 1.145-.286 2.399-.854 3.295-1.658l-.002-.002c.005 0 .008-.005.014-.016-1.983.731-4.108.97-6.145.27l-1.025-.381c-.128-.053-.251-.112-.377-.176-2.042-1.023-3.89-2.507-5.699-3.891-3.101-2.375-6.345-4.468-9.949-5.978zm24.611 2.287c6.254 6.466 1.84 11.986 1.84 11.986s-7.877-1.633-13.855-1.299c-2.852.164-6.219 1.458-8.965 2.762.027.005.055.004.076.01h.01c.588.021 1.125.08 1.623.176.328.063.641.138.932.229.88.27 1.6.651 2.178 1.08a5.48 5.48 0 0 1 .541.445c.086.074.166.152.24.232 1.361 1.389 1.643 2.938 1.643 2.938s.002 0 .002 0l.172-.139c.514-.381 1.078-.689 1.65-.975l1.439-.674c1.707-.737 3.494-1.325 5.307-1.754 2.152-1.023 8.397-1.637 9.621-1.537 1.23.106 2.867.308 2.867-.408s-.715-3.276-2.66-7.162c-1.293-2.581-3.388-4.744-4.66-5.91zm-13.736 18.559c3.91-.143 6.752 3.917 7.51 4.94h.112l6.811-.037 2.615.117 1.959.148 4.234.488 1.051.152s-1.23-1.112-1.813-2.018c-.583-.913-.531-1.877-.531-1.877l.002-.002c1.474-.09 2.327-.767 2.545-1.631.259-1.04-.891-1.887-.891-1.887l-.07-.027c.424.376.589.774.393 1.182-.944 1.946-5.954-.668-11.328-1.15s-12.598 1.602-12.598 1.602zm39.459-18.293c-.323.647-1.733 2.215-7.754 1.224.037.021.078.038.115.059 1.087.552 2.237 1.21 3.313 1.877 1.474.902 2.804 1.813 3.795 2.688 0 0 2.005-2.443.807-5.295a4.35 4.35 0 0 0-.238-.488c-.01-.021-.026-.043-.037-.064z" stroke="#9f792c" stroke-width=".312" fill="#9f792c"/><path d="M31.459 15.915l-2.885.18-18.213.551 1.283.33 1.723.492a77.81 77.81 0 0 1 5.725 1.957l2.777 1.139 2.889 1.357c.259-.397 1.432-.398 1.432-.398l-.148-.307a1.36 1.36 0 0 0 .736.18c.032 0 .054-.005.08-.01l.297-.111c.132-.084.244-.202.498-.287.435-.153 1.039-.09 1.039-.09.164-.296.891-.582.891-.582-.143-.133-.318-.275-.318-.275.291-.047.96.089 1.24.121.192-.016.345-.033.402-.064.011-.005.017-.01.027-.016.079-.063.133-.195.059-.313-.138-.126-.446-.222-.658-.318-.244-.11-.269-.27-.275-.313-.004-.01-.004-.016-.01-.021-.254.048-.84-.201-.84-.201s.491-.027.617-.107c.058-.031.174-.088.322-.146l.049-.049c.011-.005.02-.016.025-.021.016-.015.038-.03.049-.041s.02-.018.02-.018.404-.402.717-.492 2.895-1.287 2.895-1.287-.706.042-1.338 0c-.668-.048-1.201-.223-1.201-.223-.276-.096-.064-.419.096-.615zM6.907 20.466a21.95 21.95 0 0 0-2.539.086s2.243.552 3.822 2.666c-.494 2.078 2.194 6.684 6.254 10.215l2.301 1.94-3.059-.068c2.152 1.39 7.852 3.266 7.852 3.266-1.251.418-3.404.764-3.404.764.142.159 4.256 2.296 11.926 2.613 4.209.169 8.392-.568 12.271-2.211l.09-.043.123-.068c-.175-.053-3.906-.38-5.465-.73-.43-.095-.903-.24-1.252-.398 0 0 3.153.038 8.332-1.473l2.164-.689 2.691-1.061c.011-.005.016-.006.027-.012.005-.005.017-.004.021-.01l.975-.445c.016-.011.032-.016.043-.021.975-.456 1.909-.985 2.82-1.553l.418-.217c-3.308 1.315-6.675 1.765-10.236 2.02-3.064.217-7.522.34-12.086-.227-7.5-.938-11.465-3.463-11.465-3.463 6.854 1.203 10.474.991 12.123.715-2.502-1.59-4.648-3.593-7.447-5.341-5.848-3.656-11.422-6.117-17.3-6.253zm111.47 3.648c-1.109-.027-3.561.089-5.441 1.449l.207.129c.021.016.047.025.068.041l.145.096c.026.01.045.027.066.043.053.032.101.067.148.1.016.01.033.022.049.033l.186.127s.006.004.012.004l.141.101c.016.016.039.027.055.043.026.016.047.031.068.047.016.011.031.027.047.033.006.005.007.01.012.01.022.016.031.026.047.037 0 0 .007.006.012.006.016.01.025.02.025.02-.483-.117-1.479-.254-1.945-.318l-.572.605s-.281.365-.445 1.302c-.052.303.116.999.424 1.27.307.265 1.268 1.148 1.422 1.566.155.424-.128 1.083-.065 1.369 0 0-.742-.477-1.16-.594.084.085.932.954.455 1.064 0 0-.424-.491-1.193-.836s-2.184-1.041-2.607-1.422c-.398-.361-.657-1.123-.684-1.219.047.063.281.377.492.414s.838.439.918.492c-.026-.063-.244-.587-.498-.799-.265-.233-.916-.542-1.262-.961l.381-.117s.107-.752-.062-1.494c-.573-.127-2.062-.387-3.25.031 0 0 1.078.694 1.988 1.967 0 0-8.815 1.617-12.34 7.936l-.145.291s-.015.018-.047.049l.074-.059s.01-.001.025-.006h.006c0-.005.001-.006.006-.006.138-.116 1.527-1.307 2.375-1.779 1.235-.689 2.612-1.115 3.959-1.523a24.53 24.53 0 0 1 4.49-.885c4.919-.466 9.786.355 14.35 1.902 4.441 1.506 8.529 3.812 13.082 5.031l1.75.42.328.066a16.48 16.48 0 0 1-1.561-.512l-1.977-.848c-.128-.059-.249-.118-.361-.182-1.764-.975-2.913-2.3-3.443-3.18 0 0-.086.795.088 1.41 0 0-3.62-1.592-5.564-3.181-1.5-1.225-2.205-3.266-2.205-4.24v-.08c-.265.254-.508.542-.672.85-.536.986-.494 1.732-.494 1.732s-.461-.196-.879-.52c0 0 .211.891.965 1.268 0 0 .43.567.244.996 0 0-1.321-.106-1.629-.355-.307-.255-1.287-.609-1.287-.609s.328-.053.678-.031c0 0-.354-.863-.693-1.154s-1.025-.813-.871-1.481c0 0 .807.057 1.193.211 0 0-1.271-1.103-2.051-1.277l1.064-.057s-.144-.752 1.209-1.41 1.775-1.076 2.063-1.5c.28-.424.397-.859.752-1.113a12.51 12.51 0 0 0 1.188.773s-.302-.895-1.262-1.553c0 0-.22-.026-.59-.035zm-17.301 11.777a14.21 14.21 0 0 0-1.42.031 15.11 15.11 0 0 1-.578.059c.419 1.357 2.273 3.359 2.273 3.359-.88.063-2.01-.248-2.01-.248 1.633 2.194 6.149 4.955 9.664 5.644s6.711.563 6.711.563c-.499.254-1.314.566-1.314.566s1.378-.064 3.26.313a11.2 11.2 0 0 1 .795.191c1.246.318 2.788.833 3.695 1.15l.291.102-1.324-.85-3.361-1.955c-1.775-.938-3.6-1.812-5.471-2.554l-3.441-1.871c-1.526-.885-3.041-1.819-4.482-2.842-.684-.482-1.478-.886-2.072-1.479-.038-.038-.086-.079-.123-.084-.371-.058-.742-.085-1.092-.096zm13.523.953c.78.18 1.608.805 2.232 1.244.382.271.725.589 1.092.875.074.058 1.027.643 1.07.643.132.047.275.08.408.08.466 0 .815-.319.848-.844h.002c.032-.53-.643-.826-.643-.826l-1.57-.426c-1.096-.292-2.962-.656-3.439-.746zM77.047 50.298l2.775.773c1.309.387 2.696.737 3.92 1.352-1.436-.106-2.933-.245-4.369-.08.615.244 1.324.493 1.838.922l-7.338.176-12.82.885c2.135.683 4.514 1.69 6.215 3.257a7.88 7.88 0 0 1 .684.705l-5.08.428.004.006c.334.684.445 1.373.445 1.373-.445.763-1.664 1.467-1.664 1.467.577.127 1.346 0 1.346 0-.323 1.086-.062 1.6-.062 2.686 0 1.091-1.347 1.542-3.455 1.859s-3.004-.381-3.004-.381l.318-.711c-.705.127-2.754.197-2.754.197 1.346-.583 3.072-1.797 3.072-1.797-.826.323-2.549.736-2.549.736s-.519-.37-1.033-.857l-3.771 1.139c-3.618 1.224-7.136 2.792-10.314 4.894l1.225.27 1.816.482 1.123.371s.01.006.016.006c.562-.63 1.559-1.085 1.559-1.085-.519.651-.583 1.339-.588 1.482.005.005.01.006.016.006 1.123-1.78 3.02-1.637 3.02-1.637-.392.101-.879.393-.879.393l1.662.535c.832.249 2.687.391 3.768.391 1.075 0 3.078.393 3.078.393.879-.292 3.576-.975 3.576-.975-.932.583-2.592 1.414-2.592 1.414 3.375 1.859.488 5.679.488 5.679s-.594.147-1.812 1.074c-1.224.933-1.519 2.152-1.519 2.152.636-.583 1.519-1.123 1.519-1.123-.249.392-.147.588-.687 1.807-.535 1.224-1.86 1.176-2.787 1.272s-2.443-1.023-2.443-1.023c-.54.196-1.52 1.123-1.52 1.123.44-1.468 2.055-3.029 2.055-3.029-.683.292-1.906 1.17-1.906 1.17-.683-.535-3.089-1.224-4.699-2.104-1.616-.879-1.42-2.59-1.42-2.59.101-1.027.98-2.4.98-2.4-.54.297-1.123.934-1.123.934a3.03 3.03 0 0 1 .006-.541v-.016c-.005.005-.01.01-.016.01 0 0-1.167.621-1.67.965-.535.36-1.059.736-1.563 1.139l-.932.789.18.195c2.675 2.882 5.822 5.399 9.049 7.645l4.656 2.988c5.631 3.354 11.581 6.193 17.578 8.821 3.714 1.631 7.242 3.736 10.33 6.385 1.976 1.685 3.771 3.587 5.318 5.68 1.801 2.442 3.116 5.191 4.742 7.75 2.691 4.238 5.896 8.19 9.699 11.475 2.172 1.876 4.551 3.55 7.131 4.811a19.66 19.66 0 0 0 2.15.916c.275.095.594.237.891.264-.079.689-.79 1.277-1.314 1.664 4.302.848 8.756.726 13.053-.021l-2.324 2.484c4.365-.169 8.84-1.51 12.766-3.354 3.777-1.774 7.227-4.238 10.029-7.347 1.642-1.823 3.051-3.851 4.201-6.018.138-.265.169-.276-.08-.393-1.621-.848-3.539-1.218-5.34-1.414-5.457-.588-10.775 1.282-15.855 3.02-2.161.742-4.364 1.648-6.637 1.992-3.226.487-6.527.498-9.504-1.033-2.798-1.441-5.118-3.75-7.146-6.123-1.912-2.246-3.608-4.679-5.16-7.195-3.126-5.059-5.642-10.469-7.592-16.084-1.642-4.736-2.918-9.747-2.738-14.801.148-4.058 1.171-8.355 3.332-11.83 1.07-1.722 2.478-3.257 4.221-4.317a11.53 11.53 0 0 1 3-1.277c.546-.143 1.097-.248 1.658-.322l-16.901-3.227-11.195-1.478 11.418.986c34.949 3.84 54.014 13.148 54.014 13.148s1.553 1.022.705 2.305c-.408.614-1.245.539-1.844.375l-3.91-1.775c-2.183-.97-5.213-2.219-9.064-3.608a26.33 26.33 0 0 0 2.639 4.149c1.409 1.812 3.072 3.444 5.006 4.705 2.553 1.664 5.515 2.526 8.545 2.754 2.935.223 5.865-.228 8.641-1.16 1.96-.657 3.798-1.609 5.727-2.33 2.665-.991 5.276-2.051 8.078-2.608 1.568-.307 3.17-.476 4.77-.455l.604.021c.148.005.063-2.193.031-2.416a8.65 8.65 0 0 0-.492-1.928c-.487-1.277-1.25-2.528-2.352-3.359-.021-.021-.037-.032-.059-.053-.535-.508-1.124-.97-1.744-1.389-2.808-1.907-5.963-3.358-9.078-4.709l-.848-.365c-3.729-1.605-7.534-3.099-11.369-4.402l1.859 1.037.328.197.461.275 1.6.969c1.42.89 2.913 1.844 4.121 3.041-.217-.005-.445.027-.662.08l-.635.174c1.504 1.06 2.871 2.305 4.09 3.672.159.175 1.514 1.934 1.557 1.934-.826.381-1.664.73-2.527 1.027l-1.275.393c-1.526.418-3.063.573-4.637.668-.042.005-.1-.001-.174-.012l-.006.012c-.042.111-.1.227-.18.338-.419.609-1.251.515-1.85.34l-3.867-1.865c-7.21-3.397-23.77-10.173-48.874-14.65l-10.86-1.711c-.005 0-.016.001-.021-.004-.021 0-.063-.006-.105-.012-.048 0-.095-.006-.111-.006zm108.43 5.981s-2.224 5.56-8.059 8.39c-4.184 2.03-8.024 4.394-10.479 7.209a14.15 14.15 0 0 0-.965 1.24l.043.004c5.915.657 8.82 3.154 9.773 4.369.065.084.116.159.164.229l.021-.006c.366-.065 6.303-1.135 9.971-5.18a4.93 4.93 0 0 1-.398 0c-.902-.037-4.368.059-3.492-1.686.291-.583 1.33-.422 1.846-.391.891.053 1.775.147 2.664.1 1.231-.069 1.458-1.181 1.766-2.199a14.5 14.5 0 0 0 .547-2.789c-1.357 1.728-3.795 2.313-4.596 2.455-.054.011-.102.017-.139.021-.546.085-1.61-.079-1.467-.853.085-.478.742-.881 1.154-1.051 1.172-.477 2.323-.922 3.377-1.633.381-.254.741-.53 1.07-.854.09-.085.573-.471.557-.613a11.23 11.23 0 0 0-.838-3.111 7.36 7.36 0 0 1-.625 1.133c-.647 1.103-1.447 1.612-1.734 1.772-.423.238-1.25.487-1.627-.244-.381-.726.668-1.352.668-1.352 1.548-1.119 2.175-2.253 2.43-2.994-.833-1.288-1.633-1.967-1.633-1.967zm-14.781 21.285c-1.198-.03-2.528.689-3.316 1.195-.17-.355-.494-.668-1.104-.881-1.835-.62-4.104 1.131-4.104 1.131.191-1.336-1.637-.956-1.711-.945-.541.042-2.811.765-4.152 1.518-1.987.694-4.611 1.537-7.51 2.236.546 3.091.377 5.264.377 5.264 3.081-1.595 5.629-4.872 7.182-7.236.334 1.59 1.674 3.738 1.674 3.738 2.153-1.336 4.072-3.277 4.072-3.277.663 1.198.553 3.711.553 3.711 1.515-.493 2.871-1.468 3.746-2.205-.97 5.131-4.076 10.113-4.076 10.113 3.637-1.367 10.575-8.756 11.025-10.766.441-2.008-.222-3.101-2.152-3.535-.164-.038-.333-.056-.504-.061zm-22.043 4.289c-3.371.805-7.103 1.421-10.639 1.379.619 6.292-4.967 11.969-4.967 11.969 9.053-2.539 13.808-9.821 15.266-12.436l.34-.912zm-19.54 20.884s-2.89 7.09-6.225 10.557-5.157 4.353-5.369 4.846c-.212.482-.254 2.241 3.658 1.738s6.674-3.42 6.674-3.42 5.354-.995 10.061-.354c0 0 1.304 1.419 3.164 1.287 1.862-.127 5.731-7.41 5.439-14.285 0 0-5.576 8.928-8.088 10.771 0 0-.601-1.457-1.336-2.178 0 0-3.061 2.062-3.67 3.195.063-.116-.55-.965-.613-1.076-.345-.566-.696-1.125-1.121-1.633-1.218.721-2.628 1.771-3.27 3.059.514-1.033.901-2.093 1.182-3.211.17-.689.292-1.389.361-2.094.248-2.427-.063-4.898-.848-7.203z" fill="#fff"/><path d="M111.721 4.435c-4.509.005-7.191.669-7.191.669s2.02.122 6.229 1.596c.265-.084.615-.228.928-.451.605-.434.997-.52 1.256-.52s1.379 1.336 1.379 1.336-.123-1.033-.34-1.902c0 0 1.103-.095 1.521 0 .616.144 1.125.35 1.342.35s.307-.262.307-.262.387.257.387.564c0 0 .871.603.871 1.17s-.133 1.298 0 1.648c0 0-.219.128-.568-.434 0 0-.56.477-1.123.477a1.87 1.87 0 0 0-.689.137 102.24 102.24 0 0 1 6.6 3.25l.486.35s.203-.82.336-.947c0 0 .254.227.307.359 0 0 .047-.36-.027-.77 0 0 .69-.56 1.225-.613.541-.054.748-.049.922-.154 0 0 .122-.429-.059-.885 0 0 .903.523 1.082 1.191 0 0 .079-.407.053-.82 0 0 .945-.153 1.639.027s1.151.412 1.305.666.583 1.114.344 1.299-.679.26-.807.467c-.127.201-.179.38-.359.508-.175.127-.408.16-.408.16s-.047.71.133 1.07c0 0-.367-.048-.547-.482 0 0 .085.403-.174.689s-.431.457-.686.531c0 0-.631-.601-.684-.834 0 0 .07 1.416-.174 1.15l-1.596-1.32s-.572.084-.799.059c-.233-.021-1.025-.328-1.178-.588 0 0-.029.309.406.615 0 0-.391-.063-.539-.133 0 0-.228.26-.637.365l.59.637s-.808-.144-1.174-.531c0 0-.464.023-.975-.131s-.822-.102-1.283-.027-.535.026-.869-.053-1.25-.588-1.25-.588.153.408.307.541c0 0-.079.334-.82.127s-.771-.435-1.152-.668c-.386-.228-.641-.563-.561-.844.074-.281.307-.488.307-.488a2.58 2.58 0 0 0 .637.387s-.688-.868-.768-1.176l.541.1s.125-.487 1.201-.715c.361-.08.664-.127.908-.164a119.63 119.63 0 0 0-11.88-3.037 1.89 1.89 0 0 0-.201.275c-.069.111-.129.228-.187.35-.175.361-.308.727-.588.965 0 0-2.221-.694-2.936-1.049 0 0 1.124.924 1.908 1.342 0 0-.676 1.118-3.023.854 0 0-1.085.472-1.939.381-.846-.089-2.138-.646-2.403-1.086s-.235-1.353.677-1.883l1.859 1.107s-1.096-1.367-1.012-1.807c0 0 .391-.322.857-.603l-1.652-.203c-5.025-.567-9.472-.652-13.506-.424.319.461.253.89.508 1.352.307.562-.143.816-.143.816-.334-.276-1.732-.869-1.732-.869.53.504.98 1.203.98 1.203-.334.197-1.224.373-2.184.42s-2.322.836-2.322.836c-.573-.17-1.06-.752-1.543-1.197l-.238-.207c-.021-.021-.049-.037-.064-.053-.016-.01-.025-.021-.035-.031-.016-.005-.033-.021-.049-.031.022.021.043.1.059.152 0 .006-.001.01.004.016 0 .005.001.012.006.018l.096.242c.068.159.144.325.229.479.244.466.534.905.826 1.34.005.005.01.016.016.021l.33.525c.042.059.078.11.109.168.011.017.016.028.021.039.016.021.027.036.037.057.016.032.033.048.043.064.005.011.016.026.021.037.016.016.021.032.025.043-.121-.154-.502-.228-.687-.291-.011-.005-.023-.006-.033-.012a5.44 5.44 0 0 1-.906-.477c-.005-.005-.011-.01-.016-.01-.132-.09-.519-.447-.678-.389l-.096.033c-.016.006-.042.009-.064.02l-.121.033c-.048.011-.097.025-.154.041l-.158.033c-.068.016-.149.025-.229.041a3.65 3.65 0 0 1-.408.049h-.021a4.88 4.88 0 0 1-.551.006c-.981-.059-2.183-.897-3.021-1.74-.302-.296-.397-.624-.403-.926l-2.57.65-15.002 3.371c.042.483-.158 1.003-.158 1.273 0 .483.387.848.387.848-.795.063-2.199-.467-2.199-.467.398.567 1.543 1.219 1.543 1.219s-.166.632-.691.85-.921.132-1.572.084c-.657-.043-1.224.266-2.057.309s-1.852-.473-1.852-.473c.918.085 1.602-.535 1.602-.535-1.177-.133-1.543-.568-1.676-.828-.095-.191-.386-.449-.65-.641l-9.055 2.024-5.846.764c-.159.197-.372.522-.096.617a5.65 5.65 0 0 0 1.201.221c.631.042 1.338 0 1.338 0l-2.894 1.289c-.313.089-.717.492-.717.492s-.009.005-.02.016-.033.027-.049.043c-.005.006-.015.016-.025.021l-.049.047a2.34 2.34 0 0 1 .621-.18c.387-.053.848.307.848.307s.409.075.816-.078c.419-.148 1.271-.127 1.229-.117-.265.043-.528.223-.783.223.207 0 .488.143.652.26.758.514-.203 1.181-.695 1.42-.752-.085-1.219.213-1.219.213s.97 0 .922.281c-.053.281-.486.46-.947.561s-.822.563-.822.563a.75.75 0 0 1 .387.229s-.489.052-.562.105c-.08.047-.334.615-.541.869s-.916.436-.916.436c.328.181 1.377.307 1.377.307-.579.208-1.255.244-1.488.254l1.824 1.156c.005 0 .004.004.01.004l1.018.24c3.848.885 7.792 1.787 11.74 2.014 2.385.138 4.799-.222 7.141-.635l4.277-.891c-.64.699-1.34 1.409-2.146 1.912l.117-.031 14.301-3.483c2.995-.705 6.031-.992 9.074-1.051a2.58 2.58 0 0 1 1.357-.422c1.097-.037 2.141.222 2.883.477l3.674.211c-.457-.774-1.145-1.51-1.977-1.871l3.291.068c6.149.228 12.341.679 18.389 1.856l4.469.971c.015-.006.112-.036.186-.186.074-.169.038-.541.381-.615s.96.23 1.113.309c.154.074 1.023.62 1.299.752.159.074.227.339.254.566l2.439.711c-.005 0-.006-.005-.012-.01-.015-.006-.031-.022-.047-.033-.021-.016-.042-.031-.068-.047-.016-.016-.038-.025-.055-.041l-.143-.104c-.005 0-.01-.004-.01-.004l-.186-.127c-.015-.011-.032-.021-.049-.031l-.148-.102c-.021-.016-.042-.032-.068-.043l-.143-.096c-.021-.015-.047-.025-.068-.041l-.207-.127c2.508-1.813 6.031-1.416 6.031-1.416s.806.107 1.398.309c0 0 .808-.399 1.406-.336s1.68.627 1.781.971c.094.346-.203 1.41-.398 1.84-.202.429-1.278 1.085-1.887 1.293 0 0-.026-.054-.074-.133l-.059-.084a2.5 2.5 0 0 0-.646-.664l.027.102.031.102c.005.026.017.058.022.09.011.026.015.054.021.08.032.111.058.242.084.369l.047.313s-.128.07-.312.197c3.605 1.51 6.848 3.604 9.949 5.979 1.809 1.383 3.657 2.867 5.699 3.89l.377.176c.339.144.69.265 1.027.381 2.036.7 4.162.461 6.145-.27h.004l.113-.096a4.4 4.4 0 0 0 .363-.398l.303-.418v-.006a2.66 2.66 0 0 0 .148-.264c.646-1.209.689-2.619.477-3.918a2.04 2.04 0 0 0-.025-.18 7.17 7.17 0 0 0-.096-.482 13.4 13.4 0 0 0-.387-1.341c-.143-.415-.291-.784-.424-1.092l-.127-.287-.062-.131-.107-.225c-.021-.037-.037-.074-.059-.105l-.043-.09-.053-.096-.031-.063c.53.45.998.884 1.422 1.324 1.272 1.166 3.365 3.329 4.658 5.91 1.945 3.886 2.66 6.447 2.66 7.162s-1.637.515-2.867.408c-1.224-.1-7.469.514-9.621 1.537h.01c1.427-.334 2.864-.557 4.184-.572 3.822-.048 9.169 1.054 10.77 2.48l.07.027s1.15.848.891 1.887c-.218.864-1.071 1.543-2.545 1.633 0 0-.054.964.529 1.877.583.906 1.814 2.018 1.814 2.018 1.786.27 3.561.621 5.326 1.008.016.005.031.011.053.016.97.323 2.041.466 3.031.721l1.67.445 3.637 1.082 2.301.779c.202.069 1.156.555 1.293.455.382-.27 2.519-1.759 4.193-2.082 1.846-.355 3.572-1.05 3.572-3.123-.18-2.168-1.892-4.415-3.758-5.916 0 0-2.693 3.33-4.029 2.306s.7-2.391.271-5.052-9.149-11.623-20.17-18.232c0 0 5.099 2.103 10.023 4.717 6.021.99 7.431-.578 7.754-1.225a8.98 8.98 0 0 0-.662-.986 4.72 4.72 0 0 0-.895-.471c-.696-.266-1.351-.377-1.812-.605 0 0-1.06-1.07-1.41-1.584 0 0-.112.467.18 1.023 0 0-.816-.716-1.564-.871s-1.648-.454-1.881-.629-.689-.578-.689-.578a2.35 2.35 0 0 0 .133.637s-.767-.06-.9-.865.498-1.135.498-1.135-.058-.227 0-.514c0 0 .69.763 1.018.959 0 0 .149-.487-.133-1.324l-.254-.145-.738-.369c-.196-.091-11.549-6.525-16.93-9.228a6.72 6.72 0 0 1-1.521-.318s-.899-.418-1.049-.848c0 0-.063.221.068.465.228.413.711.855.854 1.428l-1.633-.912c-.647-.334-1.999-.723-2.771-1.295a1.81 1.81 0 0 1-.365-.354c-.032-.037-.058-.07-.08-.107-.081-.117-.127-.233-.158-.334-.016-.047-.027-.09-.033-.133-.005-.021-.01-.037-.01-.059a.76.76 0 0 1-.012-.143c0-.063.006-.1.006-.1a.25.25 0 0 1 .037.031c.011.011.021.021.041.031.011.011.033.027.055.043.318.275.663.582 1.066.693.03.011.068.022.1.027-.011-.017-.021-.031-.037-.047-.011-.016-.026-.033-.041-.049l-.102-.115c-.206-.228-.492-.595-.727-1.063-4.38-2.17-9.63-4.485-16.75-5.884-3.83-.757-7.19-.992-9.9-.988zM99.079 35.978l-1.166.154c-1.16.186-2.304.46-3.385.73-.005.005-.165.043-.229.059l-.158.037c-.005 0-.006 0-.006.006h-.006c-.016.005-.025.004-.025.004l-.027.018c-.011.016-.026.025-.047.041l-.012.012c-.011.011-.027.021-.037.031-.021.016-.041.037-.062.053-.005 0-.006 0-.012.006-.048.042-.11.101-.174.148-.053.048-.106.089-.164.137-.042.042-.085.07-.127.107l-.182.158c-.408.339-.815.822-1.043 1.352a.81.81 0 0 0-.043.1l-.059.176c0 .016-.01.031-.016.047l-.016.064a1.37 1.37 0 0 0-.031.205c0 .005-.006.016-.006.021a1.66 1.66 0 0 0 0 .324c.053.562.471 1.022.863 1.387.768.726 1.691 1.305 2.586 1.856l7.719 4.848c25.266 5.196 38.727 12.311 38.727 12.311s1.516 1.076.631 2.326c-.429.604-1.262.502-1.855.322-.657-.355-1.948-1.022-3.85-1.906-5.34-2.575-15.846-7.089-31.193-11.174 2.31 1.886 4.46 3.942 6.643 5.992l9.182 2.416.795.227 4.957 1.5 8.102 2.893.492.201.668.27 3.453 1.479 1.965.9c.016 0 .027.005.037.016l.092.043.031.016s1.005.7.91 1.643c-.005.063-.021.133-.037.207-.011.037-.021.08-.037.117a.71.71 0 0 0 .176.01c1.573-.095 3.109-.25 4.635-.668l1.277-.391a26.77 26.77 0 0 0 2.525-1.029c-.042 0-1.398-1.759-1.557-1.933a24.07 24.07 0 0 0-4.09-3.67l.635-.176c.217-.053.445-.083.662-.078-1.208-1.197-2.701-2.151-4.121-3.041l-1.6-.971-.461-.275-.328-.195-1.859-1.039-.021-.01c.011-.005.02-.006.025-.006h-.031c-.757-1.022-3.602-5.08-7.512-4.938 0 0-.016-.078-.053-.211a.67.67 0 0 0-.031-.111 6.2 6.2 0 0 0-.531-1.234c-.037-.074-.079-.143-.121-.217-.228-.376-.525-.779-.906-1.166-.043-.048-.09-.097-.143-.139a3.79 3.79 0 0 0-.266-.242l-.248-.203-.127-.094-.223-.16-.238-.152-.25-.148-.264-.139c-.18-.09-.371-.181-.572-.26-.101-.042-.203-.078-.309-.115l-.322-.107c-.291-.09-.598-.168-.932-.227a4.38 4.38 0 0 0-.383-.064c-.095-.016-.19-.027-.291-.037a10.29 10.29 0 0 0-.947-.074c.005 0 .009.006.02.012s.012.004.012.004c.408.132.742.678 1.018.981l1.016 1.129 1.299 1.643c.736.996 1.408 2.033 1.996 3.119.291.541.562 1.097.801 1.664l.344.857c.053.138.107.276.145.414.021.074.031.317.084.365l-1.865-1.832-1.219-1.082c-1.425-1.229-2.918-2.388-4.486-3.431l-.816-.551s-.005-.006-.01-.006-.011-.006-.016-.006l-.291-.1c-.906-.318-2.448-.834-3.699-1.156-.286-.08-.551-.142-.795-.189-1.881-.376-3.258-.313-3.258-.313s.816-.314 1.314-.568c0 0-3.193.128-6.711-.561-3.512-.689-8.032-3.449-9.664-5.643 0 0 1.128.313 2.008.25 0 0-1.853-2.009-2.272-3.365z" fill="#d7a22a"/><path d="M88.192 10.956c-.212.922-.031 3.526-.031 3.526-.424-.498-1.008-1.824-1.008-1.824s-.488-.212-.986-.105-1.314.604-1.389.922c-.068.324-.492.643-.492.643 0 .71.492 1.844.492 1.844-.53-.281-1.275-1.24-1.275-1.24-.144.249-.282.998.072 1.883.355.891 2.518 1.352 2.518 1.352 1.314.105 2.169-1.102 2.879-.996s.98.094.98.094c.211.287 1.219 1.188 1.219 1.188v-1.479s.18-.054.859-.334c.673-.287 1.028-1.565 1.098-2.063s-.07-1.101-.568-1.6c-.498-.493-1.24-.567-2.094-.424l-1.445.205c-.288-.391-.829-1.589-.829-1.589zm-20.195 2.375c-.8-.068-2.401.595-2.852.908-.456.313-1.287.656-1.949.693s-1.845.663-2.195 1.113c-.349.457-.381.73-.381.73s-.488.283-.525.803c-.032.524-.005.778.139 1.022 0 0 1.023-.153 1.924-.535 0 0-1.432 1.569-3.107 2.264 0 0 1.739.015 2.576-.367.016 0 .182.021.568.732.408.748 1.765.853 2.951.891l1.951.031c.381.037 1.426-.205 1.738-.449l1.035-.832c-.101.032-.87.264-1.416.131 0 0 .52-.557.9-.588.387-.038 1.013-.418 1.188-1.012s.763-1.006 1.076-1.219c.318-.207 1.496-1.019 1.602-1.936s-.383-1.648-1.947-1.754c0 0-1.324.626-2.855.801 0 0 .837-.383 2.156-1.428l-1.457.207s-.319-.138-1.119-.207zm39.438.52c.142.169.699.479.699.479s-.615.058-1.203.254-.812.7-1.119.897-1.398.164-1.398.164c.393.646 1.928 1.652 1.928 1.652-1.171-.281-3.189-1.229-3.189-1.229s-.726-.058-1.564.334-.928 1.261-.646 2.014 1.818 1.511 1.818 1.511c-.679 0-1.727-.197-1.859-.219.127.096 1.26.908 2.394 1.172 1.203.281 2.264-.195 2.264-.195-.223-.334-.137-1.008-.137-1.008.885.912 3.042 1.855 3.207 1.924-.641-.451-1.416-1.563-1.416-1.563s.868-.335 1.287-.643 1.12-1.203 1.178-1.425.529-.758.529-.758c.536.308 1.178.365 1.178.365-.334-.34-.418-.926-.418-.926s.698-.277 1.27-.748c.572-.477.854-1.405.154-1.633s-1.538.059-1.988.006c-.446-.059-1.451-.117-1.451-.117-.366 0-1.516-.309-1.516-.309zm29.967 1.783c-.28 0-.534.044-.688.098-.307.101-1.527.102-1.527.102.509.477 1.188 1.426 1.188 1.426-.778-.578-2.374-1.426-3.021-1.426h-.137c-.637.031-1.478.26-1.766.609-.307.376-.949.545-.949.545.032.302.881 1.258.881 1.258-.509-.139-1.459-.578-1.459-.578s.611.814 1.187 1.059l1.936.875c.817.339 2.002.238 2.002.238-.168-.376-.885-1.293-.885-1.293.854.445 2.82 1.664 2.82 1.664.308-.069.615-.339.816-.609s.541-.035 1.119-.1.918-.446.955-.918c.031-.478-.171-.786-.988-1.357-.816-.578-.814-.984-.814-.984.381.095.884.306.947.332-.031-.063-.301-.555-.777-.777-.255-.12-.56-.163-.84-.162zm-13.59 1.457c.509.201.711.479.711.479s-.303.032-.615-.006c-.314-.031-.372-.165-.844-.234s-.678-.068-1.256.17-1.123.203-1.123.203c-.679-.202-2.006-.34-2.006-.34.684.376 1.295.885 1.295.885-.239.17-1.189.541-1.395.643s-.646.514-.408.916c.239.409.309.783.309.783-.61-.207-1.633-.375-1.633-.375.514.376 1.973 1.732 1.973 1.732-.578-.101-1.564-.477-1.564-.477s-.271.339-.234.647c.032.302.472.542.949.68s1.596.137 1.596.137c1.226-.176 1.967-.545 1.967-.545-.254-.445-.832-1.013-.906-1.082.111.026 1.408.409 2.061.504a2 2 0 0 0 1.633-.578c.27-.302.41-.44.902-.551s1.135-.537 1.135-.537c-.1-.329-.52-.932-.572-1.012.274.096.98.27.98.27s.546-.683.031-1.181c-.51-.498-1.389-.65-1.389-.65-.509-.34-1.596-.479-1.596-.479zm22.555.037c.1.344.361.684.361.684s-.165.181-.77-.047c-.599-.229-1.076-.133-1.076-.133 0 .566.67 1.521.67 1.521-.371-.148-1.131-.68-1.131-.68a2.26 2.26 0 0 0 .504 1.076s.322.404 1.096.801 1.449.238 1.449.238c1.108.064 1.754.844 1.754.844-.212-.032-.467-.049-.467-.049-.211 0 .605.522 1.172.961s1.611.4 1.611.4c-.085-.275-.625-1.557-.625-1.557l1.494 1.315s.211-.228.211-.551-.619-1.119-.619-1.119.473-.471.395-.764c-.085-.292-.522-.746-.748-.863-.213-.106-.685-.414-.744-.451.102.397.477.9.525.965-.059-.042-.54-.408-.662-.547-.128-.148-.94-.942-1.654-1.25s-1.658-.016-1.658-.016c-.324-.143-1.088-.779-1.088-.779zm-101.54 1.787c-.47.021-.879.107-1.02.264-.275.318-.869.875-1.564 1.432s-.486.986-.486.986c-.557.206-2.332.477-2.332.477.557.207 2.066.561 2.066.561s.091.097-.291.484c-.387.381-.572 1.24-.572 1.24.593.345 2.432.77 2.432.77l-2.416.391s.275.487 1.457.662c1.187.17 2.752-.768 2.752-.768 1.288.313 2.193-.451 2.193-.451-.276-.037-.906-.35-.906-.35.837.069 1.676-.105 1.676-.105.832-.488 1.181-.903.975-1.496-.212-.594 0-.974-.037-1.844s-.678-1.231-.678-1.231c1.166-.307 1.516-.857 1.516-.857l-2.201.174c-.419 0-.414 0-1.182-.213-.382-.103-.911-.146-1.381-.125zm95.562 3.168l1.203.717c-.027 0-.869.005-1.271.742-.408.748.17.678.34 1.695s1.187.748 1.187.748c-.302-.239-.191-.6-.191-.6.456.355.837.467 1.482.6s.881.408.881.408c-.539 0-1.219-.031-1.219-.031s.741.577 1.5.73c.757.159 1.076-.322 1.076-.322.715 0 1.531.338 1.531.338-.137-.275-.375-.885-.375-.885.339-.202.785-.985.037-1.494s-.786-1.119-1.766-1.797c-.985-.679-1.871-.408-1.871-.408.307.27.406.779.406.779-1.287-.779-2.951-1.221-2.951-1.221zm-62.643 1.039c-.593.021-1.022.207-1.355.424-.228.149-.41.318-.553.451-.35.329-1.098.461-1.098.461l-1.51.09c1.568.439 2.016.98 2.975 1.346l-2.428-.428c-.207.863-.817 1.139-1.277 1.482-.462.35-.498.615-.498.615.821.175 2.908 1.352 2.908 1.352-.769-.212-2.908-.217-2.908-.217-.117.381-.213.381.402 1.092s.555 1.001.344 1.228-.694.808.229 1.539 2.65.593 3.207.514a3.53 3.53 0 0 1 1.098.047c-.42-.308-1.076-.969-1.076-.969.424.038 1.801.35 1.801.35s-.423-.425-.152-.732c.265-.307 1.112-.189 1.742-.687.637-.499.498-1.634.637-1.883.132-.25.785-.631.785-.631.249-.022.637 0 .637 0-.579-.35-2.482-1.266-2.482-1.266.689.016 1.867.109 1.867.109-.058-.307-.446-1.166-.578-1.553-.133-.381-.017-.727.037-.959s.021-.631.021-.631c-.191-.212-.535-.402-.535-.402.689.016 1.705.17 1.705.17-.101-.047-.492-.238-1.059-.434-.742-.255-1.788-.516-2.885-.479zm76.479.51c.212.233.191.498.191.498-.17-.017-.383-.016-.822.096-.446.117-.807.502-.807.502.324.302 1.363 1.555 1.363 1.555l-1.156-.541c0 .27.387.767.865 1.096s1.822.652 1.822.652c.308.418 1.5.594 1.5.594-.096-.249-.789-1.324-.789-1.324.365.175 1.748 1.002 1.748 1.002s.228-.001.383-.234-.214-.996-.346-1.229c-.138-.228-.365-.726-.826-1.166s-1.459-.695-1.459-.695l.156.541c-.577-.599-1.824-1.346-1.824-1.346zm-21.314.143c-.408-.024-.808.057-1.078.277-.544.439-.777.486-.777.486-.572-.228-1.055-.18-1.055-.18.779.641 1.559 1.426 1.559 1.426-.71-.1-1.898-.51-1.898-.51-.344.371-.239.68-.207 1.02.038.339-.338.576-.338.576.27.408 1.562 1.357 1.562 1.357-.376 0-1.832-.201-1.832-.201 1.017 1.018 2.378 1.002 2.713 1.018s.683.133 1.191.102c.509-.038.98-.648.98-.648.446-.17.843-.784.986-1.049.148-.271.609-.647.609-.647-.233-.44-1.123-1.25-1.123-1.25.976.138 2.211.943 2.211.943-.472-.779-1.187-1.15-1.187-1.15s-.579-.818-1.189-1.215c-.305-.202-.719-.331-1.127-.355zm-23.869.26c-.343.075-.307.446-.381.615-.074.149-.17.182-.186.188.381.302.959.593 1.098.656-.382-.138-1.67-.18-1.67-.18-.192.154-.281.599-.09 1.367.01.026.011.052.016.078.17.742.063 1.496.063 1.496l-.381.117c.345.418.996.725 1.262.959.254.211.472.737.498.801-.08-.053-.705-.457-.918-.494s-.445-.349-.492-.412c.026.095.286.858.684 1.219.424.381 1.841 1.075 2.609 1.419s1.191.838 1.191.838c.477-.11-.371-.981-.455-1.066.419.116 1.16.593 1.16.593-.064-.286.219-.942.065-1.367-.154-.418-1.115-1.304-1.422-1.568-.308-.271-.476-.965-.424-1.268.165-.938.445-1.305.445-1.305.128-.16.435-.465.574-.604l1.943.318s-.009-.011-.025-.021c-.005 0-.012-.004-.012-.004-.016-.011-.025-.023-.047-.039l-2.439-.709c-.026-.228-.094-.494-.254-.568-.276-.132-1.145-.678-1.299-.752-.153-.08-.768-.388-1.113-.309zm-15.797.088a1.26 1.26 0 0 0-.736.268c-.488.376-1.293.593-1.76.805-.466.217-.584.541-.584.541.361.143.918.971.918.971l-2.041-.414s-.033.391-.213.715-.661.344-1.096.578c-.43.233-.79.626-.77 1.147.032.858 1.107 1.514 1.24 1.594-.366-.09-1.187-.229-1.187-.229.286.339 2.189 1.867 2.189 1.867-.287-.038-1.24-.105-1.24-.105.398.122 1.707.662 2.279.789.578.123 1.166-.111 1.166-.111-.211-.233-.752-.699-.752-.699.414.089 1.451.396 1.451.396.826-.037 1.399-.466 1.723-.953s1.045-.912 1.045-.912l1.797.229c-.679-.398-1.332-.68-1.332-.68.504-.233.988-.556 1.146-.932.164-.377.36-.488.449-1.061s-.412-1.129-.412-1.129a11.48 11.48 0 0 1 .863.232c-.27-.233-.9-.645-.879-.879.016-.232.285-.271.502-.609.212-.345-.02-.812-.465-1.008-.45-.196-1.348-.25-1.348-.25.143.303.572.664.572.664-.826-.25-1.525-.685-1.879-.754-.181-.037-.408-.082-.648-.07zm28.533.002c-.599-.063-1.404.334-1.404.334-.593-.202-1.398-.309-1.398-.309.959.657 1.26 1.555 1.26 1.555-.524-.397-1.186-.773-1.186-.773-.355.254-.474.687-.754 1.111-.287.424-.705.842-2.063 1.5s-1.207 1.412-1.207 1.412l-1.066.057c.779.175 2.051 1.277 2.051 1.277-.386-.154-1.191-.211-1.191-.211-.154.668.53 1.191.869 1.479s.693 1.154.693 1.154c-.35-.021-.678.033-.678.033s.98.355 1.287.609c.308.249 1.629.354 1.629.354.185-.428-.244-.996-.244-.996-.753-.376-.965-1.266-.965-1.266.417.323.879.52.879.52s-.041-.748.494-1.734c.164-.307.409-.593.674-.847.339-.334.709-.608.959-.783.185-.128.312-.197.312-.197-.011-.096-.029-.202-.049-.313l-.084-.371c-.006-.026-.011-.054-.021-.08-.005-.032-.015-.064-.02-.09l-.033-.102-.025-.1a2.5 2.5 0 0 1 .646.662l.059.086a1.86 1.86 0 0 1 .074.133c.609-.208 1.684-.866 1.887-1.295.195-.43.491-1.495.396-1.84-.101-.344-1.182-.905-1.781-.969zM60.3 30.299c.308.381 1.613 1.25 1.613 1.25-.97-.18-1.537-.436-1.537-.436s-.409.001-.891.102c-.487.106-.971.6-.971.6-1.044-.016-1.644.811-2.205 1.272s-1.176.461-1.176.461c.334.689 1.25 1.457 1.25 1.457-.715-.18-2.146-.869-2.146-.869-.234.408-.079 1.124.027 1.639.1.508-.457.857-.457.857.477.583 2.115 1.088 2.115 1.088-1.526.09-3.473-.096-3.473-.096.79.418 2.223.742 2.223.742a10.99 10.99 0 0 0 2.824.832c1.574.233 3.012-.832 3.012-.832s1.43.245 2.045-.47.127-1.741.021-2.022c-.1-.281.001-.642.489-.668s.922-.461.922-.461c.699-.09 1.867.005 2.068.021-.261-.064-2.062-.52-2.322-.965-.281-.487.508-1.229.508-1.791s-.587-1.229-1.457-1.457-1.404-.08-1.404-.08c-.487.026-1.078-.174-1.078-.174zm21.318 6.799c-.137.014-.261.05-.363.113-.413.254-.462.717-.695.897-.227.18-.922.078-1.25.078-.334 0-.461.175-.566.408 0 0 1.382.536 2.072.971 0 0-2.121-.482-2.816-.535l.924.488s1.357.634 1.59 1.022c0 0-.587-.105-1.049-.127 0 0 1.097.588 1.813 1.225 0 0 .233 1.458.922 1.565.689.101 1.23.227 1.564-.027.327-.255.434-.668.434-.668s.435.08.764-.201.568-.795.875-.848c.302-.047.663.181.869.154.202-.021.355-.154.355-.154l-1.967-.764s1.505.126 2.375.307c0 0 .285-.258-.457-.539s-.391-.806-1.281-1.357c-.868-.535-1.793-.996-2.736-1.224l1.559-.053s-.815-.309-1.482-.488c-.497-.131-1.039-.281-1.451-.24zm-15.145 4.016c-.847.04-1.475.275-1.475.275 1.261.191 1.447.652 1.447.652l-2.434.486c-.419.138-.365.117-.365.398s-.186.748-.467 1.305-.229 1.955-.229 1.955c.748.324 2.078.287 2.078.287-.795.185-1.898.647-1.898.647.185.657 1.262 1.632 2.1 2.427.837.79 1.182 1.479 1.182 1.479-.562.09-1.135.387-1.135.387s1.866.7 2.889.838c1.029.138 2.832-.674 2.832-.674.964.116 2.762-.116 3.207-.795s-.446-1.516-1.098-2.072c-.652-.563-1.039-1.976-1.039-1.976.774.058 1.992-1.15 1.992-1.15s-1.929.465-2.443.094c-.514-.376-1.302-1.262-1.727-2.051-.42-.795-1.258-2.285-2.514-2.471-.315-.046-.622-.054-.904-.041zm-17.689.008c-.152-.021-.279-.022-.361.006-.328.105-.921.657-1.377.609s-1.553-.182-1.781.316c-.228.504-.34.998-.34.998s.982.189 1.846.465c0 0-1.871-.136-2.873-.047 0 0 .318.09.594.275 0 0-.594 1.051-.09 1.734.498.684 1 1.69 1.912 1.779s2.01-.088 2.01-.088l-1.822-.553s1.547.001 2.734.414c0 0 1.96-.091 2.283-.504s.356-.695.77-.965c.419-.266.736-1.043.551-1.637s-1.367-1.188-1.367-1.188l-1.781-.498s.731-.139 1.234-.092c0 0-.048-.414-.594-.594-.41-.139-1.092-.372-1.547-.434zm28.215 3.002l11.143 1.844a243.59 243.59 0 0 1 17.527 3.971c15.346 4.087 25.852 8.598 31.195 11.174l3.848 1.908c.593.181 1.427.282 1.857-.322h-.002c.885-1.252-.633-2.328-.633-2.328s-13.456-7.113-38.723-12.312l-14.832-2.576-11.381-1.357zm67.041 1.209c-1.32.015-2.755.238-4.182.572h-.012c-1.812.429-3.599 1.017-5.307 1.754l-1.439.674c-.573.285-1.137.593-1.65.975l-.174.139s7.23-2.084 12.6-1.602 10.383 3.096 11.326 1.15c.196-.408.032-.806-.393-1.182-1.6-1.427-6.947-2.528-10.77-2.481zM39.42 48.313c-.488-.032-.889-.001-1.111.158-.446.323-1.411 1.537-1.729 1.856s-.572 1.218-.445 1.856c0 0-.831.451-1.408.451 0 0 1.086.253 3.201-.064 0 0-1.092.573-1.537 1.023 0 0 .641 1.15.641 2.363l-.102 3.256s1.38-.244 2.467-.244c0 0-2.047.96-2.498 1.596 0 0 .26 2.496 1.988 2.942s2.555-.508 3.324-1.404 2.24-2.11 2.813-2.561h.002c.578-.445 1.156-2.688.26-3.584l-.838-.811c-1.32.457-2.555.492-2.555.492.716-.254 1.568-.726 2.066-1.023-.27-.329-.482-.673-.594-1.086l-.768-2.815s-.705 0-1.537-.133c0 0 1.791-.572 2.496-1.086 0 0-.579.064-1.156-.063 0 0-.189-.706-1.34-.897l-1.641-.223zm37.689 1.979c.016.005.031.004.047.01l.105.012c.005.005.016.004.021.004l10.861 1.711c25.101 4.477 41.662 11.253 48.877 14.648l3.867 1.865c.599.175 1.429.27 1.848-.34.08-.111.137-.227.18-.338l.006-.012c.016-.037.027-.078.037-.115.016-.074.032-.143.037-.207.095-.943-.912-1.643-.912-1.643l-.031-.016-.09-.043c-.01-.01-.021-.016-.037-.016l-1.967-.9-3.453-1.478-.668-.27-.492-.201-8.1-2.893-4.959-1.5-.795-.227-5.16-1.373-12.36-2.864-13.703-2.31-10.949-1.303-.309-.027-1.906-.174zm-24.455 1.619c-.173.007-.31.039-.4.1-.482.323-.562.968-.572 1.037v.006s1.113-.063 1.754-.186c.011 0 .021-.006.031-.006 0 0-1.214.895-3.641 1.213l.006.006c.085.021.408.111.779.158.217.032.45.049.662.027h.021l-.383 1.473c-.127.578.128 1.664.764 2.172l.006.006s1.07-.063 2.209-.313c.011 0 .015-.006.025-.006 0 0-.381.637-.895 1.023 0 0 .577.316.254.83-.318.509-1.085 1.855-.635 2.75.18.365.534.758.895 1.092.514.487 1.033.857 1.033.857s1.722-.414 2.549-.736c0 0-1.729 1.214-3.074 1.797 0 0 2.051-.07 2.756-.197l-.318.711s.895.699 3.004.381 3.453-.768 3.453-1.859c0-1.086-.259-1.6.064-2.686 0 0-.768.127-1.346 0 0 0 1.219-.704 1.664-1.467 0 0-.112-.689-.445-1.373l-.006-.006c-.212-.439-.524-.883-.953-1.127-.143-.084-.297-.148-.467-.186l-.279-.064c-.185-.037-.382-.083-.578-.137-.302-.08-.615-.181-.922-.309a5.32 5.32 0 0 1-.307-.137 1.67 1.67 0 0 1-.303-.16 4.33 4.33 0 0 1-.709-.508c-.005 0-.012-.004-.018-.01-.482-.45-.889-1.048-1.148-1.875 0 0-.451-1.278-1.41-1.602-.011 0-.009-.004-.02-.004l-1.289-.387-.396-.102c-.281-.069-.556-.121-.811-.158-.225-.032-.433-.048-.605-.041zm19.98 15.875c-.414.021-.836.126-1.273.316-1.171.509-2.902 1.002-2.902 1.002s-1.601.767-1.812 1.074c.032-.074.323-.678.752-1.012l-2.543.053c-1.065.048-2.229.154-2.383 1.166-.148 1.017.152 1.526.607 1.881s2.188 1.42 2.543 1.775c0 0 1.165-.764 2.082-.965 0 0-1.98 1.419-2.436 2.188 0 0 .863-.455 1.473-.455 0 0 1.572.965 2.584.965 1.017 0 2.945-.309 2.945-.309s1.118-.757 2.342-.863c0 0-1.276.863-1.578 1.272 0 0 .509-.052.816.154.302.201 1.318.402 2.234.047.911-.355 1.823-.709 1.775-1.826-.053-1.118-.709-2.438-.709-2.438s1.197-1.002 1.859-1.314c-.159.021-1.457.217-2.268.551 0 0-1.012-2.034-2.082-2.691-.669-.411-1.337-.605-2.027-.57zm-25 1.436s-1.896-.143-3.02 1.637c-.005 0-.01 0-.016-.006.005-.143.069-.831.588-1.482 0 0-.995.456-1.557 1.086 0 0-.271.302-.355.625-.048.19-.1.35-.158.482a1.31 1.31 0 0 1-.055.127.91.91 0 0 1-.072.143c-.021.037-.043.07-.064.102-.037.053-.074.096-.111.133-.106.116-.218.18-.318.238-.244.143-.54.196-.736.439-.148.185-.323.487-.381 1.012v.016a3.03 3.03 0 0 0-.006.541s.583-.637 1.123-.933c0 0-.88 1.373-.98 2.4 0 0-.196 1.711 1.42 2.59 1.61.879 4.016 1.568 4.699 2.104 0 0 1.225-.878 1.908-1.17 0 0-1.617 1.562-2.057 3.029 0 0 .981-.927 1.521-1.123 0 0 1.514 1.124 2.441 1.023.927-.095 2.252-.048 2.787-1.272.54-1.218.439-1.415.687-1.807 0 0-.884.541-1.519 1.123 0 0 .296-1.218 1.519-2.15 1.219-.927 1.813-1.076 1.813-1.076s2.888-3.82-.486-5.679l2.59-1.414-3.576.974s-2.003-.392-3.078-.392c-1.081 0-2.934-.142-3.766-.391l-1.662-.536s.487-.292.879-.393zm13.957 11.631c-.074 0-1.282.01-2.082.656 0 0-2.452.255-2.924 1.908-.477 1.658.741 2.835 1.096 3.094 0 0 .494-.774 1.49-1.262 0 0-.568.917-.547 1.68 0 0 2.093 1.108 6.268 1.686 4.18.578 3.878.269 5.346 1.18 0 0 1.552-1.096 2.41-1.356 0 0-1.209 1.716-1.32 2.358 0 0 1.939 1.653 3.539 1.775 1.605.127 2.978-.494 2.809-2.147l.578-.709-1.023.074.297-.557s-.047-.843-.514-1.494c.079.042.879.476 1.637.27l-.223.42s.875-.102 1.521-1.209l-.531-.143s-.042-1.218-1.16-2.373c-1.112-1.155-2.198-1.537-2.85-.897 0 0-.328-1.229-1.08-1.562s-1.271-.271-1.271-.271-2.945.587-4.158 1.334l2.881-1.859-1.637.377c0 0-1.722.006-3.322-.121l-5.965-.371.736-.482z"/><path d="M109.441 36.368c-1.183-.004-1.83.08-1.83.08s6.768 5.355 10.717 6.373 9.393-2.414 9.393-2.414l-5.443-1.648c.217.297.344.665.344 1.063a1.82 1.82 0 0 1-1.816 1.816c-1.007 0-1.824-.815-1.824-1.816 0-.075.011-.144.016-.213-.043 0-.996-.583-1.07-.641l-1.092-.875c-.625-.439-1.457-1.072-2.236-1.246l-.111-.021c-2.142-.357-3.862-.453-5.045-.457zm47.645 21.18c-1.759.054-3.059.793-3.059.793s6.297-.001 8.598 1.992c2.306 1.999 1.691 3.535 1.691 3.535s2.298 3.685 2.914 5.216c0 0 4.299-3.99 4.607-6.752 0 0-8.343-4.247-13.973-4.762a6.39 6.39 0 0 0-.779-.023zM95.839 70.517c-2.431.009-3.615.689-3.615.689s4.873 1.165 7.623 6.174c4.151 7.538 1.197 20.869 4.293 27.988 3.832 8.804 10.84 11.18 10.84 11.18 9.191-4.94 11.164-12.617 11.164-12.617-7.866-4.075-4.088-15.408-6.436-22.803s-11.078-8.821-11.078-8.821 7.15 2.916 7.34 23.578c.063 6.949 2.191 9.891 2.191 9.891-3.61-1.924-4.559-9.016-4.883-14.508-.165-2.793-1.298-16.396-11.703-19.756-2.369-.768-4.278-1.002-5.736-.996zm35.871 36.055l.322 3.561 2.477 1.607c.709-2.873-2.799-5.168-2.799-5.168z" fill="#006778"/></svg>