<svg xmlns="http://www.w3.org/2000/svg" height="101" width="159" viewBox="0 0 158.168 100.937"><path d="M152.503 44.586c-1.34-1.205-2.435-1.87-2.78-2.165-1.98-1.58-.321-.321-2.22-1.55-1.365-.855-1.74-1.55-3.13-2.325-2.49-1.42-2.755-1.82-4.76-4.225-1.74-3.185-4.44-3.64-7.15-4.255-2.62-.59-4.495-2.675-4.95-3.395-1.39-2.275-3.665-3.37-4.87-4.04-3.72-2.035-8-1.685-11.35-4.68-5.05-3.585-6.4-2.915-11.7-3.075-2.94-.08-6.75-1.955-8-2.995-1.045-.885-2.275-1.445-3.345-1.79-3.745-1.15-6.3.83-11.55-1.71-1.525-.75-2.915-1.765-4.415-2.65-.5-.385-1-.65-2.5-.97-3-.59-5.5-.215-8.5.08-2 .13-2.5-.7-4-1.475-1.5-.72-3-1.255-4.5-1.575-2.45-.43-5.05-.135-7.7.4-5.25 1.045-10-1.605-15.1-1.125-.85.08-2.5 1.15-3.1 2.355-.75 1.605-.75 2.54-.64 4.145.16 2.165.401 2.325.83 3.72l2.115 6.75c.855 2.38.83 5.3-1.205 6.25-.965.455-2.595.455-3.505-.241-1.42-1.095-2.195-2.595-3.8-2.915-2.14-.428-4.71 1.765-7 2.38-2.275.59-2.57-.64-4.145-1.365-1.045-.481-2.06.214-2.65.56-1.07.59-1.31 1.82-1.58 3.13-.187 1.045-.294 2.005-.027 3.155.374 1.66.935 2.65.965 3.8.107 2.89-.374 5.05-1.55 6.55-.75.965-1.765 3.665-2.06 4.655-1.045 3.315-.935 2.755-1.445 5.85-.268 1.58-.214 3.345-.348 4.815-.027.267.187 3.61.348 4.63.401 2.49.855 4.065 1.39 6.15.75 3.025 1.07 4.895.99 7.2-.08 2.38-1.58 4.63-.161 6.3.885 1.045 3.21 1.98 5.1 1.15 1.925-.855 3.315-1.845 4.815-2.06 2.755-.374 4.55.8 5.75.67 1.07-.134 2.915-1.175 3.8-1.255.695-.053 2.22-.134 2.755.268.855.64 1.365 1.34 1.23 3.505 0 .026-.51 2.325-.51 2.355l-2.275 7.5c-.482 2.06-2.73 6.55 1.845 8.35 1.925.775 3.96.615 6.5-.027 1.285-.321 1.82-.374 3.025-.59 0-.08 1.79-.054 1.79-.134l1.605-.08c2.835-.321 3.505-.134 6 .214 2.355.294 4.6.75 6.95.481 1.175-.134 2.325-.348 3.45-.72 3.265-1.045 4.79-2.46 8.7-2.995 3.265-.455 3.265.107 6.15-.027 2.995-.134 4.655-1.42 5.9-2.115 1.525-.83 1.925-.91 2.94-1.445 3.69-1.98 8.05-1.74 12.2-2.755 2.915-.72 4.065-2.085 7.35-2.97 1.31-.348 2.73-.321 4.12-.51 1.07-.16 2.94-1.095 3.985-2.06 1.79-1.66 1.605-1.74 2.995-2.515 2.325-1.31 4.975-1.285 7.35-2.38 2.195-1.015 4.44-1.87 6.15-3.61 2.515-2.54 6.5-3.265 9.75-4.44 1.925-.695 4.465-1.955 6.6-5.6 2.085-3.585 3.93-4.12 7.6-5.2 2.46-.75 3.53-1.255 5.45-3.05 1.71-1.605 2.325-2.65 3.105-3.77.885-1.285 2.595-3.425.775-5.05-.8-.72-1.63-2.035-3.345-3.37"/><path d="M111.763 71.106" fill="#100f0d"/><path d="M150.008 47.686l-3.45-2.54c-2.89-1.925-3.45-2.355-4.87-3.985-1.39-1.58-1.765-2.115-3.345-2.97-.59-.348-4.575-1.71-3.85-1.58-3.64-.64-3.77-1.42-5.2-2.755-1.205-1.74-2.62-3.825-3.85-4.63.482.294-2.22-1.47-2.195-1.42-2.06-.72-2.78-.535-5.4-.64.08 0-2.835-.401-3.585-.75-1.34-.59-2.06-1.285-2.97-1.98l-3.48-2.65c-2.73-1.98-3.075-1.5-6.55-1.845-2.94-.294-5.05-.99-7.35-2.65-4.095-2.97-8.1-1.925-10.6-2.3-3.61-.535-6.15-2.005-7.5-2.86-2.915-1.845-2.245-.99-5.35-2.435-3.72-1.765-7.2 1.175-11.55-.054-2.3-.64-3.155-1.845-4.63-2.38-4.45-1.3-5.95-.6-9.55-.55-4.3 0-8.15-1.15-12.25-1.1-1.15 0-2.035.965-1.87 2.275l.053 1.605c.214 1.31.695 2.7 1.095 4.145l1.5 5.15c.267 2.245 0 2.86-.161 3.825-.134.775-.64 2.3-1.015 2.86-.428.64-.99.885-1.74 1.34-1.285.775-2.62 1.125-4.01 1.095-1.445-.054-1.07-.054-3.345-.885-.83-.321-2.54-1.285-4.255-.56-3.29 1.39-3.665.241-5.45.375-.535.026-1.07.294-1.58.535-.83.348-1.205.885-1.74 1.98a5.29 5.29 0 0 0-.428 2.755c-.187 0 .321 1.55.321 1.605.401 2.115.51 3.77-.294 5.65-.775 1.765-.99 2.38-1.98 3.825-.965 1.39-2.65 5.4-2.78 9.1.134-.134-.027 4.385.51 7.05.59 2.94 1.445 3.185 1.63 8.05.08 1.845-.107 3.45-.16 5.1-.027 1.07.321 2.57 1.66 2.355 1.925-.294 4.095-1.365 5.6-1.42.75-.026 2.035.214 2.57.374 3.05 1.07 2.035.268 6.8-.56 1.58-.294 3.77.053 4.63.56 2.81 1.63 2.57 5.2 1.765 8.75l-.99 4.84c-.482 1.87-.428 1.98-.67 3.985-.107.965-.054 1.71.481 2.595.455.72.965 1.23 1.66 1.23 3.105.08 4.815 0 8-.56 4.12-.75 6.2-.75 9.05-.482 2.915.268 7.05.187 8.75-.455 1.55-.56 3.61-1.765 5.25-2.115 5.4-1.15 5.6-.615 10-1.175 3.505-.455 5.3-2.22 7.1-3.155 2.46-1.31 4.63-1.765 7.45-1.765 1.66 0 4.04-.56 5.2-1.095 4.655-2.115 2.915-1.98 9.4-3.185 3.29-.615 5.65-3.235 7.7-4.36 1.31-.75 2.46-1.34 3.93-1.79 1.98-.59 4.2-.91 6.1-1.55 3.05-1.07 3.985-2.115 5.65-3.61 1.39-1.255 1.845-1.23 3.395-2.195 1.58-.99 3.88-1.71 4.76-1.98 2.005-.615 4.95-3.985 7.7-6.75 3.235-3.315 6.25-2.755 9.85-4.68 2.195-1.15 3.61-1.925 2.595-4.01-.401-.83-1.5-1.845-2.38-2.46" fill="#fff"/><path d="M153.1 127.7c-13.6-10.6-9.74-20.1-4.01-24.5l1.71 1.87-2.89 3.05.214 11h39.2l5.03-4.82v-12h-3l-13.6-14.6c26.1-5.56 38.9 5.83 46.6 18.4h10.2l5.19-5.03v-29h-10.9l-6.53 4.01c-23-11.2-41-10-59-4.1l-2.94-3 16.6-9.9 10-.053 4.92-4.65v-9.84h-40l-4.23 4.33v6.74l-37.5 21.5v-16.5l6.05-6.1v-9.95h-39.3l-5.35 6.26v7.86h6.42v42.5h-1.98s-5.24 5.94-4.98 6.05v11h41.4l4.12-3.85v-13.2h-6.1v-3.37l22.8-13.1 1.93 1.98c-5.08 3.58-9.1 6.96-12.1 12.3-4.49 7.44-6.1 17.8-3.48 26.1 1.71 5.56 3.85 8.93 7.6 12.8 3.58 3.69 6.63 5.83 12.5 8.61 4.82 2.41 16.1 5.83 24.9 6.74 8.51.642 19.2.535 26.2-.374 7.7-.802 15.7-3.58 20.5-5.56 3.85-1.87 8.13-3.58 11.4-6.15 8.24-5.94 17-14.9 17.1-26.1h-15.4c-4.82 17.2-51.4 25-70.1 11.7" stroke="#000" transform="matrix(.5 0 0 .5 .50848 .33626)"/><path d="M188.69 47.182l-36.984.053v6.414h4.328l-48.902 27.898V53.701l6.092-.053v-6.414H77.363v6.414h6.092v51.254h-6.092v7.375h35.861v-7.375H107.4v-8.658l27.791-15.928 23.037 24.533-5.133-.055v7.482h37.199v-7.428h-1.176l-33.725-36.396 25.066-14.752 8.231-.107v-6.412zm.199 23.074c-11.618-.079-19.879 2.706-23.877 3.969l9.568 10.475c20.576-4.917 42.646.214 52.32 14.803l9.303-.104.105-25.709h-8.551l-6.092 4.01c-12.673-5.588-23.741-7.382-32.777-7.443zm38.012 29.246l-.211.002h.213c0-.001-.001-.001-.002-.002zm-90.21-10.26c-8.551 5.826-11.436 11.277-13.307 16.568-1.443 4.383-3.475 13.309.641 21.646 5.024 8.658 13.148 13.683 18.6 15.66 8.926 3.741 23.354 7.161 39.709 6.519 11.705-.267 21.914-2.405 31.748-7.322 5.719-3.046 6.895-3.74 12.613-9.031 4.276-4.917 7.748-7.963 9.191-15.553h-9.834c-3.955 6.52-9.406 11.703-21.912 15.391l.107.055c-24.158 7.162-47.408 3.582-57.723-9.139-8.551-9.834-4.543-18.494.908-23.197l-10.75-11.588z" transform="matrix(.5005 0 0 .5005 .429445 .33626)" stroke="#e31837" stroke-width=".534" fill="#e31837"/></svg>