<svg xmlns="http://www.w3.org/2000/svg" height="139" viewBox="0 0 254 138.22" width="254"><path d="M231.358 56.406c18.19 23.331 22.382 54.675 20.456 80.54-9.425-22.91-28.819-52.736-50.805-70.245 2.228 4.588 3.872 9.413 5.729 15.949-35.532-21.782-76.74-34.944-122.143-31.798 0 0 5.509 5.952 7.247 9.227-24.768 10.368-58.796 23.074-88.169 76.863-7.759-37.446 18.068-74.172 26.264-82.96-4.365-.179-5.314.075-10.082-.098C46.848 16.115 98.16 8.441 125.389 10.622l-7.034-8.746c37.785-1.587 55.669 9.525 62.957 12.445 29.284 14.453 43.797 32.989 50.041 42.084" fill="#001532"/><path d="M130.174 6.298l-2.882.057 5.849 8.366C119.376 13.596 66.479 11.88 30.98 47.248l-2.517 2.514 10.179.32-1.76 2.175C26.219 65.184 11.618 82.89 6.596 117.101l-.965 6.621 3.765-5.534c19.18-28.181 44.039-48.004 73.909-58.911l1.904-.694-1.185-1.647c-3.121-4.333-6.16-7.115-8.938-9.494 52.297-5.289 90.132 8.894 120.257 23.643l3.658 1.797-1.565-3.762c-2.913-7.036-5.569-11.778-8.338-16.201 22.615 13.413 38.498 33.13 54.835 58.393l3.366 5.179-.541-6.156C240.839 41.959 174.067 5.413 130.167 6.297" fill="#0080c5"/><path d="M137.577 15.711l-4.369-6.261c21.235.409 46.422 9.667 66.535 24.667 17.188 12.813 38.093 35.185 43.201 70.138-16.675-25.032-33.398-44.458-57.888-57.243l-5.264-2.747 3.287 4.988c3.463 5.249 6.534 10.051 9.84 17.294-29.111-13.878-68.75-28.052-121.794-21.833l-3.514.415 4.205 3.564c2.608 2.203 5.525 4.737 8.489 8.495-27.662 10.544-51.011 28.703-69.559 53.968 5.676-29.221 18.771-45.124 28.52-56.934l5.707-7.027-3.152-.075-5.946-.195c39.869-36.716 99.602-28.9 100.201-28.813l3.554.541-2.055-2.938" fill="#eead1e"/></svg>