<?xml version="1.0" encoding="utf-8"?>
<!-- Generator: Adobe Illustrator 24.0.2, SVG Export Plug-In . SVG Version: 6.00 Build 0)  -->
<svg version="1.1" id="Layer_1" xmlns="http://www.w3.org/2000/svg" xmlns:xlink="http://www.w3.org/1999/xlink" x="0px" y="0px"
	 viewBox="0 0 470 343" style="enable-background:new 0 0 470 343;" xml:space="preserve">
<style type="text/css">
	.st0{fill:none;}
	.st1{fill:#003594;}
	.st2{fill:url(#SVGID_1_);}
	.st3{fill:#D7D2CB;}
	.st4{fill:#FFD100;}
	.st5{fill:#FFA300;}
	.st6{fill:#FF8200;}
	.st7{fill:url(#SVGID_2_);}
	.st8{fill:#FFFFFF;}
</style>
<g>
	<polygon class="st0" points="-16,-78.3 484,-78.3 484,421.7 -16,421.7 	"/>
	<g transform="translate(20 84.996)">
		<path class="st1" d="M387.9-22.2c-63-63-161.1-74.2-236.6-27.1l0,0C130.4-35.4,112.3-17.8,98,2.7c-0.1,0.1-0.1,0.1-0.2,0.2H58.4
			L-16,171.2h96.5c14,26,35.1,47.5,60.9,61.8c49.3,27.1,109.4,24.8,156.5-5.9c5.4-3.6,7.9-10.3,6.1-16.5c-1.8-6.3-7.5-10.6-14-10.7
			c-1.5,0-2.9,0.2-4.3,0.6c-9.6,2.9-19.6,4.4-29.7,4.3c-28.9,0.1-56.5-12.2-75.8-33.7h90.2l15.5-21.6l60.1,0c0,0-1.8,4.7-2.8,6.9
			l-6.5,14.6h98.4l2.1-7.7C455.3,97.3,436.4,26.4,387.9-22.2z M427.1,160.8h-74.4c3.1-7,5.6-14.2,7.6-21.6h-79.9l-15.4,21.6h-71.6
			l107-149.9l0,0c-14.1-5.8-29.2-8.7-44.5-8.6c-1.9,0-3.9,0-5.8,0.1c-58.1,2.9-104.4,49.5-104.4,106.4c0,3.7,0.2,7.4,0.6,11.1h63.2
			l-18.8,26.5c-5.9,8-13.8,14.4-25.8,14.4h-5.2c18.9,32.6,54.9,54.6,96.2,54.6c11.1,0,22.1-1.6,32.7-4.8c0.4-0.1,0.9-0.2,1.3-0.2
			c1.9,0.1,3.5,1.4,4,3.2c0.5,1.8-0.2,3.8-1.8,4.8c-34.2,22.3-76.4,28.8-115.7,17.8c-39.3-11-72-38.5-89.6-75.4H0L65.2,13.3h37.7
			C129-20.6,169-40.9,211.8-41.9c1,0,2.1,0,3.1,0c60.3,0,110.8,36.1,131.3,89.1l-37.1,51.9h56.4c-0.2-50.3-25.5-97.3-67.3-125.3
			s-94.9-33.3-141.5-14.3c63.2-39.4,144.1-36.1,203.8,8.4S446.7,88.9,427.1,160.8z M217.3,109.4h-61c0-0.2,0-0.4,0-0.6
			c0-51.2,41.5-93.3,94.5-96c1.8-0.1,3.5-0.1,5.3-0.1c9.4,0,18.7,1.2,27.8,3.6L217.3,109.4z M349.6,60.6c2.7,9.2,4.4,18.6,5.1,28.1
			h-25.2L349.6,60.6z"/>
		
			<linearGradient id="SVGID_1_" gradientUnits="userSpaceOnUse" x1="3.3591" y1="384.7984" x2="3.3591" y2="383.7984" gradientTransform="matrix(276.7725 0 0 -228.6273 -634.5763 87907.5938)">
			<stop  offset="0.217" style="stop-color:#FFD100"/>
			<stop  offset="0.296" style="stop-color:#FFD724"/>
			<stop  offset="0.474" style="stop-color:#FFE87F"/>
			<stop  offset="0.707" style="stop-color:#FFFFFF"/>
		</linearGradient>
		<path class="st2" d="M156.7-40.4c57.2-23.4,122.8-9.7,165.8,34.5s55,110.2,30.2,166.7h74.4c19.6-71.8-6.8-148.4-66.6-192.8
			S219.9-79.8,156.7-40.4"/>
		<path class="st3" d="M346.2,47.2l-14.3,20.1c-13.7-14.1-32.6-22.1-52.3-22c-1.2,0-2.4,0-3.7,0.1l24.6-34.5
			C318.9,18.4,334.7,31,346.2,47.2z M360.4,139.2c3.5-12.9,5.2-26.1,5.2-39.5c0-0.2,0-0.4,0-0.6h-15.5c3.6,13.2,3.4,27-0.5,40.1
			L360.4,139.2z"/>
		<path class="st4" d="M292.3,218.4c-43.8,28.6-99.9,30.7-145.8,5.5l0,0c-11.3-14.3-19.7-30.7-24.6-48.2c15.8-0.7,38.8,0.6,55.7,7.9
			c21,20.5,49.1,31.9,78.4,31.8c11.1,0,22.1-1.6,32.7-4.8c0.4-0.1,0.9-0.2,1.3-0.2c1.9,0.1,3.5,1.4,4,3.2S293.9,217.4,292.3,218.4z
			 M146.5,119.9c-0.4-3.7-0.6-7.4-0.6-11.1c0-56.9,46.3-103.5,104.4-106.4C183,5.1,127.8,55.3,118.4,119.9L146.5,119.9z"/>
		<path class="st5" d="M159.9,160.8h-41.2c0.8,5,1.9,10,3.3,14.9l0,0c15.8-0.7,38.8,0.6,55.7,7.9
			C170.8,176.8,164.8,169.2,159.9,160.8z"/>
		<path class="st6" d="M87,160.8c5.1,10.7,11.6,20.8,19.3,29.9c4-6.2,9.4-11.3,15.7-15c-1.4-4.9-2.5-9.9-3.3-14.9H87z"/>
		
			<linearGradient id="SVGID_2_" gradientUnits="userSpaceOnUse" x1="2.8534" y1="384.3272" x2="3.8534" y2="384.3272" gradientTransform="matrix(266.1014 0 0 -265.8454 -679.2134 102262.5938)">
			<stop  offset="0" style="stop-color:#FFA300"/>
			<stop  offset="0.134" style="stop-color:#FFA800"/>
			<stop  offset="0.289" style="stop-color:#FFB600"/>
			<stop  offset="0.453" style="stop-color:#FFCD00"/>
			<stop  offset="0.478" style="stop-color:#FFD100"/>
		</linearGradient>
		<path class="st7" d="M300.5,10.8c-14.1-5.8-29.2-8.7-44.5-8.6c-1.9,0-3.9,0-5.8,0.1C183,5.1,127.8,55.3,118.4,119.9H80.1
			l47.2-106.6h-24.4C129-20.6,169-40.9,211.8-41.9c1,0,2.1,0,3.1,0c60.3,0,110.9,36.1,131.3,89.1l0,0
			C334.7,31,318.9,18.4,300.5,10.8z M121.9,175.7L121.9,175.7c-6.3,3.7-11.7,8.9-15.7,15c11.3,13.4,24.9,24.7,40.3,33.2
			C135.2,209.6,126.8,193.2,121.9,175.7L121.9,175.7z"/>
		<path class="st8" d="M352.6,118.3c0,7.1-1,14.1-3.1,20.9h-69.1l-15.4,21.6h-71.6l82.4-115.5c1.2-0.1,2.4-0.1,3.7-0.1
			c19.7,0,38.5,7.9,52.3,22l-22.7,31.8h41C351.8,105.4,352.6,111.8,352.6,118.3L352.6,118.3z M65.2,13.3L0,160.8h165
			c12,0,19.9-6.4,25.8-14.4l18.8-26.5H80.1l47.2-106.6H65.2z"/>
	</g>
</g>
</svg>
