<svg xmlns="http://www.w3.org/2000/svg" height="157" width="127" viewBox="0 0 127 156.028"><path d="M125.661 102.218c-.336-2.035-2.179-3.813-3.616-4.133l-.379-.085c.374-1.346.555-2.42.646-3.172l2.211-.94 1.415-.571-.283-1.495c-.583-3.088-2.2-5.641-3.125-6.901.332-1.052.529-1.736.529-2.317 0-1.186-.951-2.398-2.82-3.6-.15-.096-.32-.369-.32-1.655 0-.021-.021-1.229-.336-2.457 1.015-.689 2.285-1.821 2.91-3.583a18.55 18.55 0 0 0 .951-4.256c.048-.497-.022-1.688-.022-1.688l-.192-2.296-1.794 1.41-.37.267a3.35 3.35 0 0 1-.288.192c-.47.283-.993.507-1.218.625-.503.272-1.266.561-2.105.796-1.206-6.243-5.628-17.164-16.32-26.798C88.278 27.971 67.04 25.824 66.141 25.733l-1.992-.187s-.043 2.985-.23 3.835l-.021.096c-.069.411-.15.801-.246 1.164-2.419-1.511-4.106-3.044-4.923-4.491-1.511-2.67-2.003-5.121-2.473-7.487-.331-1.679-.652-3.27-1.303-4.808-1.719-4.037-4.192-7.482-7.348-10.232-.571-.491-1.154-1.004-2.051-1.004-.358 0-.892.091-1.431.523-.384.315-1.538 1.479-.251 3.386.021.032 2.12 3.872 2.905 9.372.262 1.81.315 4.043.374 6.403.117 4.78.256 10.19 2.147 14.291.833 1.8 1.907 3.418 3.028 4.822.112.139.539.587.614.678l.582.662a13.37 13.37 0 0 1-5.602-1.709l-.075-.042c-5.425-2.734-9.591-9.132-10.36-15.925l-.102-.886c-.144-1.201-.155-2.419-.171-3.706l-.048-2.243c-.085-1.901-.294-3.829-.63-5.73l-.496-2.398-.016-.059c-.101-.582-.262-1.132-.395-1.575l-.315-.999c-.278-.833-.647-1.629-1.106-2.371-.609-.988-1.185-1.762-1.81-2.44-.491-.534-.972-.966-1.463-1.313l-.075-.048c-.208-.139-.774-.449-1.479-.449-.374 0-.732.085-1.057.256l-.209.128c-.817.577-1.308 1.842-.571 3.359l.069.128c.016.026.053.101.101.208a4.5 4.5 0 0 1 .128.358c.037.118.064.251.096.433.246 1.319.475 4.464-.721 10.777l-.064.326-.385 2.761c-.513 3.023-1.052 6.628-1.143 10.483l.011.566.005.182c-.027 2.552.363 24.677 22.201 32.353l.016.005-.069.027c-.993 6.36-1.063 10.28-.999 12.192-4.737 1.858-9.399 4.091-13.847 6.638-6.964 3.813-13.426 8.561-19.21 14.104l-3.423 3.45-.833.886c-2.864 3.082-5.449 6.296-7.687 9.554-.069.101-.272.427-.352.619-.256.587-.529 1.714.005 2.307.32.357.951.662 2.142.154.059-.016.288-.107.374-.155.23-.128.571-.342.684-.428 7.231-5.532 23.838-8.587 28.688-8.87 4.064-.24 8.096-.834 9.591-1.068.812.385 2.398 1.053 4.187 1.447.758.166 1.575.251 2.435.251a14.49 14.49 0 0 0 2.045-.149c1.239 3.915 3.706 6.601 4.988 7.802-.08 2.36.32 6.788 2.088 9.66 1.442 2.356 3.503 4.155 4.651 5.053 0 1.126.096 2.937.662 4.469.502 1.373 1.351 2.617 1.981 3.433a8.73 8.73 0 0 0-.55 2.505 5.25 5.25 0 0 0 .507 2.649c-.278.502-.539 1.105-.641 1.709-.139.828.032 1.73.224 2.392-.192.422-.395.962-.508 1.474-.149.737-.026 1.474.128 2.024-.571 1.661-1.196 4.966.924 6.755.641.539 1.41.822 2.222.822 1.629 0 2.953-1.159 3.589-1.832.945-.443 2.077-1.308 2.719-2.302.485-.753.72-1.479.838-2.028.427-.428.971-1.08 1.463-2.014.417-.79.604-1.468.684-1.981.924-1.105 2.969-3.818 3.855-7.199l.209-.935.058-.353c.486-3.066.091-5.928-.16-7.263.721-1.293 2.136-4.235 2.307-7.648a55.55 55.55 0 0 1 7.626-4.235c.128 2.04.166 4.139-.454 7.322-.764 3.888-3.6 7.103-5.025 8.512-.496.486-1.72 1.875-1.72 1.875s-.469.396-.379 1.202c.005.048.043.187.08.289a.93.93 0 0 0 .139.192c.678.657 2.542.417 2.542.417 8.027-.859 13.463-7.605 15.775-13.175 1.442-3.471 2.745-8.101 3.519-10.926 4.652-.844 8.956-1.266 11.877-1.553l3.012-.337c1.778-.262 5.089-.758 5.298-3.899.069-.999-.08-2.526-.459-4.806" fill="#fff"/><path d="M123.827 102.469c-.213-1.309-1.527-2.478-2.184-2.623l-2.334-.582c1.239-3.497 1.239-5.687 1.239-5.687 1.095-.583 3.279-1.458 3.279-1.458-.726-3.867-3.353-6.858-3.353-6.858.219-.801.731-2.184.731-2.697s-.95-1.383-1.97-2.04-1.164-1.821-1.164-3.21-.582-3.135-.801-3.21c-.219-.069 2.6-.961 3.477-3.444.876-2.478.897-4.491.897-4.491-1.164 1.698-5.725 2.397-5.725 2.397-.364-3.865-3.466-16.334-16.006-27.635S66.008 27.588 66.008 27.588c.032.63-.048 1.377-.235 2.2-.176 1.063-.486 2.317-1.025 3.333l-.117.203c-2.948-1.597-6.045-3.744-7.466-6.254-2.749-4.86-2.408-9.041-3.866-12.469-2.387-5.613-5.831-8.663-6.857-9.554-.587-.513-.785-.684-1.089-.438-.299.24-.101.587.144.951.23.341 2.376 4.481 3.177 10.098s-.262 14.472 2.366 20.16c1.634 3.541 4.336 6.344 6.147 7.957l.187.166.587.582c-3.749.353-7.236.219-10.942-1.864-5.96-3.001-10.532-9.981-11.369-17.367l-.101-.887c-.236-2.025-.14-4.049-.231-6.078-.08-1.843-.282-3.68-.604-5.495l-.496-2.382c-.005-.011-.005-.016-.005-.027-.08-.48-.219-.956-.358-1.426l-.294-.935c-.235-.689-.538-1.351-.929-1.981-.47-.758-.987-1.495-1.591-2.152-.358-.39-.743-.758-1.175-1.063 0 0-.401-.251-.673-.107 0 0-.358.251.021 1.031 0 0 .096.155.208.422a5.23 5.23 0 0 1 .198.55c.059.192.107.4.144.625.299 1.602.513 5.052-.753 11.636l-.011.021-.401 2.862c-.523 3.082-1.031 6.579-1.116 10.211l.016.727c-.037 3.231.582 24.411 22.483 31.082l-.267 1.313c-1.479 9.34-.935 13.276-.935 13.276l.011.096a103.61 103.61 0 0 0-14.889 7.017c-5.976 3.274-12.459 7.728-18.804 13.805l-3.364 3.397-.769.812c-.011.021-.032.037-.048.053-3.348 3.605-5.874 6.927-7.706 9.629 9.896-7.145 25.356-9.287 30.083-9.565 4.956-.288 9.976-1.137 9.976-1.137a18.83 18.83 0 0 0 4.299 1.559c2.654.587 5.431-.256 5.431-.256.999 5.137 4.609 8.438 5.554 9.179-.246 1.544.005 6.639 1.741 9.469 1.869 3.049 4.956 5.106 4.956 5.106s-.214 2.761.513 4.737 2.414 3.775 2.414 3.775-.769 1.292-.87 2.916.87 2.525.87 2.525-.881 1.133-1.031 2.014c-.145.887.401 2.216.401 2.216s-.534.973-.689 1.72c-.16.753.288 1.677.288 1.677-.358.699-1.42 3.983.144 5.303s3.503-1.143 3.503-1.143c.598-.176 1.724-.918 2.258-1.751.657-1.02.657-1.971.657-1.971s.838-.545 1.564-1.933c.599-1.127.513-1.869.513-1.869s3.391-3.562 4.096-8.01c.603-3.792-.289-7.29-.289-7.29s2.548-3.877 2.43-8.309c1.736-1.213 5.922-3.93 11.135-5.959.15 2.99.619 5.58-.315 10.386-1.17 5.981-6.494 10.355-6.494 10.355 7.439-.801 12.4-7.364 14.366-12.106 1.607-3.867 3.071-9.336 3.749-11.814 7.257-1.41 13.885-1.784 16.085-2.114 2.916-.438 3.647-1.09 3.717-2.184.075-1.096-.219-3.066-.438-4.38z"/><path d="M50.934 15.503c.566 2.543.705 6.639.705 6.639-.167-1.442-.792-3.692-1.269-5.265l.418 3.081c.375 3.042-.351 8.48 1.805 14.18 1.395 3.688 4.426 6.39 6.242 7.754l4.737-6.852c-7.345-4.536-9.17-8.843-10.281-15.012a25.7 25.7 0 0 0-.684-2.835c.207 2.338.023 4.527.023 4.527-.284-2.259-1.694-6.216-1.694-6.216zm-19.143.403c.014.484-.009.97-.031 1.453-.054 1.259-.336 2.757-.461 4.012-.124 1.26-.337 2.501-.525 3.753l-.141.923-.005-.074c-.068-.769-.261-3.241-.246-6.049l-.008-.58-.054.331c-.46 2.703-1.003 6.46-1.056 10.517l.008.636c-.026 1.261.023 6.506 2.279 12.294 3.429 8.803 10.08 14.642 19.763 17.356l13.952 3.514c0 .005.005-.013.005-.013s4.155 1.216 6.662 3.15c0 0-2.726-.552-5.506-.9 1.999 2.977 5.39 4.937 9.246 4.937 2.92 0 5.571-1.131 7.559-2.968-.478.334-.924.588-1.277.759-.952.46-1.888.619-2.594.669-1.591.507-3.188.286-3.599.213.033-.008.066-.019.1-.023 4.789-.826 9.254-4.487 8.751-10.071-.217-2.383-.945-4.929-2.448-6.536 1.876 1.598 3.153 3.883 3.391 6.513.119 1.299-.031 2.56-.395 3.734.608-1.311.964-2.761.984-4.296.353 1.639.224 3.044-.164 4.245a10.65 10.65 0 0 0 .769-3.822c.034.157.048.306.074.459 0-.01.003-.018.003-.028a11.03 11.03 0 0 0-.251-2.35l-.003-.11c-.637-4.168-3.689-8.131-7.58-9.879-1.166-.605-4.709-1.912-8.543-2.258-1.738-.197-3.602-.174-5.88.066l-2.978.359c-5.204.667-10.119 1.297-15.385-1.656-6.525-3.289-11.356-10.632-12.273-18.691l-.1-.879c-.131-1.11-.179-2.287-.244-3.422-.093-1.004-.278-1.552-.3-1.425-.013.074.01.166.01.241.006.859-.205 1.711-.336 2.553l-.374 2.835c-.017-.079-.042-.16-.051-.233-.045-.278-.053-.552-.056-.833l-.046-1.689-.42-6.049c-.029-.134-.086-.602-.226-.685z" fill="#fff"/><path d="M99.863 69.373c-.684.012-3.148.313-3.842.354-.01.04-.26.079-.643.121l.003.226s-1.034 7.945-4.798 13.129c.986.547 3.472 1.291 4.35 2.092 1.627 1.484 1.717 3.63 1.638 4.478s-.201 2.364-.982 5.367c0 0-.191-4.317-.577-5.59s-1.831-2.447-3.219-2.871c-.63-.192-1.786-.501-3.071-.787-2.481 2.84-4.983 4.803-7.334 6.893.249.386.601.711 1.097.841 1.413.368 3.199-.474 3.199-.474s-1.134 5.254 1.881 9.733c2.249 3.34 6.593 2.484 6.593 2.484s.933-6.601 5.052-11.888c3.797-4.876 8.424-7.4 11.655-8.351-.116-.599-.313-1.838-.085-2.44a2.49 2.49 0 0 1 2.276-1.543c1.08 0 2.312.579 2.312.579-.577-.116-2.081-.192-2.853.615-.592.623-.319 1.882-.161 2.433 2.973-.546 5.711-.176 6.234-.046.561.141 1.075.046 1.264-.656s.187-1.543-.19-1.822-.983-.378-1.592-.845-1.121-1.592-1.075-3.23-.934-3.879-.936-3.883c-2.247.889-7.49-.703-10.766-.938s-5.573 1.31-5.573 1.31c-.89-2.247.141-5.288.141-5.288zm8.728 5.073c1.502.033 2.52.423 2.52.423-1.581.077-2.699.692-2.699.692.388.463 1.079 1.465 1.118 1.813.005.043 0 .139-.008.267l-.008.092v.013c-.049.533-.307 3.015-.879 3.707-.084.138-.178.272-.297.392-.656.614-1.805 1.198-3.973 2.702-2.39 1.659-4.281 5.049-4.281 5.049s.681-3.205 2.158-5.037c1.831-2.269 4.218-3.769 5.69-4.552l.661-2.956c-.507-.338-1.144-.684-1.761-.794-1.28-.226-3.437-.197-4.757-.628l.015-.026c1.581-.193 2.507-.657 4.857-1.043.588-.097 1.142-.124 1.643-.113zm9.863 20.232s-8.725 3.762-11.227 10.686l8.167.482c2.931.348 4.836.361 5.491.4s2.003.115 1.579-2.276-1.08-2.815-2.235-3.278-3.122-.346-3.122-.346 1.503-3.664 1.348-5.668zm-39.162.08l-.579.592s1.75 2.431 2.82 7.001c.814 3.479-1.361 9.138-1.361 9.138s1.128 2.841 1.628 6.298l.205-.125 9.323-4.575c.515-.216 1.164-.45 1.892-.692.067-1.359.201-3.232.477-4.97l-1.689.023c-3.354 0-5.443-1.944-7-4.23h.003c-1.555-2.283-2.627-6.854-2.627-6.854s-1.942-.043-3.089-1.605zm26.824 12.36c-.016 0-.036.002-.051.002-.403.633-.727 1.307-1.077 2.251l3.207-.564c5.495-.827 10.014-.972 10.743-1.069s2.042-.049 2.527-.438c0 0-1.521.123-3.173.074l-12.176-.256z" fill="#e9bf9b"/><path d="M67.534 29.762s-.162 1.922-1.323 4.381c-.412.872-.949 1.81-1.651 2.755l-4.886 6.954c-.062.095-.408.538-.408.538l2.104-.259 3.017-.364c2.406-.255 4.388-.278 6.234-.067 3.651.329 7.149 1.492 8.81 2.266 4.624 1.955 8.268 6.663 8.913 11.589h-.008l.074.41.023.154.067.53c0 .002.003.002.003.005 1.146-.136 7.176-.819 12.206-.785 4.486.03 8.467.501 10.381.813-1.966-4.383-5.007-9.527-9.604-13.883-10.392-9.843-23.235-14.547-33.953-15.039zm-15.78 32.592l-.128.648-.32 2.345c1.979-.514 4.319-1.063 6.572-1.461l.156-.026-1.279-.323-2.374-.566-2.627-.618zm68.28 6.183s-1.006.462-3.24.963-6.746-.191-8.097-.346-5.397-.462-6.554.308-.887 3.084-.887 3.084.928-.962 3.202-1.541 5.283-.154 5.283-.154c-1.736.346-2.699.925-2.699.925 3.238.424 3.815 1.465 8.133 1.156s4.86-4.396 4.86-4.396zm-26.753 1.691l-3.437.359-.026.121c-1.14 3.81-3.344 6.549-6.844 8.151-4.571 4.661-11.392 7.902-15.198 10.341-6.714 4.304-7.815 12.793-7.815 12.793.739-13.028 8.724-14.709 17.454-21.114.183-.132.623-.383.8-.518l-.272.113c-1.091 0-3.32-.204-4.347-.446-.954.656-1.884 1.233-2.743 1.702-4.568 2.492-7.736 6.56-7.736 6.56 1.235-4.125 4.125-5.862 8.456-8.913-1.619-.667-3.432-1.797-4.683-3.03-2.552 1.318-8.191 4.743-11.947 8.293-3.003 2.84-8.573 6.866-15.16 9.971 5.176-3.424 13.904-11.116 16.967-14.033L41.985 89.43s4.271-4.712 9.553-7.621c0 0-11.679 4.786-18.4 9.374-3.477 2.374-8.803 7.212-11.881 10.504l7.341-1.374c8.637-.888 18.078-.217 26.35-10.176l.395-.466c-.72 2.462-1.029 5.913-.889 9.761.301 8.316 6.759 11.6 9.259 13.344-.062-1.023-.218-2.044.697-5.637 1.007-3.959 3.734-7.17 4.378-7.679 0 0-4.235 5.65-3.012 14.533 0 0 1.168-7.278 6.654-14.421S83.189 89.09 87.554 83.755c2.427-2.966 3.803-5.815 4.622-8.372.67-1.912.969-3.778 1.105-5.154zM64.97 73.845c-1.188.24-17.131 2.335-36.415 15.295-6.389 4.295-14.225 11.916-18.093 16.168 1.658-.725 5.229-2.222 8.054-3.095 2.886-2.963 7.624-7.764 11.965-10.806 10.061-7.045 27.268-14.333 35.343-16.536l-.503-.719-.351-.305zm51.35 11.991c-1.676.004-3.998.303-6.58 1.479-5.167 2.351-10.09 7.043-12.211 11.901s-2.288 9.996-2.52 13.775.401 9.425-1.082 14.511c0 0 2.435-3.601 3.319-13.778.801-9.228 3.085-15.577 7.326-18.545 0 0-3.393 4.703-4.55 12.414s-.925 10.721-2.351 17.12l-.354 1.2s3.395-4.544 5.234-16.387c1.61-10.354 4.641-15.001 8.805-17.43 0 0-5.572 6.057-6.849 14.729 0 0 3.159-7.814 8.133-11.092s9.277-4.37 9.277-4.37-.169-2.688-2.891-5.242c0 0-1.031-.289-2.707-.285zM53.255 93.99s-3.856 4.614-8.123 5.683l-.167.018s2.45 1.282 4.481 1.282 3.696-.656 3.696-.656-.338-4.766.113-6.326zm23.632 2.669s-4.972 5.437-6.921 9.868c-1.738 3.954-2.347 7.139-2.44 8.831l5.978 3.96a35.05 35.05 0 0 1 1.082-2.366c2.222-4.381 4.401-5.942 5.265-10.507s-1.308-8.071-2.963-9.786zm-16.88 15.854s-.022 4.412 2.138 7.779c1.61 2.51 6.001 4.799 8.864 6.516.248-.933.914-3.328 1.876-5.911-1.159-.879-4.507-3.373-6.557-4.511-2.512-1.393-5.252-2.928-6.321-3.873zm18.758 1.376l-1.3 1.969c-1.087 1.47-3.767 7.31-4.911 11.886l.913.595c1.258.88 2.004 1.587 2.427 2.058.548-.974 1.622-1.966 2.051-2.743 1.574-2.858 2.78-6.233 2.389-9.307-.268-2.111-1.216-3.791-1.569-4.458zm-11.493 12.955c-.011.935.107 3.299 1.441 5.224a12.85 12.85 0 0 0 4.135 3.716l2.302-4.06a25.43 25.43 0 0 0-3.049-2.202c-1.148-.712-3.114-1.69-4.828-2.679zm10.556 3.381s-1.989 2.682-3.383 5.193c-.973 1.752-1.846 4.055-2.284 5.285l.261.162c.914.616 2.084 2.258 2.084 2.258s2.505-2.791 3.522-5.952-.2-6.946-.2-6.946zm-7.91 5.004c-.436.566-1.203 1.219-.692 2.938.313 1.054 1.098 1.597 1.871 2.002l1.143-3.332c-1.18-.601-2.322-1.607-2.322-1.607zm-.638 4.955s-.747 1.009-.472 2.204 1.387 1.714 2.568 2.315 1.628 1.799 1.628 1.799c.839-.59 1.256-1.492.792-2.474s-1.359-1.815-2.609-2.412-1.907-1.433-1.907-1.433zm-.436 3.95c-1.218 2.096-.629 2.582 1.051 3.827 1.15.85.93 1.961.93 1.961s1.576-.799 1.471-1.813c-.069-.671-1.037-2.051-1.951-2.669s-1.502-1.307-1.502-1.307zm-.297 3.976c-.687.852-1 2.569-.564 3.081s1.04.452 1.418.023.49-1.102-.036-1.813c-.424-.576-.818-1.292-.818-1.292z" fill="#ffc62f"/><path d="M111.962 60.402c-1.382-.257-5.785-.922-11.251-.959-4.967-.034-10.957.587-12.138.719 0 .006-.001.013-.001.021-.007 7.389-6.367 12.663-12.29 12.751-8.945.133-12.238-7.076-12.306-7.502l-2.025-.561-3.792.563c-2.465.434-5.011 1.042-7.083 1.581l-.263 3.005c-.295 6.221.097 5.787.097 5.787 1.804-.706 8.458-2.412 8.458-2.412l6.972-1.441c1.905 3.839 5.861 6.479 10.436 6.479 5.714 0 10.462-4.114 11.456-9.539 12.488-1.356 18.391-1.394 26.102-.368-.809-4.298-2.373-8.124-2.373-8.124" stroke="#000" stroke-width=".205" fill="#4f2683"/></svg>