<svg xmlns="http://www.w3.org/2000/svg" height="235" viewBox="0 0 192.457 234.434" width="193"><path d="M171.841 93.211c-17.101-9.936-33.934-7.638-46.7-1.95-.563-4.197-1.658-8.804-3.487-14.194l-8.289-22.443-7.49-21.582L96.573 1.15l-9.659 31.909c-1.475 5.072-4.022 12.722-7.444 21.609l-8.234 22.456c-1.809 5.4-2.9 10.013-3.453 14.216-12.778-5.663-29.619-7.929-46.697 2.046-13.962 8.163-21.437 22.35-19.514 37.028 1.755 13.353 10.887 23.844 23.824 27.4l9.636 2.646 2.358-9.707c.338-1.318 3.814-13.472 14.76-13.251 7.593.158 13.896 6.868 17.048 11.208-1.019 3.068-1.562 6.746-1.042 10.708l-4.284-5.716-7.753 5.781c-6.984 5.197-17.122 18.05-10.856 33.219 2.732 6.614 8.606 11.12 16.538 12.7 4.851.964 10.361.74 15.468-.382 2.009 6.45 5.672 14.253 12.335 21.223l7.028 7.343 7.005-7.36c6.65-6.986 10.29-14.802 12.292-21.254 5.109 1.104 10.615 1.318 15.466.341 7.928-1.593 13.789-6.116 16.508-12.736 6.231-15.184-3.945-28.013-10.933-33.197l-7.768-5.756-4.272 5.722c.513-3.962-.042-7.635-1.068-10.71 3.144-4.342 9.43-11.069 17.021-11.242 10.948-.246 14.447 11.899 14.813 13.287l2.377 9.703c-.015-.073 9.613-2.74 9.613-2.74 12.936-3.581 22.036-14.1 23.759-27.462 1.889-14.674-5.622-28.845-19.602-36.972"/><path d="M93.363 34.426c-1.179 5.553-4.218 13.455-7.738 22.612l-8.14 22.183c-2.535 7.572-3.569 13.215-3.569 18.478 0 1.683.193 3.329.391 4.983-9.745-6.692-28.948-15.84-49.891-3.6-11.632 6.803-17.881 18.476-16.309 30.474 1.4 10.672 8.692 19.071 19.035 21.912l3.068.841.763-3.098c.191-.758 4.798-18.623 21.307-18.29 13.287.267 21.971 13.184 24.316 17.153-1.116 2.064-2.043 4.909-2.043 8.176 0 3.501 1.192 7.484 4.233 11.477-1.213 1.644-3.199 3.659-5.517 3.85-3.306.271-6.652-3.209-8.875-6.181l-1.856-2.476-2.482 1.852c-5.077 3.785-13.438 13.965-8.707 25.417 1.894 4.578 5.95 7.602 11.731 8.751 5.977 1.185 13.522.107 18.881-2.335 1.038 6.047 3.978 16.279 12.404 25.083l2.249 2.352 2.242-2.356c8.404-8.829 11.322-19.071 12.345-25.121 5.367 2.43 12.923 3.493 18.9 2.287 5.771-1.162 9.819-4.199 11.698-8.777 4.697-11.46-3.676-21.623-8.762-25.396l-2.484-1.843-1.852 2.484c-2.219 2.971-5.559 6.465-8.867 6.198-2.316-.189-4.306-2.196-5.523-3.833 3.02-3.987 4.203-7.955 4.203-11.448 0-3.285-.935-6.141-2.062-8.211 2.337-3.972 10.996-16.918 24.276-17.215 16.506-.37 21.159 17.486 21.348 18.247l.771 3.085 3.068-.841c10.332-2.864 17.606-11.275 18.98-21.952 1.547-12.003-4.727-23.664-16.374-30.438-20.985-12.202-40.178-2.989-49.9 3.728.181-1.61.368-3.207.368-4.848 0-5.32-1.028-11.055-3.583-18.618l-8.186-22.145c-3.543-9.151-6.599-17.053-7.791-22.605L96.38 20.184l-3.016 14.243" fill="#fff"/><path d="M96.629 219.541c11.885-12.483 12.028-28.229 12.028-28.229 5.258 5.241 25.692 8.747 30.274-2.417 5.025-12.257-7.738-21.727-7.738-21.727-12.37 16.582-20.67.353-20.67.353 9.42-10.18 2.352-19.358 2.352-19.358.616-1.843 11.063-20.081 27.79-20.455 19.278-.435 24.43 20.602 24.43 20.602 20.216-5.603 24.121-33.787 1.875-46.719-28.229-16.414-52.825 8.591-52.825 8.591 2.289-9.359 2.94-16.353-1.675-30.02-6.257-18.531-13.926-35.088-16.069-45.094-2.125 10.008-9.76 26.592-15.97 45.135-4.579 13.68-3.907 20.674-1.606 30.024 0 0-24.652-24.944-52.841-8.468-22.219 12.986-18.247 41.153 1.982 46.713 0 0 5.101-21.048 24.381-20.655 16.731.332 27.216 18.545 27.836 20.384 0 0-7.047 9.199 2.398 19.354 0 0-8.266 16.256-20.667-.298 0 0-12.751 9.497-7.692 21.742 4.611 11.153 25.033 7.599 30.278 2.345 0 0 .181 15.746 12.089 28.2"/><path d="M96.435 48.191l-.042.263v-.256s-1.797 9.249-10.63 32.227 1.034 42.163 1.858 46.423c0 0-18.898-26.04-41.87-26.012S3.656 127.003 24.884 142.44c0 0 6.213-19.289 27.622-19.328 15.745-.034 31.52 16.857 32.188 25.228 0 0-7.208 10.178 2.814 18.696 0 0-10.828 22.778-25.84 6.37 0 0-11.544 14.442 3.552 17.94 11.977 2.77 23.774-9.38 23.774-9.38s-1.287 19.192 7.584 29.682v-.095l.044.09c8.848-10.508 7.516-29.702 7.516-29.702s11.826 12.124 23.803 9.323c15.086-3.53 3.505-17.948 3.505-17.948-14.97 16.441-25.845-6.307-25.845-6.307 9.995-8.543 2.762-18.703 2.762-18.703.647-8.365 16.378-25.297 32.13-25.302 21.414 0 27.67 19.268 27.67 19.268 21.191-15.487 2.003-41.595-20.966-41.565-22.973.023-41.81 26.112-41.81 26.112.818-4.268 10.639-23.475 1.751-46.432S96.437 48.184 96.437 48.184z" fill="#d3bc8d"/></svg>