<svg xmlns="http://www.w3.org/2000/svg" height="95" viewBox="0 0 193.091 94.075" width="194"><path d="M189.61 12.2c-24.045 5.679-25.096-8.247-61.259-10.801C79.675-2.038 38.771 19.17 6.082 21.887c-7.101.59-6.18 6.501-1.077 7.504 12.32 2.876 25.034 2.51 36.67.95-.391.938-.783 2.382.517 3.489 4.609 3.917 23.135 4.253 31.268 3.785l8.657-.715c-1.681.16-4.308 5.283 1.246 6.726 34.328 9.611 50.479 25.131 69.02 49.574 7.534-.963 14.629-10.029 11.604-16.949l1.503-3.714 5.55-2.57-1.59-12.396 8.46-3.984 13.947-37.99c.772-2.578-.825-3.731-2.246-3.396" fill="#fff"/><path d="M98.335 30.838c9.648-1.037 18.157-.708 27.432 4.947-19.345-2.099-28.816 3.305-40.874 4.506 42.596 11.178 58.193 35.064 68.755 48.301 7.383-3.137 7.783-9.552 5.902-11.842l1.901-4.075.087-2.617 5.09-2.38-1.61-12.681 9.531-3.904 12.628-34.566c-21.395 4.439-28.326-9.397-58.766-11.284a175.12 175.12 0 0 0-34.049 1.176l1.71 10.581c7.006-.242 13.6.649 19.859 3.496-6.88-.426-13.07.144-19.11 1.265l1.517 9.077" fill="#024"/><path d="M92.405 6.687C62.438 10.932 37.869 21.591 5.641 25.942c36.362 5.995 64.919-7.456 88.719-8.862L92.405 6.687zm2.903 15.382c-15.648 3.124-29.863 9.482-48.856 9.998 22.034 4.153 37.308.47 50.473-1.082l-1.617-8.916z" fill="#c60c30"/><path d="M131.185 60c11.514 8.063 17.427 16.996 23.428 24.815 3.052-1.269 4.009-4.81 3.005-6.062l-2.906-3.577 3.305.195 1.517-2.635-4.108-.244-4.629.835 4.694-3.214 3.573.21.133-2.035-3.651-1.748 1.255-1.372 6.752.421-1.941-15.039c-2.669-.325-4.914 1.074-5.883 4.934l-11.97-.705c1.684-3.818 4.308-5.536 9.287-4.902-2.793-3.912-16.405-4.275-18.328 1.864l10.567 8.66 1.367 7.915-4.342-6.301c-3.904-3.38-8.004-5.749-11.126-2.017" fill="#b0b7bc"/><path d="M166.61 21.225l.851 7.552 8.502 3.191-7.976 1.998.787 10.183-6.897-8.605-10.312 2.429 6.372-7.422-5.254-6.962 8.802 3.022 5.125-5.387" fill="#fff"/></svg>