<svg xmlns="http://www.w3.org/2000/svg" height="151" width="193" viewBox="0 0 192.897 150.011"><path d="M65.845.914c-7.047.145-13.826 2.328-18.945 6.242V2.169H1.101l-.01 26.193h10.656a3.97 3.97 0 0 1 3.969 3.97v74.301h31.199l.006-70.156c.003-4.157 3.525-7.531 7.873-7.531 4.283 0 7.761 3.286 7.856 7.371v56.627a13.43 13.43 0 0 0 .857 4.69c1.909 5.136 6.831 8.799 12.625 8.799h29.27V81.31l-.613-.004h-6.783c-2.187-.001-3.965-1.773-3.965-3.963v-.549l-.006-.166.006-2.822v-51.41c-.044-.658-.152-1.662-.416-2.872-.454-2.063-1.355-4.726-3.158-7.359-3.762-5.487-8.543-8.477-14.976-10.155C72.306 1.206 69.048.85 65.845.916zm33.732 1.258v26.117h8.141c2.188 0 3.959 1.777 3.959 3.969v51.068c.524 8.409 5.519 16.1 11.867 19.705 6.39 5.054 21.889 7.367 30.26 4.414 0 0 3.865-1.216 6.041-2.668v6.481c0 1.545-.119 2.511-.539 3.715-1.063 2.292-3.395 3.495-7.098 3.586l-136.51-.006v30.369h147.96c4.502-.232 8.74-.742 12.305-1.748 4.872-1.489 16.025-6.715 16.025-23.234l-.01-6.563h-.002l-.078-115.2h-31.947v67.061l-.055 2.404-.057.928c-.31 2.439-1.788 4.521-3.889 5.729a8.36 8.36 0 0 1-4.17 1.113c-4.399 0-8.127-3.359-8.111-7.526l.041-69.711H99.58z" fill="#a71930"/><path d="M66.027 5.308c-6.124.1-12.007 1.957-16.447 5.349L42.5 16.08v-9.5H5.504l-.002 17.379h6.248a8.38 8.38 0 0 1 8.371 8.373v69.893H42.51l.01-65.748c.006-6.581 5.509-11.936 12.277-11.936 6.615 0 12.116 5.239 12.264 11.775v56.627a8.98 8.98 0 0 0 .58 3.154c1.317 3.546 4.732 5.926 8.494 5.926h24.861V85.716h-2.988c-4.615 0-8.371-3.758-8.371-8.373h.002v-.439l-.006-.188.006-2.91V22.628l-.312-2.16c-.472-2.127-1.311-4.082-2.496-5.809-3.006-4.386-6.733-6.894-12.418-8.377a32.1 32.1 0 0 0-8.386-.973zm98.324 1.27v62.656l-.057 2.627-.074 1.128-.02.125c-.464 3.722-2.737 7.085-6.061 9.004-1.934 1.11-4.134 1.697-6.363 1.697-3.405 0-6.719-1.357-9.086-3.74-2.214-2.223-3.436-5.122-3.436-8.156l.043-65.338h-35.314v17.303h3.731c4.615 0 8.367 3.758 8.367 8.373v50.873c.43 6.584 4.292 13.035 9.635 16.07v-.002l.291.17.268.203c5.277 4.173 19.159 6.159 26.057 3.717l.141-.041c1.27-.404 3.73-1.336 4.918-2.139l6.857-4.588v14.736c0 1.803-.132 3.305-.787 5.174l-.066.199-.096.197c-1.254 2.706-4.178 5.969-11.094 6.138h-132.1v21.549h143.4c4.138-.216 8.025-.671 11.16-1.548 4.819-1.48 12.908-5.919 12.908-19.027l-.082-117.36H164.35z" fill="#0b2265"/></svg>