<svg xmlns="http://www.w3.org/2000/svg" height="112" viewBox="0 0 190.345 111.603" width="190"><g transform="matrix(.3125 0 0 -.3125 -1 179.75)"><path d="m568 482c-26.9 26.9-64.7 49.7-109 66-47.2 17.2-100 26.3-154 26.3-74.2 0-151-19.7-210-53.9-60.4-35-95-80-95-124 0-28.2 14.1-57.2 40.8-83.9 27.3-27.2 65.7-50.6 111-67.5 47.8-17.8 101-27.2 152-27.2 53.3 0 106 9.11 154 26.4 44.7 16.3 82.6 39.2 109 66 27.2 27.2 41.5 57 41.5 86.2s-14.4 59-41.5 86.2" fill="#fff"/><path d="m592 396c0 77.8-127 161-287 161-153 0-287-83.8-287-161 0-77.3 134-161 287-161 160 0 287 83.3 287 161" fill="#203731"/><path d="M416 480v-16.9h27l.176.018c1.45.097 3.82-.285 4.34-1.16.485-.806.315-3.73-3.39-9.54l-35.6-59.3-38 60.7c-3.14 4.83-2.77 6.76-2.39 7.46.679 1.28 1.74 1.64 3.93 1.79h.085c.024-.006.103-.006.103-.006h19.4v16.9l-146 .012v-16.9h18.5c3.78 0 6.36-.757 7.91-2.3 2.59-2.59 3.11-8.05 3.11-15.5v-62.1l-74 96.6h-73v-17.7h24c2.56.012 4.33-.473 5.29-1.43 1.84-1.84 1.84-6.53 1.84-11.1l.018-97.5c0-16.1-1.74-20.6-8.07-20.6h-23.3v-15.6h78.3v15.8h-22.1c-3.73-.036-6.39.139-7.34 1.07-2.06 2.05-2.23 11.1-2.23 19.4v85.8l101-122h15.8l-.012 138c-.176 3.7.842 7.92 7.43 8.77h15.7c7.27.03 12-8.77 16.9-17.1l42.8-72.7v-31c0-10.5-4.67-10.5-6.66-10.5h-17.7v-15.8h92.9v15.9h-17c-6.57.358-8.87 2.25-8.61 12v32l45.3 76.1c6.51 10.1 7.19 11.1 16.1 11h15.4v17h-77.7" fill="#fff"/><g fill="#203731"><path d="M420 475v-8.48h22.6s16.7 1.39 4.87-17.2l-39.1-65.1-41.6 66.6c-10.8 17.1 5.31 15.7 5.31 15.7h15.2V475l-138 .006v-8.4h14.2c13.7 0 15.3-8.81 15.3-22v-74.6l-80.3 105h-66.7v-9.26h19.8c12.6.018 11.2-9.9 11.4-19.6v-94.6c0-13.2-.558-24.8-12.3-24.8h-19.1v-7.16h69.8v7.33h-17.9c-12-.085-13.8 1.74-13.8 24.7v98.6l107-131h8.76v126c0 13.2.242 20.5 12.5 21h17.4c9.28-.673 14.2-11.4 20.8-22.7l41.5-70.2v-32.1c0-9.98-3.91-14.7-10.9-14.7h-13.5v-7.34h84.5v7.49h-12.9c-10.3.533-13 5.84-12.7 16.3v33l42.7 72.2c9.55 14.3 10.1 18.1 23 17.9h11.1v8.57h-69.2"/><path d="m370 318c0 19.1-28.9 39.6-65 39.6-34.6 0-65-20.6-65-39.6s30.4-39.6 65-39.6c36.1 0 65 20.5 65 39.6" fill-opacity=".941"/></g><path d="M365 320c-2.13 16.3-28.3 33.1-60.7 33.1-31 0-58.4-16.8-60.6-33.1h121M244 316c2.21-16.3 29.6-33.101 60.6-33.101 32.4 0 58.6 16.701 60.7 33.101h-121" fill="#fff"/><path d="M283 304c-8.22 0-14.9 6.33-14.9 14.1 0 7.8 6.65 14.1 14.9 14.1h43.9c8.21 0 14.9-6.33 14.9-14.1 0-7.8-6.66-14.1-14.9-14.1H283" fill="#203731"/><path d="M329 324l-.309 1.24-4.14.006a18.51 18.51 0 0 0 .388-1.34c.345-1.32.57-2.69.685-4.09h-7.42c-.115 1.29-.309 2.58-.606 3.76l-4-.055c.37-1.19.618-2.44.764-3.71h-7.5v3.52h-4.16v-3.52h-7.5c.145 1.27.394 2.52.764 3.71l-4 .055c-.297-1.18-.497-2.47-.606-3.76h-7.42c.127 1.4.352 2.77.691 4.09l.382 1.34-4.14-.006-.303-1.24c-.467-2.07-.709-4.21-.709-6.42 0-2.56.333-5.06.957-7.43l4.14-.054c-.545 1.76-.897 3.6-1.05 5.5h7.43c.109-1.33.315-2.63.63-3.88l3.94.048c-.376 1.23-.618 2.52-.745 3.84h7.54v-3.67h4.16v3.67h7.53c-.133-1.31-.376-2.61-.745-3.84l3.94-.048c.315 1.25.521 2.56.63 3.88h7.42c-.145-1.9-.503-3.74-1.05-5.5l4.15.054a29.53 29.53 0 0 1 .951 7.43 29.45 29.45 0 0 1-.703 6.42" fill="#fff"/><g fill="#203731"><path d="M494 424c-4.31 8.13-15.7 12.8-32.9 13.4-12.6.418-22.5-.242-30.4-2.25l-207-.085 10.6 19.7h-51l-35-65.9c-2.84-4.16-3.23-4.4-6.14-4.09-.836.079-1.4.206-1.78.309.521 1.81 2.61 5.31 3.36 6.58-.024-.036 12.2 20.1 12.2 20.1h-47.5l-1.42-1.96c-14.1-18-17.9-33-12.5-43 5.23-10.2 18.1-15.3 38.2-15.2 20.3.121 33 1.08 43.2 7.7h103l26.6 49.6h22.9l-26.4-49.5h52.6l16.5 31h22.3l-1.15-2.82c-4.07-10-1.88-16.6.667-20.4 4.99-7.43 15.7-11.2 31.8-11.2 27.2.048 44.5 2.55 52.9 15.2 6.87 10.4 7.9 20 2.89 26.8-1.37 1.93-3.56 3.61-6.14 5.06h15l1.4 2.25c5.27 8.48 3.92 14.9 1.87 18.7"/><path d="M482 398l.018-.036c.012-.018.024-.036.036-.048L482 398" fill-opacity=".941"/></g><g fill="#fff"><path d="M147 407h-36.6c-24.6-33.9-12.5-50.9 22.8-50.7 32.2.194 43.5 2.26 56.9 26.8l35.8 67h-40.2l-33.8-63.6c-3.16-4.65-4.95-6.96-10.7-6.36-9.11.963-6.63 6.3-2.01 14.1l7.82 12.9"/><path d="M311 364h41.9l26.4 49.1h19.3l9.24 17.1h-84.7l-9.03-16.7h23.4l-26.4-49.5M398 386c-6.4-15.7 3.28-25.1 28.1-25.1 26.9.049 42 2.52 48.9 13.1 4.71 7.16 7.4 15.4 3.01 21.4-3.02 4.309-13.8 8.049-24.1 9.999-6.54 1.271-8.82 2.84-8.37 6.69.418 3.509 4.77 4.309 8.03 3.35 2.65-.776 3.79-4.06 3.36-7.479h31.1c8.42 13.6-1.33 23.9-27.1 24.9-31.9 1.05-44.1-4.84-50.5-21.101-3.21-7.54-2.67-13.299 2.01-16.4 5.84-3.819 22-6.26 26.8-8.03 2.92-1.08 3.33-4.669 1.67-6.77-1.91-2.42-6.48-3.58-9.37-1.34-2.01 1.551-1.68 3.47-2.34 6.77h-31.1M197 364h80.1l8.97 16.701h-43.8l4.23 8.03h38.9l9.16 17.1h-36.6l3.68 7.7h39.6l8.91 16.701h-77.7l-35.5-66.301" fill-rule="evenodd"/></g></g></svg>