<svg xmlns="http://www.w3.org/2000/svg" xmlns:xlink="http://www.w3.org/1999/xlink" viewBox="0 0 179.3 161.5" style="enable-background:new 0 0 179.3 161.5;" y="0"><style><![CDATA[.E{clip-path:url(#B);fill:#fff}]]></style><defs><path id="A" d="M-15.6-.6h210.5v162.7H-15.6z"/></defs><clipPath id="B"><use xlink:href="#A"/></clipPath><path d="M1.3 16.1h66.6l50.2 52.2V44.7l-9.3-3V16.1h68.8v25.4l-11.7 3.2v100.8h-48.7L64.8 92.7v25.5l11.1 3.4v23.9H1.3v-23.7l13.7-3.4V44.5L1.3 41.8z" clip-path="url(&quot;#C&quot;)" fill-rule="evenodd" clip-rule="evenodd" fill="#27466c"/><path class="E" d="M51.9 26.5l-3.7 9.7H37.4l8.3 6.9-3 10.5 9.2-6.7 9.2 6.7-3-10.5 8.3-6.9H55.6zm27 26.9l-3.8 9.8H64.3l8.4 6.9-3.1 10.4 9.3-6.7 9.2 6.7-3-10.4 8.3-6.9H82.6zm26.9 27l-3.7 9.7H91.3l8.3 6.9-3 10.5 9.2-6.8 9.2 6.8-3-10.5 8.3-6.9h-10.8zm27 26.9l-3.8 9.8h-10.8l8.3 6.9-3 10.4 9.3-6.7 9.2 6.7-3-10.4 8.3-6.9h-10.8z"/></svg>