<svg xmlns="http://www.w3.org/2000/svg" height="246" viewBox="0 0 178.517 245.941" width="179"><defs><clipPath id="A"><path d="M19 0h574v792H19V0z"/></clipPath></defs><g clip-path="url(#A)" transform="matrix(.310565 0 0 -.310565 -6.125004 246.090012)"><path d="M575 701c-24-18-72-42-132-27-106 26-136 117-136 117s-30.2-90.9-136-117c-60.9-15-108 9.2-133 26.9H19v-490c0-13 3-37 23.1-62 24.9-30 66.9-49.3 125-57.7 47-6.7 81-21.3 105-44.6 18-17.1 35-46.7 35-46.7s17.5 30.2 34.6 46.7c24.2 23.3 58.5 37.8 105 44.6 58.2 8.41 100 28 125 58.1 20.1 24.4 23.1 48.9 23.1 61.2v490h-19.1" fill="#fff"/><path d="M577 682s-57.7-44.9-139-24.6C343.3 681.1 306 752 306 752s-36.8-71-132-94.6c-80-20-138 25-138 25v-471c.01-16 6.7-84 134-102 50.1-7.25 87.5-23.3 114-49.2 9.68-9.28 17-18.7 22.6-27.4 5.63 8.67 13 18.1 22.6 27.4 26.9 25.9 64.3 42 114 49.2 127 18.3 133 86.3 134 102v471" fill="#013369"/><path d="M307 79.7s36.8 45.4 132 60.1c110 16.9 106 68.3 106 70.9v247H68v-247c0-2.6-3.24-54 106-70.9 95.6-14.8 132-60.1 132-60.1" fill="#fff"/><path d="M195 277l-.017 117-14.7 8.25v30.4h67.1v-30.4l-14-8.25V155l-35.8 10.7-51.8 153-.01-101 16.5-12.6V174l-71.9 18.3v26.5l16.5 6.44v169l-16.9 8.35v30.4h54.4l50.8-156M319 170.001l14.4-17.201v-30.4l-71.3 26.601v25.799l15.7 6.44v213.001l-15.6 7.91v30.799h124v-61.9H359l-8.24 25.401h-31.5v-71.601h23.6l9.3 13.601h19v-63.701h-19l-8.95 12.9h-24v-118M398 159.001v30.4l17.7 14.499v190l-15.1 7.911v30.799h71.3v-30.799l-14-7.911V214.901l30.7 8.29 5.88 46.799h29.3v-78.2l-126-33.6" fill="#D50A0A"/><path d="M80.5 508l-21.6 16.2h26.4l8.71 25 8.71-25h26.4l-21.6-16.3 7.94-25.4-21.5 15.1-21.5-15.1 7.94 25.4m93.6.099l-21.6 16.201h26.4l8.71 24.999 8.71-24.999h26.4l-21.6-16.3 7.94-25.4-21.5 15.099-21.5-15.099 7.94 25.4M80.5 592l-21.6 16.201h26.4l8.71 24.999 8.71-24.999h26.4l-21.6-16.3 7.94-25.401-21.5 15.101-21.5-15.101 7.94 25.401M174 592l-21.6 16.201h26.4l8.71 24.999 8.71-24.999h26.4l-21.6-16.3 7.94-25.401-21.5 15.101-21.5-15.101 7.94 25.401M541 483L519.5 498.1 498 483l7.94 25.4-21.6 16.3h26.4l8.71 24.999 8.71-24.999h26.4l-21.6-16.3 7.95-25.4M447 483L425.5 498.1 404 483l7.94 25.4-21.6 16.3h26.4l8.71 24.999 8.72-24.999h26.4l-21.6-16.3 7.95-25.4m94.08 84L519.5 582.1 498 567.001l7.94 25.4-21.6 16.3h26.4l8.71 24.999 8.71-24.999h26.4l-21.6-16.3 7.95-25.4m-93.91 0L425.5 582.1 404 567.001l7.94 25.4-21.6 16.3h26.4l8.71 24.999 8.72-24.999h26.4l-21.6-16.3 7.95-25.4M327 611c-9.61 7.919-20.4 12.999-31.8 15.5 2.77 2.62 5.61 4.87 8.1 6.949 14.3-3.439 23.9-9.849 30.5-15.299l-6.76-7.13zm-13.9-16.701c-9.16 7.691-20.3 13.4-32.9 16 1.93 2.491 4.19 5.142 6.36 7.602 9.64-1.71 22-6.79 32.8-15.701l-6.2-7.869zm-12.5-17.5c-9.88 8.23-21.4 13.3-32.7 15.4l5.44 8.59c13.8-2.74 25-9.2 32.9-15.799l-5.64-8.18zm65.3 83.601s-11.2-5.83-26.8-21.201c3.52-1.99 7.48-4.769 9.75-6.66l-7.01-6.47c-10.2 8.37-20.7 12.6-28.9 14.601l8.46 5.729c4.4-1.121 8.66-2.85 8.66-2.85 17.6 13.4 32.9 19.2 32.9 19.2s-1.77.866-6.48.803c-69.3-.894-133-52.599-121-140.999 1.29-9.39 4.94-26.502 9.58-34.001 1.54 14.7 7.08 47.3 23.5 82.299-5.71 2.051-10.4 2.891-10.4 2.891l4.01 8.01c12.2-2.29 22.9-7.38 32.2-14.801l-4.81-7.82a75.05 75.05 0 0 1-10.2 6.8c-18.5-32.3-27-62.799-30.5-78.7.192-.984 2.2-1.49 3.82-1.28 75.9 9.83 111 48.6 122 90.5 7.11 27.5 4.78 56.301-4.74 79.8-.669 1.65-1.97 4.39-4.18 4.191" fill="#fff"/></g></svg>