<?xml version="1.0" encoding="utf-8"?>
<!-- Generator: Adobe Illustrator 22.1.0, SVG Export Plug-In . SVG Version: 6.00 Build 0)  -->
<svg version="1.1" id="Layer_1" xmlns="http://www.w3.org/2000/svg" xmlns:xlink="http://www.w3.org/1999/xlink" x="0px" y="0px"
	 viewBox="0 0 180 162" style="enable-background:new 0 0 180 162;" xml:space="preserve">
<style type="text/css">
	.st0{fill:#9B2743;stroke:#000000;stroke-miterlimit:10;enable-background:new    ;}
	.st1{fill:#FFFFFF;}
	.st2{fill:#FFCD00;enable-background:new    ;}
</style>
<path d="M108.9,143.4L108.9,143.4c0.2-0.4,0.5-0.8,0.8-1.2l0,0c4.9-7.4,6.3-16.6,3.8-25.2l0,0l-1.3,1l0,0l-1.8,1.4l-1.2-2.1l0,0
	c-6.8-12.1-8.4-26.5-4.2-39.8l0,0c0,0,0,0,0,0l0,0c0,0-0.1-0.1-0.1-0.1l0,0c-9.4-3.3-18.3-8.2-26.1-14.5l0,0
	c11.5,1.9,23.2,1.4,34.5-1.3l0,0c4.5,2.5,9.1,4.8,13.7,6.9l0,0c6.7,3.4,13.9,5.6,21.3,6.5l0.1,0l0,0c1.6,2.5,2.5,5.4,2.9,8.4l0,0
	c0,0,0,0,0,0l0,0c0,0,0,0,0,0l0,0c1,0.3,2,0.6,3,0.8l1.2,0.3l3.2,1.3l0,0c2.1,1.2,4.1,2.7,5.8,4.4l0,0c5,5,8.7,11.2,10.7,18l2.2,7.3
	l-7.8,2.2l0,0c-3.1,0.9-6.3,1.3-9.5,1.3l0,0c-1.7,0.1-3.4,0.2-5.1,0.1l-9.6-0.3l0,0c-4.1,5.5-7.1,11.7-8.9,18.3l0,0
	c-6.8,5.6-12.1,12.8-15.3,20.9l0,0C117.6,153.1,113.5,148.1,108.9,143.4z"/>
<path class="st0" d="M106.6,140.8L106.6,140.8c0.8,0.9,1.5,1.7,2.3,2.6l0,0l0,0l0,0c0.2-0.4,0.5-0.8,0.8-1.2l0,0
	c3.3-4.9,5-10.7,5-16.7l0,0c0-2.9-0.4-5.7-1.2-8.5l-1.3,1l-1.8,1.4l-1.2-2.1l0,0c-4.3-7.6-6.5-16.1-6.5-24.8l0,0
	c0-5.1,0.8-10.2,2.3-15l0,0c0,0-0.1-0.1-0.1-0.1l0,0c-9.4-3.3-18.3-8.2-26.1-14.5l0,0l0,0l0,0c11.5,1.9,23.2,1.4,34.5-1.3h0l0,0l0,0
	c4.5,2.5,9.1,4.8,13.7,6.9l0,0c6.7,3.4,13.9,5.6,21.3,6.5l0.1,0l0,0l0,0c1.6,2.5,2.5,5.4,2.9,8.4l0,0c0,0,0,0,0,0.1l0,0
	c1,0.3,2,0.6,3,0.8l-0.4-2.3l0,0c-2.5-9.4-7.1-18.1-13.3-25.6l0,0c-5.4-6.6-12.4-11.6-20.4-14.5l0,0c-3.4-1.9-7-3.5-10.7-4.8l-2.4-1
	l0,0c-10.7-2.3-21.7-3.2-32.7-2.7l0,0c-7.5,0.3-15-0.1-22.3-1.5l0,0c-3.1-0.5-6.2-1.3-9.1-2.5l0,0c-7.4-2.2-14.3-5.5-20.6-9.9l0,0
	c-4.6-3.4-9-7-13.2-10.9L2.5,2.3l2.8,6.3l0,0c3,6.7,6.3,13.3,10,19.6l2,3.4l3.3,5.4l-4-1.6l-7.9-3.1l4.9,5.8l7.2,8.5l-5.9-1
	l-4.2-0.7L20,54l18.4,18.1l0,0c-0.1,2.8,0.2,5.5,0.7,8.2l0,0c0.5,2.4,1.3,4.8,2.3,7.1l0,0c1,2.2,2.3,4.4,3.7,6.4l0,0
	c1.9,2.7,4.1,5.2,6.4,7.6l0,0c2.4,2.3,4.6,4.8,6.8,7.2l0,0c1.5,1.8,2.9,3.8,4,5.9l0,0c2,3.9,3.1,8.3,3.2,12.7l0,0l2-0.2l0,0
	c1.4-0.1,2.8-0.2,4.2-0.3l0,0c3-0.1,6.1,0.1,9,0.5l0,0c3,0.5,5.9,1.2,8.8,2.3l0,0c2.9,1.1,5.6,2.5,8.2,4.2l0,0
	c2.5,1.6,4.9,3.5,7.1,5.5l0,0C105.6,139.7,106.1,140.3,106.6,140.8z"/>
<path class="st1" d="M135.3,87.6L135.3,87.6c-2.1,0.8-4.5,0.7-6.5-0.2l0,0c-2.7-1.2-4.4-3.9-4.5-6.8v0l6.5-1.3l-5.9-4.5l-0.4-3.4
	l-6.9-3.4l0,0.5l0,0c0,1.9,0,3.8,0.2,5.7l0,0c0.2,2.7,0.8,5.3,1.8,7.8l0,0c0.5,1.2,1.2,2.4,1.9,3.6l0,0c0.8,1.1,1.6,2.1,2.6,3l0,0
	c0.5,0.4,1,0.8,1.6,1.2l0,0c1,0.6,2.2,1.1,3.3,1.4l0,0c1.4,0.3,2.9,0.3,4.3,0.1l0,0c1.4-0.2,2.8-0.7,4.1-1.4l0,0
	c1.3-0.7,2.4-1.6,3.4-2.7l0,0c1-1.1,1.7-2.3,2.3-3.6l0,0c0.3-0.7,0.5-1.4,0.7-2.2l-2.5-1.1l0,0C140.5,83.5,138.3,86.3,135.3,87.6z"
	/>
<path class="st2" d="M170,112.7L170,112.7l-15.1-11.1h-8.7l-0.8-1.5h9.9l15.2,11l0-0.2l0,0c-1.9-10.4-9.1-19-18.9-22.9l0,0l-6.1,4.4
	l0,0l0,0l-7.8,5.7l2.6,5.7l4.4,9.6l1.8,0.3l0,0C154.2,114.8,162.2,114.5,170,112.7L170,112.7z"/>
</svg>
