<svg xmlns="http://www.w3.org/2000/svg" height="197" width="197" viewBox="0 0 196.062 196.06"><path d="M2.495 98.389c0 52.675 42.856 95.53 95.53 95.53s95.53-42.856 95.53-95.53c.005-52.675-42.85-95.53-95.53-95.53-52.67 0-95.53 42.853-95.53 95.53"/><path d="M98.024 191.824c51.6 0 93.435-41.835 93.435-93.44 0-51.595-41.835-93.43-93.435-93.43S4.589 46.789 4.589 98.389c0 51.605 41.834 93.44 93.44 93.44" fill="#a5acaf"/><path d="M98.024 176.564c43.047 0 77.945-34.897 77.945-77.945s-34.895-77.95-77.945-77.95-77.945 34.9-77.945 77.945 34.897 77.945 77.945 77.945" fill="#fff"/><path d="M98.434 98.724c.9-31.925 31.058-39.422 38.634-38.734-18.678-1.014-37.112-8.907-38.534-38.444-2.253 27.469-13.275 35.278-38.672 38.538 18.141.919 36.506 8.097 38.572 38.64" fill="#eead1e"/><path d="M137.174 138.239c.9-31.925 30.528-39.803 38.106-39.116-18.74-.693-36.79-9.6-38.212-39.134-2.25 27.469-13.235 35.475-38.634 38.734 18.141.919 36.675 8.972 38.741 39.516" fill="#c60c30"/><path d="M98.904 176.239c.898-31.931 30.695-38.688 38.275-38-18.678-1.017-37.319-9.977-38.74-39.516-2.253 27.472-12.95 35.722-38.347 38.981 18.141.925 36.744 7.997 38.813 38.535" fill="#00539b"/><path d="M35.453 86.909c-.738.005-1.489.162-2.191.47-.844.37-1.429 1.04-1.842 1.775-.413.744-.645 1.335-.696 2.183-.107 1.792.789 3.681 2.476 4.734 1.182.739 2.048.836 3.051 1.801.533.507.49 1.824.318 2.127-.488.864-1.756.546-2.067.219s-.451-1.513-.389-1.982l-3.346.02c-.129 1.474-.028 2.381.419 3.38.453 1.019 1.089 1.401 1.915 1.797 1.792.851 4.21.779 5.955-.849.428-.397.582-.864.582-.864.406-.986.86-2.104.544-3.905-.148-.842-.514-1.532-.701-1.796-.621-.877-1.081-1.274-2.742-2.085.039 0-.524-.241-.483-.241-1.758-.561-2.456-1.635-1.91-2.778.301-.636 1.44-.89 1.942-.432.339.312.417.978.445 1.491l1.171-.008h2.153c.045-1.483-.273-2.317-.591-2.875-.832-1.469-2.39-2.194-4.013-2.183zm28.45.307v16.474h3.157V87.225l-3.157-.009zm-19.005 1.893l-3.133 1.719v1.079l-1.24.039.013 2.699 1.169-.039.024 6.204c.013 3.294 2.836 2.787 4.328 2.823l.002-3.502c-1.263.019-1.15-.232-1.15-.862v-4.603l1.206.02-.013-2.766-1.193.026-.013-2.837zm41.667 2.648c-.532.008-1.066.12-1.562.361-.477.23-.825.18-1.623 1.167-.378.466-.485 1.158-.522 1.758-.075 1.268.344 2.94 2.069 3.376.965.243 2.063.37 2.577 1.146.282.423.2.6.073.924-.181.46-1.205.454-1.616.292-.406-.155-.66-.629-.606-1.04l-2.626.017c.049 1.014.058 1.629.445 2.379.374.726 1.128 1.254 1.82 1.465 1.41.427 2.961.353 4.111-.356a4.13 4.13 0 0 0 1.042-1.101c.395-.722.63-1.646.275-2.858-.168-.585-.185-.651-.29-.855-.625-1.192-1.429-1.425-2.261-1.704.028 0-.774-.185-.746-.185-1.465-.166-1.556-.995-1.362-1.558.161-.466.533-.621 1.014-.621.408.005.81.29.885.591.052.215.045.462.045.744l2.716.013c-.022-1.057-.215-2.153-.806-2.748-.724-.734-1.884-1.223-3.054-1.206zm-5.026.058c-1.036.232-1.311.714-1.769 1.52l-.013-1.468-3.043.032v11.69h3.101v-6.776c.034-.705-.14-1.623 2.48-1.438v-3.561h-.756zm-30.845.106c-.627-.013-1.309.128-2.188.513-1.032.679-1.629 1.611-1.571 2.682v5.703c.058 1.414.671 2.418 1.932 2.88.958.204 1.985.511 3.627 0 1.547-.533 1.927-1.528 1.904-2.444l-.006-1.378-2.576.013v.333c-.058 1.322-2.349 1.107-2.355.058l.004-1.608h4.933v-3.618c-.015-1.189-.582-2.04-1.846-2.727-.66-.229-1.231-.395-1.858-.408zm8.553 0c-.626-.013-1.308.128-2.189.513-1.032.679-1.629 1.611-1.571 2.682v5.703c.058 1.414.67 2.418 1.932 2.88.961.204 1.986.511 3.628 0 1.547-.533 1.925-1.528 1.904-2.444l-.006-1.378-2.577.013v.333c-.058 1.322-2.349 1.107-2.355.058l.005-1.608h4.934v-3.618c-.015-1.189-.582-2.04-1.846-2.727-.66-.229-1.231-.395-1.857-.408zm12.557 0c-.626-.013-1.307.128-2.188.513-1.034.679-1.629 1.611-1.571 2.682v5.703c.058 1.414.67 2.418 1.932 2.88.961.204 1.986.511 3.627 0 1.547-.533 1.927-1.528 1.901-2.444l-.004-1.378-2.578.013v.333c-.056 1.322-2.347 1.107-2.351.058l-.011-1.608h4.947v-3.618c-.013-1.189-.582-2.04-1.844-2.727-.662-.229-1.233-.395-1.86-.408zm-21.16 2.686c.733-.037 1.518.547 1.263 1.633l-2.334-.009c-.183-1.078.424-1.593 1.071-1.625zm8.552 0c.734-.037 1.518.547 1.263 1.633l-2.333-.009c-.183-1.078.424-1.593 1.071-1.625zm12.558 0c.734-.037 1.518.547 1.263 1.633l-2.333-.009c-.183-1.078.424-1.593 1.071-1.625z"/></svg>