<?xml version="1.0" encoding="utf-8"?>
<!-- Generator: Adobe Illustrator 22.1.0, SVG Export Plug-In . SVG Version: 6.00 Build 0)  -->
<svg version="1.1" id="Layer_1" xmlns="http://www.w3.org/2000/svg" xmlns:xlink="http://www.w3.org/1999/xlink" x="0px" y="0px"
	 viewBox="0 0 192 175" style="enable-background:new 0 0 192 175;" xml:space="preserve">
<style type="text/css">
	.st0{fill:#0472CB;}
	.st1{fill:#3F95DB;}
	.st2{fill:#FBFDFB;}
	.st3{fill:#FBCD04;}
	.st4{fill:#FAFDFB;}
	.st5{fill:#F8FCFB;}
	.st6{fill:#EFF6FA;}
	.st7{fill:#E9C611;}
	.st8{fill:#1B7FD1;}
	.st9{fill:#0A75CD;}
	.st10{fill:#1179CE;}
</style>
<g>
	<path class="st0" d="M37,88.9c0-0.9,0-1.8,0-2.7c0.4-0.7,0.2-1.5,0.2-2.2c0-21.7,0-43.4,0-65c0-0.7,0-1.4,0-2.1
		c0.8-1.1,1.8-0.6,2.7-0.2c4.3,1.7,8.7,3.1,13.2,3.9c10.4,1.8,19.9-0.4,28.8-6c4.5-2.9,8.5-6.4,11.8-10.6c0.6-0.8,1.3-1.5,2.5-1.5
		c1.1,0.2,1.7,1.1,2.3,1.9c5.3,6.5,11.8,11.4,19.8,14.3c8.7,3.2,17.5,3.1,26.4,0.5c2.7-0.8,5.3-1.7,7.8-2.8c0.7-0.3,1.9-1.3,2.4,0.5
		c0,24.1,0,48.3,0,72.4c0.3,11.7-2.7,22.7-7.5,33.3c-5.7,12.6-14.1,23.3-24.3,32.6c-6.8,6.2-14.3,11.2-22.3,15.7
		c-1.5,0.8-3.1,1-4.6,1.6c-0.3,0-0.5,0-0.8,0c-4.1-0.9-7.5-3.3-10.9-5.5c-7.9-4.9-15.1-10.6-21.5-17.3c-6.1-6.4-11.4-13.5-15.7-21.3
		c-4.4-8.1-7.6-16.7-9.4-25.7c-0.6-3-0.3-6.2-1-9.2c0-0.8,0-1.5,0-2.3C37.3,90.4,37.3,89.7,37,88.9z"/>
	<path class="st1" d="M37,88.9c0.6,0.8,0.5,1.5,0,2.3C37,90.4,37,89.7,37,88.9z"/>
	<path class="st2" d="M42.7,77.6c0-5.4-0.1-10.8-0.1-16.1c0-11.6,0-23.2,0-34.8c0-1.5,0.2-1.8,1.8-1.3c12.3,3.6,24.5,3.3,36.2-2.3
		C86,20.5,90.8,17,94.9,12.6c0.7-0.8,1.1-1,2-0.1c13.9,14.3,30.5,18.2,49.5,13.2c2.8-0.7,2.7-0.8,2.7,2.1c0,12.4,0,24.8,0,37.2
		c0,1.5-0.5,2.2-1.8,2.8c-6.8,3.1-13.5,6.4-20.2,9.5c-2.4,1.1-3.7,0.5-4.3-2.1c-0.5-2-1.3-3.9-2.4-5.8c1.6,1.3,3.2,2.6,4.8,3.9
		c-1.2-5.1-4.4-9-7.2-13.2c1.4,0.3,2.4,1.3,3.9,2.2c-1.4-3.9-4.1-6.5-6.3-9.4c1.3,0.6,2.6,1.1,3.9,1.7c-3.9-7.9-10.8-12.2-18.6-15.6
		c0.2-0.7,0.8-0.8,1.2-1.1c1.1-0.8,2.1-1.7,2.6-3c0.4-0.9,1.1-2.1,0.4-2.8c-0.5-0.6-1.4,0.5-2.1,0.8c-3.1,1.4-6.3,2.2-9.7,2.7
		c-1.2,0.2-2.1,0.7-3,1.5c-4.9,4.7-9.8,9.3-14.7,14c-1.2,1.1-1.3,2.4-1.3,3.8c0,1.3-0.4,2.2-1.3,3.2c-2.8,3-5.6,6.1-8.3,9.1
		c-1.9,2.1-1.4,5.4,0.9,7c0.7,0.5,1-0.1,1.5-0.3c3.8-2.2,7.6-4.5,11.5-6.8c0.5,1-0.1,1.7-0.6,2.3c-1.2,1.6-2.4,3.3-3.6,4.9
		c-0.8,1-0.8,1.5,0.6,1.8c2.8,0.7,5.3-0.3,6.8-2.8c0.3-0.4,0.5-0.9,0.7-1.4c1.1-3,2.7-5.1,6.2-5.4c1.5-0.1,2.9-0.9,4.3-1.4
		c0.4-0.1,0.9-0.5,1.2,0c0.3,0.4,0.2,0.9,0,1.3c-2,3.5-3,7.5-4.4,11.2c-0.8,0.7-1.7,0.8-2.7,0.8c-14,0-28,0-41.9,0
		C44.3,78.3,43.4,78.3,42.7,77.6z"/>
	<path class="st3" d="M79.1,107.6c-3.5-0.1-7.1-0.3-10.6-0.4c-1.5,0-2.8-0.2-4.3-0.7c-5-1.6-8.4,0.7-8.7,6c-0.2,3.3-0.4,6.6-0.3,9.9
		c0,3.7,2.1,6.1,5.9,6c3.7-0.1,7.1,0.9,10.6,1.4c7.1,0.8,14.1,1.2,21.2,1.3c2.6,0,2.6,0.1,2.6,2.6c0,9.8,0,19.6,0,29.4
		c0,0.7,0,1.3,0,2.4c-2.1-1.2-3.8-2.2-5.6-3.3c-18-11-31.9-25.6-40.2-45.1c-0.8-1.9-1.5-3.9-2.2-5.8c-0.3-0.8-0.3-1.2,0.6-1.6
		c6.5-2.7,12.9-5.4,19.4-8.1c0.5,1,0.1,1.9,0.4,3.1c7.4-3.5,14.7-7,22.3-10.6c0,1.7,0,3.1,0,4.8c1.8-0.7,3.4-1.4,5.3-2.1
		c0,3.8,0,7.5,0,11.1c0,1.1-0.8,0.7-1.3,0.7c-3.8-0.1-7.6-0.3-11.4-0.5c-0.9,0-1.9-0.1-2.8-0.1C79.5,108.2,79.4,107.8,79.1,107.6z"
		/>
	<path class="st3" d="M42.7,77.6c15.7,0,31.4,0,47.1,0c-0.5,2.1-1.4,4-2.2,6c-0.1,0.4-0.3,0.7-0.7,0.9c-4.1,2.2-8.2,4.5-12.4,6.8
		c0-1.3,0-2.4,0-3.5c-0.8-0.3-1.2,0.4-1.7,0.7c-8.4,5.8-16.7,11.6-25.1,17.4c-1.3,0.9-1.7,1-2.2-0.7C43.2,96.2,42.4,87,42.7,77.6z"
		/>
	<path class="st2" d="M146.4,71c-9.6,6.7-19.3,13.4-29.2,20.3c0-2.4,0-4.5,0-6.9c-8.5,3.9-16.7,7.6-25.2,11.4c0-1.3-0.1-2.3,0-3.3
		c0.1-1.5-0.4-1.5-1.6-1c-5.5,2.8-11.1,5.5-16.6,8.2c-1.3,0.6-2.6,1.2-3.9,1.9c-0.1-0.2-0.3-0.2-0.3-0.3c-0.2-2.9-0.2-2.8-2.9-1.6
		c-5.1,2.3-10.1,4.5-15.2,6.7c-0.5,0.2-0.5-0.1-0.5-0.5c7.1-4.9,14.2-9.8,21.6-14.9c0.1,1.2,0.2,2.1,0.3,3.3
		C81,90,88.9,85.7,97,81.2c0,1.8,0,3.5,0,5.4c2.8-1.3,5.3-2.5,7.8-3.7c4.9-2.3,9.7-4.6,14.5-6.9c1.1-0.5,1.7-0.6,1.6,0.9
		c-0.1,1.5,0,3,0,4.7c8.5-3.8,16.8-7.4,25.1-11.1C146.4,70.5,146.5,70.7,146.4,71z"/>
	<path class="st2" d="M69.2,109c2.3,0,2.8,0.8,1.9,3.1c-0.3,0.8-0.6,1.7-0.6,2.5c0,0.9-0.3,1.9,1.3,1.9c1.5,0,1.5-0.6,1.8-1.8
		c0.3-1.5-0.8-2.7-0.6-4.2c0.1-1.1,0.5-1.5,1.6-1.4c3.5,0.2,3.4,0.2,2.5,3.8c-0.6,2.5-0.2,5.2-0.6,7.7c-0.3,2.1,0.7,4,0.8,6.1
		c0.1,1.3-0.3,1.8-1.6,1.5c-0.1,0-0.3,0-0.4,0c-3.2-0.2-3.6-1-2.4-4.1c0.5-1.2,0.3-2.5,0.2-3.8c-0.1-1-1.1-0.6-1.7-0.7
		c-0.7-0.1-0.9,0.3-1,1c-0.4,1.9,0.5,3.7,0.5,5.5c0,1.4-0.5,1.5-1.7,1.4c-3.2-0.2-3.7-0.9-2.4-3.9c0.2-0.5,0.2-1.1,0.2-1.7
		c0.1-2.1,0.2-4.2,0.2-6.2c0-1.4,0.1-2.7-0.5-4.1C66,109.9,66.8,109,69.2,109z"/>
	<path class="st2" d="M86.5,129.2c-3.1-0.1-3.6-0.9-2.3-3.7c0.3-0.7,0.6-1.5-0.1-1.8c-0.6-0.3-1.6-0.3-2.2,0
		c-0.6,0.3-0.7,1.2-0.1,1.8c0.7,0.8,0.3,1.8,0.3,2.7c0,0.6-0.4,0.7-0.9,0.7c-0.5,0-1,0-1.5-0.1c-2.2-0.1-3-1-2-3
		c1.6-3.5,1.6-7.2,2.5-10.8c0.1-0.5,0.2-1.1,0.3-1.7c0.7-3.8,0.7-3.8,4.6-3.4c0.8,0.1,1,0.4,1.1,1.1c0.5,3.7,1,7.4,1.5,11.1
		c0.2,1.4,0.4,2.7,1,4C89.8,128.2,89,129.2,86.5,129.2z"/>
	<path class="st2" d="M118.6,125.5c0.9-3.4,0.5-6.8,0.5-10.3c0-1.4,0-2.8-0.6-4.2c-0.8-1.8-0.2-2.4,1.8-2.7c0.4-0.1,0.9-0.1,1.3-0.1
		c2-0.2,4.2-0.6,5.3,1.5c1.2,2.3,1.6,4.9,0,7.4c-0.2,0.3-0.8,0.4-0.3,0.9c2,2,1.2,4.7,1.9,7.1c0.5,1.9-1.2,1.4-2.2,1.6
		c-1.4,0.3-1.4-0.6-1.4-1.5c0-1.4,0-2.8-0.1-4.2c-0.1-0.9-0.5-1.6-1.5-1.5c-1.2,0.1-0.7,1-0.8,1.6c-0.3,1.4,0.7,2.6,0.8,4
		c0.1,1.3-0.1,2.1-1.7,2c-0.3,0-0.6,0.1-0.9,0.2C119,127.6,118.3,127.1,118.6,125.5z"/>
	<path class="st2" d="M111.3,128.1c-0.2,0-0.4,0-0.6,0c-2.3,0.1-3.1-0.7-2.1-2.6c1.2-2.1,0.8-4.3,0.8-6.4c-0.1-2.6,0.3-5.3-0.7-7.8
		c-0.4-1-0.1-2,1.5-2.1c1.9,0,3.8-0.3,5.6-0.6c1.1-0.2,1.4,0.2,1.4,1.3c-0.1,0.9,0,1.9,0,2.8c0,0.7,0.5,1.7-0.8,1.7
		c-0.8,0-2,0.5-2-1.1c0-0.5-0.3-1-1-0.9c-0.9,0.1-0.7,0.8-0.7,1.3c0,1.2,0,2.4,1.7,1.9c0.8-0.2,1.2,0,1.1,0.9c0,0.6-0.1,1.1,0,1.7
		c0.1,0.9-0.2,1.5-1.2,1.4c-1.3-0.2-1.6,0.5-1.5,1.6c0.1,0.5,0,1,0,1.5c0.1,0.5-0.3,1.3,0.6,1.3c0.8,0.1,1.2-0.6,1.3-1.3
		c0.1-0.7-0.3-1.5,1-1.6c1.3-0.1,1.9,0.1,1.8,1.6c-0.1,1.6,0.7,3.9-0.1,4.5c-1.1,0.9-3.2,0.6-4.9,0.7
		C112.2,128.1,111.8,128,111.3,128.1C111.3,128,111.3,128.1,111.3,128.1z"/>
	<path class="st2" d="M92.7,110.4c1.8,0,3.8-0.3,4.6,1.7c1,2.4,1.3,4.9-0.1,7.3c-0.4,0.6-0.7,1,0,1.5c0.3,0.2,0.5,0.7,0.5,1
		c-0.2,2.1,0.7,4.1,0.7,6.2c0,1.1-0.4,1.4-1.4,1.4c-1-0.1-2,0.1-1.9-1.4c0.1-1.4,0-2.8,0-4.2c0-0.9,0-1.9-1.3-1.9
		c-1.5,0-0.7,1.2-0.9,1.8c-0.4,1.5,0.8,2.7,0.7,4.2c-0.1,1.1-0.4,1.5-1.4,1.3c-0.1,0-0.3,0-0.4,0c-2.4,0-3.1-0.8-2.2-3
		c0.6-1.5,0.6-3,0.6-4.4c-0.1-3,0.4-6-0.4-9C89.1,110.5,89.4,110.4,92.7,110.4z"/>
	<path class="st4" d="M98.9,119.4c-0.1-2.2-0.4-4.4,0-6.6c0.3-1.6,1.1-2.7,2.9-3.1c1.9-0.4,3.6,0.1,5.2,1.1c0.3,0.2,0.4,4.6,0.2,4.8
		c-0.5,0.6-1.3,0.3-1.9,0.4c-0.6,0.1-0.9-0.3-1-0.9c-0.1-0.8-0.3-1.7-1.4-1.6c-1.1,0.2-1.1,1.2-1.1,1.9c0,2.7,0,5.4,0.1,8.1
		c0,0.8,0.1,1.6,1.1,1.7c0.6,0.1,1-0.2,1.2-0.7c0.2-0.9,0.9-2-0.1-2.6c-1.4-0.7-0.8-1.8-0.7-2.6c0.1-1.2,1.2-0.5,1.8-0.6
		c1.9-0.4,2.4,0.5,2.3,2.2c-0.1,1.1,0,2.1,0,3.2c0.1,2.7-2.2,5.2-4.9,5.1c-2,0-3.5-1.4-3.7-3.6C98.8,123.7,98.9,121.6,98.9,119.4z"
		/>
	<path class="st2" d="M137,110.2c0,1.1,0.6,2.3-1.4,2.4c-1,0-1.4-0.1-1.5-1.1c-0.1-0.6-0.3-1.3-1.1-1.4c-0.6-0.1-1,0.2-1.2,0.7
		c-0.3,0.7-0.3,1.4,0.1,2c0.6,0.8,1.6,1,2.4,1.4c3.7,1.6,4.7,7.8,1.8,10.6c-1.4,1.4-3.1,1.4-4.9,0.8c-1.7-0.6-2.1-1.9-1.9-3.4
		c0.1-1.1-1-2.8,1.4-2.9c0.9,0,1.4,0.2,1.5,1.1c0.1,0.8,0.4,1.8,1.5,1.5c1-0.2,1.1-1.2,1-2c0-1.4-1-2-2.1-2.4
		c-3.2-1.1-4.5-3.1-3.7-7.8c0.3-1.6,1.2-2.8,2.8-3.2c1.7-0.4,3.3,0,4.6,1.2C137.2,108.3,136.8,109.4,137,110.2z"/>
	<path class="st2" d="M57.1,118.4c0.1-2.8,0.1-5.1,0.4-7.2c0.3-1.6,1.1-2.9,2.8-3.2c2-0.4,3.9,0,5.5,1.3c0.3,0.3,0.2,4.9-0.1,5.2
		c-0.5,0.5-2.6-0.1-2.7-0.9c-0.1-0.4-0.1-0.9-0.3-1.3c-0.2-0.5-0.7-0.7-1.2-0.6c-0.6,0.1-0.9,0.5-0.9,1c-0.4,2.9-0.4,5.9-0.4,8.9
		c0,0.8,0.5,1.4,1.3,1.4c0.8,0,1-0.6,1.2-1.3c0.1-0.4,0.2-0.8,0.1-1.1c-0.1-1.1,0.2-1.5,1.4-1.3c1,0.1,1.8,0,1.6,1.4
		c-0.1,0.8-0.1,1.6-0.1,2.5c-0.1,3-0.6,3.5-3.3,3.7c-2.8,0.2-4.8-1.2-5.3-3.5C56.8,121.4,57.1,119.6,57.1,118.4z"/>
	<path class="st5" d="M149.2,71.1c0,2.3-0.1,4,0,5.8c0,1.1-0.4,1.4-1.4,1.4c-2.8-0.1-5.6,0-8.6-0.4
		C142.4,75.7,145.6,73.5,149.2,71.1z"/>
	<path class="st6" d="M85.9,49.6C85.6,51,85,52.2,84,53.2c-0.4,0.4-0.8,0.7-1.3,0.2c-0.5-0.5-0.1-0.8,0.2-1.1c0.8-1,1.7-2,2.5-3
		C85.6,49.4,85.7,49.5,85.9,49.6z"/>
	<path class="st7" d="M63.5,116.2c0.7,0.4,1.8-0.4,1.9,0.8c0,0.8-0.9,0.5-1.4,0.4c-0.7-0.1-1.8,0.5-1.9-0.6
		C62,115.8,63.1,116.6,63.5,116.2z"/>
	<path class="st3" d="M79.1,107.6c0.3,0.1,0.6,0.3,0.8,0.4c-0.2,0.4-0.3,0.9-0.5,1.4C79,108.8,79.2,108.1,79.1,107.6z"/>
	<path class="st8" d="M83.5,115.5c0.2,1.5,0.4,3,0.5,4.6c0.1,0.8-0.4,0.8-1,0.8c-0.6,0-0.9-0.2-0.7-0.9c0.3-1.5,0.5-2.9,0.8-4.4
		C83.3,115.4,83.4,115.5,83.5,115.5z"/>
	<path class="st9" d="M122,113.8c0.4-0.7-0.6-1.9,1-2c1.5-0.1,1.7,1,1.8,2.1c0,1.1-0.3,2.1-1.6,2.1C121.3,116,122.5,114.5,122,113.8
		z"/>
	<path class="st10" d="M95.4,116.4c-0.1,0.4-0.1,0.9-0.3,1.3c-0.3,0.6-0.8,0.7-1.5,0.6c-0.7-0.1-0.7-0.6-0.7-1.2c0-0.5-0.1-1,0-1.5
		c0.1-0.6-0.5-1.7,0.8-1.7c1.2,0,1.5,0.8,1.6,1.7C95.3,115.9,95.3,116.1,95.4,116.4z"/>
</g>
</svg>
