<svg xmlns="http://www.w3.org/2000/svg" height="172" width="194" viewBox="0 0 193.152 172.002"><path d="M184.47 1.062s.445 8.15-1.094 15.611l-2.306 9.956c-3.148 1.846-8.244 4.116-15.693 5.356-13.903 2.318-26.519-1.417-40.294-6.824-13.77-5.407-32.205-11.231-49.308-9.268-16.583 1.905-28.447 8.622-34.756 13.002s-7.469 5.533-12.876 7.079c0 0 4.25 1.673 6.438 1.673 0 0-1.031 4.254-.645 5.667 0 0 9.012-4.12 10.042-2.188s-3.219 3.223-6.178 3.99c-2.959.775-10.688.642-10.688.642s3.624 2.806 4.903 4.754c0 0-6.832 2.975-14.43 1.944 0 0-.252 2.814 5.993 7.422-1.33.476-3.014 1.248-4.057 2.361 0 0 6.544-1.35 10.657 3.231 1.082 1.357 1.436 2.574 1.314 4.108-.224 2.782-1.291 3.845-3.912 5.576-1.499.61-3.093 1.374-4.632 2.314-7.237 4.45-12.529 11.219-16.244 18.95-1.609 3.35-2.896 7.241-3.805 10.772-.909 3.55-1.243 6.7-1.456 8.669-.213 1.962-.504 8.153-.504 8.153l4.769-6.729c1.515-2.172 11.117-14.245 25.102-17.744 4.474-1.138 8.929-1.614 13.187-1.614 10.235-.008 19.377 2.771 24.788 5.419 7.855 3.801 20.758 12.774 37.675 15.579 3.983.657 8.276.983 12.726.983 4.27 0 8.689-.311 13.104-.913l-7.162 10.424c-2.306-2.196-5.434-2.424-5.434-2.424-3.793-.358-5.694 1.952-5.694 1.952a6.26 6.26 0 0 0-1.567 3.18c-.268 1.177.051 2.547.272 3.243.724 2.298 2.687 3.345 3.451 3.679-5.545 7.386-7.154 15.891-7.154 15.894l-2.53 2.231.913 3.699c-1.409 4.537.803 7.941 3.672 9.35 2.912 1.432 5.631.602 5.631.602 1.712-.48 3.262-1.559 4.317-3.14.162-.24.303-.484.429-.728a8.04 8.04 0 0 0 1.531-1.063c.799.09 2.845.153 2.845.153 4.195-.036 8.295-1.224 11.424-3.88 2.463-2.204 5.175-5.962 5.269-11.097 0-.964.177-4.852-3.034-8.24 20.263-29.75 33.419-48.903 41.816-68.391 22.249-51.653 3.27-73.191 3.188-73.375" fill="#b1babf"/><path d="M186.11 9.957c-.225 10.774-3.176 18.279-3.176 18.279-4.218 2.526-9.976 5.222-16.551 6.198-13.738 2.031-20.487-.024-33.209-4.093-12.715-4.069-31.797-12.848-51.381-12.718-19.589.126-33.572 8.63-46.097 18.303l4.376-1.385s-2.924 3.432-3.813 5.34c0 0 5.828-4.356 13.828-3.892 0 0-2.782.697-3.943 2.436 0 0 3.247-.7 3.825.579s-1.389 4.175-4.982 5.796-9.393 2.9-13.104 3.133c0 0 3.715 1.161 6.147 3.479 0 0-2.833.405-5.915 1.621-2.566 1.015-7.19 1.625-9.161 1.393 0 0 2.7 2.526 5.915 4.522 9.413 5.84 5.438 14.497 2.408 17.334-1.995.567-22.792 6.226-27.558 39.8 0 0 10.538-14.702 26.496-18.763s31.434 0 39.556 3.962 20.695 12.668 37.037 15.379c8.988 1.492 19.81 1.22 30.285-.783l-11.597 16.941s-2.55-3.203-6.001-3.522c0 0-1.448-.292-2.621.318v.004c-1.035.476-1.92 1.495-2.208 2.908-.291 1.433.228 2.542.906 3.329.645.752 1.456 1.133 2.113 1.311.586.142 1.401.5 1.554 1.275-1.574 2.424-3.731 5.926-5.285 9.311-1.22 2.664-1.802 4.951-2.29 6.489-.46 1.578-.87 2.196-1.004 2.274l-1.657 1.46.815 2.991a5.3 5.3 0 0 0-.606 2.436v.047a5.36 5.36 0 0 0 2.416 4.475c1.216.838 2.975.889 2.975.889 1.735 0 3.439-.858 4.467-2.4.248-.374.437-.768.575-1.161 1.247-.508 2.015-1.216 2.412-1.798.925.212 3.617.295 3.727.295 3.762-.027 7.327-1.105 9.936-3.329 2.097-1.877 4.388-5.088 4.462-9.39 0-.767.232-4.813-3.652-8.023l11.818-17.46 19.676-31.7c5.249-9.012 21.675-33.769 21.64-67.666-.016-9.877-3.553-16.221-3.553-16.221z"/><path d="M158.73 38.056c-18.9-.114-39.37-10.747-57.53-14.801-38.271-8.539-56.814 11.444-56.824 11.452.004-.004 6.202-2.259 9.326-.228 3.396 2.208.401 7.902-.693 9.039-3.14 3.27-7.654 5.686-12.64 5.686 0 0 5.277 1.267 6.985 2.837 0 0-4.895.641-7.563 1.566s-7.882 2.436-9.039 2.436c0 0 13.746 6.284 5.214 19.708 0 0 5.966-.913 10.936 1.472 0 0-27.232-4.396-36.444 25.661 3.471-2.861 14.375-10.554 31.353-10.637 20.494-.091 29.286 4.624 37.428 9.555 12.412 7.524 21.797 9.751 28.928 11.082 20.491 3.825 41.069-3.065 49.984-7.221 25.882-39.656 28.861-62.053 29.301-78.047-8.362 8.418-22.376 10.479-28.727 10.44" stroke="#d50a0a" stroke-width=".312" fill="#d50a0a"/><path d="M130.12 79.559c-8.386 2.254-16.398 2.904-21.754 3.045l-.256-.188c1.287-.264 2.495-.783 3.546-1.626 2.664-2.133 5.616-3.754 7.591-5.328 1.983-1.574 3.821-6.324 3.821-6.324 3.325-1.275 5.584-5.789 5.584-5.789s-.523-1-.571-2.216 1.846-3.278 3.817-6.93 2.404-8.646-.854-14.135c-3.242-5.462-12.187-8.276-12.266-8.299s-8.909-3.176-14.788-.775c-5.911 2.412-8.579 6.655-9.208 10.755s-.362 6.887-1.133 7.831-1.794 1.424-1.794 1.424-.917 4.962.964 7.977c0 0-1.401 4.899-.771 7.351s2.003 5.521 2.841 8.826c.338 1.338 1.019 2.507 1.912 3.502-.094 0-.193-.004-.287-.004-4.197-3.347-10.222-8.719-15.578-15.609-9.385-12.073-12.443-31.287-12.443-31.287-4.124 11.278-5.163 15.245-1.767 25.941S80.365 78.63 80.365 78.63c-.248.594.114 1.688.114 1.688s-1.495-.456-6.005-.464-3.652.473-5.033.397-1.775-.645-1.775-.645c-.697.346-1.35 1.149-1.35 1.149-.657.071-3.888.441-3.546 3.612s3.66 2.975 3.66 2.975c.598.685 1.468.976 1.468.976s1.956 5.167 7.595 5.411c4.899.213 6.481-2.774 6.812-3.561l.417.917c.996 2.034 2.522 4.293 4.588 6.339s4.675 3.884 7.831 4.947c4.805 1.598 9.641 1.106 13.431-.083 1.404-.441 2.774-1.011 4.049-1.743-.221 1.066-.449 4.155 3.329 6.76 4.643 3.207 9.318.264 9.318.264s.87.295 1.763.106c0 0 2.526 2.156 4.714-.166s-.165-4.564-.645-5.018c0 0-.044-1.035-.39-1.731 0 0-.653.217-1.802-.555s-.173-.642-3.774-3.353-5.073-3.254-5.073-3.254.948-.653 1.11-1.275c0 0 14.344-1.979 23.505-8.461S155.4 73.585 158.91 62.102c0 0-14.029 13.482-28.798 17.457"/><path d="M102.06 81.703c-7.803-2.616-16.264 1.25-18.124 3.599-.076.096-.147.196-.207.302-.006.011-.014.033-.023.042.55-.451 1.16-.538 1.16-.538a1.38 1.38 0 0 0-.758 1.769c1.407 3.442 5.801 9.094 12.414 11.315 6.738 2.26 13.734.432 16.869-1.544.365-.259.848-.91.377-1.798 0 0 .368.375.56.978.081-.585-.046-1.414-.371-2.384-1.257-3.739-5.444-9.573-11.901-11.74" stroke="#ff7900" stroke-width=".312" fill="#ff7900"/><path d="M110.848 32.808c-8.672-.11-10.449 6.967-10.484 8.818l.023 3.098c.881-.362 1.731-.831 2.381-1.457-.15.173-2.598 2.961-5.215 3.256 0 0-.575 2.522-1.275 3.797-.693 1.279-2.049 2.152-2.049 2.152-.13 1.802.842 4.412 1.924 4.955s3.962 1.494 5.084 2.773 1.15 2.637.891 3.602c-.083.397-.257.869-.395 1.211l.094.023c.236.083.368.245.363.332 0 0-.126.077-.221.223s-.248.521-.291.623l-.406 1.094c-.008.012-.008.023-.008.035-.126.374.252.504.252.504s.039.016.043.016l.969.193s.452.083.605-.322l.434-1.213c.008-.023.019-.051.031-.074v-.004l.012-.027.143-.473c.039-.165.212-.449.369-.449a.34.34 0 0 1 .365.414c-.024.334-.09.554-.102.594-.004.016-.008.035-.008.047l-.453 1.637c-.146.425.32.559.32.559.283.079.707.146 1.006.236l.059.012s.355.115.48.068.213-.246.236-.309l.543-1.889a1.01 1.01 0 0 0-.051-.555c.024.004.453.08.693.158.2.071.468.177.602.279-.205.102-.338.441-.35.488-.004.008-.01.012-.01.016l-.102.322-.5 1.488c-.024.122-.048.425.307.559.02.004.037.016.057.02l.943.354a.63.63 0 0 0 .205.035c.138 0 .306-.051.385-.287l.375-1.133.268-.873c.004-.083.101-.238.16-.289.161-.012.28.013.391.068.13.063.279.224.338.283-.087.15-.224.532-.26.74-.028.177-.236.935-.334 1.289-.012.028-.02.068-.031.1-.008.012-.004.023-.008.039s-.008.02-.004.027c-.055.366.299.551.299.551l.893.434.043.016s.378.122.504-.252c.004-.012.012-.023.016-.027l.336-1.121.086-.332c.007-.012.011-.042.016-.086.007-.028.062-.224.078-.346.012-.063.012-.123.008-.166l.453.189c.098-.826.453-1.445.453-1.445a1.94 1.94 0 0 1 .314-.496c-.004 0-.008.004-.008.004.453-.779 1.275-1.549 2.641-1.832 1.665-.343 4.536.633 5.729.854 1.051.193 3.008-.949 4.125-2.268l.346-.543s-.558-1.515-.342-2.955 1.279-3.801 1.279-3.801c-1.968-1.865-2.195-5.746-2.195-5.746.122.787.44 1.574.854 2.314.346-.523 1.018-1.237 1.766-2.275.531-.744 1.5-2.757 1.5-5.221 0-2.802-1.252-6.19-5.812-8.965-.016-.012-.031-.023-.051-.031l-.174-.104c-.586-.354-1.168-.664-1.715-.928l-.729-.338-.672-.285-.461-.18-.318-.123-.855-.291-.125-.043a45.47 45.47 0 0 0-4.156-1.066c-1.05-.179-2.021-.268-2.918-.279zm-42.844 7.211s-1.254 7.832 4.824 18.965l.436.783 1.1 1.834c2.202 3.526 5.13 7.316 9.051 11.264l6.963 6.65c.804-.219 1.648-.401 2.521-.542-2.894-2.394-5.744-5.014-8.352-7.838C71.37 56.86 68.852 43.585 68.005 40.02zm27.652 23.846c-.423.004-.922.075-1.231.332 0 0 .357 1.972 1.324 3.707s2.116 4.776 2.543 6.006c.175.505.517 1.077 1.076 1.65.768-.426 2.649-.292 4.699.396 1.961.659 3.492 1.625 3.932 2.41.705-.13 1.263-.365 1.674-.639 1.084-.722 3.834-2.455 5.652-3.256s3.291-2.158 3.291-2.158c-.149-.648-1.028-1.197-1.33-1.371-.181.033-.898.176-1.258.441-.411.303-1.907 2.527-3.865 3.363.185-1.101-.526-1.669-.709-1.65s-.326.454-.363.563-.416.854-.545 1.203-.09.377-.09.377l-.941-.051c.3-.565.568-1.127.82-1.688.182-.467-.316-.568-.316-.568l-.004-.004-.836-.143c-.011-.001-.019 0-.031 0-.349-.062-.561.157-.605.291l-.105.264-.398.926c-.006.018-.01.037-.019.053-.158.39-.025.715-.025.715-.109-.007-.368.002-.805-.084-.207-.041-.484-.164-.484-.164.154-.126.248-.365.248-.365h.002l.709-1.736s.17-.455-.127-.543l-1.197-.33c-.301-.063-.432.185-.465.266l-.205.516-.455 1.301c0 .007 0 .01-.002.016-.094.278-.021.541-.021.541l-.588-.133c-.205-.054-.51-.268-.51-.268.049-.051.108-.188.15-.287.185-.646.359-1.454.514-2.129.011-.094.015-.375-.27-.494l-1.008-.391c-.295-.093-.425.149-.471.293l-.393 1.873a1.03 1.03 0 0 0 .127.633c-.156-.039-.473-.176-.727-.283-.166-.07-.535-.312-.535-.312.189-.017.297-.418.297-.418.211-.436.351-.813.516-1.227.006-.02.015-.037.021-.057.005-.012.006-.021.014-.037a.58.58 0 0 0-.193-.707l-.937-.479c-.251-.134-.42.044-.473.217-.174.493-.447.938-.541 1.48-.044.307-.02.523-.02.523-.599-.285-.818-.736-.818-.736.143-.171.334-.774.338-1.34s.042-1.094-.223-1.281-.705.287-.932.623-.279.531-.279.531v.043c-1.063-1.845-.915-4.529-1.057-5.021-.147-.49-.77-1.145-.77-1.145s-.348-.061-.771-.057zm58.715 5.14c-.015.029-.501.431-1.283 1.064l-1.119.904c-4.56 3.602-14.07 10.078-29.557 12.861-3.754.675-7.578 1.044-11.303 1.209.613.635 1.174 1.279 1.686 1.934l1.854-.137c2.811-.236 5.621-.579 8.398-1.08 6.87-1.24 12.064-2.996 14.531-3.924l1.666-.695c12.135-5.264 15.053-11.965 15.127-12.137zM74.154 82.107c-.896.004-1.792.093-2.68.217-.786.109-1.54.247-2.268.24-.231 0-.455-.018-.67-.059-.205-.039-.402-.096-.598-.18.009.032.431 1.824 2.799 1.824.022-.025.104-.181.119-.209.226-.428.672-.836 1.088-1.078.004-.003.008-.006.012-.008.727-.437 1.868-.703 2.59-.742.021-.002-.254-.007-.393-.006zm.502.006c-.643.125-1.382.356-1.898.695-.599.389-.987.874-1.191 1.289 1.964-.232 5.686-.184 6.627-.021.006-.007.014-.014.021-.021.543-.858 1.347-1.242 1.932-1.436a48.48 48.48 0 0 0-3.096-.373l-1.465-.102-.93-.031zm20.389 1.783a14.77 14.77 0 0 0-.77 1.02l-.811-.105-.08.102-.666.895-.203.301.936.17c-.298.569-.552 1.163-.754 1.779l1.459.215a14.73 14.73 0 0 1 .715-1.699l1.52.359c-.242.534-.467 1.081-.666 1.643l1.432.346.619-1.617 1.479.447-.564 1.609 1.395.469.521-1.627 1.449.535-.482 1.666 1.35.59c.18-.572.335-1.148.463-1.723l1.428.623c-.115.605-.263 1.206-.455 1.801l1.291.709c.214-.621.371-1.254.477-1.895l.848.422.016-.32.012-1.104-.004-.195-.709-.396a14.59 14.59 0 0 0-.002-1.246l-1.186-.646-.064 1.242-1.348-.637.152-1.23-1.154-.508-.24 1.211-1.35-.512.344-1.186-1.162-.389-.439 1.152-1.389-.402.543-1.117-1.227-.287-.627 1.082-1.467-.299.709-1.047-1.336-.199zm23.956 11.76c.348.506.766 1.334.684 2.342.844.438 3.843 2.643 5.27 4.016.087-.455.071-1.076-.174-1.748-.207-.583-.655-1.211-1.094-1.699l-.17-.127-1.377-.928-1.982-1.207-.961-.541-.195-.107zm4.762 2.961c.029.024 1.344 1.412 1.633 2.168.173.428.268.958.24 1.42-.007.127-.026.241-.049.348.002.002.005.008.006.01l.246.176a4.22 4.22 0 0 0 .408.238c.222.114.453.203.695.262.173.042.365.068.543.068.519 0 1.002-.202 1.412-.51.006-.004.014-.008.02-.014-.2-.048-.39-.118-.572-.207-.199-.097-.391-.222-.58-.363-.25-.186-.988-.882-1.166-1.063l-.732-.729c-.298-.292-.943-.891-1.244-1.119l-.859-.686zm23.445 14.75c-.051.02-.103.035-.154.051-1.759.551-3.549 1.03-5.359 1.471l-5.732 8.516c0 0 0 .001 0 .002l-8.285 12.041 2.598 2.219 8.158-11.619c0 0 0-.002 0-.002l5.508-7.914c0 0 0-.001 0-.002l3.268-4.76c0 0 0-.002 0-.002zm-24.748 26.795l-.117.176-2.428 3.912c-.748 1.268-2.217 4.101-2.272 4.211-.008.059-.365 2.172.027 3.813.001-.004.002-.007.004-.01.015-.038.036-.087-.002.014 2.423-5.336 5.151-8.901 5.154-8.904-.497-1.464-.4-2.939-.367-3.211zm-4.881 8.436l-.316.658c-2.157 4.715-2.09 8.106-4.203 9.979 0 0 .052.017.143.029.567.075 2.708-.008 3.814-5.088v-.004a6.66 6.66 0 0 1-.178-.895c-.185-1.468.264-3.481.732-4.654v-.002c.004-.008.008-.016.008-.023z" fill="#fff"/><path d="M98.335 100.884c-4.807-.871-9.131-3.832-12.217-8.366-1.894-2.782-3.017-6.2-2.261-6.883.332-.3.47-.283.298.038-.284.531-.152 1.264.415 2.305 3.027 5.553 8.444 9.701 14.204 10.875 4.532.924 9.886.272 13.757-1.674 1.078-.542 1.491-.979 1.501-1.587.004-.227.013-.227.139-.012.318.546-.665 1.761-2.224 2.746-1.786 1.128-4.39 2.067-6.942 2.504-1.844.315-5.086.342-6.671.055z" stroke="#d50a0a" stroke-width=".25" fill="#d50a0a"/><path d="M99.225 47.582s-1.608 2.946-1.75 4.473-.249 2.96 1.42 4.082c-.051-.071-.692-.992.127-1.473l.094-.063c.031-.02.058-.039.086-.062.004 0 .186.255.305.373.882.854 3.167 2.085 4.658 2.16.012 0 .023.008.035.008 0 0 .029.478-.986 1.154 0 0 1.638.523 2.869-.154s2.867-3.765 4.945-3.092c2.062.72 1.504 4.166 2.078 5.449.555 1.247 2.097 1.818 2.191 1.85-.394-1.145-.086-1.512-.086-1.512.008.004.016.008.027.012 1.232.842 3.798 1.237 5.018 1.088.161-.02.465-.115.473-.115l.004.004c.016.071.035.138.063.205.374.917-.795 1.256-.795 1.256 2.018.11 2.791-1.094 3.602-2.4s1.307-4.625 1.307-4.625l-.006-.012s-1.565-.394-3.352-.189l-.512.072c-1.987.362-3.842.663-5.113.234-.417-.138-.779-.373-1.086-.629-.004-.008-.012-.012-.016-.016l-.234-.213v-.004a6.15 6.15 0 0 1-.756-.873c-.008-.012-.025-.031-.025-.031-.925.476-4.303-.657-4.732-1.59 0 0-.521.173-1.174.252v.004c-.102.012-.208.02-.318.023-.008.004-.016.004-.02.004-.397.02-.835-.013-1.248-.15-1.271-.425-2.566-1.786-3.936-3.273l-.365-.365a10.28 10.28 0 0 0-2.779-1.861c.008.008.012.012.012.016l-.023-.016zm10.258 9.578c-.67.044-1.246.431-1.449 1.027-.169.511-.452.817-.818 1.223v.004l-.012.016c-.279.334-.496.462-.764.635-.26.157-.626.436-.771.9l-.209.621c-.279.834.272 1.771 1.229 2.094 0 0-.418-.519-.209-1.141 0-.008.004-.02.008-.027.134.138.292.255.488.322.614.205 1.262-.082 1.447-.641.032-.091.134-.143.232-.111s.155.138.123.232c-.188.555.152 1.176.762 1.381a1.33 1.33 0 0 0 .58.039c0 .008-.006.018-.01.025-.209.618-.854.783-.854.783v.004c.96.319 1.969-.095 2.248-.934l.209-.621c.165-.456.034-.902-.072-1.182-.106-.299-.205-.53-.225-.967v-.008l-.004-.016c-.039-.543-.077-.953.092-1.465.268-.799-.224-1.693-1.113-2.051l-.115-.043c-.031-.012-.066-.02-.102-.027a2.05 2.05 0 0 0-.691-.074zM88.581 84.683c-1.406.042-2.591.185-3.465.379 2.109.018 4.72.231 7.594.744l.664-.895c-1.76-.21-3.387-.271-4.793-.229zm18.41 4.822l-.012 1.104c2.523 1.285 4.672 2.639 6.324 3.857-1.127-1.343-3.341-3.218-6.312-4.96z"/><path d="M109.548 32.638c-9.075.04-11.655 6.794-12.037 8.34-.405 1.645-.402 3.729-.496 4.674 0 0 1.744-.247 3.373-.928.047-.598-.051-1.606-.023-3.098.039-2.042 2.199-10.448 13.402-8.539l-.055-.012-1.133-.217c-1.082-.154-2.091-.221-3.031-.221zm11.537 2.773c.547.264 1.129.576 1.715.93a2.53 2.53 0 0 1 .174.102c.02.008.035.02.051.031 4.561 2.774 5.813 6.163 5.813 8.965 0 2.463-.969 4.479-1.5 5.223-.748 1.039-1.419 1.75-1.766 2.273.63 1.137 1.468 2.153 2.09 2.834.531-.862 1.742-2.373 2.352-3.904h.002c.673-1.704 3.258-10.617-8.473-16.26l-.457-.193zm-53.082 4.607l-.076.225c-.509 1.5-.7 3.137-.783 4.711-.141 2.663.108 5.342.672 7.947.599 2.768 1.557 5.435 2.73 8.008 1.201 2.634 2.686 5.134 4.34 7.508 2.036 2.925 4.359 5.646 6.879 8.166l3.342 3.141c.14.125 1.286 1.267 1.4 1.213.715-.341 1.496-.656 2.326-.945C77.209 69.855 72.79 58.92 72.79 58.92c-6.038-11.099-4.791-18.902-4.791-18.902zm35.266 5.443a1.84 1.84 0 0 0-.381.051c0 .051 2.644 1.625 4.088 3.133 1.377 1.59 3.547 3.58 4.854 4.002 1.299.453 4.225.173 6.287-.264 2.075-.334 5.152.012 5.152-.031-1.271-1.574-5.599-1.125-8.039-1.012-2.114.165-2.747-.148-2.893-.203-.142-.039-.839-.173-2.434-1.582-1.756-1.465-4.663-4.164-6.635-4.094zm-4.041 2.119s-1.608 2.947-1.75 4.474-.248 2.957 1.418 4.078c-.057-.079-.686-.991.129-1.469.031-.019.062-.039.094-.063s.058-.045.086-.068c.016-.016-.283-.535-.303-.574-.472-1.141-.362-2.562-.066-3.707.087-.334.189-.664.318-.986 0 0 .512-1.106.217-1.551l-.109-.115-.008-.004-.025-.016zm-4.996 4.89s-.104 1.002-.104 2.014c0 .406.013.816.057 1.158a3.91 3.91 0 0 0 .09.465c.311 1.071.346 1.747 2.664 2.766.791.346 1.575.716 2.326 1.141 1.126.637 2.339 1.391 2.807 2.67.004.011.002.023.01.035.126.323.139.724.053 1.055.252-.963.215-2.306-.893-3.574-1.122-1.279-4.008-2.231-5.086-2.773s-2.054-3.153-1.924-4.955zm7.902 11.303c0-.043-.021-.1-.049-.158-.102-.201-.278-.346-.393-.535 0-.004-.004-.007-.012-.016-.252-.287-.523-.551-.842-.768v.012l-.008-.016s-.245.855-.627 1.484a11.4 11.4 0 0 0-.691 1.314c0 .008-.004.016-.008.023-.476 1.237.079 2.542.209 2.549.153.012.48-.136 1.098-1.871.016-.04.046-.122.066-.213.016-.083-.011-.234-.047-.355 0 0 .004-.008.008-.02.075-.284.438-.26.666-.232a1.52 1.52 0 0 1 .23.039c.137-.342.311-.814.395-1.211.002-.008.002-.019.004-.027zm6.943-10.826l-1.117 1.613c-.444.583-2.334 2.677-3.758 2.52h-.002s.029.476-.986 1.152c0 0 1.636.522 2.867-.154 1.236-.677 2.871-3.764 4.949-3.092 2.062.72 1.502 4.166 2.076 5.449.554 1.248 2.097 1.82 2.191 1.852-.393-1.146-.084-1.512-.084-1.512h-.004c-1.232-.736-1.48-3.551-1.484-4.279s.081-1.939.086-1.959c-.925.476-4.306-.657-4.734-1.59zm15.795 3.246l-.158.023c-.503.177-.764 1.369-.764 1.369a8.27 8.27 0 0 1-.367 1.051c-.334.771-.798 1.522-1.385 2.133-.441.46-.924.689-1.463.992a1.22 1.22 0 0 0 .063.205c.373.917-.795 1.256-.795 1.256 2.016.11 2.79-1.095 3.602-2.402s1.303-4.623 1.303-4.623l-.035-.004zm-15.385.965c-.67.044-1.247.429-1.451 1.025-.169.511-.452.82-.818 1.225v.004l-.012.016c-.279.334-.495.46-.762.633-.26.157-.626.438-.771.902l-.211.621c-.279.835.273 1.771 1.229 2.094 0 0-.417-.519-.209-1.141 0-.008.006-.02.01-.027-.276-.287-.41-.68-.283-1.055l.219-.65c.22-.665.796-.605 1.469-1.447.362-.417.729-.819.945-1.465.173-.519.759-.806 1.338-.66-.234-.066-.468-.089-.691-.074zm.902.145c.543.239.834.816.66 1.336-.216.641-.178 1.179-.139 1.734.028 1.074.519 1.374.299 2.039l-.221.65c-.125.378-.472.612-.869.672 0 .008-.004.016-.008.023-.209.618-.854.783-.854.783v.004c.96.319 1.967-.095 2.246-.934l.209-.621c.165-.456.035-.9-.072-1.18-.106-.299-.203-.532-.223-.969v-.008l-.004-.016c-.039-.543-.079-.953.09-1.465.268-.801-.225-1.695-1.115-2.051zm-37.559 1.68l.436.785-.436-.785zm22.523.352s-.003.011-.008.033c-.081.332-.732 3.028-.881 4.338-.021.182-.02.323-.029.482.623-.505 1.994-.269 1.994-.269a2.75 2.75 0 0 1-.016-.383c.015-1.025.298-3.156.338-3.455l.006-.035c-.333-.194-1.402-.713-1.402-.713zm-.918 4.854c-.004.003-.008.005-.012.008l.01.039.002-.047zm-.002.047c-.051 1.034.124 1.659.348 2.355l1.785 5.228.127.438c.325 1.198.891 3.528 2.029 4.754 1.291 1.391 2.537 2.018 4.074 2.535.003.001.009.002.016.004s.009.005.014.006c.769.257 1.497.449 2.266.535a8.62 8.62 0 0 0 2.514-.098c1.883-.334 4.039-2.269 4.85-2.842l4.578-3.094c.697-.492 1.278-.903 1.992-2.109s1.926-4.023 1.926-4.023l-1.545-.275-.018.031c-.171.302-1.556 2.745-2.061 3.256 0 0-.014.001-.041.006.302.174 1.179.725 1.328 1.373 0 0-1.475 1.356-3.291 2.156s-4.569 2.535-5.652 3.258c-.41.273-.969.509-1.674.639-.44-.785-1.971-1.753-3.932-2.412-2.05-.689-3.933-.822-4.701-.395-.559-.573-.901-1.147-1.076-1.652-.426-1.23-1.577-4.273-2.543-6.006-.951-1.707-1.303-3.606-1.314-3.668zm31.196-.566c-1.117 1.318-3.071 2.459-4.121 2.266-1.193-.221-4.065-1.196-5.731-.854-1.369.283-2.19 1.059-2.646 1.842.004-.004.007-.012.016-.012.008-.008.011-.007.016-.016.921-1.062 2.592-1.019 3.856-.857.987.122 1.967.329 2.936.561 2.467.583 2.904.067 3.793-.602.764-.574 1.391-1.458 1.855-2.285.011-.015.02-.027.027-.043zm-10.855 3.303c-1.247-.059-1.943.432-1.943.432s-.355.619-.453 1.445c0 .004.479.216.574.268.083.047.216.099.268.182a2.11 2.11 0 0 1 .15.236l-.342.055c-.063-.004-.348.097-.348.184-.551 1.763-.382 2.076-.252 2.158.111.07 1.339-.633 1.705-1.908 0-.008.205-1.071.248-1.492.076-.681.358-1.456.393-1.551l-.006.004c0-.004.006-.012.006-.012zm39.598 2.031c-.074.172-2.99 6.874-15.125 12.139l-.076.061s-10.086 6.004-25.41 7.102c.49.728.924 1.45 1.287 2.156 4.768-.268 9.592-.931 14.152-2.195 2.915-.809 5.784-1.834 8.521-3.127 2.755-1.301 5.458-2.855 7.834-4.773 1.55-1.251 3.002-2.6 4.334-4.08 1.833-2.036 3.508-4.46 4.412-7.066l.07-.215zm-71.582 9.723c-.129.036-.217.14-.182.344s.241.797-.062 1.707-.987 1.502-1.66 1.797-1.496.96-1.729 2.049-.818 2.519-.654 3.465c.062.36.418.859 1.24.824-.562.465-1.092.429-1.523.232-.68 1.256-1.703 1.774-3.566 1.412-1.907-.37-4.321-2.198-4.822-5.285.001-.065.919-.061 1.004-.061h.012c-.113-.146-.234-.36-.242-.592-.003-.128.051-.293.133-.471-2.367 0-2.79-1.793-2.799-1.826 0 0-.751.603-.783 1.633-.081-.425-.421-.771-.871-.838-.57-.087-1.106.305-1.191.877a1.05 1.05 0 0 0 .879 1.191c.571.085 1.105-.305 1.191-.877.002-.014.003-.027.004-.041a2.42 2.42 0 0 0 .072.381c.099.365.236.624.375.82.334.472.695.539.695.539s.051-.066.055-.07c.025-.029.238-.252.266-.234-.24-.155-1.262-.928-.641-2.619 0 0-.035 1.526 1.227 2.338.139.632 1.13 4.407 4.832 5.582 4.042 1.284 5.598-.644 5.961-1.369.164-.332.578-1.361.578-1.361.351-1.004 1.239-4.908 1.572-5.363s1.335-2.286.93-3.965c0 0-.084-.275-.299-.219zm-7.527 5.211c-1.294-.003-2.715.042-3.697.158-.102.209-.173.405-.17.553.006.226.114.43.217.582 0 0 3.601.193 5.865.814l.361-1.199c.097-.306.229-.562.375-.793-.007.007-.016.014-.021.021-.47-.082-1.636-.133-2.93-.137zm43.857 6.945c-.123-.025-.252.07-.252.07-1.338 1.094-1.641 3.157-1.65 3.723s-1.657 4.214-1.982 5.224c-.014.042-.294.909-.359 1.436-.1.806-.069 3.274 3.928 4.689 3.66 1.295 6.715-1.133 7.209-1.557 1.028.076 1.774-.458 2.137-.816.166-.163.264-.289.264-.289-.395 1.297-1.219 1.616-1.723 1.688-.164.023-.296.022-.367.016.011.033.016.059.023.088.058.217.047.348.047.348s.118.058.324.07c.29.018.756-.052 1.352-.51.101-.079.177-.165.258-.248-.233.492-.052 1.084.434 1.348.503.273 1.131.086 1.402-.416s.087-1.133-.416-1.404a1.03 1.03 0 0 0-1.119.088 2.35 2.35 0 0 0 .322-1.338c-.002-.055-.037-.305-.041-.307-.004.004-.01.005-.016.008-.41.308-.893.51-1.412.51-.178 0-.37-.026-.543-.068l-.002.002c-.242-.059-.474-.147-.695-.262-.14-.073-.275-.15-.406-.238l-.246-.175c-.003-.002-.007-.006-.01-.008-.041.19-.097.357-.178.457-.144.18-.371.275-.547.326.004.001.005.005.01.008.264.211.535.398.762.652-2.261 2.159-5.29 2.162-7.035 1.307-1.706-.837-2.208-1.868-1.992-3.285-.461-.102-.907-.387-1.072-1.098.015.014.035.022.051.035.393.318 1.034.434 1.432.057.358-.34.636-.899.887-1.5l.682-1.656a2.69 2.69 0 0 0 .213-.697c.114-.672-.026-1.388-.357-1.982-.357-.64-.548-1.523-.238-2.436.309-.907.829-1.255.979-1.396s.143-.28.062-.387c-.034-.043-.074-.066-.115-.074zm.563 7.113s-.078.521-.186.828l-.437 1.172c2.01.905 3.917 2.032 5.172 2.891.177-.059.382-.156.523-.334.09-.116.154-.314.199-.543-1.427-1.373-4.427-3.576-5.271-4.014zm34.252 12.916l-3.893 1.516-17.861 26.814 1.803 1.551.078.059 19.873-29.939zm-35.127 21.916s-.491-.071-.562.311c-.035.232.062.448.412.543s1.436.2 2.652 1.346 1.65 2.656 1.627 3.932c-.032 1.275.42 3.073 1.967 4.234 1.554 1.161 3.388 3.121 4.998 3.57.098.027.193.042.291.051 1.067.095 2.077-.867 1.916-1.406.351 1.165.031 2.011-.492 2.617 1.787 1.759 2.653 3.768 2.094 5.574-.713 2.322-3.305 5.442-8.047 5.379-3.376-.043-5.361-.984-6.227-1.523.004-.008.291-.653.311-.697-1.979.477-2.703-2.454-2.734-2.584-1.106 5.081-3.248 5.163-3.814 5.088-.09-.012-.141-.027-.141-.027s.425 1.661 2.078 2.455c-.752-.225-1.587.048-2.043.74-.559.842-.327 1.98.516 2.539a1.84 1.84 0 0 0 2.543-.521c.554-.842.327-1.979-.52-2.533-.043-.028-.084-.043-.127-.066.224.083.453.157.721.201 2.204.366 2.928-.697 2.928-.697s-.149-.303-.252-.729c0 0-2.179 1.536-4.588-.9.083.027.876.302 2.246.078 2.042-.304 2.323-.945 2.461-1.063a.22.22 0 0 1 .016-.059c1.767.96 3.718 1.407 6.496 1.463 3.117.059 6.1-.917 7.855-2.447s3.824-4.77 3.049-8.193c-.653-2.869-4.3-5.668-5.143-6.281-1.802-1.594-6.461-5.234-6.902-6.022-.476-.858-2.632-3.781-5.584-4.371zm4.016 10.541c-.004.004-2.731 3.57-5.154 8.906a3.92 3.92 0 0 0 .252.744c.747 1.594 1.409 2.03 2.73 1.951 0 0 3.089-5.27 5.27-8.088l-1.633-1.443c-.72-.661-1.178-1.37-1.465-2.07zm5.307 6.539c-.846 1.106-1.822 2.605-2.609 3.893l-.924 1.539c.28.028.566.04.857.04.917.004 1.866-.143 2.582-.437.988-.367 2.1-1.758 2.041-2.711a1.49 1.49 0 0 0-.148-.658c-.39-.814-1.22-1.377-1.799-1.664z" fill="#b1babf"/></svg>