<svg xmlns="http://www.w3.org/2000/svg" height="138" viewBox="0 0 193.198 137.444" width="194"><path d="M62.492 80.02c.187 2.245.985 6.711 3.568 11.695 3.191 6.155 9.877 14.361 23.666 19.009a55.93 55.93 0 0 0 7.679 9.551c10.482 10.451 24.406 16.196 39.209 16.174s28.711-5.805 39.161-16.289 16.199-24.405 16.175-39.206-5.807-28.713-16.288-39.164c-8.305-8.282-18.724-13.61-30.185-15.459-15.516-14.05-33.631-9.016-34.407-8.79l-1.132.332c-5.575 1.855-8.457-.271-10.326-1.735-2.069-1.623-4.327-3.27-6.506-4.495-7.401-4.163-17.92-4.312-26.779-.74-5.836 1.988-8.778-.583-10.519-1.785C44.251 1.144 30.041-.759 14.964 2.56 4.813 4.797.752 6.862.752 6.862a66.05 66.05 0 0 0 14.22 4.045c5.966 2.492 10.708 5.691 14.299 11.436 0 0 2.26 3.319.792 4.298-1.644 1.095-3.356-1.586-3.356-1.586-.056 1.93-.056 3.85.072 5.309.835 15.325 3.96 24.53 11.351 31.564 3.363 3.199 9.037 6.311 17.804 9.756 3.999 1.6 6.162 3.649 6.557 8.336" fill="#fff"/><path d="M173.167 44.295c-8.04-8.017-18.246-13.075-29.293-14.628-14.401-13.78-31.817-8.73-31.817-8.73 3.69.549 6.141 2.749 5.197 5.187-.628 1.611-3.307 1.696-4.532 1.708-3.891.042-7.25-2.343-9.931-4.522-2.788-2.268-7.337-6.292-11.413-8.583-7.588-4.268-19.637-3.736-28.357 1.831 5.214.353 11.488 1.854 15.23 4.953 2.088 1.731 4.752 5.21 2.573 6.835-1.914 1.43-6.618.691-9.01-.694-3.802-2.2-7.227-5.537-9.278-7.955C48.732 3.438 29.178 2.53 13.051 6.512c10.584 2.971 17.648 9 22.009 19.394s7.752 14.817 14.941 17.634c4.501 1.762 5.718 2.088 5.367 4.084-.518 2.921-5.849 1.518-9.916-.07-4.955-1.934-11.483-7.275-15.37-17.294.707 12.963 3.18 22.154 10.486 29.109 3.104 2.952 8.805 6.006 17.726 9.439 5.695 2.192 10.204 3.52 14.446 7.32 4.947 4.431 2.84 7.358-.442 6.804-3.713-.626-6.364-4.418-6.364-4.418s.006 21.119 26.11 29.248c2.173 3.605 4.8 6.966 7.859 10.012 9.814 9.787 22.85 15.163 36.706 15.141s26.879-5.434 36.666-15.25 15.165-22.85 15.141-36.709-5.436-26.878-15.251-36.662" fill="#024"/><path d="M170.405 46.92c-7.787-7.785-17.782-12.559-28.57-13.739-9.282-9.251-18.544-8.817-18.544-8.817 4.064 2.548 1.968 8.22-7.072 9.47-8.954 1.236-20.326-1.798-25.865-8.251-5.708-6.649-10.018-6.953-10.018-6.953 4.951 3.093 5.303 6.806 8.309 12.462s9.193 7.689 14.584 8.042c5.678.373 5.817 2.942 1.238 5.658-4.994 2.959-9.414.162-12.626-3.002-5.073-5.003-10.125-5.961-17.106-5.873s-16.21 1.006-24.001-1.909-12.927-13.169-12.927-13.169c3.852 13.611 12.412 20.064 20.357 21.622 10.496 2.057 17.751 4.555 22.191 8.15 4.335 3.516 6.643 7.022 8.272 11.861 1.258 3.73 1.482 8.684.242 8.981-1.447.344-1.744-1.65-3.45-5.127-1.884-3.841-4.132-6.854-8.668-9.273-6.147-3.278-12.163-3.089-18.296-3.004-4.858.068-7.708-.489-7.708-.489s.203.657 8.12 2.434c8.821 1.978 17.354 6.951 23.032 19.072 4.831 10.31 2.31 17.566-8.394 14.282 0 0 4.999 11.114 21.329 15.073 2.108 3.705 4.727 7.15 7.822 10.247 9.049 9.046 21.077 14.029 33.875 14.029s24.824-4.982 33.876-14.029c9.047-9.051 14.029-21.08 14.029-33.879a47.59 47.59 0 0 0-14.029-33.872" fill="#4b92db"/><path d="M136.53 35.232a45.26 45.26 0 0 1 32.219 13.345c8.608 8.606 13.348 20.049 13.348 32.217 0 25.125-20.44 45.568-45.566 45.568-12.171 0-23.613-4.741-32.221-13.348S90.964 92.966 90.964 80.793a45.26 45.26 0 0 1 13.345-32.217 45.27 45.27 0 0 1 32.221-13.345" fill="#fff"/><path d="M136.592 122.432c-22.99.035-41.66-18.579-41.695-41.571S113.48 39.2 136.472 39.166s41.661 18.58 41.695 41.573-18.579 41.661-41.575 41.693" fill="#16243e"/><path d="M126.342 72.37h-12.338l-4.066 7.25-5.469-15.505h63.991l-5.459 15.505-4.034-7.25h-12.13l-10.273 44.944-10.221-44.944" fill="#fff"/><path d="M168.467 64.12h-63.991l1.037 2.938h30.512l-9.677 5.316 10.221 44.937V67.058h30.863l1.034-2.938" fill="#a5acaf"/><path d="M31.547 7.209c-1.819-.025-3.699.153-5.639.512 0 0 8.683-.211 16.271 13.406 6.379 11.446 18.547 13.738 27.451 11.215 0 0-11.729-.303-18.146-11.676-5.329-9.444-12.054-13.35-19.937-13.457zm48.018 6.527c-3.188-.092-6.103.589-8.152 1.762 0 0 7.824-1.578 14.877 4.088 5.765 4.629 9.546 8.309 18.824 8.574-4.331-1.615-7.239-4.436-13.168-9.635-3.733-3.273-8.282-4.67-12.381-4.789zm56.854 27.289l-2.309 7.297-7.699.092 6.273 4.463-2.34 7.336 6.186-4.586 6.254 4.489-2.455-7.299 6.207-4.494h-7.699l-2.418-7.297zm-101.11 3.161S35.431 57.812 51.053 62c10.911 2.924 18.916 4.603 24.014 11.652 0 0-1.228-12.654-19.264-16.324-18.156-3.693-20.494-13.142-20.494-13.142zm80.01 41.734l-5.098 5.774-7.049-3.094 3.914 6.631-5.119 5.75 7.514-1.674 3.889 6.644.729-7.664 7.521-1.641-7.064-3.062.764-7.664zm42.219.07l.879 7.651-7.018 3.172 7.549 1.525.848 7.652 3.783-6.705 7.539 1.557-5.207-5.67 3.811-6.687-7 3.199-5.184-5.694z" fill="#c60c30"/></svg>