<svg xmlns="http://www.w3.org/2000/svg" height="245" viewBox="0 0 227 244.366" width="227"><path d="M137.417 1.108c-36.745 0-68.283 22.297-81.83 54.095l-13.19.02v2.908h12.018a88.7 88.7 0 0 0-5.911 31.89c0 49.104 39.811 88.915 88.912 88.915 49.106 0 88.915-39.811 88.915-88.915S186.523 1.108 137.417 1.108" fill="#ffb612"/><path d="M137.417 166.532c42.254 0 76.506-34.255 76.506-76.506S179.671 13.52 137.417 13.52 60.914 47.775 60.914 90.026s34.253 76.506 76.504 76.506" fill="#fff"/><path d="M89.255 82.782s-6.254 15.135-5.981 27.102c0 0 1.947-4.488 2.628-3.718 0 0-5.621 18.853-1.36 29.639 0 0 .906-2.99 2.447-4.805 0 0 2.355-3.715 3.261-6.708 0 0 .454 1.271.727 3.537 0 0 2.085-2.628 2.537-4.443.355-1.418 1.268-2.988 1.904-4.802l.727.365s4.259-5.17 5.889-9.88c0 0 1.271-.181.635 3.534 0 0 3.534-3.445 3.626-8.794l.725.817c2.991 3.717 2.991 9.426 2.901 12.96-.727 11.33-6.527 17.403-13.776 24.02l.635.544c10.784-1.993 17.891-3.158 28.82 0 4.165 1.203 14.231 5.8 19.125 8.885 0 0 10.878 4.713 18.492 4.713 0 0 .36.179.36-.229 0 0-.814-2.81-.089-13.369l1.449-8.247s.817-2.266.906-6.89c.008-.372-.362-3.172 1.541-2.901 4.131.592 6.436-.36 9.61-.906 0 0 3.351-.995 4.713-1.087 0 0 3.186.51 4.167.181 1.089-.362 2.266-1.268 3.718-2.628 0 0 1.631-1.723.544-5.619 0 0-1.087-3.534-.452-4.624 0 0 .949-2.401 2.355-3.805 0 0 .995-1.633-.362-2.447 0 0-.727-.816.498-1.135 0 0 .906.094 1.495-.225 0 0 .319-.135.362-.814.048-.732.365-4.261-1.993-7.344 0 0 .679.181 1.176.362 0 0 2.904.271 4.397-.452 1.314-.725 3.22-1.633 2.947-5.984-.725-3.626-2.177-5.8-3.626-9.88-1.722-4.351-1.995-6.525-5.621-9.516-2.174-.998-3.172-2.626-1.539-4.261 1.268-1.901.817-5.346-1.452-7.701-2.174-2.177-3.805-5.53-4.621-7.252-1.087-1.814-2.266-3.807-3.356-4.986-1.087-1.36-2.718-2.174-5.619-5.619 0 0-1.722-1.541-1.993-3.172-2.447-3.81-9.245-9.156-17.04-9.699l-3.897-.454c-2.72-.998-11.238-1.268-17.04.362l-5.619 1.09c-1.995.633-4.805 1.176-7.885 3.08-2.266 1.179-5.621 3.988-8.158 5.803-2.718 2.718-8.793 6.706-12.146 8.972-6.525 4.805-12.144 11.149-15.41 15.137 0 0-8.247 10.334-12.325 28.189-.273 2.718-.995 5.346-.543 8.337 0 0 3.626-7.882 6.979-10.332 0 0-.454 1.452-.725 3.807 0 0 1.722-3.171 2.447-3.715l3.08-3.536s3.807-4.984 4.894-5.527c-1.406 2.628-1.72 4.351-1.858 7.068.589-.543.952-.952 1.135-1.268 0 0 .36-.725.722-.544.184.452-.089.817-.089.817"/><path d="M146.005 32.819c-.28-.011-.55.012-1.11.1-.15.024-.56.485-.69.48-.65-.024-1.4-.199-1.72.16-.52.575.1.508.75.817.37.171 1.13.581 1.57.574 1.83-.034 3.01-.05 4.44.733.15.084.8.72.84.957-1.37-.027-3.53-.564-5.1-.436 2.65-.213-2.7.073-3.87.027-.34-.014-.35.703.19 1.104.15.101.96-.047 1.07.209.48-.249 1.83-.126 2.23.019.68.249.29.142.89.453.37.194.71.456 1.14.405.55-.065.59-.879 1.14-.615.19.089.61.343.7.343 3.15-.06 3.22.923 4.69.907.38-.005.94-.152 1.2.027.6.411 1.15.454 2.06.092 0 0 2.08 5.621 1.54 15.861-.54 4.351-.81 5.169-1.81 8.703 0 0-1.45 5.621-.91 9.518.55 13.144-3.44 24.019-7.79 31.268-1.64 2-2.54 3.08-.91 4.53 3.44 3.18 6.25 3.9 11.15 4.99 1.72.54 2.81.72 4.44.72 2.54 0 6.53 1.09 8.34 2.45 1.72.91 6.34 2.63 9.15 2.18 2.45.18 3.18.36 4.35.81.82.36 1.64.36 2.54.09l1.41-1.04c.18-.45 1.49-1.04 1.22-2.85-.09-1.36-.64-2.77-.91-4.04-.78-1.12-.72-1.95-.45-3.12.82-1.64 1.77-2.45 2.27-3.27 1.08-1.22.45-2.08-1.05-2.49-.72-.32-2.12-.18-3.57-.32-.77 0-1.41-.32-2.5-.09 0 0-.72.5-1.13.86l-.54-.31s.49-1.46 1.54-2.32c1.04.19 2.56.3 3.35.09.94-.42 2.02-.6 2.81-.9 1.36-.14 1.99-.05 3.63.04 0 0 .81-3.532-2.04-6.204-.68-.638-1.23-1.453-2.23-1.496-3.44.406-5.34-.997-5.88-1.361-.87-.044-1.14.317-1.59.861-1.18 1.995-2.58 2.676-2.58 2.676l-.73-.092s.63-1.089 2.08-2.901c.64-1.451 1.54-3.266 2.36-4.171.5-.86.64-2.809 1.86-3.35.59 0 .68-.138 1.13.133-.91.865-3.44 3.944-.81 5.845 1.08.909 2.72.909 3.12-.042.2-.522.64-.863.86-1.042 1.36-.273 2.5.406 2.95.768 1.09 1.271 1.72 1.86 2.27 2.131.58.454 1.67.365 2.22.365 1.76-.319 2.72-1.315 3.03-1.953.96-1.993.77-3.942-.59-6.297-.81-1.36-1.36-2.901-1.99-4.805-.27-.768-.82-2.354-1.45-3.714-.05-.544-1.18-3.083-1.9-4.079-1.82-2.628-3.31-2.855-4.31-3.945 0 .003-.36-.023-.38-.012-1.06.708-1.06 2.256-1.96 3.432-.1.131-.4.288-.6.192-.29-.143-.41-.392-.74-.858-.3-.442-.53-.124-.85.238-.21 0-.37.168-.53.332-.29.293-.06.449.16.778.23.34.01.34.14.521-.04.138-.08.191-.12.254-.11.184-.41.138-.62.102-.61-.102-.47-.059-1-.313-.66-.314-.98-1.175-1.48-1.445-.16-.087-.68-.182-1.07.076-.29.198-.42.626-.17.854.43.384.76.844 1.22 1.187.61.464 1.28.799 1.37 1.449.1.826-1.11 1.125-1.69.698-.3-.225-.65-.484-.97-.815-.06-.056-.1-.327-.17-.375-.26-.2-.56-.431-.7-.637-.26-.386-.6-.799-1.07-.978-.1-.039-.2-.202-.27-.332-.22-.377.02-.813-.14-1.156-.13-.281-.19-.742-.6-.561-.36.362-.31.362-.73.326-.52-.046-.1-1.025-.1-.894 0 .053-.03-.021.16-.34-.37-.116-.92-.411-.5-.949.36-.455.71.211.84-.057.05-.104.36-.676.48-.748.4-.239.52.081.58.168-.18.498.35.827.85.558.05-.028.02-.41.08-.501.46-.807 1.17-1.228 1.91-1.786.06-.05.27-.105.29-.148.22-.437.47-1.072.01-1.268-.39-.164-1.18-.016-1.02-.697.07-.326.5-.448.73-.557l2.65-1.154c.21-.084.58-.412.86-.433 1.12-.095.86-.067 2.25.179.24.041.71.298.94.385.74.256 1.79.169 2.27-.623.48-.778.35-2.088-.14-3.004-.57-1.104-1.46-2.056-2.22-2.814-.98-.979-2.24-1.476-2.49-2.817-.31-1.635-1.58-3.81-2.3-5.107-.76-1.341-1.42-2.233-2.39-3.475-.21-.285-1.62-1.713-1.86-1.947-1.6-1.558-2.28-2.074-3.99-2.69-.87-.314-4.27-.108-6.04-.335-.55-.07-2.26-.114-2.72-1.02-.42-.829-.95-1.999-1.82-2.553-.32-.2-.82-.411-1.15-.58-1.59-.804-3.24-2.144-4.97-2.074-.62.027-.01.704.15.789.77.408 1.13.863 1.55 1.363.45.52 1.42.538 2.25.881.79.329 1.45.836 2.19 1.223.7.367 1.63 1.577.86 2.07-.7.452-1.44-.093-2.37.137-.18.043-.45.172-1.54.172-1.42.193-1.91-.488-3.01-1.268-1.1-.785-1.79-1.995-2.86-2.744-1.31-.918-2.62-1.681-4.11-2.203-.33-.114-.76.067-1.05-.09-.52-.29-.91-.903-1.54-.951l-1.11-.098zm37.26 32.569c-.12-.016-.25-.005-.39.045-.11.038-1 .768-1.02.804-.5.947-1.27 1.062-1.61 1.699-.3.561-.48.697-.64 1.059-.07.157-.14.329.08.445.53.283.76.19 1.87.352 0 0 .97.155 1.86-.615.14-.121.88-.498.86-.797-.1-1.375.11.905-.16-1.17-.06-.44-.04-.84-.21-1.311-.07-.179-.3-.464-.64-.511zm-72.34 44.307c1.45 11.15-.54 20.66-11.604 30.63 20.484-3.8 29.464 1 44.054 8.43 1.18.6-.18-.77-.18-.77-.45-.31-1.52-1.97-1.73-2.35-.5-.89-.88-1.56-1.17-2.27-.46-1.09-1.34-1.85-2.8-3.27-.73-.71-1.87-1.96-2.33-2.88-.72-1.42-1.13-3.96-2.84-5.16-1.33-.92-1.01-1.97-2.16-3.76-.44-.68-1.33-.76-1.99-1.43-1.66-1.67-.61-2.32-2.06-3.85-.64-.68-.92-.81-1.47-1.83-.71-1.32-.17-3.05-1.39-3.65-1.09-.55-1.93-.74-2.68-.99-1.13-.37-2.95-1.31-3.98-2.11-1.08-.84-3.3-2.68-5.67-4.74zm34.17 7.43c0 1.27.18 2.18-.77 3.44.63 1.55 1.18 4.94 1.9 5.76 1.59 1.5 2.86 2.67 3.9 6.25.23.86.95 1.32 1 1.95.06.91.37.75.87 2.01.25.62.97 1.73 1.34 2.04 2.09 1.75 3.54 4.47 3.4 7.27.1 1.37.17 1.28 1.51 2.24.23.16.35.17 1.08.85.27.23 2.22 2.32 2.49 2.54-.04-.81.09-2.2.07-2.63-.12-4.28.7-8.7-.75-12.43-1.08-2.8-3.53-5.95-4.49-8.88l-.48-1.59c-.51-2.28-.55-4.65-.55-4.65l-3.03-1.45-7.49-2.72z" fill="#5b2b2f"/><path d="M189.065 82.936c-.32-.014-.66.036-1.05.164-.4.131-.14.636-.06.651 1.64.292 2.13.299 3.64 1.744.09.089.42.113.57.014.43-.288.18-.819-.11-1.022-1.3-.879-2.04-1.507-2.99-1.551zm-9.86.594c-.48-.074-.55.425-1.66 1.082-.88.515-.8 1.174-1.97 1.438-.75.169-1.61.403-2.21.804-1.35.894-2.56 1.61-3.95 2.272-1.13.534-2.37.767-3.61.738-1.07-.022-2.08-.448-3.17-.523-.15-.01-.01.238-.18.185-.07.527.21 1.012.72 1.176h-.09c.18.93.08 1.908.36 2.787.04.152.23.513.46.526s.33.212.54.253c.13.025.24.229.24.332-.02.496.24 1.048.49 1.055 1.38.039 2.18.88 2.78 1.998.04.092.43.104.54-.08.67-1.13 1.53-1.96 2.44-2.832.17-.164.66-.069.79-.269.32-.479.47-1.014.72-1.534.41-.881.62-1.875 1.23-2.627 1.09-1.335 1.42-2.279 2.88-3.369.14-.101.81-.82.9-.974.45-.764 1.08-1.2 1.56-1.635.22-.203.63-.655.43-.734-.09-.036-.17-.058-.24-.069zm-1.04 15.168c-.52.016-1.02.289-1.26.731-.59 1.126-.74 2.436-.43 3.676.09.33.67.44.88.16.48-.64.33-1.5.64-2.21.3-.67.54-1.308.77-2.013v.092c.06-.143-.16-.217-.09-.362a1.5 1.5 0 0 0-.51-.074zM44.942 65.37c-2.993 4.259-5.167 10.967-6.254 15.77 1.358-.725 1.45-.635 2.72-1.087.452-2.266 4.025-15.384 3.534-14.683zm17.584 147.737c1.846 4.431 2.082 8.702.452 16.949-1.812-1.723-1.904-3.264-3.264-4.08-.179 4.713-.36 6.165-1.266 8.25-1.906 3.715-2.449 5.619-2.539 9.242-3.174-2.628-3.991-6.252-6.165-8.337-1.541-1.543-4.621-4.442-5.708-6.346-.181 2.268 0 3.085-.906 5.259-.73-2.512-.817-3.264-2.539-5.348-2.268-3.172-7.341-10.243-8.52-17.762l-1.812-10.062c-.635 1.72-1.722 3.08-2.812 3.351-.544.273-.544-.452-.544-.452.452-1.63.635-3.445.452-4.805-.271-1.993-.814-6.436-1.812-7.523h-.452c.089 2.991-1.087 4.351-1.814 5.348-.089-2.357 0-4.172-.544-5.348-.271-.816-.906-1.541-1.087-.725-.452 2.357-.635 2.81-.635 4.986-.181 3.261-.181 4.351-.544 7.071a13.39 13.39 0 0 1-2.628 6.887c-.36-2.174-1.722-3.897-1.722-3.897 0 2.628.546 6.525-1.087 8.61-1.993 2.718-2.266 4.078-2.899 6.073-.275-2.358-.998-1.633-1.362-2.901-1.447 6.165-5.979 10.878-7.612 11.965 1.087-2.539 1.993-5.44 2.174-7.252 0 0-.271-6.706-1.268-10.516-2.483-11.859-3.682-39.257-1.812-49.667C6.752 124.99 25.914 90.945 42.157 60.292h-2.02v-7.162h2.177l2.945-6.614 1.95 1.495 4.032-12.281 1.768 9.018 7.704-6.03-6.254 14.234h2.147l-1.012 2.247-13.19.019v2.908h12.018l-.773 2.167h-4.295l3.515 2.271-.66 2.126-1.568-1.02c-.645 2.894-2.718 12.809-2.254 18.648 5.529 5.348 9.607 10.515 8.972 22.119 0 0 .362.268-1.995-.457 1.179 1.271 1.544 2.269 2.539 4.442.452 3.534.725 6.706.452 9.97l.546 10.605c1.087.362.454 3.261.544 7.068 0 0-.089 2.358-.454 4.172-2.264-1.814-2.082-1.722-2.718-1.543.543 1.814.906 1.814 1.993 3.266 0 10.786.362 21.932 1.09 26.826.36 3.534.995 7.614 1.268 8.882.544 1.633.544 3.083 2.174 6.527-.544 0-2.061.041-3.083-1.268 1.452 2.718 1.452 2.174 2.358 3.08l1.268 9.429-1.45 1.628 1.993 1.271s-.452 4.259.092 8.158c.273 1.814.814 3.626 2.085 6.163-2.628.092-3.083-2.085-3.083-2.085-.725-.816-1.995-2.628-2.355-2.628-.181 2.628 1.268 3.624 1.904 5.167"/><path d="M146.195 32.645c-.43.031-.88.144-1.31.211-.17.027-.42.253-.61.412-.33.278-.86-.229-1.3-.084-.37.126-.79.565-.43.93.39.391.91.658 1.43.791 1.57.394 3.2.009 4.68.658.42.186.94.401 1.11.942-.15.034-.31.169-.44.072-.36-.258-.76-.257-1.11-.283-2.48-.203-4.95-.406-7.42-.063-.01.631.25 1.298.82 1.377.77.102 1.6-.137 2.34-.084.81.063 1.66.585 2.47 1.041.11.068.3.057.43.004.36-.154.68-.675 1.08-.484.24.116.5.224.77.267.56.099.97-.005 1.51.075 1.14.171 2.11.938 3.25.771.85-.125 1.24.161 1.66.543-.24-.215 1.56 1.072 1.72.756.06-.126 1.89-.226 1.91-.504l-2.69-1.543c-.16-.266-.37-.583-.63-.822-.6-.553-.92-1.211-1.61-1.651-.93-.587-1.69-1.354-2.7-1.726-.11-.039-.24.003-.36-.024-.07-.019-.12-.082-.09-.17-.1 0-.22.031-.26-.017-.14-.155-.36-.246-.49-.287-.52-.172-1.13.136-1.59-.27-.27-.239-.58-.372-.87-.558-.4-.26-.83-.311-1.27-.28zm10.55.7c-.5.043-.71.579-.42.857.54.534 1.51.711 1.59 1.576 2.13 1.058 5.85 1.767 5.68 4.086-.02.225 1.36-.476 1.72-.426-.72-.466-.81-1.369-1.2-2.043-.3-.519-.7-.931-1.17-1.175-2.13-1.104-4.62-3.025-6.2-2.875zm-17.7 3.679c-.27-.005-.58.191-.89.239-.57.089-1.16-.032-1.72-.215-.97 1.118-3.57.378-4.79.463-.15.007.77.531.93.673.86.732 2.27.667 3.32.704.17.005.52-.173.65-.19 1.13-.154 2.25.226 3.43.434.37.067 1.54-.321 1.17-.717-.28-.3-1.25-.146-1.43-.559-.12-.277-.25-.608-.42-.746a.41.41 0 0 0-.25-.086zm-23.25.647c-.43.008-.94.107-1.51.328 0 0-1.82-.184-6.08 3.08-4.71 2.901-10.965 7.072-15.497 12.602-3.309 3.307-7.977 8.338-9.699 11.873 0 0-2.809 4.439-4.623 11.691 0 0 .635 2.355 2.449-.725 3.17-5.387 15.226-23.52 32.45-36.755l.81-.043c-8.52 7.336-19.576 17.219-30.317 34.033-.398.628-.92 1.737-.968 1.824-.304.567.053.809.216.889.907.134 1.274-1.135 1.881-1.397.389-.167.546.995 1.166.695 2.191-1.06 3.825-3.325 4.731-4.683.046.386.543 1.541.543 1.541.997.27 4.078-3.992 5.711-6.891.451.544-.114 1.873.49 1.303 1.865-1.759 3.527-3.645 4.517-5.365 1.16-2.01 2.42-2.915 2.88-6.449.72.451.71.648.91.812.45-.543.48-1.11 1.2-1.924.79-.884.95-1.572 1.9-2.203.34-.222 1.09-1.639 1.24-2.381.15-.703 1.71-2.98 1.82-3.734 1.27-2.355 3.44-3.626 4.98-5.438 1.18-1.03.68-2.718-1.2-2.683zM83.026 76.468c-.03-.005-.056.002-.087-.006.229.056.183.052.087.006zM50.698 43.573l-1.679 5.981 2.855 2.449-1.176-8.43zm64.727.363c-.12.02-.24.133-.24.133s-2.36.546-5.89 10.516l-14.411 48.58c1.447-7.521 9.151-34.078 11.421-43.686 0 0-.32-.678-.82.09-.59.681-1.18 1.542-1.49 2.131.04-.039-.27.045-.64.227l-1.13 1.722s-2.267 3.172-8.476 9.608c-1.041 1.63-1.491 2.384-2.629 4.986-.408.949.228 1.087.906.541 1.677-1.628 1.769-1.628 4.079-3.396.103-.08 1.968-.75 1.968-.782-.29.372-.679.619-.834.764-.635.604-2.204 2.375-2.634 3.121l-3.719 6.83c-1.896 3.433-3.346 7.424-3.346 7.424-.998 2.809-.724 3.08-.724 3.08 1.36.546.619 1.234.619 1.234-.619 1.124-.892 2.029.152 1.624.679-.138 1.042-.489 1.322-.836l1.354-1.571c.611-.758.498-.986 1.148-1.74.846-.976 1.386-1.791 2.248-2.199-1.495 2.039-1.586 3.488-1.586 3.488l.362.455.273.18s-1.541 1.904-2.265 6.215c-.346 2.05-.273 2.3-.592 3.44.154-.15 1.043 0 1.845-.81-.347 1.26-.418 1.9-.418 1.9-.157 1.04-.158.86-.158 2.04 0 1.09.001.63.364 1.9 1.63-.73 1.992-.64 3.529-2.44.732-.69 1.285-2.35 1.5-2.23.408.18.068 1.1-.113 1.51-.247.57-.469 1-.563 1.41-.048.21-.255.52.076.8.145.12.044.11.51.09.271 0 .523-.42.523-.42s.156-.04.293-.35c.114-.27.317-.41.498-.55 0 0 .271-.27.59-.18.636.73 1.178-.23 1.178-.23 1.04-1.58 1.27-1.99 2-4.12.45-1.4.99-1.9 1.44-7.794 1.27 1.904 1.45 5.534 1.45 5.534l.37-.1s1.18-3.35 3.17-4.437c0 0 .18-2.266 2.17-4.532-.27-1.36-.45-2.446-.72-4.623-.82-3.626-1.27-9.7-.45-13.867 1.63 8.699 2.58 9.971 2.58 9.971l.36.135c.68-1.042.86-2.856 1.04-4.487.82-3.445 2.27-3.079 2.27-3.806-.45-2.81-1.18-7.25-.72-11.057.9 4.167 1.35 3.896 1.99 5.437.82 1.904.91-.455.91-.455-.19-2.444 1.54-4.893-.09-10.601-.64-3.899-2.45-12.239-1.73-14.143.29-1.473.08-1.706-.12-1.674zm-59.154.723l-2.809 2.447.455 2.131 2.354-4.578zm-10.153 5.213l-1.265 3.129h4.89l-3.625-3.129zm3.235 10.424l3.515 2.271.78-2.271h-4.295zm-5.227.09C41.86 63.468 26.268 92.837 24.73 98.183c-11.965 24.002-19.67 47.932-21.141 71.562.092.81.1.31.496.99.36.62.159 1.43.43 2.13.241-.3.685-.44.726-.91.343 1.42-.68 2.76-.18 4.17.551-.5 1.373-.6 1.811-1.26-.044.56-.194 1.1-.273 1.64-.14.95.239 1.9.348 2.88.14 1.25 1.684 2.18 1.244 3.4-.715 1.99-1.099 4.11-.451 5.99.135.39.334 1.05.791 1.26.353.16.872.17 1.215 0 .181-.09.338-.4.381-.67.133-.88-.257-1.69-.1-2.53.201-1.08.39-2.17 1.081-3.04.137-.18.667-.12.791.16.454 1.01.272 2.24.871 3.17.205.32.925.55 1.304.19.846-.79.536-2.02.645-3.04.179-1.7-.618-2.61-.84-4.34-.208-1.63.092-1.87.609-2.53.542 1.52.546 3.17 1.645 4.52.232.28.664.29.846.13.799-.68.632-2.17.054-3.13-.881-1.48-1.596-3.81-.009-5.15-.097.74-.087 1.58.293 2.14.524.76 1.5 2.33 1.642 3.83.048.54.819.75 1.287.33.087-.08-.017-.44.227-.47.763-.1 1.122.8 1.084 1.42.304 0 .704.1.853-.05.732-.75.552-2.54.6-3.57.089-1.91.498-1.17.814-1.35-.169-3.89-.734-7.51-1.089-9.98-.382-1 .001-1.18.544-1.37.128-.1 2.176-2.62 2.176-3.99l-3.806 2.54c-.182-3.89-1.905-10.05-3.809-14.86 1.993 1.81 3.264 3.9 3.896 5.62.728-3.99.999-6.34 1.088-8.25-.995-3.54-2.898-11.24-2.716-16.95 1.178 4.17 2.264 8.7 3.443 11.42.543-1.99.995-5.52 1.723-8.52.995-.72 2.174-1.45 2.537-2.08-.363-.64-1.901.54-2.174.63.181-2.81.632-8.24-1.272-17.13l.274-.27c.816.36 1.811 2 2.176 3.72 1.633-1.91 2.72-11.33 3.171-15.05-1.722 0-2.537 1.9-3.716 1.72.181-1.18.272-.63.726-1.72.452-1.27 1.541-2.536 1.992-4.259.998-1.452.999-3.171 1.088-4.804 0-1.539-.181-3.808 1.09-5.801.271.814.09 1.359.723 3.082 0 0 2.538-5.529 3.898-6.797 1.814-7.887 6.162-16.768 10.242-22.57h-1.902zm3.26 1.271c-7.069 29.366-10.332 46.768-11.057 68.518-.799 22.4 1.296 44.48 6.645 65.2l.724 2.4c.194.25.422.51.75.35.368-.19.453-.63.508-.98.225-1.48.37-2.93 1.061-4.2.055-.1.335-.38.472-.55.5-.62.67-1.39.813-2.22.034-.2.205-.38.357-.52.447-.4.939.18 1.2.55.454.63.23 1.47.636 2.11 1.063 1.68 2.227 3.09 3.563 4.49.338.35.908.77 1.549.6a.72.72 0 0 0 .416-.36c.256-.68-.293-1.26-.592-1.84-.425-.84-1.181-1.85-.696-2.7.131-.23.795.45 1.082.14s.35-.89.219-1.38c-.15-.57-.422-1.09-.666-1.61-.877-1.89-1.894-3.66-2.527-5.66-.085-.27-.198-.58-.133-.9.329.71 1.094 1.19 1.471 1.86.096.17.294.32.4.46.445.61 1.293.87 1.588 1.53.418.92.458 2.82 1.779 2.58.428-.08 1.101-.48.819-1.16-.215-.53-.353-1.1-.737-1.52-.347-.38-.867-.62-1.099-1.05-.401-.76-.7-1.66-.321-2.51.085.72.647 1.14 1.116 1.6.495.49 1.79-.17 2.172.38-.056-.32-.14-.62-.36-.89-3.355-3.98-6.527-8.16-6.344-11.33 2.264 3.27 4.167 5.26 5.979 6.53l.092-.63c-1.268-8.16-1.269-11.79-1.948-19.54-2.041-1.63-6.482-6.52-5.667-10.69 1.495 2.9 3.266 5.12 4.894 6.12l.682.49c-.136-1.4.045-9.69.045-12.19-1.09-1.54-2.449-3.35-3.399-5.16-.862-1.82-1.903-3.58-4.396-6.57-2.085-3.13-5.346-5.9-5.346-5.9s.63.09.949.09c.998.32 2.176.73 3.899 1.95.678.28 1.585 1.55 3.218 3.04 1.087 1.04 1.179 1.81 1.766 2.13.954.91 2.22 2 3.488 2.9h.366c.27 1.09.134-6.75.134-6.75-1.406-2.22-2.401-4.9-3.58-7.93-.181-1.09.635.68 2.174 1.44.454-1.58-.362-9.6-.451-15.13-.454-1.72-6.844-10.604-7.16-12.824 2.174 3.534 5.075 3.988 6.162 5.394.273.22.319.31.633.18-.179-9.154-4.258-13.594-8.065-16.857-.546-8.431 2.264-20.487 2.264-20.487l-1.541-.994zm-6.16 20.752l-1.815.729c-1.27.633-1.812 1.267-3.172 2.99-.543 1.179-1.266 1.719-1.72 3.082-1.633 3.261-1.905 5.801-2.721 8.156l.543-.09c1.725-2.357 4.535-4.44 5.17-5.078l.906-.451c-1.271 3.264-2.992 4.078-4.715 7.068-2.372 4.93-4.626 23.22-5.711 28.28l1.086-.36c.727-.36 1.905-1.63 5.442-2.9 1.811-1.45-5.983 6.7-6.981 9.38l-2.674 23.93.409-.05c.543-.36 4.848-5.57 6.525-6.16l.59-.55c-.909 1.37-3.941 7.26-4.487 9.16-.63 1.89-1.451 3.81-2.173 5.53-.273.54-.547.95-.366 1.63 0 3.72.365 7.25.727 9.06l.453.64c.362-1 2.177-2.81 3.264-3.36l.088.55c-.996 2.35-2.263 4.53-2.717 5.71 0 4.53.543 10.06 1.541 14.5.092.65.905.54 1.267.27l.225-.2c.734-3.12 1.394-6 3.111-8.77.179-.29.474-.43.715-.64.148 1.76-.075 3.55 1.01 5.15.495.73 1.234.56 1.982.56.488 1.68 1.704 2.94 2.141 4.7.077.31.482.57.84.43.647-.25 1.242-.54 1.609-1.17l.084-.12c-5.909-19.49-7.384-45.83-6.459-68.19 1.087-16.5 2.362-28.571 5.983-43.416zm96.879 28.876c-1.05-.02-1.6.29-2.38.49-3.59.92-7.12 3.63-9.09 6.23-.57.76-.38 1.55-.26 1.72.36.5.93 1.86 1.09 1.7 1.45-1.58 3.22-3.03 5.12-2.58-.81.28-3.67 1.72-4.57 3.82-.06.13.36.9.9 1.3.73 1.23 1 1.72 1.41 1.95.26-.02.79-.55.93-.78 2.01-2.66 4.01-4.29 9.54-5.02 1.58-.27 2.49-.72 2.62-2.17 0 0 .32-.73-.32-2.18v.1c-.24-.91-1.71-.83-2.75-.72-1.59.17-3.04.44-4.59 1.26 1.03-1.54 2.27-1.64 4.65-2.54.54-.21.41-1.17.06-1.72-.4-.64-.91-.67-1.12-.71-.49-.1-.89-.14-1.24-.15zm-1.62 13c.09 1.36-.11 1.97.28 2.86.37.84 1.14 1.57 1.43 2.43.22.66 1.01 1.51 1.01 1.96.36.37.41.69.41.69.48.62 1.91 1.39 1.41 1.76-.6.45-2.36.14-3.43-.04-1.36-.23-.57 1.02-.28 1.14 1.39.57 4.31.77 5.26 1.3.58.32 1.33.8 1.58 1.37.18.42.51.79.79 1.16.92 1.23 1.25 1.77 2.2 2.55.47.39 1.03 1.05.85 1.65-.2.69-.63.84-1.3.75-.22-.03-.88-.23-1.51-.5-1.27-.41-1.54-.87-2.44-.41-.5.26.22 1.09.78 1.39 2.28 1.22 5.01 1.24 7.22 2.52 1.9 1.1 3.05 2.44 2.94 5.26 0 .05.68.43.72.37.66-1.02 2.29.24 3.08-.01.07-.02.11-.44-.01-.62-.38-.57-1.19-.6-1.53-1.15-.37-.58.16-1.22-.02-1.72-.19-.52-1.07.38-1.4.04-1.45-1.51-2.4-3.31-4.35-4.17.81-2.27 1.18-4.81.99-5.99-.54-.45-.77.27-.9.37-.45.42-.28 1.35-.8 2.07-.09.11-.78-.03-.99-.2-1.33-1.14-2.57-2.49-3.2-4.11-.02-.06-.29-.39-.35-.47-.98-1.37-.92-3.29.22-4.67.12-.15.3-1 .18-1.09-.19-.15-.65.17-.83.35-.62.64-1.15 1.9-2.2 1.79-1.18-.12-1.63-1.32-2.36-2.1-.23-.77-.66-1.27-.55-1.36-1-1.45-1.09-2.63-2-4.44a1.36 1.36 0 0 0-.9-.73z" fill="#fff"/><path d="M9.073 158.355c-.983.02-.713 1.27-.658 2.19l-.094-.09c-.471.49-.71.81-1.019 1.39-.391.73.136 1.53.568 2.07.715.89 1.96.38 2.569-.51.236-.35.625-.75.398-1.22-.403-.83-.622-1.6-.648-2.55-.01-.34-.121-1.08-.614-1.21-.196-.05-.361-.07-.502-.07zm6.17 5.64c-.216-.04-.504.35-.502.54.01.59.398 1.19.391 1.83-.01.98-.464 1.24-.174 2.51.061.26.476.1.254.37.546 0 1.108.1 1.615-.05.251-.08.434-.48.475-.69.152-.77.519-1.73-.16-2.26-.604-.48-.495-1.25-.918-1.63-.194-.17-.612-.28-.895-.57-.027-.03-.055-.04-.086-.05zm-7.949 1.75c-.211-.02-.466.19-.635.45-.643 1-.963 1.96-1.055 3.41.181.82 1.35.97 1.92.61 1.3-.82.367-3.94.305-3.51.041-.27-.23-.69-.23-.63-.068-.22-.178-.32-.305-.33zm3.918 2.39a1.07 1.07 0 0 0-.699.22c-.967.7-1.354 1.8-.528 2.98.45.65.403 1.81 1.106 2.16.983.5 2.376-.58 2.035-1.69-.336-1.08-.758-1.99-1.101-3.07-.106-.33-.434-.57-.813-.6zm32.742.92a2.82 2.82 0 0 0-.5.08c-.215.06-.519.02-.601.17-.293.56.252.98.453 1.54.121.34.237.43.445.68.232.29.214 1.18.393 1.49.128.24.305.85.588.97.753.33.968.06 1.478-.24.44-.27.668-.89.463-1.45-.193-.52-.255-1.07-.545-1.53-.28-.45-.508-.88-.842-1.24-.319-.34-.824-.49-1.332-.47zm-40.508.5l-.289 11.11c0 11.87 1.449 20.03 2.9 28.73.635 3.35 1.541 7.89 1.358 10.79l.455-.28c.635-1.17 2.358-4.89 2.899-7.97.181-1.18.816 0 .816 0 .271.81.817 1.18.906 1.99 0 .73.362.64.545.09.996-1.99 1.269-3.17.907-5.25-.365-1.73-.635-8.89.181-11.51 0-.73.635 0 .635 0 .452 1.08 1.177 3.08 2.81 4.71 0 0 .68.45.723 0-.179-1.9-.36-14.32 2.539-15.68 1.087.27 1.181 1 1.992 1.81.909-1 1.271-5.26 1-8.52.182-2.63.043-3.54.043-3.54-.316.18-.768-.54-.857 1.37-.048 1.03.132 2.82-.6 3.57-.149.15-.549.05-.853.05.038-.62-.321-1.52-1.084-1.42-.244.03-.14.39-.227.47-.468.42-1.239.21-1.287-.33-.142-1.5-1.118-3.07-1.642-3.83-.38-.56-.39-1.4-.293-2.14-1.587 1.34-.872 3.67.009 5.15.578.96.745 2.45-.054 3.13-.182.16-.614.15-.846-.13-1.099-1.35-1.103-3-1.645-4.52-.517.66-.817.9-.609 2.53.222 1.73 1.019 2.64.84 4.34-.109 1.02.201 2.25-.645 3.04-.379.36-1.099.13-1.304-.19-.599-.93-.417-2.16-.871-3.17-.124-.28-.654-.34-.791-.16-.691.87-.88 1.96-1.081 3.04-.157.84.233 1.65.1 2.53-.043.27-.2.58-.381.67-.343.17-.862.16-1.215 0-.457-.21-.656-.87-.791-1.26-.647-1.88-.264-4 .451-5.99.44-1.22-1.104-2.15-1.244-3.4-.109-.98-.488-1.93-.348-2.88.08-.54.23-1.08.273-1.64-.437.66-1.26.76-1.811 1.26-.5-1.41.523-2.75.18-4.17-.041.47-.485.61-.726.91-.271-.7-.07-1.51-.43-2.13-.396-.68-.385-.18-.477-.99l-.162-.19zm15.168 2.54a.55.55 0 0 0-.275.11c-.343.26-.334.79-.027 1.19.478.63.335 1.37.683 2.02.22.41.656.42.973.66.406.3.979-.01 1.129-.35.522-1.19-.071-2.23-1.049-3-.092-.07-.426-.29-.518-.36-.244-.21-.612-.33-.916-.27zm23.467 1.59c-.111 0-.43.02-.418.22.075 1.1-1.2 1.62-1.582 2.49-.394.89.404 1.74 1.061 2.35.524.49 1.359.15 2.002-.04 1.051-.32 1.185-1.8.941-2.78-.188-.76-.666-1.43-1.269-2.02-.213-.21-.508-.2-.735-.22zm-9.498 1.28c-.236-.02-.484.16-.508.4-.094.94-.111 2.7 1.305 2.41.5-.1.831-.61.713-1.14-.167-.75-.725-1.17-1.285-1.6-.068-.05-.146-.07-.225-.07zm-21.99.66c-.187.05-.244.27-.391.4-.403.35-.408 1.09-.763 1.57-.662.89-.466 2.15-.205 3.01.179.59 1.052 1.44 1.798 1.37 1.167-.1 2.041-2.28 1.145-2.81-1.167-.68-.756-2.43-1.186-3.37-.031-.07-.311-.03-.492-.03l.332-.13c-.099-.03-.176-.03-.238-.01zm38.199 1.64c.067 0 .129.02.193.02.058 0 .116-.02.17-.02h-.363zm.193.02c-.211.03-.426.07-.501.19-.508.79.04 1.72.714 2.06.711.35 1.599-.84 1.075-1.5-.3-.37-.755-.69-1.288-.75zm-13.427.82c-.227-.01-.443.05-.567.15-.521.4-.713 1.24-.529 1.89.201.69.438 1.44.955 1.98.331.34 1.018.74 1.199.49.428-.59.826-1.4.633-2.26-.171-.77-.52-1.45-1.056-2a.9.9 0 0 0-.635-.25zm16.152 4.99c-.065.32.048.63.133.9.633 2 1.65 3.77 2.527 5.66.244.52.516 1.04.666 1.61.131.49.064 1.07-.219 1.38s-.951-.37-1.082-.14c-.485.85.271 1.86.696 2.7.299.58.848 1.16.592 1.84a.72.72 0 0 1-.416.36c-.641.17-1.211-.25-1.549-.6-1.336-1.4-2.5-2.81-3.563-4.49-.406-.64-.182-1.48-.636-2.11-.261-.37-.753-.95-1.2-.55-.152.14-.323.32-.357.52-.143.83-.313 1.6-.813 2.22-.137.17-.417.45-.472.55-.691 1.27-.836 2.72-1.061 4.2-.055.35-.14.79-.508.98-.328.16-.556-.1-.75-.35l.481 1.64.056.19.407 1.46.06.23.307 1.22.031.15c.082.36.145.69.172.93-.128-.24-.26-.54-.402-.87l-.149-.37-.295-.74-.181-.5-.19-.54c-.821-2.09-1.597-4.27-2.293-6.56-.031.04-.062.09-.084.12-.367.63-.962.92-1.609 1.17-.358.14-.763-.12-.84-.43-.437-1.76-1.653-3.02-2.141-4.7-.748 0-1.485.17-1.98-.56-1.085-1.6-.862-3.39-1.01-5.15-.241.21-.538.35-.717.64-1.717 2.77-2.377 5.65-3.111 8.77-.15.64-.235.87-.434 1.46-.408 1.22.226 1.41.862.59 1.113-1.43.884-.25.998.09.27 2.09 1.358 4.17 1.812 7.7.363 3.45 1.087 6.89 1.45 8.62.961 5.65 4.715 11.41 6.978 12.85-.27-2.36.547-3.24.363-5.06l.454-.09c.089 3.18 2.447 7.25 5.167 9.52 2.175 2.54 3.353 3.08 5.184 5.71.544.91.978 1.32 1.432 2.05.995-2.05 2.81-5.68 2.81-9.67 0-3.05-.09-6.52-.906-9.24 1.631.73 3.445 3.35 4.803 5.62.816-1.72.364-6.53-.907-8.88-1.268-2.9-3.353-6.89-1.904-12.78.906 2.08 1.542 1.99 2.994 2.35.271-2.17-.094-5.25 0-5.62-.546-.99-1.814-2.17-1.814-2.17l1.359-2.63c.636-2.63-.635-4.71-.5-5.12-.679-1.5-1.149-2.78-1.429-3.77-.235-.83-1.722.01-2.256-.52-.469-.46-1.031-.88-1.116-1.6-.379.85-.08 1.75.321 2.51.232.43.752.67 1.099 1.05.384.42.522.99.737 1.52.282.68-.391 1.08-.819 1.16-1.321.24-1.361-1.66-1.779-2.58-.295-.66-1.143-.92-1.588-1.53-.106-.14-.302-.29-.398-.46-.377-.67-1.144-1.15-1.473-1.86zm-8.373.34c-.378.05-.733.25-.871.63-.203.56.208 1.4.467 1.54h-.002c-.061 0 .121.27.06.27.302.7.018 1.23.407 1.88.314.52 1.101.61 1.541.24 1.07-.9.839-2.57.013-3.63-.321-.42-.687-.82-1.238-.91-.123-.03-.251-.03-.377-.02zm5.127.24c-.261-.01-.519.06-.73.24-.443.38-.44.94-.551 1.51-.061.33.143.61.281.89.601 1.22 2.047 1.26 3.18 1.94.147.09.443-.22.554-.41.343-.61-.224-1.26-.734-1.66-.739-.58-.432-1.74-1.246-2.26-.227-.15-.493-.24-.754-.25zm-10.707 1.08c-.262.01-.525.12-.723.25-.135.09-.265.32-.267.51-.008 1.17-.399 2.39.031 3.51.256.67.859 1.49 1.637 1.14.55-.24.897-.92.709-1.56-.343-1.2.164-2.55-.672-3.56-.193-.23-.454-.31-.715-.29z" fill="#ffb612"/></svg>