<svg width="56" height="56" viewBox="0 0 240 240" xmlns="http://www.w3.org/2000/svg"><defs><linearGradient x1="0%" y1="0%" x2="74.516%" y2="74.516%" id="a"><stop stop-color="#96F" offset="0%"/><stop stop-color="#3F35F2" offset="100%"/></linearGradient></defs><g fill="none"><path d="M51.4285714,0 L188.571429,0 C216.974644,0 240,23.0253557 240,51.4285714 L240,188.571429 C240,216.974644 216.974644,240 188.571429,240 L51.4285714,240 C23.0253557,240 0,216.974644 0,188.571429 L0,51.4285714 C0,23.0253557 23.0253557,0 51.4285714,0 Z" fill="url(#a)"/><g transform="translate(37.5 37.5)"><path d="M165,82.5 C165,128.063492 128.063492,165 82.5,165 C36.9365081,165 0,128.063492 0,82.5 C0,36.9365081 36.9365081,0 82.5,0 C85.6701651,0 88.7985675,0.178807445 91.875672,0.526887191 L91.8755758,41.0375665 C88.8592334,40.3584232 85.7214738,40 82.5,40 C59.0278981,40 40,59.0278981 40,82.5 C40,105.972102 59.0278981,125 82.5,125 C105.737381,125 124.618998,106.350757 124.994306,83.2028152 L125,82.5 L165,82.5 Z" fill="#FFF"/><circle fill="#1ED760" cx="140" cy="25" r="25"/></g></g></svg>
