<svg xmlns="http://www.w3.org/2000/svg" viewBox="0 0 504.837 504.543">
  <defs>
    <style>
      .cls-1, .cls-5 {
        fill: #fff;
      }

      .cls-1 {
        opacity: 0.998;
      }

      .cls-2 {
        fill: #f6871b;
      }

      .cls-2, .cls-3 {
        stroke: #707070;
        stroke-linejoin: round;
        stroke-width: 0.028px;
      }

      .cls-3 {
        fill: #2e9bb7;
      }

      .cls-4, .cls-5 {
        stroke: none;
      }
    </style>
  </defs>
  <g id="Group_2" data-name="Group 2" transform="translate(-239.064 -287.941)">
    <g id="Path_3" data-name="Path 3" class="cls-1" transform="translate(-692 -176)">
      <path class="cls-4" d="M 1347.25341796875 967.9839477539062 C 1340.573852539062 967.9839477539062 1333.625 967.4061279296875 1326.599731445312 966.2665405273438 C 1320.981323242188 965.355224609375 1315.301391601562 964.08447265625 1309.7177734375 962.48974609375 C 1300.2060546875 959.7730712890625 1294.182006835938 957.0155639648438 1294.122192382812 956.988037109375 L 1294.10546875 956.9802856445312 L 1294.08935546875 956.9713745117188 L 1179.418823242188 893.4588623046875 L 1066.760131835938 956.969482421875 L 1066.7060546875 957 L 1066.646118164062 957.016357421875 C 1066.615600585938 957.024658203125 1063.528442382812 957.859619140625 1058.334106445312 958.6810913085938 C 1053.546875 959.4381103515625 1045.928344726562 960.340576171875 1036.819702148438 960.3408203125 C 1028.466064453125 960.341064453125 1020.230712890625 959.5938110351562 1012.34228515625 958.119873046875 C 1002.732238769531 956.32421875 993.5503540039062 953.4292602539062 985.0516357421875 949.5155029296875 C 975.7748413085938 945.243408203125 967.18994140625 938.9894409179688 959.5355224609375 930.9273071289062 C 953.4185791015625 924.4846801757812 947.87890625 916.87939453125 943.0703735351562 908.3228759765625 C 938.7943725585938 900.7138671875 935.8994140625 893.7440185546875 934.223876953125 889.23681640625 C 932.4063110351562 884.3477172851562 931.588134765625 881.2101440429688 931.580078125 881.1790771484375 L 931.5641479492188 881.1174926757812 L 931.5641479492188 881.0538330078125 L 931.5641479492188 560.3912353515625 L 931.5641479492188 560.3856811523438 L 931.5642700195312 560.380126953125 C 931.5651245117188 560.3442993164062 931.6522827148438 556.7261352539062 932.3983154296875 551.0079956054688 C 933.0861206054688 545.7359008789062 934.4913940429688 537.538818359375 937.2798461914062 528.4279174804688 C 940.4159545898438 518.1812133789062 944.6268310546875 508.889892578125 949.7954711914062 500.8118286132812 C 956.263916015625 490.7026062011719 964.2582397460938 482.4765014648438 973.5565795898438 476.3620300292969 C 985.5853271484375 468.4520263671875 999.8192138671875 464.4412841796875 1015.863037109375 464.4412841796875 C 1022.157409667969 464.4412841796875 1028.748657226562 465.06640625 1035.45361328125 466.2992858886719 C 1040.814819335938 467.2850952148438 1046.2607421875 468.6594848632812 1051.640014648438 470.3844299316406 C 1060.802734375 473.3224182128906 1066.68359375 476.3046264648438 1066.741943359375 476.3344116210938 L 1066.761962890625 476.3446350097656 L 1066.780883789062 476.3565673828125 L 1179.419067382812 547.2281494140625 L 1294.068603515625 476.3544921875 L 1294.10107421875 476.3344116210938 L 1294.13623046875 476.3194885253906 C 1294.19775390625 476.2934265136719 1300.393676757812 473.6816101074219 1310.07421875 471.1080322265625 C 1315.75732421875 469.59716796875 1321.515991210938 468.3932189941406 1327.190307617188 467.5298156738281 C 1334.285522460938 466.4501647949219 1341.268798828125 465.9026794433594 1347.94580078125 465.9026794433594 C 1364.962890625 465.9026794433594 1380.12158203125 469.4140930175781 1393.0009765625 476.33935546875 C 1402.978149414062 481.7041015625 1411.414672851562 489.4681396484375 1418.076416015625 499.4158935546875 C 1423.398193359375 507.3628845214844 1427.604370117188 516.71240234375 1430.578002929688 527.2047729492188 C 1432.036987304688 532.352783203125 1433.96923828125 540.5842895507812 1434.889282226562 550.5643920898438 C 1435.429077148438 556.42041015625 1435.366577148438 560.2125244140625 1435.363037109375 560.3955688476562 L 1435.363037109375 881.0401611328125 C 1435.37744140625 881.30810546875 1435.529052734375 884.4199829101562 1435.108642578125 889.4248046875 C 1434.711791992188 894.1497802734375 1433.704345703125 901.5032958984375 1431.15869140625 909.7030639648438 C 1428.2958984375 918.9243774414062 1424.111206054688 927.3152465820312 1418.720947265625 934.642578125 C 1411.980834960938 943.8046264648438 1403.328491210938 951.3175048828125 1393.00439453125 956.9724731445312 C 1379.664672851562 964.2791748046875 1364.271850585938 967.9839477539062 1347.25341796875 967.9839477539062 Z"/>
      <path class="cls-5" d="M 1015.863037109375 464.9412841796875 C 1002.1328125 464.941650390625 987.33251953125 467.9014282226562 973.831298828125 476.7797241210938 C 933.3251953125 503.4161987304688 932.064208984375 560.3912353515625 932.064208984375 560.3912353515625 L 932.064208984375 881.0538330078125 C 932.064208984375 881.0538330078125 944.84423828125 930.4488525390625 985.2607421875 949.0613403320312 C 1003.658325195312 957.5337524414062 1022.13916015625 959.8408203125 1036.819702148438 959.8408203125 C 1054.389892578125 959.8408203125 1066.5146484375 956.533935546875 1066.5146484375 956.533935546875 L 1179.416748046875 892.8861083984375 L 1294.33154296875 956.533935546875 C 1294.33154296875 956.533935546875 1318.0869140625 967.48388671875 1347.25341796875 967.48388671875 C 1361.835205078125 967.48388671875 1377.771728515625 964.7459106445312 1392.76416015625 956.533935546875 C 1437.744384765625 931.896484375 1434.863037109375 881.0538330078125 1434.863037109375 881.0538330078125 L 1434.863037109375 560.3912353515625 C 1434.863037109375 560.3912353515625 1436.1865234375 500.1279907226562 1392.76416015625 476.7797241210938 C 1378.288330078125 468.9960327148438 1362.52978515625 466.4027099609375 1347.94580078125 466.4027099609375 C 1318.782836914062 466.4027099609375 1294.33154296875 476.7797241210938 1294.33154296875 476.7797241210938 L 1179.416748046875 547.8173828125 L 1066.5146484375 476.7797241210938 C 1066.5146484375 476.7797241210938 1043.325805664062 464.9405517578125 1015.863037109375 464.9412841796875 M 1015.863037109375 463.9412841796875 C 1022.187622070312 463.9411010742188 1028.809326171875 464.5689086914062 1035.544067382812 465.8072509765625 C 1040.92626953125 466.7968139648438 1046.39306640625 468.1765747070312 1051.792724609375 469.9080200195312 C 1060.994140625 472.8585815429688 1066.729736328125 475.7667846679688 1066.969360351562 475.8890991210938 L 1067.00927734375 475.9094848632812 L 1067.047119140625 475.933349609375 L 1179.42138671875 546.6388549804688 L 1293.805786132812 475.9291381835938 L 1293.87060546875 475.8890380859375 L 1293.94091796875 475.8591918945312 C 1294.002685546875 475.8330078125 1300.231323242188 473.2073974609375 1309.945678710938 470.6248168945312 C 1315.646240234375 469.1091918945312 1321.4228515625 467.901611328125 1327.114990234375 467.0354614257812 C 1334.235107421875 465.9520263671875 1341.24365234375 465.4027099609375 1347.94580078125 465.4027099609375 C 1365.04638671875 465.4027099609375 1380.284790039062 468.9341430664062 1393.23779296875 475.8990478515625 C 1403.287475585938 481.302734375 1411.7841796875 489.1213989257812 1418.491821289062 499.1376953125 C 1423.842895507812 507.1282958984375 1428.071166992188 516.5255737304688 1431.05908203125 527.0684204101562 C 1432.523803710938 532.2366943359375 1434.463623046875 540.5004272460938 1435.387084960938 550.5184936523438 C 1435.929931640625 556.4075317382812 1435.868774414062 560.1153564453125 1435.863037109375 560.4005126953125 L 1435.863037109375 881.02685546875 C 1435.881591796875 881.3825073242188 1436.0234375 884.5073852539062 1435.60693359375 889.4666137695312 C 1435.2080078125 894.2163696289062 1434.1953125 901.6084594726562 1431.63623046875 909.8513793945312 C 1428.7568359375 919.1259155273438 1424.547119140625 927.5665283203125 1419.123657226562 934.9388427734375 C 1412.340087890625 944.1600341796875 1403.633056640625 951.7207641601562 1393.24462890625 957.4110107421875 C 1379.830322265625 964.7584228515625 1364.356689453125 968.48388671875 1347.25341796875 968.48388671875 C 1340.547119140625 968.48388671875 1333.571411132812 967.9039306640625 1326.519653320312 966.7601318359375 C 1320.882080078125 965.8455810546875 1315.182861328125 964.570556640625 1309.580444335938 962.970458984375 C 1300.031494140625 960.2432250976562 1294.158325195312 957.55517578125 1293.912963867188 957.4420776367188 L 1293.87939453125 957.4266357421875 L 1293.847045898438 957.4087524414062 L 1179.421020507812 894.0316162109375 L 1067.005737304688 957.4050903320312 L 1066.897583007812 957.466064453125 L 1066.777709960938 957.4986572265625 C 1066.65185546875 957.5330810546875 1063.633666992188 958.349365234375 1058.412109375 959.175048828125 C 1053.607299804688 959.93505859375 1045.960815429688 960.8408203125 1036.819702148438 960.8408203125 C 1028.434814453125 960.8408203125 1020.168579101562 960.0906982421875 1012.25048828125 958.6112060546875 C 1002.599853515625 956.8079833984375 993.37841796875 953.900634765625 984.842529296875 949.9697265625 C 975.5078125 945.6708984375 966.871337890625 939.3799438476562 959.1728515625 931.2715454101562 C 953.027587890625 924.7990112304688 947.4632568359375 917.1603393554688 942.634521484375 908.5678100585938 C 938.3426513671875 900.9306640625 935.43701171875 893.9349365234375 933.7552490234375 889.4110717773438 C 931.9287109375 884.4977416992188 931.1292724609375 881.4324340820312 931.0960693359375 881.3042602539062 L 931.064208984375 881.1810913085938 L 931.064208984375 881.0538330078125 L 931.064208984375 560.3912353515625 L 931.064208984375 560.380126953125 L 931.064453125 560.3690795898438 C 931.0677490234375 560.2214965820312 931.153076171875 556.6882934570312 931.902587890625 550.943359375 C 932.5927734375 545.6522216796875 934.0030517578125 537.425537109375 936.8017578125 528.281494140625 C 939.951171875 517.9913940429688 944.18115234375 508.6586303710938 949.3743896484375 500.5423583984375 C 955.8807373046875 490.37353515625 963.9244384765625 482.0975341796875 973.2818603515625 475.9442138671875 C 985.3929443359375 467.9800415039062 999.71923828125 463.9417114257812 1015.863037109375 463.9412841796875 Z"/>
    </g>
    <g id="g12" transform="translate(291 340)">
      <path id="path14" class="cls-2" d="M6.923,71.243H38.184V-9.618H6.923V71.243Z" transform="translate(177.438 169.171)"/>
      <path id="path16" class="cls-3" d="M277.521,104.22v97.543c0,28.216-8.252,32.713-42.7,51.719L65.466,349.624c-7.287,4.032-13.5,6.127-18.551,6.127-.3,0-.633-.051-.928-.051-10.224-.578-15.169-7.991-15.135-22.756V33.9c0-7.922,1.751-13.312,5.51-16.943a16.19,16.19,0,0,1,11.559-4.5c5.2,0,11.192,1.974,17.768,5.885l37.437,22.14c18.107,10.765,26.024,15.391,29.37,17.376V24.57c-4.387-2.6-16.132-9.6-50.933-30.414C69.985-12.751,58.738-16,46.248-16,32.64-16,20.6-10.874,12.344-1.519,4.238,7.591,0,19.822,0,33.9V334.045c0,14.8,4.312,27.4,12.453,36.277,8.218,8.9,19.78,13.645,33.479,13.678h.075c11.278,0,23.138-3.4,35.224-10.157l161.237-91.655,8.066-4.468C286.369,258,308.006,246.1,308.044,201.8V104.22H277.521" transform="translate(0 16)"/>
      <path id="path18" class="cls-3" d="M34,263.725V166.22c0-28.248,8.181-32.751,42.678-51.719L246.011,18.375c7.289-4.05,13.536-6.108,18.516-6.108.332,0,.708,0,1.023.032,10.2.546,15.112,7.994,15.112,22.774V334.061c0,7.938-1.745,13.314-5.556,16.978a16.1,16.1,0,0,1-11.49,4.487c-5.224,0-11.247-1.99-17.823-5.9l-37.365-22.142c-18.218-10.73-26.023-15.4-29.408-17.36v33.259c4.387,2.6,16.084,9.629,50.9,30.427C241.551,380.753,252.744,384,265.268,384c13.568,0,25.614-5.164,33.944-14.52,8.032-9.07,12.287-21.268,12.287-35.419V33.938c0-14.813-4.255-27.342-12.511-36.275-8.14-8.917-19.7-13.648-33.439-13.664h0c-11.244,0-23.141,3.418-35.259,10.122L69.013,85.8l-8.026,4.43C25.15,109.963,3.531,121.919,3.453,166.182v97.543H34" transform="translate(88.501 16)"/>
    </g>
  </g>
</svg>
