<?xml version="1.0" encoding="UTF-8"?>
<svg version="1.1" viewBox="0 0 422.94 72.613" xml:space="preserve" xmlns="http://www.w3.org/2000/svg" xmlns:cc="http://creativecommons.org/ns#" xmlns:dc="http://purl.org/dc/elements/1.1/" xmlns:rdf="http://www.w3.org/1999/02/22-rdf-syntax-ns#"><metadata><rdf:RDF><cc:Work rdf:about=""><dc:format>image/svg+xml</dc:format><dc:type rdf:resource="http://purl.org/dc/dcmitype/StillImage"/></cc:Work></rdf:RDF></metadata><defs><clipPath id="a"><path d="m0 580.9v-580.9h3383.5v580.9h-3383.5z"/></clipPath></defs><g transform="matrix(1.25 0 0 -1.25 0 72.612)"><g transform="scale(.1)"><g clip-path="url(#a)"><path d="m251.33 231.76h42.617v117.43h-42.617v-117.43z" fill="#f6871b"/><path d="m378.33 406.31v-141.66c0-40.976-11.25-47.507-58.207-75.109l-230.87-139.62c-9.9336-5.8555-18.398-8.8985-25.289-8.8985-0.4062 0-0.8632 0.0743-1.2656 0.0743-13.938 0.8398-20.68 11.605-20.633 33.047v434.28c0 11.504 2.3867 19.332 7.5117 24.605 4.2539 4.332 9.5742 6.539 15.758 6.539 7.0938 0 15.258-2.867 24.223-8.547l51.035-32.152c24.684-15.633 35.476-22.351 40.039-25.234v48.343c-5.98 3.782-21.992 13.942-69.434 44.168-15.785 10.032-31.117 14.75-48.144 14.75-18.551 0-34.969-7.445-46.219-21.031-11.051-13.23-16.828-30.992-16.828-51.441v-435.88c0-21.488 5.8789-39.785 16.977-52.684 11.203-12.922 26.965-19.816 45.641-19.863h0.1016c15.375 0 31.543 4.9414 48.019 14.75l219.8 133.1 10.996 6.489c48.852 28.633 78.348 45.918 78.399 110.26v141.7h-41.61" fill="#2e9bb7"/><path d="m166.99 174.67v141.6c0 41.023 11.153 47.562 58.18 75.109l230.85 139.6c9.937 5.882 18.453 8.871 25.242 8.871 0.453 0 0.965 0 1.394-0.047 13.91-0.793 20.602-11.61 20.602-33.074v-434.2c0-11.527-2.379-19.336-7.574-24.656-4.215-4.3086-9.532-6.5156-15.664-6.5156-7.122 0-15.332 2.8906-24.297 8.5703l-50.938 32.156c-24.836 15.582-35.476 22.371-40.09 25.211v-48.301c5.981-3.7735 21.926-13.984 69.387-44.188 15.859-10.086 31.117-14.801 48.191-14.801 18.497 0 34.918 7.5 46.274 21.086 10.949 13.172 16.75 30.887 16.75 51.438v435.85c0 21.512-5.801 39.707-17.055 52.68-11.097 12.949-26.859 19.82-45.586 19.843-15.328 0-31.547-4.964-48.066-14.699l-219.86-133.14-10.941-6.433c-48.855-28.66-78.328-46.024-78.434-110.3v-141.66h41.637" fill="#2e9bb7"/><path d="m906.75 275.09h-109.04l54.766 138.28 54.277-138.28zm-30.484 187.46h-48.047l-115.37-287.1-0.387-0.793h47.539l24.883 62.336h135.12l24.684-61.981 0.175-0.355h47.563l-116 287.59-0.152 0.305" fill="#444142"/><path d="m1246.5 390.16c-28.4 0-54-16.875-67.12-33.777-8.87 21.437-29.09 33.777-55.85 33.777-24.58 0-48.71-13.961-62.24-28.199v23.137h-38.59v-210.43h38.59v151.13c10.09 14.515 30.41 29.164 50.02 29.164 22.56 0 34.06-13.027 34.06-38.594v-141.7h38.52v151.56c9.63 13.968 30.46 28.738 50.43 28.738 22.55 0 34.02-13.027 34.02-38.594v-141.7h38.55v150.52c0 42.493-20.86 64.969-60.39 64.969" fill="#444142"/><path d="m1720.8 356.33 0.15 0.102v28.664h-167.37l14.01-34.743h101.69l-107.97-145.66-0.66-0.988v-29.039h161.94v34.359h-111.11l109.32 147.3" fill="#444142"/><path d="m1481.5 222.28c-11-14.414-30.64-22.98-52.56-22.98-27.49 0-46.65 16.754-46.65 40.797 0 24.175 19.16 41.199 46.65 41.199 21.92 0 41.56-8.613 52.56-22.981v-36.035zm-43.74 162.82h-82.94l14.09-34.743h64.67c29.09 0 47.92-15.531 47.92-39.535v-22.55c-16.14 15.097-37.73 22.675-63.96 22.675-35.96 0-74.63-22.019-74.63-70.441 0-46.07 38.42-70.879 74.63-70.879 25.04 0 47.11 8.059 63.96 23.313v-18.27h38.49v138.28c0 45.84-29.95 72.149-82.23 72.149" fill="#444142"/><path d="m1766.7 174.67h38.539v210.43h-38.539v-210.43z" fill="#444142"/><path d="m1785.8 407.22c13.68 0 24.93 10.996 24.93 24.531 0 13.785-11.25 24.965-24.93 24.965-13.33 0-24.58-11.434-24.58-24.965 0-13.535 11-24.531 24.58-24.531" fill="#444142"/><path d="m1965.3 390.16c-28.37 0-54.06-14.949-69.02-29.265v24.203h-38.52v-210.43h38.52v151c10.64 14.191 32.85 29.293 56.76 29.293 29.1 0 42.07-13.457 42.07-43.688v-136.61h38.52v146.29c0 45.937-23.01 69.199-68.33 69.199" fill="#444142"/><path d="m2233.1 237.69c-9.98-15.332-32.75-30.769-57.17-30.769-37.58 0-61.86 29.07-61.86 73.973 0 45.031 24.28 74.07 61.86 74.07 24.6 0 47.35-15.254 57.17-30.379v-86.895zm0 147.41v-24.43c-17.26 19.027-40.19 29.492-64.81 29.492-57.17 0-94.01-42.851-94.01-109.26 0-66.036 36.84-108.79 94.01-108.79 24.39 0 47.89 10.868 64.81 29.801v-17.457c0-52.027-43.27-57.621-61.82-57.621h-64.31l-14.7-34.801h79.01c37.52 0 100.38 11.992 100.38 91.938v201.13h-38.56" fill="#444142"/><path d="m2880.4 174.67h38.617v210.43h-38.617v-210.43z" fill="#444142"/><path d="m2899.5 407.22c13.74 0 24.94 10.996 24.94 24.531 0 13.785-11.2 24.965-24.94 24.965-13.27 0-24.58-11.434-24.58-24.965 0-13.535 11.01-24.531 24.58-24.531" fill="#444142"/><path d="m3079 390.16c-28.32 0-53.98-14.949-68.98-29.265v24.203h-38.57v-210.43h38.57v151c10.65 14.191 32.84 29.293 56.77 29.293 29.03 0 42.05-13.457 42.05-43.688v-136.61h38.52v146.29c0 45.937-22.95 69.199-68.36 69.199" fill="#444142"/><path d="m3345 237.69c-9.87-15.332-32.75-30.769-57.17-30.769-37.59 0-61.77 29.07-61.77 73.973 0 45.031 24.18 74.07 61.77 74.07 24.59 0 47.34-15.254 57.17-30.379v-86.895zm0 147.41v-24.43c-17.18 19.027-40.14 29.492-64.75 29.492-57.15 0-94.11-42.851-94.11-109.26 0-66.036 36.96-108.79 94.11-108.79 24.34 0 47.89 10.868 64.75 29.801v-17.457c0-52.027-43.2-57.621-61.78-57.621h-64.33l-14.57-34.801h78.9c37.45 0 100.33 11.992 100.33 91.938v201.13h-38.55" fill="#444142"/><path d="m2537.8 341.69h-157.3v120.87h-41.97v-287.89h41.97v128.88h157.3v-128.88h41.93v287.89h-41.93v-120.87" fill="#444142"/><path d="m2658.3 407.22c13.73 0 24.93 10.996 24.93 24.531 0 13.785-11.2 24.965-24.93 24.965-13.32 0-24.58-11.434-24.58-24.965 0-13.535 11.01-24.531 24.58-24.531" fill="#444142"/><path d="m2639.2 174.67h38.52v210.43h-38.52v-210.43z" fill="#444142"/><path d="m2770.2 358.41v26.684h-38.62v-210.43h38.62v146.65c9.12 15.301 34.2 29.821 51.64 29.821 4.68 0 8.21-0.328 11.85-1.168l4.27-0.907v40.211h-3.5c-23.51 0-46.27-10.894-64.26-30.859" fill="#444142"/></g></g></g></svg>
