<svg xmlns="http://www.w3.org/2000/svg" width="1850" height="1850" viewBox="0 0 1850 1850">
  <path fill="#000081" fill-opacity=".05" fill-rule="evenodd" d="M925,1539 C1264.10284,1539 1539,1264.10284 1539,925 C1539,585.897164 1264.10284,311 925,311 C585.897164,311 311,585.897164 311,925 C311,1264.10284 585.897164,1539 925,1539 Z M925,1149 C1048.71178,1149 1149,1048.71178 1149,925 C1149,801.288216 1048.71178,701 925,701 C801.288216,701 701,801.288216 701,925 C701,1048.71178 801.288216,1149 925,1149 Z M925,1553 C1271.83482,1553 1553,1271.83482 1553,925 C1553,578.165177 1271.83482,297 925,297 C578.165177,297 297,578.165177 297,925 C297,1271.83482 578.165177,1553 925,1553 Z M925,1161 C1055.3392,1161 1161,1055.3392 1161,925 C1161,794.660799 1055.3392,689 925,689 C794.660799,689 689,794.660799 689,925 C689,1055.3392 794.660799,1161 925,1161 Z M925,1236 C1096.76056,1236 1236,1096.76056 1236,925 C1236,753.239443 1096.76056,614 925,614 C753.239443,614 614,753.239443 614,925 C614,1096.76056 753.239443,1236 925,1236 Z M925,946 C936.59798,946 946,936.59798 946,925 C946,913.40202 936.59798,904 925,904 C913.40202,904 904,913.40202 904,925 C904,936.59798 913.40202,946 925,946 Z M925,1850 C1435.86339,1850 1850,1435.86339 1850,925 C1850,414.136606 1435.86339,1.24311426e-13 925,-8.14017601e-16 C414.136606,-1.25939462e-13 1.25125444e-13,414.136606 0,925 C-1.25125444e-13,1435.86339 414.136606,1850 925,1850 Z M925.5,984 C957.808658,984 984,957.808658 984,925.5 C984,893.191342 957.808658,867 925.5,867 C893.191342,867 867,893.191342 867,925.5 C867,957.808658 893.191342,984 925.5,984 Z M925.5,1009 C971.615777,1009 1009,971.615777 1009,925.5 C1009,879.384223 971.615777,842 925.5,842 C879.384223,842 842,879.384223 842,925.5 C842,971.615777 879.384223,1009 925.5,1009 Z M925,1092 C1017.23155,1092 1092,1017.23155 1092,925 C1092,832.768447 1017.23155,758 925,758 C832.768447,758 758,832.768447 758,925 C758,1017.23155 832.768447,1092 925,1092 Z M925.5,1280 C1121.28494,1280 1280,1121.28494 1280,925.5 C1280,729.715056 1121.28494,571 925.5,571 C729.715056,571 571,729.715056 571,925.5 C571,1121.28494 729.715056,1280 925.5,1280 Z"/>
</svg>
