<svg xmlns="http://www.w3.org/2000/svg" width="24" height="24" viewBox="0 0 24 24" fill="currentColor">
  <path d="M8.5,17.5 C9.32842712,17.5 10,18.1715729 10,19 C10,19.8284271 9.32842712,20.5 8.5,20.5 C7.67157288,20.5 7,19.8284271 7,19 C7,18.1715729 7.67157288,17.5 8.5,17.5 Z M15.5,17.5 C16.3284271,17.5 17,18.1715729 17,19 C17,19.8284271 16.3284271,20.5 15.5,20.5 C14.6715729,20.5 14,19.8284271 14,19 C14,18.1715729 14.6715729,17.5 15.5,17.5 Z M8.5,10.5 C9.32842712,10.5 10,11.1715729 10,12 C10,12.8284271 9.32842712,13.5 8.5,13.5 C7.67157288,13.5 7,12.8284271 7,12 C7,11.1715729 7.67157288,10.5 8.5,10.5 Z M15.5,10.5 C16.3284271,10.5 17,11.1715729 17,12 C17,12.8284271 16.3284271,13.5 15.5,13.5 C14.6715729,13.5 14,12.8284271 14,12 C14,11.1715729 14.6715729,10.5 15.5,10.5 Z M8.5,3.5 C9.32842712,3.5 10,4.17157288 10,5 C10,5.82842712 9.32842712,6.5 8.5,6.5 C7.67157288,6.5 7,5.82842712 7,5 C7,4.17157288 7.67157288,3.5 8.5,3.5 Z M15.5,3.5 C16.3284271,3.5 17,4.17157288 17,5 C17,5.82842712 16.3284271,6.5 15.5,6.5 C14.6715729,6.5 14,5.82842712 14,5 C14,4.17157288 14.6715729,3.5 15.5,3.5 Z"/>
</svg>
