<svg xmlns="http://www.w3.org/2000/svg" width="24" height="24" viewBox="0 0 24 24">
    <g transform="translate(2 2)">
        <path class="tag-outline" fill="none" stroke="currentColor" stroke-width="1.5" d="M19.9965834,8.97662523 L19.4290483,2.24185039 C19.3571178,1.36415165 18.6208833,0.627325481 17.7438894,0.555337164 L11.0308835,0.00371988989 C10.5368814,-0.0258462786 10.063634,0.120303198 9.7230302,0.461180687 L0.480282846,9.71135616 C-0.185442675,10.3776167 -0.155564246,11.4611405 0.547948701,12.1652188 L7.82848966,19.4516109 C8.53200261,20.1556893 9.61465628,20.1855917 10.2803818,19.5193312 L19.5231292,10.2691557 C19.8637329,9.9282782 20.0261258,9.47102434 19.9965834,8.97662523 Z"/>
        <path fill="currentColor" d="M16.1379419,3.87039531 C16.7765246,4.50897799 16.8046681,5.52876507 16.2003852,6.13304789 C15.5961024,6.73733071 14.5763153,6.70918723 13.9377327,6.07060455 C13.29915,5.43202187 13.2710065,4.4122348 13.8752893,3.80795198 C14.4795721,3.20366916 15.4993592,3.23181263 16.1379419,3.87039531 Z"/>
    </g>
</svg>
