<?xml version="1.0" standalone="no"?>
<!DOCTYPE svg PUBLIC "-//W3C//DTD SVG 1.1//EN" "http://www.w3.org/Graphics/SVG/1.1/DTD/svg11.dtd" >
<svg xmlns="http://www.w3.org/2000/svg">
<defs>
  <font id="nicons-400" horiz-adv-x="1341">
    <font-face font-family="nicons-400"
      units-per-em="1000" ascent="955"
      descent="245" />
    <missing-glyph horiz-adv-x="0" />
    <glyph glyph-name="exclamationmark-circle"
      unicode="&#x10005E;"
      horiz-adv-x="1185" d="M592.5 -145.51C864.473 -145.51 1090.55 80.078 1090.55 352.539C1090.55 624.512 863.984 850.586 592.012 850.586C319.551 850.586 94.4531 624.512 94.4531 352.539C94.4531 80.078 320.039 -145.51 592.5 -145.51zM592.5 -62.5C362.031 -62.5 177.949 122.0700000000001 177.949 352.539C177.949 582.52 361.543 767.578 592.012 767.578C821.992 767.578 1007.05 582.52 1007.54 352.539C1008.03 122.0700000000001 822.48 -62.5 592.5 -62.5zM592.012 264.16C615.449 264.16 628.633 277.3440000000001 629.121 302.7340000000001L636.445 560.547C636.934 585.4490000000001 617.402 604.004 591.523 604.004C565.156 604.004 546.602 585.938 547.09 561.0350000000001L553.438 302.7340000000001C553.926 277.832 567.598 264.16 592.012 264.16zM592.012 105.4690000000001C619.844 105.4690000000001 644.746 127.93 644.746 156.25C644.746 185.059 620.332 207.031 592.012 207.031C563.203 207.031 539.277 184.5700000000001 539.277 156.25C539.277 128.418 563.691 105.4690000000001 592.012 105.4690000000001z" />
    <glyph glyph-name="arrow-up"
      unicode="&#x100128;"
      horiz-adv-x="990" d="M494.629 -108.8900000000001C520.02 -108.8900000000001 538.574 -91.3099999999999 538.574 -65.92V577.148L534.668 681.152L680.664 520.996L791.992 411.621C799.805 403.809 811.523 399.9020000000001 822.754 399.9020000000001C847.168 399.9020000000001 865.234 418.457 865.234 442.3830000000001C865.234 454.102 860.84 464.355 851.562 474.121L527.344 798.828C518.066 808.594 506.836 813.477 494.629 813.477C482.91 813.477 471.68 808.594 462.402 798.828L138.184 474.121C128.906 464.355 124.512 454.102 124.512 442.3830000000001C124.512 418.457 142.578 399.9020000000001 166.504 399.9020000000001C178.223 399.9020000000001 189.941 403.809 197.754 411.621L308.594 520.996L455.078 681.6410000000001L451.172 577.148V-65.92C451.172 -91.3099999999999 469.238 -108.8900000000001 494.629 -108.8900000000001z" />
    <glyph glyph-name="arrow-down"
      unicode="&#x100129;"
      horiz-adv-x="991" d="M494.629 813.477C469.238 813.477 451.172 795.898 451.172 770.508V127.441L455.078 22.949L308.594 183.5940000000001L197.754 292.9690000000001C189.941 300.781 178.223 304.688 166.504 304.688C142.578 304.688 124.512 286.1330000000001 124.512 262.207C124.512 250.4880000000001 128.906 240.2340000000001 138.184 230.4690000000001L462.402 -94.24C471.68 -104 482.91 -108.8900000000001 494.629 -108.8900000000001C506.836 -108.8900000000001 518.066 -104 527.344 -94.24L851.562 230.4690000000001C860.84 240.2340000000001 865.234 250.4880000000001 865.234 262.207C865.234 286.1330000000001 847.168 304.688 822.754 304.688C811.523 304.688 799.805 300.781 791.992 292.9690000000001L680.664 183.5940000000001L534.668 23.438L538.574 127.441V770.508C538.574 795.898 520.02 813.477 494.629 813.477z" />
    <glyph glyph-name="arrow-left"
      unicode="&#x10012A;"
      horiz-adv-x="1156" d="M124.512 363.281C124.512 351.074 129.883 339.8440000000001 139.648 330.5660000000001L463.867 6.348C474.121 -2.9299999999999 484.375 -6.836 495.605 -6.836C520.02 -6.836 538.574 10.742 538.574 35.156C538.574 46.3869999999999 534.18 58.105 526.367 65.918L417.48 177.246L252.441 327.148L371.094 319.336H988.281C1013.67 319.336 1031.25 337.891 1031.25 363.281C1031.25 388.6720000000001 1013.67 406.7380000000001 988.281 406.7380000000001H371.094L252.93 399.414L417.48 549.316L526.367 660.156C534.668 668.457 538.574 679.688 538.574 691.406C538.574 715.332 520.02 733.398 495.605 733.398C484.375 733.398 473.633 729.004 462.891 718.75L139.648 395.996C129.883 386.23 124.512 375 124.512 363.281z" />
    <glyph glyph-name="arrow-right"
      unicode="&#x10012B;"
      horiz-adv-x="1157" d="M1031.25 363.281C1031.25 375 1026.37 386.23 1016.6 395.996L693.359 718.75C682.617 729.004 671.875 733.398 660.156 733.398C636.23 733.398 617.676 715.332 617.676 691.406C617.676 679.688 621.582 668.457 629.395 660.156L738.77 549.316L903.32 399.414L785.156 406.7380000000001H167.48C142.578 406.7380000000001 124.512 388.6720000000001 124.512 363.281C124.512 337.891 142.578 319.336 167.48 319.336H785.156L903.809 327.148L738.77 177.246L629.395 65.918C621.582 58.105 617.676 46.3869999999999 617.676 35.156C617.676 10.742 636.23 -6.836 660.156 -6.836C671.875 -6.836 682.129 -2.9299999999999 691.895 6.348L1016.6 330.5660000000001C1026.37 339.8440000000001 1031.25 351.074 1031.25 363.281z" />
    <glyph glyph-name="arrow-right-arrow-left"
      unicode="&#x10012D;"
      horiz-adv-x="1177" d="M1049.43 595.2149999999999C1049.43 620.605 1031.36 639.1600000000001 1005.97 639.1600000000001H372.668L257.9220000000001 633.789L350.695 712.891L491.32 850.586C499.133 857.9102 503.039 867.6758 503.039 880.3711C503.039 905.2734 485.949 923.3398 460.07 923.3398C449.328 923.3398 436.633 917.9688 428.332 909.668L141.223 627.9300000000001C131.457 618.652 126.574 607.422 126.574 595.2149999999999C126.574 583.496 131.457 572.2660000000001 141.223 562.988L428.332 280.762C436.633 272.461 449.328 267.578 460.07 267.578C485.949 267.578 503.039 285.156 503.039 310.5470000000001C503.039 323.242 499.133 332.52 491.32 340.332L350.695 477.539L257.9220000000001 556.6410000000001L372.668 551.758H1005.97C1031.36 551.758 1049.43 569.8240000000001 1049.43 595.2149999999999zM1049.43 110.352C1049.43 122.559 1045.03 133.789 1034.78 143.066L747.668 424.805C739.367 433.105 726.672 438.477 716.418 438.477C690.051 438.477 672.961 420.41 672.961 395.02C672.961 382.812 677.355 373.0470000000001 685.168 365.2340000000001L825.793 228.0270000000001L918.078 148.9260000000001L803.82 153.809H170.031C145.129 153.809 126.574 135.742 126.574 110.352C126.574 84.961 145.129 66.895 170.031 66.895H803.82L918.078 71.777L825.793 -7.324L685.168 -144.53C677.355 -152.3399999999999 672.961 -162.1099999999999 672.961 -174.3199999999999C672.961 -199.71 690.051 -217.77 716.418 -217.77C726.672 -217.77 739.367 -212.4000000000001 747.668 -204.0999999999999L1034.78 77.6369999999999C1045.03 86.914 1049.43 98.145 1049.43 110.352z" />
    <glyph glyph-name="arrow-up-left"
      unicode="&#x10012E;"
      horiz-adv-x="917" d="M125 297.3630000000001C125 271.4840000000001 145.02 251.953 168.457 251.953C191.895 251.953 211.426 272.949 211.426 295.41V451.172L202.637 673.3399999999999L280.762 584.473L717.285 147.949C726.562 139.16 736.816 134.766 747.559 134.766C771.484 134.766 792.48 156.25 792.48 179.199C792.48 189.941 787.598 200.684 778.809 209.473L342.2850000000001 645.996L253.906 724.121L486.328 715.332H631.836C654.297 715.332 674.316 734.863 674.316 757.812C674.316 780.762 656.738 800.781 629.883 800.781L171.387 801.758C142.578 801.758 125 783.203 125 755.859V297.3630000000001z" />
    <glyph glyph-name="arrow-up-right-padding"
      unicode="&#x10012F;"
      horiz-adv-x="917" d="M792.48 297.3630000000001V755.859C792.48 783.203 774.414 801.758 745.605 801.758L287.109 800.781C260.254 800.781 242.188 780.762 242.188 757.812C242.188 734.863 262.695 715.332 285.156 715.332H430.664L663.086 724.121L574.219 645.996L138.184 209.473C129.395 200.684 124.512 189.941 124.512 179.199C124.512 156.25 145.02 134.766 168.945 134.766C180.176 134.766 190.43 139.16 199.219 147.949L636.23 584.473L714.355 673.3399999999999L705.566 451.172V295.41C705.566 272.949 725.098 251.953 748.535 251.953C771.484 251.953 792.48 271.4840000000001 792.48 297.3630000000001z" />
    <glyph glyph-name="arrow-down-left"
      unicode="&#x100130;"
      horiz-adv-x="937" d="M125 407.227L124.512 -51.27C124.512 -78.6099999999999 142.578 -97.1700000000001 171.387 -97.1700000000001L629.883 -96.19C656.738 -96.19 674.316 -76.1700000000001 674.316 -53.22C674.316 -30.273 654.297 -10.742 631.836 -10.742H486.328L253.906 -19.5309999999999L342.2850000000001 58.5940000000001L778.809 495.117C787.598 503.906 792.48 514.648 792.48 525.3910000000001C792.48 548.3399999999999 771.484 569.8240000000001 747.559 569.8240000000001C736.816 569.8240000000001 726.562 565.4300000000001 717.285 556.6410000000001L280.762 120.117L202.637 31.25L211.426 253.418V409.18C211.426 431.641 191.895 452.637 168.457 452.637C145.02 452.637 125 433.105 125 407.227z" />
    <glyph glyph-name="arrow-down-right"
      unicode="&#x100131;"
      horiz-adv-x="917" d="M792.48 407.227C792.48 433.105 771.484 452.637 748.535 452.637C725.098 452.637 705.566 431.641 705.566 409.18V253.418L714.355 31.25L636.23 120.117L199.219 556.6410000000001C190.43 565.4300000000001 180.176 569.8240000000001 168.945 569.8240000000001C145.02 569.8240000000001 124.512 548.3399999999999 124.512 525.3910000000001C124.512 514.648 129.395 503.906 138.184 495.117L574.219 58.5940000000001L663.086 -19.5309999999999L430.664 -10.742H285.156C262.695 -10.742 242.188 -30.273 242.188 -53.22C242.188 -76.1700000000001 260.254 -96.19 287.109 -96.19L745.605 -97.1700000000001C774.414 -97.1700000000001 792.48 -78.6099999999999 792.48 -51.27V407.227z" />
    <glyph glyph-name="arrow-counterclockwise"
      unicode="&#x100148;"
      horiz-adv-x="1038" d="M500.977 448.73C512.695 448.73 521.973 452.637 529.297 459.961L730.469 662.1089999999999C738.77 670.4100000000001 742.676 680.1759999999999 742.676 691.406C742.676 702.148 738.281 712.891 730.469 720.703L529.297 924.8047C522.461 932.6172 512.695 936.5234 500.488 936.5234C479.004 936.5234 462.402 918.9453 462.402 896.4844C462.402 886.2305 465.82 876.4648 473.145 868.6523L603.516 740.723C575.684 745.605 546.875 748.535 518.555 748.535C279.2970000000001 748.535 87.4023 556.6410000000001 87.4023 317.3830000000001C87.4023 77.6369999999999 279.2970000000001 -114.75 518.555 -114.75C757.812 -114.75 950.195 77.6369999999999 950.195 317.3830000000001C950.195 340.8200000000001 933.594 357.91 909.18 357.91C886.23 357.91 871.582 340.8200000000001 871.582 317.3830000000001C871.582 121.0940000000001 714.355 -36.133 518.555 -36.133C322.754 -36.133 166.016 121.0940000000001 166.016 317.3830000000001C166.016 513.184 322.754 669.922 518.555 669.922C556.152 669.922 589.844 666.992 619.629 660.645L473.633 515.625C465.82 507.812 462.402 498.047 462.402 487.793C462.402 465.332 479.004 448.73 500.977 448.73z" />
    <glyph glyph-name="arrow-clockwise"
      unicode="&#x100149;"
      horiz-adv-x="1038" d="M536.621 448.73C558.594 448.73 575.195 465.332 575.195 487.793C575.195 498.047 571.289 507.812 563.965 515.625L417.969 660.645C447.266 666.992 481.445 669.922 518.555 669.922C714.355 669.922 871.582 513.184 871.582 317.3830000000001C871.582 121.0940000000001 714.355 -36.133 518.555 -36.133C322.754 -36.133 166.016 121.0940000000001 166.016 317.3830000000001C166.016 340.8200000000001 150.879 357.91 127.93 357.91C104.004 357.91 87.4023 340.8200000000001 87.4023 317.3830000000001C87.4023 77.6369999999999 279.2970000000001 -114.75 518.555 -114.75C757.812 -114.75 950.195 77.6369999999999 950.195 317.3830000000001C950.195 556.6410000000001 757.812 748.535 518.555 748.535C490.234 748.535 461.914 745.605 434.082 740.723L564.453 868.6523C571.289 876.4648 575.195 886.2305 575.195 896.4844C575.195 918.9453 558.594 936.5234 536.621 936.5234C524.902 936.5234 515.137 932.6172 508.301 924.8047L307.129 720.703C299.316 712.891 294.9220000000001 702.148 294.9220000000001 691.406C294.9220000000001 680.1759999999999 298.34 670.4100000000001 307.129 662.1089999999999L508.301 459.961C515.137 452.637 524.414 448.73 536.621 448.73z" />
    <glyph glyph-name="arrow-up-left-and-arrow-down-right"
      unicode="&#x10014A;"
      horiz-adv-x="1191" d="M175.078 423.3400000000001C200.469 423.3400000000001 219.512 442.871 219.512 468.75V509.766L209.258 680.1759999999999L338.164 544.922L488.066 393.555C496.367 384.766 507.109 380.8590000000001 519.316 380.8590000000001C546.66 380.8590000000001 567.656 398.9260000000001 567.656 426.27C567.656 439.453 562.773 451.172 553.984 459.961L403.594 610.352L267.852 738.77L438.75 729.004H479.766C505.645 729.004 525.664 747.0699999999999 525.664 773.438C525.664 799.8050000000001 505.645 818.359 479.766 818.359H208.281C158.477 818.359 129.668 789.5509999999999 129.668 739.746V468.75C129.668 443.359 148.711 423.3400000000001 175.078 423.3400000000001zM710.234 -113.28H981.719C1031.52 -113.28 1060.33 -84.47 1060.33 -34.668V236.328C1060.33 261.7190000000001 1041.29 281.7380000000001 1014.92 281.7380000000001C989.531 281.7380000000001 970.977 262.207 970.977 236.328V195.312L980.742 24.902L851.836 160.156L701.934 311.523C693.633 320.312 682.891 324.2190000000001 670.684 324.2190000000001C643.34 324.2190000000001 622.832 306.1520000000001 622.832 278.809C622.832 265.625 627.227 253.906 636.016 245.117L786.895 94.727L922.148 -33.691L751.25 -23.926H710.234C684.355 -23.926 664.824 -41.992 664.336 -68.36C664.336 -94.73 684.355 -113.28 710.234 -113.28z" />
    <glyph glyph-name="arrow-down-right-and-arrow-top-left"
      unicode="&#x10014B;"
      horiz-adv-x="1217" d="M219.816 399.414H490.812C540.617 399.414 569.914 428.711 569.914 478.516V749.023C569.914 774.414 550.871 794.434 524.504 794.434C498.625 794.434 480.07 774.902 480.07 749.023V708.008L490.324 537.598L361.418 672.852L211.516 824.219C203.215 833.008 191.984 837.402 180.266 837.402C152.434 837.402 131.926 818.848 131.926 791.504C131.926 778.809 136.809 766.602 145.598 757.812L295.988 607.422L431.73 479.004L260.832 488.77H219.816C193.938 488.77 173.918 470.703 173.918 444.336C173.918 418.457 193.449 399.414 219.816 399.414zM688.078 -96.19C713.957 -96.19 732.512 -77.1500000000001 732.512 -50.78V-4.395L722.258 165.5270000000001L851.164 30.273L1004.48 -124.02C1012.79 -132.8099999999999 1024.02 -137.21 1035.73 -137.21C1063.08 -137.21 1084.07 -118.6500000000001 1084.07 -91.3099999999999C1084.07 -78.6099999999999 1079.19 -66.41 1070.4 -57.62L916.594 96.191L781.34 224.609L951.75 214.8440000000001H998.137C1024.02 214.8440000000001 1044.04 232.91 1044.04 258.789C1044.04 285.156 1024.5 303.711 998.137 303.711H721.77C671.965 303.711 643.156 274.9020000000001 643.156 225.098V-50.78C643.156 -76.6600000000001 662.199 -96.19 688.078 -96.19z" />
    <glyph glyph-name="yelp"
      unicode="&#x100150;"
      horiz-adv-x="1200" d="M206.133 375.206C188.446 346.887 180.978 257.7100000000001 187.119 198.52C189.281 178.987 192.818 162.692 197.977 152.975C205.052 139.5270000000001 216.941 131.5270000000001 230.501 131.036C239.197 130.595 244.602 132.067 408.1070000000001 184.582C408.1070000000001 184.582 480.77 207.747 481.065 207.894C499.194 212.5080000000001 511.378 229.146 512.558 250.3970000000001C513.737 272.188 502.486 291.427 483.915 298.3970000000001C483.915 298.3970000000001 432.6720000000001 319.255 432.574 319.255C256.884 391.6470000000001 248.974 394.4940000000001 240.131 394.592C226.571 395.132 214.534 388.31 206.133 375.206zM599.173 -164.1700000000001C602.023 -155.9300000000001 602.367 -150.29 602.858 21.2960000000001C602.858 21.2960000000001 603.251 97.1230000000001 603.3 97.859C604.479 116.46 592.442 133.393 572.741 140.951C552.45 148.754 530.587 143.9450000000001 518.305 128.6810000000001C518.305 128.6810000000001 482.44 86.178 482.342 86.178C359.27 -58.26 354.112 -64.94 351.115 -73.48C349.2970000000001 -78.48 348.56 -83.8800000000001 349.15 -89.23C349.887 -96.8900000000001 353.375 -104.45 359.123 -111.51C387.668 -145.3800000000001 524.544 -195.6800000000001 568.27 -188.22C583.452 -185.48 594.506 -176.94 599.173 -164.1700000000001zM876.862 -104.47C918.132 -88.03 1008.14 26.373 1014.48 70.398C1016.69 85.71 1011.87 98.913 1001.31 107.354C994.382 112.557 989.125 114.569 825.718 168.164C825.718 168.164 754.037 191.8200000000001 753.103 192.262C735.76 198.985 715.961 192.752 702.646 176.36C688.792 159.526 686.728 137.293 697.782 120.5080000000001L726.622 73.588C823.605 -83.76 831.024 -94.9000000000001 838 -100.3499999999999C848.809 -108.8399999999999 862.565 -110.21 876.862 -104.47zM792.405 300.629C978.118 345.586 985.291 347.942 992.611 352.752C1003.86 360.31 1009.51 372.972 1008.53 388.3830000000001C1008.53 388.874 1008.63 389.414 1008.53 389.954C1003.76 435.499 923.878 553.977 884.525 573.216C870.572 579.89 856.619 579.4490000000001 845.024 571.694C837.851 567.0319999999999 832.594 559.9639999999999 733.154 424.1130000000001C733.154 424.1130000000001 688.249 363.009 687.709 362.42C675.869 348.04 675.672 327.427 687.267 309.7580000000001C699.255 291.452 719.496 282.519 738.067 287.6720000000001C738.067 287.6720000000001 737.331 286.347 737.134 286.102C746.272 289.5370000000001 762.633 293.562 792.405 300.629zM606.008 453.772C602.815 527.293 580.657 854.652 578.053 869.8173C574.319 883.5595 563.56 893.3753 548.133 897.2526C500.722 908.9825 319.53 858.2837 285.974 823.683C275.166 812.444 271.186 798.6030000000001 274.429 786.333C279.735 775.487 504.211 422.656 504.211 422.656C537.373 368.914 564.444 377.2580000000001 573.337 380.055C582.131 382.755 609.054 391.098 606.008 453.772z" />
    <glyph glyph-name="bombsight"
      unicode="&#x100152;"
      horiz-adv-x="1200" d="M63.75 299.218H158.906C175.313 81.72 349.218 -93.1300000000001 566.25 -109.53V-203.28C566.25 -222.03 581.25 -237.0299999999999 600 -237.0299999999999C618.75 -237.0299999999999 633.282 -222.03 633.282 -203.28V-109.53C850.784 -93.1300000000001 1024.69 81.72 1041.1 299.218H1136.25C1155 299.218 1170 314.218 1170 332.9690000000001C1170 351.718 1155 366.25 1136.25 366.25H1041.1C1024.69 583.75 850.784 758.594 633.282 775V869.2184C633.282 887.9687 618.75 902.9688 600 902.9688C581.25 902.9688 566.25 887.9687 566.25 869.2184V775C349.218 758.594 175.313 583.75 158.906 366.25H63.75C45 366.25 30 351.718 30 332.9690000000001C30 314.218 45 299.218 63.75 299.218zM600 518.125C618.75 518.125 633.282 533.125 633.282 551.875V698.594C809.528 682.656 946.872 544.375 961.872 366.25H818.904C800.16 366.25 785.156 351.718 785.156 332.9690000000001C785.156 314.218 800.16 299.218 818.904 299.218H961.872C946.872 121.56 809.528 -16.72 633.282 -32.6559999999999V114.064C633.282 132.816 618.75 147.3440000000001 600 147.3440000000001C581.25 147.3440000000001 566.25 132.816 566.25 114.064V-32.6559999999999C390.469 -16.72 253.125 121.56 238.125 299.218H381.094C399.844 299.218 414.844 314.218 414.844 332.9690000000001C414.844 351.718 399.844 366.25 381.094 366.25H238.125C253.125 544.375 390.469 682.656 566.25 698.594V551.875C566.25 533.125 581.25 518.125 600 518.125z" />
    <glyph glyph-name="slack-logo"
      unicode="&#x10015F;"
      horiz-adv-x="1199.000832639467" d="M434.3940049958368 280.3661948376353C434.3940049958368 247.4376353039134 407.4944213155704 220.538051623647 374.5658617818484 220.538051623647C341.6373022481266 220.538051623647 314.7377185678601 247.4376353039134 314.7377185678601 280.3661948376353C314.7377185678601 313.2947543713572 341.6373022481266 340.1943380516238 374.5658617818484 340.1943380516238H434.3940049958368V280.3661948376353zM464.538884263114 280.3661948376353C464.538884263114 313.2947543713572 491.4384679433805 340.1943380516238 524.3670274771024 340.1943380516238C557.2955870108243 340.1943380516238 584.1951706910908 313.2947543713572 584.1951706910908 280.3661948376353V130.5640299750207C584.1951706910908 97.6354704412989 557.2955870108243 70.7358867610325 524.3670274771024 70.7358867610325C491.4384679433805 70.7358867610325 464.538884263114 97.6354704412989 464.538884263114 130.5640299750207V280.3661948376353zM524.3670274771024 520.6059950041632C491.4384679433805 520.6059950041632 464.538884263114 547.5055786844296 464.538884263114 580.4341382181516C464.538884263114 613.3626977518734 491.4384679433805 640.2622814321398 524.3670274771024 640.2622814321398C557.2955870108243 640.2622814321398 584.1951706910908 613.3626977518734 584.1951706910908 580.4341382181516V520.6059950041632H524.3670274771024zM524.3680266444629 490.4601165695254C557.2965861781848 490.4601165695254 584.1961698584513 463.560532889259 584.1961698584513 430.6319733555371C584.1961698584513 397.7034138218152 557.2965861781848 370.8048293089093 524.3680266444629 370.8048293089093H374.5658617818484C341.6373022481266 370.8048293089093 314.7377185678601 397.7034138218152 314.7377185678601 430.6319733555371C314.7377185678601 463.560532889259 341.6373022481266 490.4601165695254 374.5658617818484 490.4601165695254H524.3680266444629zM764.6068276436304 430.6319733555371C764.6068276436304 463.560532889259 791.5064113238968 490.4601165695254 824.4349708576186 490.4601165695254C857.3635303913405 490.4601165695254 884.263114071607 463.560532889259 884.263114071607 430.6319733555371C884.263114071607 397.7034138218152 857.3635303913405 370.8048293089093 824.4349708576186 370.8048293089093H764.6068276436304V430.6319733555371zM734.461948376353 430.6319733555371C734.461948376353 397.7034138218152 707.5623646960867 370.8048293089093 674.6338051623648 370.8048293089093C641.7052456286428 370.8048293089093 614.8056619483763 397.7034138218152 614.8056619483763 430.6319733555371V580.4341382181516C614.8056619483763 613.3626977518734 641.7052456286428 640.2622814321398 674.6338051623648 640.2622814321398C707.5623646960867 640.2622814321398 734.461948376353 613.3626977518734 734.461948376353 580.4341382181516V430.6319733555371zM674.6338051623648 190.3921731890092C707.5623646960867 190.3921731890092 734.461948376353 163.4925895087428 734.461948376353 130.5640299750207C734.461948376353 97.6354704412989 707.5623646960867 70.7358867610325 674.6338051623648 70.7358867610325C641.7052456286428 70.7358867610325 614.8056619483763 97.6354704412989 614.8056619483763 130.5640299750207V190.3921731890092H674.6338051623648zM674.6338051623648 220.538051623647C641.7052456286428 220.538051623647 614.8056619483763 247.4376353039134 614.8056619483763 280.3661948376353C614.8056619483763 313.2947543713572 641.7052456286428 340.1943380516238 674.6338051623648 340.1943380516238H824.4359700249793C857.3645295587011 340.1943380516238 884.2641132389675 313.2947543713572 884.2641132389675 280.3661948376353C884.2641132389675 247.4376353039134 857.3645295587011 220.538051623647 824.4359700249793 220.538051623647H674.6338051623648z" />
    <glyph glyph-name="info-circle"
      unicode="&#x100174;"
      horiz-adv-x="1185" d="M592.5 -145.51C864.473 -145.51 1090.55 80.078 1090.55 352.539C1090.55 624.512 863.984 850.586 592.012 850.586C319.551 850.586 94.4531 624.512 94.4531 352.539C94.4531 80.078 320.039 -145.51 592.5 -145.51zM592.5 -62.5C362.031 -62.5 177.949 122.0700000000001 177.949 352.539C177.949 582.52 361.543 767.578 592.012 767.578C821.992 767.578 1007.05 582.52 1007.54 352.539C1008.03 122.0700000000001 822.48 -62.5 592.5 -62.5zM588.105 526.367C623.75 526.367 651.582 554.688 651.582 589.844C651.582 625.488 623.75 653.809 588.105 653.809C552.461 653.809 524.629 625.488 524.629 589.844C524.629 554.688 552.461 526.367 588.105 526.367zM506.562 83.984H705.781C725.801 83.984 741.426 98.145 741.426 118.164C741.426 137.207 725.801 152.3440000000001 705.781 152.3440000000001H645.234V400.879C645.234 427.246 631.562 444.824 607.148 444.824H514.863C495.332 444.824 479.707 429.688 479.707 410.645C479.707 390.625 495.332 376.4650000000001 514.863 376.4650000000001H567.598V152.3440000000001H506.562C487.031 152.3440000000001 471.406 137.207 471.406 118.164C471.406 98.145 487.031 83.984 506.562 83.984z" />
    <glyph glyph-name="plus"
      unicode="&#x10017C;"
      horiz-adv-x="1056" d="M527.344 -59.08C551.27 -59.08 571.289 -40.039 571.289 -16.602V308.105H886.719C910.156 308.105 930.664 328.125 930.664 352.0510000000001C930.664 375.977 910.156 395.5080000000001 886.719 395.5080000000001H571.289V720.703C571.289 744.141 551.27 763.184 527.344 763.184C503.418 763.184 483.887 744.141 483.887 720.703V395.5080000000001H168.457C145.02 395.5080000000001 124.512 375.977 124.512 352.0510000000001C124.512 328.125 145.02 308.105 168.457 308.105H483.887V-16.602C483.887 -40.039 503.418 -59.08 527.344 -59.08z" />
    <glyph glyph-name="xmark"
      unicode="&#x100184;"
      horiz-adv-x="899" d="M137.207 101.562C120.605 84.961 120.117 56.641 137.207 39.551C153.809 22.461 182.129 22.949 199.219 39.551L449.219 290.039L699.707 39.551C716.309 22.949 744.629 22.461 761.23 39.551C778.809 56.641 778.32 84.961 761.23 101.562L511.23 352.0510000000001L761.23 602.0509999999999C778.32 618.652 778.809 647.461 761.23 664.062C744.629 681.152 716.309 680.664 699.707 664.062L449.219 413.574L199.219 664.062C182.129 680.664 153.809 681.152 137.207 664.062C120.117 647.461 120.605 618.652 137.207 602.0509999999999L387.207 352.0510000000001L137.207 101.562z" />
    <glyph glyph-name="chevron-up"
      unicode="&#x100187;"
      horiz-adv-x="1098" d="M137.695 209.473C129.395 201.66 124.512 190.43 124.512 177.734C124.512 152.3440000000001 144.043 133.3010000000001 169.434 133.3010000000001C181.641 133.3010000000001 193.359 137.6950000000001 201.172 145.996L548.828 501.465L896.484 145.996C904.297 137.6950000000001 916.504 133.3010000000001 928.223 133.3010000000001C953.613 133.3010000000001 973.145 152.3440000000001 973.145 177.734C973.145 190.43 968.262 201.66 959.961 209.473L581.543 596.191C573.242 605.469 561.035 610.8399999999999 548.828 610.8399999999999C536.133 610.8399999999999 524.902 605.469 516.113 596.191L137.695 209.473z" />
    <glyph glyph-name="chevron-down"
      unicode="&#x100188;"
      horiz-adv-x="1098" d="M548.828 92.285C561.035 92.285 573.242 97.168 581.543 106.4450000000001L959.961 493.652C968.262 501.953 973.145 512.6949999999999 973.145 524.902C973.145 550.293 953.613 569.8240000000001 928.223 569.8240000000001C916.504 569.8240000000001 904.785 564.941 896.484 557.129L548.828 201.66L201.172 557.129C192.871 564.941 181.641 569.8240000000001 169.434 569.8240000000001C144.043 569.8240000000001 124.512 550.293 124.512 524.902C124.512 512.6949999999999 129.395 501.953 137.695 493.164L516.113 106.4450000000001C525.391 97.168 536.133 92.285 548.828 92.285z" />
    <glyph glyph-name="chevron-left"
      unicode="&#x100189;"
      horiz-adv-x="728" d="M525.879 -58.11C534.18 -66.41 544.922 -71.29 557.617 -71.29C583.008 -71.29 602.051 -52.25 602.051 -26.855C602.051 -14.648 597.168 -3.418 589.355 4.883L233.887 352.539L589.355 700.1949999999999C597.168 708.496 602.051 720.215 602.051 731.934C602.051 757.3240000000001 583.008 776.855 557.617 776.855C544.922 776.855 534.18 771.973 525.879 763.672L139.16 385.254C129.883 377.4410000000001 124.512 365.2340000000001 124.512 352.539C124.512 340.332 129.883 329.102 139.16 319.824L525.879 -58.11z" />
    <glyph glyph-name="chevron-right"
      unicode="&#x10018A;"
      horiz-adv-x="728" d="M169.434 -71.78C181.641 -71.78 192.383 -66.89 201.172 -58.59L587.891 319.824C597.168 329.102 602.051 340.332 602.051 352.539C602.051 365.2340000000001 597.168 376.953 587.891 385.254L201.172 763.184C192.871 771.973 181.641 776.855 169.434 776.855C144.043 776.855 124.512 757.3240000000001 124.512 731.934C124.512 720.215 129.883 708.496 137.695 700.1949999999999L492.676 352.539L137.695 4.883C129.883 -3.418 124.512 -14.648 124.512 -26.855C124.512 -52.25 144.043 -71.78 169.434 -71.78z" />
    <glyph glyph-name="square-grid-2x2"
      unicode="&#x1001F7;"
      horiz-adv-x="1149" d="M230.957 389.648H436.523C507.812 389.648 542.969 424.3160000000001 542.969 497.559V700.1949999999999C542.969 773.438 507.812 808.105 436.523 808.105H230.957C159.18 808.105 124.512 773.438 124.512 700.1949999999999V497.559C124.512 424.3160000000001 159.18 389.648 230.957 389.648zM725.098 389.648H931.152C1002.44 389.648 1037.11 424.3160000000001 1037.11 497.559V700.1949999999999C1037.11 773.438 1002.44 808.105 931.152 808.105H725.098C653.809 808.105 618.652 773.438 618.652 700.1949999999999V497.559C618.652 424.3160000000001 653.809 389.648 725.098 389.648zM230.957 471.191C213.867 471.191 206.055 479.98 206.055 497.559V700.684C206.055 718.262 213.867 727.0509999999999 230.957 727.0509999999999H436.0350000000001C453.125 727.0509999999999 461.426 718.262 461.426 700.684V497.559C461.426 479.98 453.125 471.191 436.0350000000001 471.191H230.957zM725.586 471.191C708.496 471.191 700.195 479.98 700.195 497.559V700.684C700.195 718.262 708.496 727.0509999999999 725.586 727.0509999999999H930.664C947.754 727.0509999999999 956.055 718.262 956.055 700.684V497.559C956.055 479.98 947.754 471.191 930.664 471.191H725.586zM230.957 -104.49H436.523C507.812 -104.49 542.969 -69.8199999999999 542.969 3.418V206.055C542.969 279.2970000000001 507.812 313.9650000000001 436.523 313.9650000000001H230.957C159.18 313.9650000000001 124.512 279.2970000000001 124.512 206.055V3.418C124.512 -69.8199999999999 159.18 -104.49 230.957 -104.49zM725.098 -104.49H931.152C1002.44 -104.49 1037.11 -69.8199999999999 1037.11 3.418V206.055C1037.11 279.2970000000001 1002.44 313.9650000000001 931.152 313.9650000000001H725.098C653.809 313.9650000000001 618.652 279.2970000000001 618.652 206.055V3.418C618.652 -69.8199999999999 653.809 -104.49 725.098 -104.49zM230.957 -22.949C213.867 -22.949 206.055 -14.648 206.055 2.93V206.055C206.055 224.121 213.867 232.4220000000001 230.957 232.4220000000001H436.0350000000001C453.125 232.4220000000001 461.426 224.121 461.426 206.055V2.93C461.426 -14.648 453.125 -22.949 436.0350000000001 -22.949H230.957zM725.586 -22.949C708.496 -22.949 700.195 -14.648 700.195 2.93V206.055C700.195 224.121 708.496 232.4220000000001 725.586 232.4220000000001H930.664C947.754 232.4220000000001 956.055 224.121 956.055 206.055V2.93C956.055 -14.648 947.754 -22.949 930.664 -22.949H725.586z" />
    <glyph glyph-name="square-and-arrow-up"
      unicode="&#x100202;"
      horiz-adv-x="1116" d="M558.284 206.286C580.33 206.286 598.787 224.7430000000001 598.787 246.276V722.815L595.711 799.207L630.574 762.8050000000001L757.991 630.261C765.169 622.058 775.936 617.956 785.677 617.956C807.21 617.956 823.104 633.337 823.104 653.845C823.104 665.125 819.002 673.328 811.312 681.018L588.02 898.1572C577.767 908.4111 568.538 912 558.284 912C547.517 912 538.802 908.4111 528.548 898.1572L305.256 681.018C297.566 673.328 292.952 665.125 292.952 653.845C292.952 633.337 308.332 617.956 329.866 617.956C340.12 617.956 350.886 622.058 358.064 630.261L485.994 762.8050000000001L520.857 799.72L517.268 722.815V246.276C517.268 224.7430000000001 536.238 206.286 558.284 206.286zM263.996 -95.1600000000001H852.059C959.725 -95.1600000000001 1013.05 -41.835 1013.05 63.781V425.925C1013.05 449.524 993.295 468.318 969.725 467.146V467.146C947.755 466.055 930.502 447.923 930.502 425.925V67.882C930.502 14.562 901.278 -12.611 851.034 -12.611H265.534C214.265 -12.611 185.554 14.562 185.554 67.882V425.925C185.554 447.923 168.301 466.055 146.33 467.146V467.146C122.761 468.318 103.01 449.524 103.01 425.925V63.781C103.01 -42.348 157.356 -95.1600000000001 263.996 -95.1600000000001z" />
    <glyph glyph-name="arrowshape-turn-up-left"
      unicode="&#x10024C;"
      horiz-adv-x="1241" d="M577.148 -95.21C609.863 -95.21 634.277 -70.7999999999999 634.277 -38.086V148.438H648.438C837.402 148.438 957.031 100.586 1041.99 -59.08C1059.08 -90.3299999999999 1081.54 -95.21 1102.05 -95.21C1128.42 -95.21 1152.34 -71.78 1152.34 -29.785C1152.34 331.055 999.512 556.152 648.438 556.152H634.277V740.723C634.277 773.438 609.863 800.781 576.172 800.781C551.758 800.781 537.109 788.5740000000001 509.766 765.625L124.512 405.273C106.445 387.207 99.6094 369.141 99.6094 352.539C99.6094 336.4260000000001 106.445 318.3590000000001 124.512 300.293L509.766 -63.48C534.18 -84.47 552.734 -95.21 577.148 -95.21zM548.828 9.766C545.898 9.766 543.457 11.23 540.527 14.16L192.871 343.262C188.477 347.168 187.5 349.6090000000001 187.5 352.539C187.5 355.4690000000001 188.965 358.398 192.871 361.8160000000001L540.527 695.312C542.48 697.2660000000001 545.41 699.219 548.828 699.219C552.734 699.219 555.664 696.289 555.664 692.383V493.652C555.664 487.305 560.547 482.422 566.895 482.422H637.695C972.656 482.422 1073.24 250 1083.01 19.531C1083.01 16.1130000000001 1081.54 14.16 1079.59 14.16C1077.15 14.16 1076.17 15.625 1074.71 19.043C1019.04 142.578 869.141 222.168 637.695 222.168H566.895C560.547 222.168 555.664 217.285 555.664 210.938V17.09C555.664 12.6950000000001 552.734 9.766 548.828 9.766z" />
    <glyph glyph-name="arrowshape-turn-up-left-fill"
      unicode="&#x10024D;"
      horiz-adv-x="1241" d="M577.148 -95.21C609.863 -95.21 634.277 -70.7999999999999 634.277 -38.086V148.438H648.438C837.402 148.438 957.031 100.586 1041.99 -59.08C1059.08 -90.3299999999999 1081.54 -95.21 1102.05 -95.21C1128.42 -95.21 1152.34 -71.78 1152.34 -29.785C1152.34 331.055 999.512 556.152 648.438 556.152H634.277V740.723C634.277 773.438 609.863 800.781 576.172 800.781C551.758 800.781 537.109 788.5740000000001 509.766 765.625L124.512 405.273C106.445 387.207 99.6094 369.141 99.6094 352.539C99.6094 336.4260000000001 106.445 318.3590000000001 124.512 300.293L509.766 -63.48C534.18 -84.47 552.734 -95.21 577.148 -95.21z" />
    <glyph glyph-name="arrowshape-turn-up-right"
      unicode="&#x100250;"
      horiz-adv-x="1241" d="M662.598 -95.21C686.523 -95.21 705.078 -84.47 729.98 -63.48L1115.23 300.293C1133.3 318.3590000000001 1140.14 336.4260000000001 1140.14 352.539C1140.14 369.141 1133.3 387.207 1115.23 405.273L729.98 765.625C702.148 788.5740000000001 687.5 800.781 663.574 800.781C629.883 800.781 605.469 773.438 605.469 740.723V556.152H591.309C240.234 556.152 87.4023 331.055 87.4023 -29.785C87.4023 -71.78 111.328 -95.21 137.207 -95.21C158.203 -95.21 180.664 -90.3299999999999 197.266 -59.08C282.715 100.586 402.344 148.438 591.309 148.438H605.469V-38.086C605.469 -70.7999999999999 629.883 -95.21 662.598 -95.21zM690.918 9.766C686.523 9.766 684.082 12.6950000000001 684.082 17.09V210.938C684.082 217.285 679.199 222.168 672.852 222.168H602.051C370.605 222.168 220.703 142.578 165.039 19.043C163.574 15.625 162.109 14.16 160.156 14.16C158.203 14.16 156.738 16.1130000000001 156.738 19.531C166.504 250 267.09 482.422 602.051 482.422H672.852C679.199 482.422 684.082 487.305 684.082 493.652V692.383C684.082 696.289 687.012 699.219 690.918 699.219C694.336 699.219 696.777 697.2660000000001 699.219 695.312L1046.88 361.8160000000001C1050.78 358.398 1052.25 355.4690000000001 1052.25 352.539C1052.25 349.6090000000001 1050.78 347.168 1046.88 343.262L699.219 14.16C696.289 11.23 693.848 9.766 690.918 9.766z" />
    <glyph glyph-name="arrowshape-turn-up-right-fill"
      unicode="&#x100251;"
      horiz-adv-x="1241" d="M662.598 -95.21C686.523 -95.21 705.078 -84.47 729.98 -63.48L1115.23 300.293C1133.3 318.3590000000001 1140.14 336.4260000000001 1140.14 352.539C1140.14 369.141 1133.3 387.207 1115.23 405.273L729.98 765.625C702.148 788.5740000000001 687.5 800.781 663.574 800.781C629.883 800.781 605.469 773.438 605.469 740.723V556.152H591.309C240.234 556.152 87.4023 331.055 87.4023 -29.785C87.4023 -71.78 111.328 -95.21 137.207 -95.21C158.203 -95.21 180.664 -90.3299999999999 197.266 -59.08C282.715 100.586 402.344 148.438 591.309 148.438H605.469V-38.086C605.469 -70.7999999999999 629.883 -95.21 662.598 -95.21z" />
    <glyph glyph-name="bookmark"
      unicode="&#x10025E;"
      horiz-adv-x="1024" d="M178.711 -172.3599999999999C204.102 -172.3599999999999 217.285 -158.2 268.066 -110.3499999999999L487.793 100.586C499.023 110.84 504.883 113.77 511.719 113.77C518.555 113.77 525.391 110.352 535.645 100.586L785.156 -139.6500000000001C804.688 -158.2 819.824 -172.3599999999999 844.727 -172.3599999999999C875.488 -172.3599999999999 898.926 -153.8099999999999 898.926 -109.3800000000001V723.145C898.926 824.707 848.633 875.9766 747.559 875.9766H275.879C175.293 875.9766 124.512 824.707 124.512 723.145V-109.3800000000001C124.512 -153.8099999999999 148.438 -172.3599999999999 178.711 -172.3599999999999zM215.332 -53.71C209.473 -59.57 203.125 -57.13 203.125 -49.32V721.6800000000001C203.125 770.508 229.492 797.363 280.273 797.363H743.652C794.434 797.363 820.312 770.508 820.312 721.6800000000001V-49.32C820.312 -57.13 813.965 -59.57 808.105 -53.71L567.383 176.7580000000001C549.805 193.848 532.715 204.59 511.719 204.59C490.723 204.59 474.121 193.359 456.055 176.7580000000001L215.332 -53.71z" />
    <glyph glyph-name="bookmark-fill"
      unicode="&#x10025F;"
      horiz-adv-x="1023" d="M178.711 -172.3599999999999C204.102 -172.3599999999999 217.285 -158.2 268.066 -110.3499999999999L487.793 100.586C499.023 110.84 504.883 113.77 511.719 113.77C518.555 113.77 525.391 110.352 535.645 100.586L785.156 -139.6500000000001C804.688 -158.2 819.824 -172.3599999999999 844.727 -172.3599999999999C875.488 -172.3599999999999 898.926 -153.8099999999999 898.926 -109.3800000000001V723.145C898.926 824.707 848.633 875.9766 747.559 875.9766H275.879C175.293 875.9766 124.512 824.707 124.512 723.145V-109.3800000000001C124.512 -153.8099999999999 148.438 -172.3599999999999 178.711 -172.3599999999999z" />
    <glyph glyph-name="link"
      unicode="&#x100263;"
      horiz-adv-x="960" d="M502.032 165.3184000000001L562.992 227.0800000000001C515.976 231.064 482.1072 246.6016 457.8048 270.904C390.46896 338.2432 390.46896 433.4704000000001 457.4064 500.008L589.6895999999999 632.68768C657.024 699.6251199999999 751.8528 700.02352 819.1872000000001 632.68768C886.92 564.95296 886.1232 470.1232 819.5856 403.1872L751.8528 335.8528C764.6016 306.3664 768.9839999999999 270.5056 761.8128 239.4304L875.7648 352.9840000000001C973.7808 450.6016 974.1792 590.05456 875.3663999999999 688.86736C776.1551999999999 788.07808 637.4976 787.28128 539.4864 689.26576L400.82832 550.6096C302.81232 452.5936 302.41392 313.5376 401.22672 214.7248C424.33584 191.2192 456.21072 173.6895999999999 502.032 165.3184000000001zM539.088 502L478.12512 440.2432C525.1392000000001 435.8608 559.008 420.7167999999999 583.3104000000001 396.4144C651.048 329.0800000000001 650.6496 233.8528 583.7088 166.9119999999999L451.42992 34.6336000000001C384.0936000000001 -32.7008000000001 289.26576 -32.7008000000001 222.32832 34.6336000000001C154.5936 102.3663999999999 154.992 196.7968000000001 221.92992 263.7328L289.26576 331.4704000000001C276.5155200000001 360.5536 272.53104 396.4144 279.3048 427.8928L165.35136 313.9360000000001C67.33584 216.3184 66.93744 77.2672 165.74976 -21.5455999999999C264.96096 -120.7568000000001 403.61712 -119.96 501.6336 -22.3424L640.2912 116.7087999999999C738.3024 214.7248 738.7008 353.7808 639.8928 452.5936C616.7808 475.7032 585.3024 493.23424 539.088 502z" />
    <glyph glyph-name="person-crop-circle"
      unicode="&#x10026D;"
      horiz-adv-x="1171" d="M585.449 -145.51C857.422 -145.51 1083.5 80.078 1083.5 352.539C1083.5 624.512 856.934 850.586 584.961 850.586C312.5 850.586 87.4023 624.512 87.4023 352.539C87.4023 80.078 312.988 -145.51 585.449 -145.51zM585.449 186.035C438.477 186.035 325.195 133.789 275.879 75.1950000000001C210.449 148.438 170.898 245.605 170.898 352.539C170.898 582.52 354.492 767.578 584.961 767.578C814.941 767.578 1000 582.52 1000.49 352.539C1000.49 245.117 960.938 147.949 895.02 74.707C845.703 133.3010000000001 732.422 186.035 585.449 186.035zM585.449 269.043C679.199 268.0660000000001 752.93 348.145 752.93 453.125C752.93 551.758 678.711 633.789 585.449 633.789C491.699 633.789 416.992 551.758 417.969 453.125C418.457 348.145 491.211 270.02 585.449 269.043z" />
    <glyph glyph-name="play-circle-fill"
      unicode="&#x100296;"
      horiz-adv-x="1171" d="M585.449 -145.51C857.422 -145.51 1083.5 80.078 1083.5 352.539C1083.5 624.512 856.934 850.586 584.961 850.586C312.5 850.586 87.4023 624.512 87.4023 352.539C87.4023 80.078 312.988 -145.51 585.449 -145.51zM496.094 164.062C473.633 150.391 448.242 161.1330000000001 448.242 184.5700000000001V520.508C448.242 542.969 475.098 552.7339999999999 496.094 540.527L770.508 377.93C790.527 366.211 791.016 338.379 770.508 326.1720000000001L496.094 164.062z" />
    <glyph glyph-name="magnifyingglass"
      unicode="&#x1002AB;"
      horiz-adv-x="1145" d="M492.555 25.922C573.621 25.922 649.314 52.292 710.846 96.244L870.861 -55.49C881.605 -66.24 895.767 -71.6099999999999 910.418 -71.6099999999999C942.16 -71.6099999999999 965.112 -47.1900000000001 965.112 -15.937C965.112 -1.2859999999999 960.229 12.3869999999999 949.485 23.131L790.935 173.891C839.282 237.376 868.094 316 868.094 401.461C868.094 608.0319999999999 699.126 777 492.555 777C285.496 777 117.016 608.0319999999999 117.016 401.461C117.016 194.89 285.496 25.922 492.555 25.922zM492.555 106.987C330.912 106.987 198.081 240.3060000000001 198.081 401.461C198.081 562.615 330.912 695.934 492.555 695.934C653.71 695.934 787.028 562.615 787.028 401.461C787.028 240.3060000000001 653.71 106.987 492.555 106.987z" />
    <glyph glyph-name="heart"
      unicode="&#x1002B4;"
      horiz-adv-x="1145" d="M572.266 -106.45C588.379 -106.45 608.887 -98.6300000000001 625.977 -87.4000000000001C892.578 83.008 1057.13 286.1330000000001 1057.13 486.816C1057.13 664.062 937.988 785.645 780.762 785.645C699.707 785.645 627.441 750.977 572.266 670.898C517.578 750.977 444.824 785.645 363.77 785.645C206.543 785.645 87.4023 664.062 87.4023 486.816C87.4023 286.1330000000001 251.953 83.008 518.555 -87.4000000000001C535.645 -98.6300000000001 556.152 -106.45 572.266 -106.45zM572.266 -25.391C569.336 -25.391 564.941 -23.926 559.57 -20.02C326.6600000000001 131.836 166.016 316.406 166.016 486.816C166.016 621.094 250.488 707.031 363.77 707.031C450.684 707.031 509.277 645.02 536.133 593.262C545.898 574.219 556.152 565.4300000000001 572.266 565.4300000000001C588.379 565.4300000000001 598.633 574.219 607.91 592.773C633.789 645.02 693.848 707.031 780.762 707.031C894.043 707.031 978.516 621.094 978.516 486.816C978.516 316.406 817.871 131.836 584.961 -20.02C579.102 -23.926 575.195 -25.391 572.266 -25.391z" />
    <glyph glyph-name="heart-fill"
      unicode="&#x1002B5;"
      horiz-adv-x="1164" d="M572.266 -106.45C588.379 -106.45 608.887 -98.6300000000001 625.977 -87.4000000000001C892.578 83.008 1057.13 286.1330000000001 1057.13 486.816C1057.13 664.062 937.988 785.645 780.762 785.645C699.707 785.645 627.441 748.047 572.266 661.133C517.578 748.047 444.824 785.645 363.77 785.645C206.543 785.645 87.4023 664.062 87.4023 486.816C87.4023 286.1330000000001 251.953 83.008 518.555 -87.4000000000001C535.645 -98.6300000000001 556.152 -106.45 572.266 -106.45z" />
    <glyph glyph-name="star"
      unicode="&#x1002C2;"
      horiz-adv-x="1284" d="M307.617 -140.1400000000001C327.637 -155.27 353.027 -149.9000000000001 383.301 -127.9300000000001L641.602 61.523L900.391 -127.9300000000001C930.664 -149.9000000000001 955.566 -155.27 976.074 -140.1400000000001C996.094 -125 1000.49 -100.0999999999999 988.281 -64.45L886.23 239.2580000000001L1146.97 426.7580000000001C1177.25 448.242 1189.45 470.703 1181.64 495.117C1173.83 518.5550000000001 1150.88 530.273 1113.28 529.7850000000001L793.457 527.832L696.289 833.008C684.57 869.1406 666.992 887.207 641.602 887.207C616.699 887.207 599.121 869.1406 587.402 833.008L490.234 527.832L170.41 529.7850000000001C132.812 530.273 109.863 518.5550000000001 102.051 495.117C93.75 470.703 106.445 448.242 136.719 426.7580000000001L397.461 239.2580000000001L295.4100000000001 -64.45C283.203 -100.0999999999999 287.598 -125 307.617 -140.1400000000001zM377.93 -43.457C376.953 -42.48 377.441 -41.992 377.93 -39.062L475.098 240.2340000000001C481.445 259.2770000000001 478.027 274.414 460.938 286.1330000000001L217.773 454.102C215.332 455.566 214.844 456.543 215.332 458.008C215.82 459.473 216.797 459.473 219.727 459.473L515.137 454.102C535.156 453.613 547.852 461.914 554.199 481.934L638.672 764.648C639.648 767.578 640.625 768.5550000000001 641.602 768.5550000000001C643.066 768.5550000000001 644.043 767.578 644.531 764.648L729.492 481.934C735.352 461.914 748.535 453.613 768.555 454.102L1063.96 459.473C1066.89 459.473 1067.87 459.473 1068.36 458.008C1068.85 456.543 1067.87 455.566 1065.92 454.102L822.754 286.1330000000001C805.664 274.414 801.758 259.2770000000001 808.594 240.2340000000001L905.762 -39.062C906.25 -41.992 906.738 -42.48 905.762 -43.457C904.785 -44.922 903.32 -43.945 901.367 -42.48L666.504 136.7190000000001C650.879 148.9260000000001 632.812 148.9260000000001 617.188 136.7190000000001L382.324 -42.48C380.371 -43.945 378.906 -44.922 377.93 -43.457z" />
    <glyph glyph-name="star-fill"
      unicode="&#x1002C3;"
      horiz-adv-x="1284" d="M307.617 -140.1400000000001C327.637 -155.27 353.027 -149.9000000000001 383.301 -127.9300000000001L641.602 61.523L900.391 -127.9300000000001C930.664 -149.9000000000001 955.566 -155.27 976.074 -140.1400000000001C996.094 -125 1000.49 -100.0999999999999 988.281 -64.45L886.23 239.2580000000001L1146.97 426.7580000000001C1177.25 448.242 1189.45 470.703 1181.64 495.117C1173.83 518.5550000000001 1150.88 530.273 1113.28 529.7850000000001L793.457 527.832L696.289 833.008C684.57 869.1406 666.992 887.207 641.602 887.207C616.699 887.207 599.121 869.1406 587.402 833.008L490.234 527.832L170.41 529.7850000000001C132.812 530.273 109.863 518.5550000000001 102.051 495.117C93.75 470.703 106.445 448.242 136.719 426.7580000000001L397.461 239.2580000000001L295.4100000000001 -64.45C283.203 -100.0999999999999 287.598 -125 307.617 -140.1400000000001z" />
    <glyph glyph-name="star-lefthalf-fill"
      unicode="&#x1002C4;"
      horiz-adv-x="1284" d="M307.617 -140.1400000000001C327.637 -155.27 353.027 -149.9000000000001 383.301 -127.9300000000001L641.602 61.523L900.391 -127.9300000000001C930.664 -149.9000000000001 955.566 -155.27 976.074 -140.1400000000001C996.094 -125 1000.49 -100.0999999999999 988.281 -64.45L886.23 239.2580000000001L1146.97 426.7580000000001C1177.25 448.242 1189.45 470.703 1181.64 495.117C1173.83 518.5550000000001 1150.88 530.273 1113.28 529.7850000000001L793.457 527.832L696.289 833.008C684.57 869.1406 666.992 887.207 641.602 887.207C616.699 887.207 599.121 869.1406 587.402 833.008L490.234 527.832L170.41 529.7850000000001C132.812 530.273 109.863 518.5550000000001 102.051 495.117C93.75 470.703 106.445 448.242 136.719 426.7580000000001L397.461 239.2580000000001L295.4100000000001 -64.45C283.203 -100.0999999999999 287.598 -125 307.617 -140.1400000000001zM641.602 145.5080000000001V768.5550000000001C643.066 768.5550000000001 644.043 767.578 644.531 764.648L729.492 481.934C735.352 461.914 748.535 453.613 768.555 454.102L1063.96 459.473C1066.89 459.473 1067.87 459.473 1068.36 458.008C1068.85 456.543 1067.87 455.566 1065.92 454.102L822.754 286.1330000000001C805.664 274.414 801.758 259.2770000000001 808.594 240.2340000000001L905.762 -39.062C906.25 -41.992 906.738 -42.48 905.762 -43.457C904.785 -44.922 903.32 -43.945 901.367 -42.48L666.504 136.7190000000001C658.691 142.578 650.391 145.996 641.602 145.5080000000001z" />
    <glyph glyph-name="star-circle"
      unicode="&#x1002C5;"
      horiz-adv-x="1152" d="M573.0312 -146.384C840.9119999999999 -146.384 1062.0192 74.7232000000001 1062.0192 342.1288C1062.0192 610.0096000000001 840.4392 831.1172799999999 572.5584 831.1172799999999C305.1504 831.1172799999999 84.516 610.0096000000001 84.516 342.1288C84.516 74.7232000000001 305.6232 -146.384 573.0312 -146.384zM573.0312 -48.5888C356.1768 -48.5888 182.78592 125.7472 182.78592 342.1288C182.78592 558.9856 356.1768 733.3196800000001 572.5584 733.3196800000001C789.4128000000001 733.3196800000001 963.7488 558.9856 964.2216 342.1288C964.6944 125.7472 789.8856000000001 -48.5888 573.0312 -48.5888zM390.6648 90.3136000000001C402.4752 81.808 415.7040000000001 84.6448 433.1856 96.928L573.0312 199.9216L713.3496 96.928C730.3584 84.6448 744.0576000000001 81.808 755.3976 90.3136000000001C766.7352 98.8168 768.6264 112.9911999999999 762.012 132.8344L707.208 297.2464L847.9967999999999 398.3512000000001C865.0056 410.164 872.0928000000001 423.3904 867.3672000000001 436.6192C862.644 449.3752000000001 850.3607999999999 456.4624 829.0992 456.4624L656.1816 455.0464000000001L603.2687999999999 620.404C597.1271999999999 640.2472 587.2056 650.1688 573.0312 650.1688C558.8568 650.1688 548.9352 640.2472 543.2664 620.404L490.3512 455.0464000000001L316.9632 456.4624C296.1744 456.4624 282.9456 449.3752000000001 279.1656 436.6192C274.9152000000001 422.92 281.0568 410.164 298.0632 398.3512000000001L439.3272 297.2464L384.0504 132.8344C377.436 112.9911999999999 379.7976 99.2896 390.6648 90.3136000000001z" />
    <glyph glyph-name="star-circle-fill"
      unicode="&#x1002C6;"
      horiz-adv-x="1152" d="M573.0312 -146.384C840.9119999999999 -146.384 1062.0192 74.7232000000001 1062.0192 342.1288C1062.0192 610.0096000000001 840.4392 831.1172799999999 572.5584 831.1172799999999C305.1504 831.1172799999999 84.516 610.0096000000001 84.516 342.1288C84.516 74.7232000000001 305.6232 -146.384 573.0312 -146.384zM389.7192 84.172C378.3816 92.6752 376.0176 106.8496 383.1048 126.6928L438.3816 292.0504L296.6472 393.6280000000001C279.1656 405.9112 273.024 418.6672 277.2768 432.3688C281.5296 445.5976 294.756 452.212 315.5448 452.212L489.8784 450.7936L542.7936 617.5696C548.9352 637.4128000000001 558.8568 647.3344 573.0312 647.3344C587.2056 647.3344 597.1271999999999 637.4128000000001 603.2687999999999 617.5696L656.6544 450.7936L830.9904 452.212C851.7767999999999 452.212 864.5328 445.5976 869.2583999999999 432.3688C873.9816000000001 419.14 866.8968 405.9112 849.8879999999999 393.6280000000001L708.1512 292.0504L763.428 126.6928C770.0423999999999 106.8496 768.1536 92.6752 756.8136 84.172C745.0032 75.1936000000001 731.3016 78.5008 714.2952 90.7864000000001L573.0312 193.78L432.24 90.7864000000001C414.7608 78.5008 401.0592 75.1936000000001 389.7192 84.172z" />
    <glyph glyph-name="bell"
      unicode="&#x1002D9;"
      horiz-adv-x="1171" d="M198.242 26.855H689.941C686.523 -39.062 644.043 -81.0499999999999 585.449 -81.0499999999999C526.367 -81.0499999999999 484.375 -39.062 480.469 26.855H404.2970000000001C408.203 -66.89 481.934 -149.4100000000001 585.449 -149.4100000000001C688.477 -149.4100000000001 762.207 -66.89 766.113 26.855H972.168C1018.55 26.855 1045.9 50.781 1045.9 85.938C1045.9 134.766 996.582 178.711 954.102 222.168C921.875 255.8590000000001 913.086 325.1950000000001 909.668 381.348C905.762 573.73 856.445 698.242 726.074 745.117C709.961 808.594 657.227 859.375 585.449 859.375C513.184 859.375 460.938 808.594 444.336 745.117C314.453 698.242 264.648 573.73 261.23 381.348C257.324 325.1950000000001 249.023 255.8590000000001 216.309 222.168C174.316 178.711 124.512 134.766 124.512 85.938C124.512 50.781 152.344 26.855 198.242 26.855zM219.727 100.586V106.4450000000001C228.516 121.0940000000001 257.324 149.414 283.203 178.223C317.871 217.285 334.473 279.785 338.867 375.4880000000001C342.773 588.379 406.25 656.738 490.234 679.1990000000001C502.441 682.129 508.789 688.477 509.277 700.684C511.23 751.953 540.039 787.598 585.449 787.598C630.371 787.598 659.668 751.953 661.133 700.684C661.621 688.477 668.457 682.129 680.664 679.1990000000001C764.16 656.738 827.637 588.379 832.031 375.4880000000001C835.938 279.785 852.539 217.285 887.695 178.223C913.086 149.414 942.383 121.0940000000001 951.172 106.4450000000001V100.586H219.727z" />
    <glyph glyph-name="tag-fill"
      unicode="&#x1002E2;"
      horiz-adv-x="1337" d="M633.301 -179.69C706.055 -252.93 783.203 -253.42 857.91 -179.69L1169.43 131.836C1243.65 205.566 1242.68 283.203 1169.43 356.4450000000001L689.941 834.961C651.855 873.5352 629.395 877.4414 574.219 877.4414H388.6720000000001C334.961 877.4414 316.406 864.7461 276.855 825.1949999999999L165.039 713.379C125 673.828 112.305 655.273 112.305 601.0740000000001V416.016C112.305 360.352 116.211 337.891 154.297 299.3160000000001L633.301 -179.69zM474.609 470.215C434.57 470.215 404.7850000000001 500.977 404.7850000000001 540.527C404.7850000000001 579.5899999999999 434.57 610.8399999999999 474.609 610.8399999999999C514.648 610.8399999999999 544.922 579.5899999999999 544.922 540.527C544.922 500.977 514.648 470.215 474.609 470.215z" />
    <glyph glyph-name="bubble-left"
      unicode="&#x10032A;"
      horiz-adv-x="1332" d="M428.219 -184.0799999999999C452.633 -184.0799999999999 469.234 -171.3900000000001 498.531 -145.02L667.477 4.883H980.465C1125.97 4.883 1204.1 85.449 1204.1 228.516V602.539C1204.1 745.605 1125.97 826.172 980.465 826.172H351.5590000000001C206.539 826.172 127.926 746.094 127.926 602.539V228.516C127.926 84.961 206.539 4.883 351.5590000000001 4.883H374.996V-122.0699999999999C374.996 -159.6700000000001 394.527 -184.0799999999999 428.219 -184.0799999999999zM448.238 -94.73V41.504C448.238 67.871 432.613 83.496 406.734 83.496H352.0470000000001C252.926 83.496 206.539 133.789 206.539 229.004V602.539C206.539 697.754 252.926 747.559 352.0470000000001 747.559H980.465C1079.1 747.559 1125.48 697.754 1125.48 602.539V229.004C1125.48 133.789 1079.1 83.496 980.465 83.496H664.059C637.203 83.496 623.043 79.59 604.488 60.547L448.238 -94.73z" />
    <glyph glyph-name="gear"
      unicode="&#x10035F;"
      horiz-adv-x="1275" d="M637.207 -125.49C649.902 -125.49 661.621 -124.02 674.805 -123.0499999999999L703.125 -176.76C708.496 -187.5 719.238 -193.3599999999999 732.422 -191.4100000000001C744.629 -188.96 753.418 -180.1800000000001 754.883 -166.99L763.672 -107.9100000000001C787.598 -101.5599999999999 811.523 -92.29 834.961 -82.03L878.906 -121.5799999999999C888.184 -130.3699999999999 899.902 -132.3199999999999 912.109 -125.49C922.852 -119.6300000000001 927.246 -107.9100000000001 924.805 -95.21L912.598 -36.621C932.617 -22.461 952.637 -6.348 970.703 11.7190000000001L1025.39 -11.23C1037.6 -16.1130000000001 1048.83 -13.672 1058.11 -2.441C1066.41 6.348 1067.38 19.043 1060.55 29.785L1028.81 80.566C1043.46 101.074 1055.18 123.047 1066.41 146.484L1125.98 143.555C1138.67 143.066 1149.41 149.9020000000001 1153.81 162.109C1157.71 174.316 1153.81 186.035 1143.55 193.848L1097.17 230.957C1103.52 254.395 1108.4 279.785 1110.35 306.1520000000001L1166.99 323.73C1179.2 328.125 1187.01 337.4020000000001 1187.01 350.586C1187.01 363.281 1179.2 372.559 1166.99 376.953L1110.35 395.02C1108.4 421.387 1103.52 445.801 1097.17 469.727L1143.55 507.324C1153.81 514.648 1157.71 525.879 1153.81 538.086C1149.41 550.293 1138.67 557.129 1125.98 556.6410000000001L1066.41 554.1990000000001C1055.18 577.637 1043.46 599.6089999999999 1028.81 620.117L1060.55 670.898C1067.38 681.152 1066.41 693.848 1058.11 702.637C1048.83 713.867 1037.6 716.797 1025.39 711.4259999999999L970.703 689.453C952.637 706.543 932.617 723.145 912.598 737.3050000000001L924.805 795.41C927.246 808.594 922.852 820.312 912.109 826.172C899.902 832.52 888.184 831.543 878.906 821.777L834.961 783.203C811.523 793.457 787.598 801.758 763.672 808.594L754.883 867.6758C753.418 880.3711 744.629 889.6484 732.422 891.6016C719.238 893.5547 708.496 888.1836 703.125 877.4414L674.805 823.73C661.621 824.707 649.902 825.684 637.207 825.684C624.023 825.684 612.305 824.707 598.633 823.73L570.801 877.4414C565.43 888.1836 554.688 893.5547 541.016 891.6016C528.809 889.6484 520.508 880.3711 518.555 867.6758L510.254 809.082C485.84 801.758 461.914 793.457 438.965 783.203L395.02 821.777C385.254 831.543 373.5350000000001 832.52 361.816 826.172C351.074 820.312 346.68 808.594 349.121 795.41L361.328 737.3050000000001C340.82 723.145 320.801 706.543 302.734 689.453L248.535 711.4259999999999C236.328 716.797 224.609 713.867 215.332 702.637C207.52 693.848 206.543 681.152 212.891 671.387L245.117 620.117C230.469 599.6089999999999 218.75 577.637 207.52 554.1990000000001L147.461 556.6410000000001C134.766 557.129 124.023 550.293 120.117 538.086C116.211 525.879 119.629 514.648 129.883 507.324L176.758 469.727C170.41 445.801 165.039 421.387 163.574 395.02L106.934 376.953C94.2383 373.0470000000001 87.4023 363.77 87.4023 350.586C87.4023 337.4020000000001 94.2383 328.125 106.934 323.73L163.574 305.664C165.039 279.785 170.41 254.395 176.758 230.957L129.883 193.848C119.629 186.035 116.211 174.316 120.117 162.109C124.023 149.9020000000001 134.766 143.066 147.461 143.555L207.52 146.484C218.75 123.047 230.469 101.074 244.629 80.566L213.379 29.785C206.055 19.043 207.031 6.348 215.332 -2.441C224.609 -13.672 236.328 -16.1130000000001 248.535 -11.23L302.734 11.7190000000001C320.801 -6.348 340.82 -22.461 361.328 -36.621L349.121 -95.21C346.68 -107.9100000000001 351.074 -119.6300000000001 361.816 -125.49C374.023 -132.3199999999999 385.742 -130.3699999999999 395.02 -121.5799999999999L438.477 -82.03C461.914 -92.29 485.84 -101.5599999999999 510.254 -107.9100000000001L518.555 -166.99C520.508 -180.1800000000001 528.809 -188.96 541.016 -191.4100000000001C554.688 -193.3599999999999 565.43 -187.5 570.801 -176.76L598.633 -123.0499999999999C611.816 -124.02 624.023 -125.49 637.207 -125.49zM759.766 381.348C736.816 442.871 691.895 476.562 635.742 476.562C627.441 476.562 617.676 475.586 602.051 472.168L461.914 711.4259999999999C514.16 737.3050000000001 573.73 751.465 637.207 751.465C850.098 751.465 1017.09 589.844 1032.23 381.348H759.766zM240.723 350.098C240.723 485.84 304.688 605.469 405.762 677.7339999999999L546.875 437.012C520.508 409.668 508.301 379.8830000000001 508.301 348.145C508.301 317.3830000000001 520.02 289.062 546.875 260.742L402.344 24.414C303.711 97.168 240.723 215.332 240.723 350.098zM577.148 348.6330000000001C577.148 381.836 605.469 407.7150000000001 636.719 407.7150000000001C669.922 407.7150000000001 697.266 381.836 697.266 348.6330000000001C697.266 315.918 669.922 289.062 636.719 289.062C605.469 289.062 577.148 315.918 577.148 348.6330000000001zM637.207 -51.27C572.266 -51.27 511.719 -36.133 458.496 -9.766L602.051 225.098C617.188 221.191 627.441 220.215 635.742 220.215C692.383 220.215 737.305 254.8830000000001 759.766 317.871H1032.23C1016.6 110.352 849.609 -51.27 637.207 -51.27z" />
    <glyph glyph-name="ellipsis-circle"
      unicode="&#x100361;"
      horiz-adv-x="1185" d="M585.449 -145.51C857.422 -145.51 1083.5 80.078 1083.5 352.539C1083.5 624.512 856.934 850.586 584.961 850.586C312.5 850.586 87.4023 624.512 87.4023 352.539C87.4023 80.078 312.988 -145.51 585.449 -145.51zM585.449 -62.5C354.98 -62.5 170.898 122.0700000000001 170.898 352.539C170.898 582.52 354.492 767.578 584.961 767.578C814.941 767.578 1000 582.52 1000.49 352.539C1000.98 122.0700000000001 815.43 -62.5 585.449 -62.5zM424.316 352.0510000000001C424.316 387.6950000000001 394.043 417.9690000000001 358.398 417.9690000000001C322.266 417.9690000000001 292.48 387.6950000000001 292.48 352.0510000000001C292.48 316.406 322.754 286.1330000000001 358.398 286.1330000000001C394.043 286.1330000000001 424.316 316.406 424.316 352.0510000000001zM650.879 352.0510000000001C650.879 387.6950000000001 620.117 417.9690000000001 584.961 417.9690000000001C548.828 417.9690000000001 519.043 387.6950000000001 519.043 352.0510000000001C519.043 316.406 549.805 286.1330000000001 584.961 286.1330000000001C620.117 286.1330000000001 650.879 316.406 650.879 352.0510000000001zM877.441 352.0510000000001C877.441 387.6950000000001 847.168 417.9690000000001 811.523 417.9690000000001C775.391 417.9690000000001 745.117 387.6950000000001 745.117 352.0510000000001C745.117 316.406 775.879 286.1330000000001 811.523 286.1330000000001C847.168 286.1330000000001 877.441 316.406 877.441 352.0510000000001z" />
    <glyph glyph-name="house"
      unicode="&#x10039E;"
      horiz-adv-x="1341" d="M1022.79 448.2L1101.4 376.92V180.96V26.4C1101.4 -42.4400000000001 1060.88 -81.5 991.547 -81.5H350.517C280.707 -81.5 240.177 -42.4400000000001 240.177 26.4V376.43L177.197 319.31C167.437 309.54 156.207 302.7100000000001 142.047 302.7100000000001C119.097 302.7100000000001 100.547 316.86 100.547 340.3C100.547 354.9500000000001 106.407 364.2200000000001 115.197 372.52L612.197 825.59C629.287 841.21 649.797 850 670.787 850C691.777 850 712.287 841.21 729.377 825.59L1226.38 372.52C1235.66 364.2200000000001 1241.03 354.9400000000001 1241.03 340.3C1241.03 316.87 1222.48 302.7100000000001 1199.53 302.7100000000001C1185.86 302.7100000000001 1174.63 309.55 1164.38 319.31L1101.4 376.92L1022.79 448.2L688.367 753.33C682.997 758.7 677.137 761.14 670.787 761.14C664.437 761.14 658.577 758.21 653.697 753.33L318.787 448.2V45.93C318.787 14.2 335.867 -2.89 367.117 -2.89H974.937C1005.7 -2.89 1022.79 14.2 1022.79 45.93V199.6V448.2z" />
    <glyph glyph-name="gift"
      unicode="&#x100449;"
      horiz-adv-x="1208" d="M217.285 662.598C160.156 662.598 124.512 625 124.512 565.4300000000001V442.3830000000001C124.512 391.1130000000001 148.926 355.957 194.336 347.168V43.457C194.336 -48.83 245.117 -97.1700000000001 337.402 -97.1700000000001H861.328C953.613 -97.1700000000001 1003.91 -48.83 1003.91 43.457V347.168C1049.32 355.957 1074.22 391.1130000000001 1074.22 442.3830000000001V565.4300000000001C1074.22 625 1041.5 662.598 981.445 662.598H877.93C905.273 689.453 921.387 724.609 921.387 764.16C921.387 858.8867 846.191 926.2695 751.953 926.2695C682.129 926.2695 624.512 887.6953 599.121 818.848C573.73 887.6953 516.602 926.2695 446.777 926.2695C352.051 926.2695 277.344 858.8867 277.344 764.16C277.344 724.609 292.969 689.453 320.312 662.598H217.285zM483.398 662.598C402.832 662.598 359.863 709.961 359.863 760.742C359.863 813.477 399.414 844.727 451.66 844.727C511.719 844.727 559.082 798.34 559.082 720.703V662.598H483.398zM715.332 662.598H639.16V720.703C639.16 798.34 687.012 844.727 747.07 844.727C799.316 844.727 838.379 813.477 838.379 760.742C838.379 709.961 794.434 662.598 715.332 662.598zM237.305 588.867H556.152V418.9450000000001H237.305C212.891 418.9450000000001 203.125 429.199 203.125 453.613V554.688C203.125 579.102 212.891 588.867 237.305 588.867zM961.914 588.867C986.328 588.867 995.605 579.102 995.605 554.688V453.613C995.605 429.199 986.328 418.9450000000001 961.914 418.9450000000001H642.578V588.867H961.914zM336.426 -23.926C295.898 -23.926 272.949 -0.977 272.949 39.551V345.2150000000001H556.152V-23.926H336.426zM925.293 39.551C925.293 -0.977 902.344 -23.926 861.816 -23.926H642.578V345.2150000000001H925.293V39.551z" />
    <glyph glyph-name="plus-app"
      unicode="&#x10044D;"
      horiz-adv-x="1200" d="M0.9459886761032 954.3491753538718H1199.9468213155703V-244.6516572855953H0.9459886761034V954.3491753538718zM1123.873438800999 874.6972189841798C1057.548709408826 941.0194504579518 963.9177352206494 951.4229009159034 852.7303913405495 951.4229009159034H346.2114904246461C236.9745212323064 951.4229009159034 143.3435470441299 941.0194504579518 77.0215154038301 874.6972189841798C10.6992839300583 808.37518734388 0.9459886761032 715.3936719400499 0.9459886761032 606.8081598667777V104.839467110741C0.9459886761032 -6.3468776019984 10.6992839300583 -98.6819317235636 77.0215154038301 -164.9966694421316C143.3435470441299 -231.3213988343047 236.9745212323064 -241.7227310574521 347.5114071606994 -241.7227310574521H852.7303913405495C963.9177352206494 -241.7227310574521 1057.548709408826 -231.3213988343047 1123.873438800999 -164.9966694421316C1190.1981681931725 -98.6819317235636 1199.9500416319734 -6.3468776019984 1199.9500416319734 104.839467110741V604.8567860116569C1199.9500416319734 716.0441298917569 1190.1981681931725 809.025645295587 1123.873438800999 874.6972189841798zM1095.2572855953372 623.0626144879268V87.2840965861783C1095.2572855953372 19.6614487926728 1086.804329725229 -49.263114071607 1047.1473771856786 -88.9200666111574C1008.1298917568693 -127.9375520399665 937.9094088259784 -137.0399666944213 870.9372189841798 -137.0399666944213H329.9560366361366C262.9838467943381 -137.0399666944213 192.7603663613655 -127.9375520399665 153.097418817652 -88.9200666111574C114.0839300582848 -49.263114071607 105.6309741881765 19.6614487926728 105.6309741881765 87.2840965861783V621.1122398001665C105.6309741881765 689.3853455453789 114.0839300582848 759.6088259783514 153.097418817652 798.6213155703581C192.7603663613655 838.2852622814321 263.634304746045 846.7382181515404 331.9064113238968 846.7382181515404H870.9372189841798C937.9094088259784 846.7382181515404 1008.1298917568693 837.6348043297253 1047.1473771856786 798.6213155703581C1086.804329725229 758.9583680266444 1095.2572855953372 690.0358034970857 1095.2572855953372 623.0626144879268zM599.7961698584513 47.6211490424646C634.2574521232306 47.6211490424646 655.065112406328 71.6791007493755 655.065112406328 109.391673605329V301.2058284762698H858.5825145711907C894.9951706910907 301.2058284762698 920.353039134055 320.7115736885928 920.353039134055 355.1738551207327C920.353039134055 390.2855953372191 896.295087427144 410.4417985012491 858.5825145711907 410.4417985012491H655.065112406328V614.610657785179C655.065112406328 652.3232306411323 634.2574521232306 676.3811823480432 599.7961698584513 676.3811823480432C565.334887593672 676.3811823480432 545.8281432139884 651.0223147377186 545.8281432139884 614.610657785179V410.4417985012491H342.9601998334721C304.5971690258118 410.4417985012491 280.5392173189009 390.2855953372191 280.5392173189009 355.1738551207327C280.5392173189009 320.7115736885928 306.5485428809326 301.2058284762698 342.9601998334721 301.2058284762698H545.8281432139884V109.391673605329C545.8281432139884 72.9790174854288 565.334887593672 47.6211490424646 599.7961698584513 47.6211490424646zM0.9459886761032 954.3491753538718H1199.9468213155703V-244.6516572855953H0.9459886761034V954.3491753538718z" />
    <glyph glyph-name="video-bubble-left"
      unicode="&#x100C70;"
      horiz-adv-x="1200" d="M396.214 -95.4300000000001C420.195 -95.4300000000001 438.18 -83.8599999999999 467.3 -58.17L614.183 72.0119999999999H873.263C1002.16 72.0119999999999 1074.53 145.668 1074.53 272.853V605.1600000000001C1074.53 732.344 1002.16 806 873.263 806H327.268C198.371 806 126 732.344 126 605.1600000000001V272.853C126 145.668 200.084 72.0119999999999 324.271 72.0119999999999H341.828V-33.761C341.828 -71.8699999999999 361.955 -95.4300000000001 396.214 -95.4300000000001zM417.197 -1.215V120.831C417.197 146.096 406.491 155.946 382.082 155.946H329.4100000000001C248.474 155.946 209.933 196.6280000000001 209.933 275.4220000000001V602.5899999999999C209.933 681.385 248.474 722.067 329.4100000000001 722.067H870.693C951.629 722.067 990.598 681.385 990.598 602.5899999999999V275.4220000000001C990.598 196.6280000000001 951.629 155.946 870.693 155.946H609.473C583.779 155.946 570.932 151.663 552.946 132.821L417.197 -1.215zM427.474 269.427H644.587C688.267 269.427 713.533 294.264 713.533 337.087V539.64C713.533 582.892 689.98 607.3009999999999 646.3 607.3009999999999H427.474C385.508 607.3009999999999 358.529 582.892 358.529 539.64V336.231C358.529 293.408 384.223 269.427 427.474 269.427zM737.514 377.341L814.595 311.822C823.16 304.9700000000001 831.724 300.259 839.861 300.259C856.562 300.259 867.696 312.25 867.696 330.236V546.0640000000001C867.696 563.621 856.562 575.6120000000001 839.861 575.6120000000001C831.724 575.6120000000001 822.731 570.9010000000001 814.595 564.4780000000001L737.514 498.53V377.341z" />
    <glyph glyph-name="bug"
      unicode="&#x101003;"
      horiz-adv-x="1177" d="M798.22 851.155L708.164 722.219C671.991 738.864 631.741 747.985 589.72 747.985H589.641L589.561 747.984C548.608 747.579 510.09 738.864 475.353 723.409L387.289 851.537L387.187 851.679C374.691 869.0342 349.83 874.6363 331.354 861.4354C313.019 848.646 308.65 823.74 320.886 805.7470000000001L320.915 805.703L407.466 680.204C355.897 635.0029999999999 320.891 570.741 310.21 495.677C258.597 506.039 220.806 549.398 220.806 600.0889999999999C220.806 622.287 202.867 640.226 180.668 640.226C158.84 640.226 140.099 622.653 140.099 600.0889999999999C140.099 504.784 212.987 426.861 306.478 414.048V356.606H153.513C131.314 356.606 113.375 338.6660000000001 113.375 316.468C113.375 294.269 131.314 276.3300000000001 153.513 276.3300000000001H306.909V194.75C213.418 181.937 140.53 104.014 140.53 8.7089999999999C140.53 -13.489 158.469 -31.429 180.668 -31.429C202.867 -31.429 220.806 -13.489 220.806 8.7089999999999C220.806 58.9260000000001 257.548 101.614 308.067 112.7290000000001C318.409 -43.1 433.553 -155.1400000000001 590.151 -155.1400000000001C747.699 -155.1400000000001 858.472 -17.404 870.245 113.346C921.436 102.6180000000001 959.065 59.431 959.065 8.7089999999999C959.065 -13.49 977.004 -31.429 999.203 -31.429C1021.4 -31.429 1039.34 -13.489 1039.34 8.7089999999999C1039.34 104.467 965.609 182.827 871.237 194.888V276.3300000000001H1024.63C1046.83 276.3300000000001 1064.77 294.269 1064.77 316.468C1064.77 338.6660000000001 1046.83 356.606 1024.63 356.606H871.237V413.91C965.609 425.971 1039.34 504.331 1039.34 600.0889999999999C1039.34 622.287 1021.4 640.226 999.203 640.226C977.004 640.226 959.065 622.287 959.065 600.0889999999999C959.065 548.7149999999999 920.682 505.284 868.662 495.177C860.373 561.429 832.556 621.69 787.24 667.006C783.646 670.6 779.915 674.22 775.961 677.745L864.01 805.102C877.195 823.576 871.591 848.426 854.241 860.9179L854.121 861.0043000000001L854 861.0884C835.263 874.0601 810.882 868.7411 798.287 851.248L798.22 851.155zM857.219 477.456C856.274 477.375 855.327 477.305 854.377 477.244L854.375 477.244C855.326 477.305 856.274 477.375 857.219 477.456zM589.72 667.278C644.77 667.278 693.175 647.679 729.638 610.819L729.639 610.818C763.502 576.594 784.358 529.544 789.145 476.433H388.831C400.698 589.646 482.073 667.278 589.72 667.278zM387.185 136.295V396.158H549.582V-70.76C453.559 -53.29 387.185 27.542 387.185 136.295zM790.53 136.295C790.53 47.995 725.481 -48.32 629.858 -69.74V396.158H790.53V136.295z" />
    <glyph glyph-name="incognito"
      unicode="&#x101004;"
      horiz-adv-x="1200" d="M417.552 747.857C424.558 760.002 437.5 767.487 451.513 767.5H795.429C809.47 767.516 822.447 760.0260000000001 829.469 747.857L999.435 453.214H1133.21C1186.29 453.966 1186.29 373.8920000000001 1133.21 374.6420000000001H113.729C92.0811 374.346 74.3348 391.637 73.9423 413.544C73.6008 435.451 91.6022 453.528 113.729 453.214H247.586L417.552 747.857zM152.442 99.643C152.442 207.662 240.777 296.0710000000001 348.7080000000001 296.0710000000001C448.155 296.0710000000001 530.81 220.96 543.206 124.6570000000001C568.772 133.9500000000001 595.888 138.928 623.479 138.928C651.074 138.928 678.178 133.949 703.747 124.6570000000001C716.144 220.96 798.799 296.0710000000001 898.25 296.0710000000001C1006.18 296.0710000000001 1094.52 207.662 1094.52 99.643C1094.52 -8.377 1006.18 -96.79 898.25 -96.79C814.908 -96.79 743.727 -43.857 715.398 29.895C688.651 49.318 656.675 60.357 623.479 60.357C590.275 60.357 558.299 49.3869999999999 531.556 29.972C503.247 -43.816 432.069 -96.79 348.7080000000001 -96.79C240.777 -96.79 152.442 -8.377 152.442 99.643zM466.467 99.643C466.467 165.199 414.209 217.5 348.7080000000001 217.5C283.206 217.5 230.948 165.199 230.948 99.643C230.948 34.086 283.206 -18.215 348.7080000000001 -18.215C414.209 -18.215 466.467 34.086 466.467 99.643zM1016.01 99.643C1016.01 165.199 963.752 217.5 898.25 217.5C832.749 217.5 780.491 165.199 780.491 99.643C780.491 34.086 832.749 -18.215 898.25 -18.215C963.752 -18.215 1016.01 34.086 1016.01 99.643z" />
    <glyph glyph-name="television-screen"
      unicode="&#x101005;"
      horiz-adv-x="1200" d="M125.6771946 58.7089070000001L1075.5569914 58.7089070000001C1157.7699816 58.7089070000001 1200.6101151999999 100.316231 1200.6101151999999 183.8390814L1200.6101151999999 693.991104C1200.6101151999999 777.8992074 1157.7699816 819.5065314 1075.5569914 819.5065314L125.6771946 819.5065314C43.541255 819.5065314 0.6240708 777.8992074 0.6240708 693.991104L0.6240708 183.8390814C0.6240708 100.316231 43.541255 58.7089070000001 125.6771946 58.7089070000001zM131.5330402 146.3154392C101.714458 146.3154392 88.230603 158.4894340000001 88.230603 189.2326234L88.230603 688.5205114C88.230603 719.2637007999999 101.714458 731.4376956 131.5330402 731.4376956L1070.1634494 731.4376956C1099.519728 731.4376956 1113.003583 719.2637007999999 1113.003583 688.5205114L1113.003583 189.2326234C1113.003583 158.4894340000001 1099.519728 146.3154392 1070.1634494 146.3154392L131.5330402 146.3154392zM928.3903454000002 -65.4196096000001C928.3903454000002 -41.0716199999999 908.5112906 -20.7302615999998 884.163301 -20.7302615999998L316.2233284 -20.7302615999998C291.7982882 -20.7302615999998 271.9192334 -41.0716199999999 271.9192334 -65.4196096000001C271.9192334 -89.7675992000002 291.7982882 -110.1089575999999 316.2233284 -110.1089575999999L884.163301 -110.1089575999999C908.5112906 -110.1089575999999 928.3903454000002 -89.7675992000002 928.3903454000002 -65.4196096000001z" />
    <glyph glyph-name="publication"
      unicode="&#x101007;"
      horiz-adv-x="1200" d="M600.2023534 764.7178109C553.6297294 819.8287493 450.1026673 868.7300045 328.4316871000001 868.7300045C166.3977661 868.7300045 35.1211822 784.6082024 0.4827931 704.9496101L0.4827931 -88.1433661000001C0.4827931 -139.8583840000001 34.5390244 -159.7487755000002 71.5060447 -159.7487755000002C99.9347506 -159.7487755000002 116.4292216 -151.2104611000002 133.9909819 -138.1119106000003C166.3977661 -111.4296781000003 228.3975718000001 -75.0448156000002 328.4316871000001 -75.0448156000002C429.0479602000001 -75.0448156000002 499.5860803 -110.2653625000003 528.596944 -134.7159901000002C545.6735728000001 -147.8145406000001 565.5639643000001 -159.7487755000002 600.2023534 -159.7487755000002C634.9377688 -159.7487755000002 654.2460025 -146.6502250000003 671.8077628 -134.7159901000002C701.9829421000001 -112.0118359000003 770.7745888 -75.0448156000002 871.3908619 -75.0448156000002C972.0071349999998 -75.0448156000002 1034.5890985 -112.0118359000003 1066.4137249 -138.1119106000003C1084.0725115 -151.2104611000002 1100.4699561999998 -159.7487755000002 1128.4135305999998 -159.7487755000002C1165.8656824 -159.7487755000002 1200.0189400000002 -139.8583840000001 1200.0189400000002 -88.1433661000001L1200.0189400000002 704.9496101C1164.7983930999999 784.6082024 1033.4247829 868.7300045 871.3908619 868.7300045C750.3020395 868.7300045 646.8720037 819.8287493 600.2023534 764.7178109zM115.264906 668.5647476C129.5277721 703.300163 207.9250225000001 762.3891797 328.4316871000001 762.3891797C449.5205095000001 762.3891797 530.2463911 702.7180052 542.7627838 668.5647476L542.7627838 -26.7257182000001C489.3983188 11.9877754999999 411.4861999000001 31.8781669999999 328.4316871000001 31.8781669999999C245.4742006 31.8781669999999 168.1442395 11.9877754999999 115.264906 -28.9573231000003L115.264906 668.5647476zM1085.1398008 668.5647476L1085.1398008 -28.9573231000003C1031.6783095 11.9877754999999 954.4453747 31.8781669999999 871.3908619 31.8781669999999C788.4333753999999 31.8781669999999 710.5212565 11.9877754999999 657.641923 -26.7257182000001L657.641923 668.5647476C670.1583157 702.7180052 750.8841973 762.3891797 871.3908619 762.3891797C992.4796843 762.3891797 1070.3918032000001 703.300163 1085.1398008 668.5647476z" />
    <glyph glyph-name="plus-in-square"
      unicode="&#x101009;"
      horiz-adv-x="1200" d="M1086.2485714285715 856.5796923076923C1025.3057142857142 921.5733538461539 942.1028571428571 934.8245846153847 834.8768571428573 934.8245846153847H384.8768571428572C278.8225714285715 934.8245846153847 195.6197142857143 921.5733538461539 135.2674285714286 856.5796923076923C74.9162571428572 792.2163076923077 63.7835142857143 703.2436923076923 63.7835142857143 589.0313846153847V108.2015384615384C63.7835142857143 -7.9076923076923 74.9162571428572 -96.8738461538462 135.2674285714286 -161.24C195.6197142857143 -226.2338461538461 278.8225714285715 -238.8523076923077 386.0494285714286 -238.8523076923077H834.8768571428573C942.1028571428571 -238.8523076923077 1025.8971428571429 -226.2338461538461 1086.2485714285715 -161.24C1146.0085714285715 -96.2461538461539 1157.142857142857 -7.9076923076923 1157.142857142857 108.2015384615384V587.1381538461538C1157.142857142857 703.2436923076923 1146.0085714285715 792.2163076923077 1086.2485714285715 856.5796923076923zM1040.537142857143 604.8067692307692V90.5338461538462C1040.537142857143 24.9076923076923 1032.9257142857143 -34.4092307692308 1000.697142857143 -69.1076923076923C967.8857142857144 -104.4523076923078 912.2228571428572 -113.2861538461539 851.2834285714287 -113.2861538461539H370.2291428571429C309.2914285714286 -113.2861538461539 253.0414285714286 -103.8153846153846 220.8145714285714 -69.1076923076923C188.5885714285715 -34.4092307692308 180.3848571428572 24.9076923076923 180.3848571428572 90.5338461538462V603.544923076923C180.3848571428572 670.432 188.5885714285715 730.3775384615385 220.8145714285714 765.0833846153846C253.0414285714286 799.7883076923076 309.2914285714286 808.623076923077 371.4008571428572 808.623076923077H851.2834285714287C912.2228571428572 808.623076923077 967.8857142857144 799.7883076923076 1000.697142857143 765.0833846153846C1032.9257142857143 729.7461538461539 1040.537142857143 670.432 1040.537142857143 604.8067692307692zM609.8768571428571 50.1492307692306C644.4471428571429 50.1492307692306 666.1268571428571 75.3898461538462 666.1268571428571 114.5116923076923V288.6704615384615H837.221142857143C872.3742857142857 288.6704615384615 897.5742857142859 311.3873846153846 897.5742857142859 347.3550769230769C897.5742857142859 384.5846153846154 873.5485714285714 407.932 837.221142857143 407.932H666.1268571428571V591.555076923077C666.1268571428571 630.6778461538461 644.4471428571429 655.9184615384615 609.8768571428571 655.9184615384615C575.8928571428571 655.9184615384615 555.3848571428572 629.416 555.3848571428572 591.555076923077V407.932H384.2914285714286C347.9631428571429 407.932 323.94 384.5846153846154 323.94 347.3550769230769C323.94 311.3873846153846 349.1348571428572 288.6704615384615 384.2914285714286 288.6704615384615H555.3848571428572V114.5116923076923C555.3848571428572 76.6516923076922 575.8928571428571 50.1492307692306 609.8768571428571 50.1492307692306z" />
    <glyph glyph-name="bookmark-on-bookmark"
      unicode="&#x101010;"
      horiz-adv-x="1262" d="M902.59 659.9100000000001V707.4300000000001C902.59 759.94 888.95 806.83 855.66 840.45C822.31 874.13 775.66 888 723.39 888H309.21C256.94 888 210.29 874.13 176.93 840.44C143.64 806.83 130 759.94 130 707.4300000000001V155.9500000000001C130 125.68 138.71 98.03 158.53 77.88C178.3 57.78 204.17 50.18 228.46 50.18C250.44 50.18 268.13 56.84 285.5 68.88C299.88 78.84 315.64 93.72 334.12 111.16L335.64 112.59L358.04 132.8200000000001V-72.1500000000001C358.04 -102.3099999999999 366.81 -129.8399999999999 386.65 -149.9000000000001C406.4 -169.8599999999999 432.2200000000001 -177.46 456.51 -177.46C478.49 -177.46 496.18 -170.79 513.55 -158.76C527.93 -148.7999999999999 543.69 -133.9200000000001 562.17 -116.47L563.65 -115.0699999999999L744.75 47.66L946.32 -135.47C964.88 -153.1199999999999 990.48 -177 1032.62 -177C1056.88 -177 1082.77 -169.4200000000001 1102.62 -149.46C1122.6 -129.3699999999999 1131.54 -101.71 1131.54 -71.23V479.34C1131.54 531.85 1117.89 578.74 1084.6 612.36C1051.24 646.04 1004.59 659.9200000000001 952.33 659.9200000000001H902.59H820.6H537.25C484.98 659.9200000000001 438.33 646.05 404.98 612.36C371.69 578.74 358.05 531.86 358.05 479.34V243.0800000000001L308.73 198.76L308.65 198.6900000000001L280.04 172.84L279.71 172.53C258.39 152.41 247.35 142.18 238.83 136.28C232.9 132.17 231.17 132.17 228.57 132.17H228.48C220.84 132.17 217.98 134.38 216.99 135.38C216.06 136.3200000000001 212 141.0700000000001 212 155.9500000000001V707.4300000000001C212 746.6 222.08 769.51 235.2 782.76C248.26 795.94 270.71 806.02 309.2200000000001 806.02H723.4C761.91 806.02 784.36 795.94 797.42 782.76C810.54 769.51 820.62 746.6 820.62 707.4300000000001V659.9100000000001H902.59zM440.03 479.34C440.03 518.51 450.11 541.4100000000001 463.23 554.6700000000001C476.29 567.85 498.74 577.9300000000001 537.25 577.9300000000001H952.34C990.85 577.9300000000001 1013.3 567.86 1026.36 554.6700000000001C1039.48 541.4200000000001 1049.56 518.51 1049.56 479.34V-71.23C1049.56 -85.9100000000001 1045.5 -90.6300000000001 1044.5 -91.6400000000001C1043.37 -92.78 1040.29 -95.01 1032.63 -95.01C1028.28 -95.01 1025.49 -94.1199999999999 1022.05 -92.0899999999999C1017.38 -89.3299999999999 1011.99 -84.77 1002.5 -75.74L1002.16 -75.4200000000001L791.93 115.5700000000001L791.41 116.01C783.07 123.1 767.03 136.72 744.79 136.72C724.02 136.72 708.92 126.22 696.93 114.92L508.11 -54.76L507.74 -55.11C486.42 -75.23 475.38 -85.46 466.86 -91.3599999999999C460.93 -95.47 459.2 -95.47 456.6 -95.47H456.51C448.86 -95.47 445.95 -93.26 444.94 -92.24C444.02 -91.3199999999999 440.02 -86.69 440.02 -72.1500000000001V479.34H440.03z" />
    <glyph glyph-name="lock-in-shield"
      unicode="&#x101011;"
      horiz-adv-x="1200" d="M609.5292631578948 -239.8817391304346C593.9867368421053 -239.8817391304346 574.7431578947369 -233.151304347826 560.6804210526316 -226.4260869565216C154.3484210526316 -24.0486956521738 28.5258947368421 40.1460869565218 28.5258947368421 233.9669565217391V694.9709565217391C28.5258947368421 761.6153043478262 51.4699578947369 784.2373913043479 126.9631578947369 808.0824347826087C255.7465263157895 849.0473043478261 425.2364210526316 904.6858260869566 554.7593684210527 941.3706086956522C574.0029473684211 946.8732869565218 591.0258947368421 951.1531913043478 609.5292631578948 951.1531913043478C628.0326315789474 951.1531913043478 645.0568421052632 946.8732869565218 664.3010526315791 941.3706086956522C793.08 902.851547826087 963.3094736842106 849.0473043478261 1092.0947368421052 808.0824347826087C1167.5873684210526 784.8488695652175 1190.5326315789475 761.6153043478262 1190.5326315789475 694.9709565217391V233.9669565217391C1190.5326315789475 40.1460869565218 1061.0084210526315 -19.7704347826086 658.3768421052632 -226.4260869565216C644.3178947368422 -233.151304347826 625.0717894736842 -239.8817391304346 609.5292631578948 -239.8817391304346zM609.5292631578948 -189.1321739130435C622.1115789473685 -189.1321739130435 637.6547368421053 -182.4069565217389 648.7578947368422 -176.2921739130434C993.6568421052632 6.52 1135.762105263158 57.8799999999999 1135.762105263158 240.6921739130436V688.2457391304347C1135.762105263158 732.2674782608696 1125.397894736842 748.1638260869565 1087.6547368421054 760.392347826087C1007.722105263158 786.6833043478262 733.8694736842106 872.2808695652174 653.1978947368422 897.960347826087C635.4315789473684 904.0744 619.1507368421053 907.742852173913 609.5292631578948 907.742852173913C599.9077894736843 907.742852173913 584.3646315789474 903.4629739130434 565.8612631578947 897.960347826087C485.1871578947369 872.2808695652174 212.0785263157895 786.0718260869565 131.4044210526316 760.392347826087C93.6574736842105 748.1638260869565 83.2957894736842 732.2674782608696 83.2957894736842 688.2457391304347V240.6921739130436C83.2957894736842 57.8799999999999 226.8814736842106 8.9669565217391 570.3025263157896 -176.2921739130434C581.4044210526316 -182.4069565217389 596.9469473684212 -189.1321739130435 609.5292631578948 -189.1321739130435zM878.1978947368423 150.2017391304348C878.1978947368423 100.6782608695652 851.5515789473686 78.6660869565219 796.7810526315791 78.6660869565219H422.2762105263158C367.5063157894738 78.6660869565219 340.8612631578948 100.6782608695652 340.8612631578948 150.2017391304348V403.3286956521739C340.8612631578948 451.628695652174 366.0258947368422 473.6398260869566 418.5751578947369 474.2507826086957V561.6833043478262C418.5751578947369 663.7892173913044 495.5488421052631 731.656 609.5292631578948 731.656C723.5115789473684 731.656 800.482105263158 663.7892173913044 800.482105263158 561.6833043478262V474.2507826086957C853.0294736842106 473.6398260869566 878.1978947368423 451.628695652174 878.1978947368423 403.3286956521739V150.2017391304348zM754.5978947368422 474.8622608695652V563.5172173913044C754.5978947368422 641.7780869565217 696.1263157894737 693.7485217391304 609.5292631578948 693.7485217391304C522.9341052631579 693.7485217391304 464.4631578947369 641.7780869565217 464.4631578947369 563.5172173913044V474.8622608695652H754.5978947368422z" />
    <glyph glyph-name="lock-in-shield-fill"
      unicode="&#x101012;"
      horiz-adv-x="1058.8235294117649" d="M533.8235294117648 -198.6800000000003C544.3016470588235 -198.6800000000003 559.1915294117647 -194.2611764705882 573.529411764706 -187.0964705882354C891.1764705882354 -26.0635294117648 998.16 62.1717647058822 998.16 259.5957647058824V664.9261176470588C998.16 736.0663529411764 972.7905882352942 764.1915294117647 911.5835294117647 790.1101176470588C854.2305882352941 813.8235294117646 655.6983529411765 882.7571764705882 601.1025882352942 900.4043764705882C580.1470588235295 907.0220235294119 554.7797647058824 911.433788235294 533.8235294117648 911.433788235294C512.316 911.433788235294 487.5000000000001 906.4705882352941 466.5444705882353 900.4043764705882C411.396705882353 883.3091764705882 212.8672941176471 813.2722352941176 155.5143529411765 790.1101176470588C94.3016470588235 764.7428235294117 68.9337882352941 736.0663529411764 68.9337882352941 664.9261176470588V259.5957647058824C68.9337882352941 62.1717647058822 179.7797647058824 -19.4494117647059 494.1176470588235 -187.0964705882354C508.4555294117648 -194.8188235294119 523.3454117647059 -198.6800000000003 533.8235294117648 -198.6800000000003zM328.6764705882353 168.604705882353V388.6395294117646C328.6764705882353 427.7941176470588 344.1176470588236 448.1983529411765 375 452.6101176470588V514.3748235294117C375 620.2571764705882 438.9705882352942 691.396705882353 533.8235294117648 691.396705882353C628.1251764705884 691.396705882353 692.6470588235295 620.2571764705882 692.6470588235295 514.3748235294117V452.0588235294117C722.9788235294119 448.1983529411765 738.9741176470588 427.7941176470588 738.9741176470588 388.6395294117646V168.604705882353C738.9741176470588 123.9364705882353 718.5670588235295 103.5294117647059 677.7571764705882 103.5294117647059H389.8898823529412C348.5294117647059 103.5294117647059 328.6764705882353 123.9364705882353 328.6764705882353 168.604705882353zM449.448705882353 454.2647058823529H617.6470588235295V519.8898823529412C617.6470588235295 579.4487058823529 584.0075294117648 618.603294117647 533.2722352941176 618.603294117647C483.0882352941177 618.603294117647 449.448705882353 579.4487058823529 449.448705882353 519.8898823529412V454.2647058823529z" />
    <glyph glyph-name="cc-attribution"
      unicode="&#x101013;"
      horiz-adv-x="1200" d="M584.765625 955C260.7421875 946.796875 0 681.00098125 0 355C0 23.79881875 268.7988375 -245 600 -245C931.20118125 -245 1200 23.79881875 1200 355C1200 686.2011625 931.20118125 955 600 955C594.7998 955 589.8925875 955.146484375 584.765625 955zM584.1796875 851.875C589.5263625 852.021475 594.653325 851.875 600 851.875C874.2919875 851.875 1096.875 629.2919875 1096.875 355C1096.875 80.7080125 874.2919875 -141.875 600 -141.875C325.7080125 -141.875 103.125 80.7080125 103.125 355C103.125 623.9453125 317.28515625 843.37890625 584.1796875 851.875zM686.71875 656.171875C686.71875 608.34473125 647.9004 569.453125 600 569.453125C552.09961875 569.453125 513.28125 608.34473125 513.28125 656.171875C513.28125 704.07225625 552.09961875 742.890625 600 742.890625C647.9004 742.890625 686.71875 704.07225625 686.71875 656.171875zM510.278325 -32.890625L689.721675 -32.890625L689.721675 255.390625L743.99415 255.390625C743.99415 255.390625 743.92089375 461.49413125 743.99415 493.940425C743.92089375 502.50975625 744.7265625 519.50194375 732.3486375 531.953125C719.89745625 544.33105 703.125 543.5986375 694.3359375 543.5986375C685.4736375 543.52538125 514.5263625 543.52538125 505.6640625 543.5986375C496.875 543.5986375 480.10254375 544.33105 467.6513625 531.953125C455.2734375 519.50194375 456.07910625 502.50975625 456.00586875 493.940425C456.07910625 461.49413125 456.00586875 255.390625 456.00586875 255.390625L510.278325 255.390625z" />
    <glyph glyph-name="arrow-up-right"
      unicode="&#x101014;"
      horiz-adv-x="1200" d="M1200 47.532V872.4221C1200 921.6173 1167.54 955 1115.79 955L292.104 953.24228C243.86 953.24228 211.404 917.2256 211.404 875.9358C211.404 834.648 248.245 799.509 288.596 799.509H550L967.545 815.322L807.896 674.765L24.5617 -110.5899999999999C8.77229 -126.4100000000001 0 -145.73 0 -165.0599999999999C0 -206.3499999999999 36.8425 -245 79.8236 -245C100 -245 118.421 -237.0899999999999 134.211 -221.28L919.298 564.078L1059.65 723.96L1043.86 324.2530000000001V44.018C1043.86 3.6079999999999 1078.95 -34.1660000000001 1121.05 -34.1660000000001C1162.28 -34.1660000000001 1200 0.972 1200 47.532z" />
    <glyph glyph-name="incognito-slash"
      unicode="&#x101018;"
      horiz-adv-x="1200" d="M247.59 453.214L268.881 490.123L384.362 374.6420000000001H113.733C92.085 374.346 74.3387 391.637 73.9462 413.544C73.6047 435.451 91.6061 453.528 113.733 453.214H247.59zM543.21 124.6570000000001C567.73 133.5700000000001 593.677 138.514 620.101 138.903L849.606 -90.5999999999999C787.966 -74.6099999999999 738.022 -28.996 715.402 29.895C688.655 49.318 656.679 60.357 623.483 60.357C590.279 60.357 558.303 49.3869999999999 531.56 29.972C503.251 -43.816 432.073 -96.79 348.711 -96.79C240.781 -96.79 152.446 -8.377 152.446 99.643C152.446 207.662 240.781 296.0710000000001 348.711 296.0710000000001C448.159 296.0710000000001 530.814 220.96 543.21 124.6570000000001zM466.471 99.643C466.471 165.199 414.213 217.5 348.711 217.5C283.21 217.5 230.952 165.199 230.952 99.643C230.952 34.086 283.21 -18.215 348.711 -18.215C414.213 -18.215 466.471 34.086 466.471 99.643zM227.014 729.981C212.369 744.626 189.417 745.417 175.749 731.749C162.08 718.08 162.872 695.1279999999999 177.517 680.483L873.696 -15.697L873.698 -15.697L973.012 -115.01C987.656 -129.6600000000001 1010.61 -130.45 1024.28 -116.78C1037.95 -103.1099999999999 1037.15 -80.1600000000001 1022.51 -65.51L227.014 729.981zM1094.52 99.643C1094.52 60.444 1082.89 23.828 1062.91 -6.918L1005.49 50.503C1012.25 65.427 1016.01 82.058 1016.01 99.643C1016.01 165.199 963.756 217.5 898.254 217.5C880.649 217.5 864 213.721 849.066 206.923L791.677 264.312C822.4 284.381 859.02 296.0710000000001 898.254 296.0710000000001C1006.18 296.0710000000001 1094.52 207.662 1094.52 99.643zM1133.22 374.6420000000001H681.346L377.526 678.463L417.556 747.857C424.562 760.002 437.504 767.487 451.517 767.5H795.433C809.474 767.516 822.451 760.0260000000001 829.473 747.857L999.439 453.214H1133.22C1186.3 453.966 1186.3 373.8920000000001 1133.22 374.6420000000001z" />
  </font>
</defs>
</svg>
