<?xml version="1.0" standalone="no"?>
<!DOCTYPE svg PUBLIC "-//W3C//DTD SVG 1.1//EN" "http://www.w3.org/Graphics/SVG/1.1/DTD/svg11.dtd" >
<svg xmlns="http://www.w3.org/2000/svg">
<defs>
  <font id="nicons-600" horiz-adv-x="1300">
    <font-face font-family="nicons-600"
      units-per-em="1000" ascent="955"
      descent="245" />
    <missing-glyph horiz-adv-x="0" />
    <glyph glyph-name="arrow-up"
      unicode="&#x100128;"
      horiz-adv-x="1007" d="M510.254 -113.28C547.363 -113.28 572.754 -87.4000000000001 572.754 -48.83V522.9490000000001L568.359 628.906L680.176 502.441L791.504 392.0900000000001C802.734 380.371 817.871 372.559 835.938 372.559C870.117 372.559 895.508 397.949 895.508 433.5940000000001C895.508 449.707 889.16 465.332 875.977 478.516L556.152 798.34C544.434 811.035 526.855 817.871 510.254 817.871C493.164 817.871 475.586 811.035 463.867 798.34L144.043 478.516C131.348 465.332 124.512 449.707 124.512 433.5940000000001C124.512 397.949 150.391 372.559 184.082 372.559C202.637 372.559 217.773 380.371 229.004 392.0900000000001L340.332 502.441L451.66 628.906L447.266 522.9490000000001V-48.83C447.266 -87.4000000000001 472.656 -113.28 510.254 -113.28z" />
    <glyph glyph-name="arrow-down"
      unicode="&#x100129;"
      horiz-adv-x="1007" d="M510.254 817.871C472.656 817.871 447.266 791.992 447.266 753.418V181.641L451.66 75.684L340.332 202.148L229.004 312.5C217.773 324.2190000000001 202.637 332.031 184.082 332.031C150.391 332.031 124.512 306.641 124.512 270.996C124.512 254.8830000000001 131.348 239.2580000000001 144.043 226.074L463.867 -93.75C475.586 -106.45 493.164 -113.28 510.254 -113.28C526.855 -113.28 544.434 -106.45 556.152 -93.75L875.977 226.074C889.16 239.2580000000001 895.508 254.8830000000001 895.508 270.996C895.508 306.641 870.117 332.031 835.938 332.031C817.871 332.031 802.734 324.2190000000001 791.504 312.5L680.176 202.148L568.359 75.684L572.754 181.641V753.418C572.754 791.992 547.363 817.871 510.254 817.871z" />
    <glyph glyph-name="arrow-left"
      unicode="&#x10012A;"
      horiz-adv-x="1174" d="M124.512 360.8400000000001C124.512 343.75 131.836 326.1720000000001 144.043 314.453L464.355 -5.371C477.539 -18.066 493.164 -24.902 508.301 -24.902C544.922 -24.902 569.824 0.977 569.824 35.156C569.824 53.223 562.5 68.359 550.781 79.59L440.43 190.918L316.406 304.199L426.27 298.3400000000001H998.535C1036.62 298.3400000000001 1062.5 323.73 1062.5 360.8400000000001C1062.5 397.949 1036.62 423.3400000000001 998.535 423.3400000000001H426.27L316.895 416.992L440.43 530.762L550.781 642.0899999999999C562.5 653.3199999999999 569.824 668.457 569.824 686.523C569.824 720.703 544.922 746.094 508.301 746.094C493.164 746.094 477.539 739.746 463.379 726.0740000000001L144.043 407.227C131.836 395.02 124.512 377.93 124.512 360.8400000000001z" />
    <glyph glyph-name="arrow-right"
      unicode="&#x10012B;"
      horiz-adv-x="1174" d="M1062.5 360.8400000000001C1062.5 377.93 1055.18 395.02 1042.97 407.227L723.633 726.0740000000001C709.961 739.746 694.336 746.094 679.199 746.094C642.578 746.094 617.188 720.703 617.188 686.523C617.188 668.457 625 653.3199999999999 636.719 642.0899999999999L747.07 530.762L870.605 416.992L761.23 423.3400000000001H188.965C150.879 423.3400000000001 124.512 397.949 124.512 360.8400000000001C124.512 323.73 150.879 298.3400000000001 188.965 298.3400000000001H761.23L871.094 304.199L747.07 190.918L636.719 79.59C625 68.359 617.188 53.223 617.188 35.156C617.188 0.977 642.578 -24.902 679.199 -24.902C694.336 -24.902 709.473 -18.066 723.145 -5.371L1042.97 314.453C1055.18 326.1720000000001 1062.5 343.75 1062.5 360.8400000000001z" />
    <glyph glyph-name="arrow-right-arrow-left"
      unicode="&#x10012D;"
      horiz-adv-x="1177" d="M1054.32 599.121C1054.32 636.719 1027.95 662.1089999999999 989.379 662.1089999999999H423.949L312.621 656.738L392.211 723.145L503.539 832.031C514.77 843.262 522.582 856.9336 522.582 875.9766C522.582 910.6445 498.168 936.0352 461.547 936.0352C445.9220000000001 936.0352 428.832 929.1992 416.625 916.5039L141.723 645.508C129.516 633.789 122.68 616.211 122.68 599.121C122.68 582.031 129.516 564.941 141.723 553.223L416.625 282.227C428.832 270.02 445.9220000000001 262.6950000000001 461.547 262.6950000000001C498.168 262.6950000000001 522.582 288.086 522.582 322.754C522.582 341.7970000000001 514.77 355.4690000000001 503.539 367.188L392.211 475.098L312.621 541.504L423.949 536.621H989.379C1027.95 536.621 1054.32 562.012 1054.32 599.121zM1054.32 105.4690000000001C1054.32 122.559 1047.48 140.137 1035.28 151.855L760.375 422.852C748.168 435.5470000000001 731.078 442.3830000000001 715.453 442.3830000000001C678.832 442.3830000000001 654.418 416.992 654.418 382.324C654.418 363.281 662.23 349.6090000000001 673.461 338.379L784.789 229.492L864.379 163.086L753.051 168.457H187.621C149.047 168.457 122.68 143.066 122.68 105.4690000000001C122.68 68.359 149.047 42.9690000000001 187.621 42.9690000000001H753.051L864.379 47.852L784.789 -18.5549999999999L673.461 -126.46C662.23 -137.7 654.418 -151.8599999999999 654.418 -170.9000000000001C654.418 -205.5699999999999 678.832 -230.96 715.453 -230.96C731.078 -230.96 748.168 -223.6300000000001 760.375 -211.4300000000001L1035.28 59.5700000000001C1047.48 71.289 1054.32 88.867 1054.32 105.4690000000001z" />
    <glyph glyph-name="arrow-up-left"
      unicode="&#x10012E;"
      horiz-adv-x="937" d="M125 284.18C125 248.0470000000001 153.32 220.215 186.523 220.215C220.215 220.215 246.582 248.0470000000001 246.582 283.203V439.9410000000001L239.258 608.398L312.988 525.3910000000001L717.773 121.0940000000001C731.445 107.422 747.07 100.586 763.184 100.586C796.387 100.586 826.66 131.348 826.66 164.062C826.66 179.688 819.336 195.8010000000001 805.664 209.473L401.367 614.258L319.336 687.5L494.141 680.664H644.043C678.711 680.664 707.031 706.543 707.031 740.234C707.031 772.9490000000001 680.664 801.27 643.066 801.27L190.43 801.758C150.391 801.758 125 775.391 125 736.816V284.18z" />
    <glyph glyph-name="arrow-up-right-padding"
      unicode="&#x10012F;"
      horiz-adv-x="937" d="M826.66 284.18V736.816C826.66 775.391 800.293 801.758 760.742 801.758L308.105 801.27C270.508 801.27 244.141 772.9490000000001 244.141 740.234C244.141 706.543 272.461 680.664 307.129 680.664H456.543L631.836 687.5L549.805 614.258L145.508 209.473C131.836 195.8010000000001 124.512 179.688 124.512 164.062C124.512 131.348 154.785 100.586 187.988 100.586C204.102 100.586 219.727 107.422 233.398 121.0940000000001L638.184 525.3910000000001L711.914 608.398L704.59 439.9410000000001V283.203C704.59 248.0470000000001 730.957 220.215 764.648 220.215C797.852 220.215 826.66 248.0470000000001 826.66 284.18z" />
    <glyph glyph-name="arrow-down-left"
      unicode="&#x100130;"
      horiz-adv-x="937" d="M125 420.41L124.512 -32.227C124.512 -70.7999999999999 150.391 -97.1700000000001 190.43 -97.1700000000001L643.066 -96.6800000000001C680.664 -96.6800000000001 707.031 -68.36 707.031 -35.645C707.031 -1.953 678.711 23.926 644.043 23.926H494.141L319.336 17.09L401.367 90.332L805.664 495.117C819.336 508.789 826.66 524.902 826.66 540.527C826.66 573.242 796.387 604.004 763.184 604.004C747.07 604.004 731.445 597.168 717.773 583.496L312.988 179.199L239.258 96.191L246.582 264.648V421.387C246.582 456.543 220.215 484.375 186.523 484.375C153.32 484.375 125 456.543 125 420.41z" />
    <glyph glyph-name="arrow-down-right"
      unicode="&#x100131;"
      horiz-adv-x="937" d="M826.66 420.41C826.66 456.543 797.852 484.375 764.648 484.375C730.957 484.375 704.59 456.543 704.59 421.387V264.648L711.914 96.191L638.184 179.199L233.398 583.496C219.727 597.168 204.102 604.004 187.988 604.004C154.785 604.004 124.512 573.242 124.512 540.527C124.512 524.902 131.836 508.789 145.508 495.117L549.805 90.332L631.836 17.09L456.543 23.926H307.129C272.461 23.926 244.141 -1.953 244.141 -35.645C244.141 -68.36 270.508 -96.6800000000001 308.105 -96.6800000000001L760.742 -97.1700000000001C800.293 -97.1700000000001 826.66 -70.7999999999999 826.66 -32.227V420.41z" />
    <glyph glyph-name="arrow-counterclockwise"
      unicode="&#x100148;"
      horiz-adv-x="1048" d="M516.602 431.641C532.227 431.641 544.922 436.523 554.688 446.777L754.883 648.9259999999999C766.602 660.645 772.461 674.316 772.461 689.941C772.461 704.59 766.113 719.238 754.883 730.469L554.688 934.082C544.922 944.8242 532.227 950.19531 516.602 950.19531C486.328 950.19531 462.402 925.293 462.402 894.5312C462.402 879.3945 468.262 867.6758 477.539 857.4219L583.984 753.418C564.453 755.859 544.434 757.3240000000001 524.902 757.3240000000001C281.25 757.3240000000001 87.4023 562.988 87.4023 318.3590000000001C87.4023 74.2190000000001 283.691 -122.5599999999999 527.832 -122.5599999999999C771.484 -122.5599999999999 968.262 74.2190000000001 968.262 318.3590000000001C968.262 352.539 944.824 375.977 911.621 375.977C878.906 375.977 856.934 352.539 856.934 318.3590000000001C856.934 136.23 709.961 -10.742 527.832 -10.742C345.215 -10.742 199.219 136.23 199.219 318.3590000000001C199.219 503.418 342.773 649.414 524.902 649.414C552.734 649.414 578.125 647.461 600.586 644.043L478.027 522.9490000000001C468.262 512.6949999999999 462.402 500.977 462.402 486.328C462.402 455.566 486.328 431.641 516.602 431.641z" />
    <glyph glyph-name="arrow-clockwise"
      unicode="&#x100149;"
      horiz-adv-x="1048" d="M539.062 431.641C569.336 431.641 592.773 455.566 592.773 486.328C592.773 500.977 587.402 512.6949999999999 577.637 522.9490000000001L455.078 644.043C477.539 647.461 502.93 649.414 530.762 649.414C712.402 649.414 856.445 503.418 856.445 318.3590000000001C856.445 136.23 709.961 -10.742 527.832 -10.742C345.215 -10.742 198.73 136.23 198.73 318.3590000000001C198.73 352.539 176.27 375.977 144.043 375.977C110.84 375.977 87.4023 352.539 87.4023 318.3590000000001C87.4023 74.2190000000001 283.691 -122.5599999999999 527.832 -122.5599999999999C771.484 -122.5599999999999 968.262 74.2190000000001 968.262 318.3590000000001C968.262 562.988 773.926 757.3240000000001 530.762 757.3240000000001C511.23 757.3240000000001 491.211 755.859 471.68 753.418L577.637 857.4219C587.402 867.6758 592.773 879.3945 592.773 894.5312C592.773 925.293 569.336 950.19531 539.062 950.19531C523.438 950.19531 510.742 944.8242 500.488 934.082L300.781 730.469C289.062 719.238 283.203 704.59 283.203 689.941C283.203 674.316 288.574 660.645 300.781 648.9259999999999L500.977 446.777C510.254 436.523 523.438 431.641 539.062 431.641z" />
    <glyph glyph-name="arrow-up-left-and-arrow-down-right"
      unicode="&#x10014A;"
      horiz-adv-x="1191" d="M182.414 405.762C217.082 405.762 242.961 430.664 242.961 465.82V496.094L232.219 632.812L333.293 526.855L464.641 394.043C476.359 382.324 491.496 376.4650000000001 507.609 376.4650000000001C545.207 376.4650000000001 571.574 402.3440000000001 571.574 439.9410000000001C571.574 456.543 564.738 471.191 553.508 482.91L420.695 615.2339999999999L314.738 715.332L452.922 705.078H488.566C523.234 705.078 548.625 730.469 548.625 765.625C548.625 800.781 523.723 826.66 488.566 826.66H217.57C156.535 826.66 120.891 791.504 120.891 729.98V465.82C120.891 431.1520000000001 147.258 405.762 182.414 405.762zM702.434 -122.5599999999999H972.941C1034.46 -122.5599999999999 1069.62 -87.4000000000001 1069.62 -25.879V238.281C1069.62 272.949 1043.74 298.3400000000001 1008.59 298.3400000000001C973.918 298.3400000000001 948.039 273.438 948.039 238.281V208.0080000000001L958.293 71.289L857.707 177.246L725.871 310.059C714.641 321.7770000000001 699.016 327.637 682.902 327.637C645.305 327.637 618.938 301.7580000000001 618.938 264.16C618.938 247.559 625.773 232.91 637.492 221.191L769.816 88.867L876.262 -11.23L738.078 -0.977H702.434C667.277 -0.977 641.887 -26.367 641.887 -61.52C641.887 -96.6800000000001 667.277 -122.5599999999999 702.434 -122.5599999999999z" />
    <glyph glyph-name="arrow-down-right-and-arrow-top-left"
      unicode="&#x10014B;"
      horiz-adv-x="1217" d="M207.621 385.742H478.129C539.652 385.742 574.809 420.898 574.809 481.934V746.582C574.809 781.25 548.93 806.641 513.773 806.641C479.105 806.641 452.738 781.738 452.738 746.582V716.309L463.48 579.5899999999999L362.895 685.547L231.059 818.359C219.828 830.078 204.203 835.938 188.09 835.938C150.492 835.938 124.125 810.059 124.125 772.461C124.125 755.859 130.961 740.723 142.68 729.492L275.004 597.168L381.449 496.582L243.266 507.324H207.621C172.465 507.324 147.074 481.445 147.074 446.777C147.074 411.1330000000001 172.465 385.742 207.621 385.742zM701.273 -107.4200000000001C735.941 -107.4200000000001 761.82 -82.52 761.82 -47.36V-13.184L751.566 123.535L852.152 17.578L985.941 -117.19C997.66 -129.3900000000001 1012.8 -135.25 1028.91 -135.25C1066.51 -135.25 1092.88 -108.8900000000001 1092.88 -71.78C1092.88 -55.1799999999999 1086.04 -40.039 1074.81 -28.32L940.043 105.957L833.598 206.055L971.781 195.8010000000001H1011.33C1046 195.8010000000001 1071.39 221.191 1071.39 256.348C1071.39 291.504 1046.49 317.3830000000001 1011.33 317.3830000000001H736.918C675.395 317.3830000000001 640.238 281.7380000000001 640.238 220.703V-47.36C640.238 -82.03 666.117 -107.4200000000001 701.273 -107.4200000000001z" />
    <glyph glyph-name="plus"
      unicode="&#x10017C;"
      horiz-adv-x="1067" d="M538.086 -66.89C573.242 -66.89 603.027 -36.621 603.027 -3.418V287.1090000000001H887.207C921.387 287.1090000000001 951.172 316.406 951.172 352.0510000000001C951.172 387.207 921.387 416.992 887.207 416.992H603.027V707.52C603.027 741.6990000000001 573.242 770.996 538.086 770.996C502.441 770.996 473.145 741.6990000000001 473.145 707.52V416.992H188.965C155.762 416.992 124.512 387.207 124.512 352.0510000000001C124.512 316.406 155.762 287.1090000000001 188.965 287.1090000000001H473.145V-3.418C473.145 -36.621 502.441 -66.89 538.086 -66.89z" />
    <glyph glyph-name="xmark"
      unicode="&#x100184;"
      horiz-adv-x="912" d="M142.578 125C118.652 101.562 117.676 58.5940000000001 143.066 33.691C167.969 8.789 210.938 9.766 234.375 33.203L460.938 259.766L687.5 33.691C711.914 9.277 753.906 8.789 778.809 34.18C803.711 59.082 803.711 101.074 779.297 125.4880000000001L552.734 351.562L779.297 578.125C803.711 602.539 803.711 644.531 778.809 669.434C753.906 694.8240000000001 711.914 694.336 687.5 669.922L460.938 443.848L234.375 670.4100000000001C210.938 693.848 167.969 694.8240000000001 143.066 669.922C117.676 645.02 118.652 602.0509999999999 142.578 578.125L369.141 351.562L142.578 125z" />
    <glyph glyph-name="chevron-up"
      unicode="&#x100187;"
      horiz-adv-x="1117" d="M144.043 225.586C131.348 212.891 124.512 196.7770000000001 124.512 178.223C124.512 140.625 154.785 109.8630000000001 192.383 109.8630000000001C211.426 109.8630000000001 229.004 117.6760000000001 242.188 131.348L564.941 463.379L887.207 131.348C900.879 117.188 918.457 109.8630000000001 937.012 109.8630000000001C974.609 109.8630000000001 1004.88 140.625 1004.88 178.223C1004.88 197.266 998.535 212.891 985.352 225.586L619.629 600.098C603.516 616.6990000000001 585.938 625 564.941 625C543.945 625 526.367 617.188 510.254 600.586L144.043 225.586z" />
    <glyph glyph-name="chevron-down"
      unicode="&#x100188;"
      horiz-adv-x="1116" d="M564.941 78.125C585.938 78.125 603.516 86.4260000000001 619.629 102.539L985.352 477.539C998.535 490.234 1004.88 505.859 1004.88 524.414C1004.88 562.5 974.609 592.773 937.012 592.773C918.457 592.773 900.879 585.4490000000001 887.207 571.777L564.941 239.746L242.188 571.777C228.516 584.961 211.426 592.773 192.383 592.773C154.785 592.773 124.512 562.5 124.512 524.414C124.512 505.859 131.348 490.234 144.043 477.051L510.254 102.539C526.855 85.938 543.945 78.125 564.941 78.125z" />
    <glyph glyph-name="chevron-left"
      unicode="&#x100189;"
      horiz-adv-x="749" d="M523.926 -67.87C537.109 -80.5699999999999 552.734 -87.4000000000001 571.289 -87.4000000000001C609.375 -87.4000000000001 639.648 -57.13 639.648 -19.5309999999999C639.648 -0.977 631.836 16.602 618.164 29.785L286.133 353.0270000000001L618.164 675.293C631.836 688.9649999999999 639.648 706.543 639.648 724.609C639.648 762.207 609.375 792.48 571.289 792.48C552.246 792.48 537.109 786.133 523.926 773.438L149.414 407.227C132.812 391.1130000000001 125 373.535 124.512 352.539C124.512 332.031 132.324 314.453 149.414 297.852L523.926 -67.87z" />
    <glyph glyph-name="chevron-right"
      unicode="&#x10018A;"
      horiz-adv-x="749" d="M192.871 -86.9100000000001C211.914 -86.9100000000001 227.539 -80.0799999999999 240.234 -67.38L614.746 298.3400000000001C631.348 314.9410000000001 639.648 332.031 639.648 353.0270000000001C639.648 374.023 631.836 391.602 614.746 407.7150000000001L240.234 773.9259999999999C227.051 786.621 211.426 793.457 192.871 793.457C155.273 793.457 124.512 763.184 124.512 725.586C124.512 707.031 132.324 689.453 145.996 675.781L478.027 353.0270000000001L145.996 30.7619999999999C132.324 17.09 124.512 -0.4880000000001 124.512 -19.043C124.512 -56.64 155.273 -86.9100000000001 192.871 -86.9100000000001z" />
    <glyph glyph-name="square-and-arrow-up"
      unicode="&#x100202;"
      horiz-adv-x="1116" d="M559.163 164C591.501 164 617.775 190.992 617.775 222.033V694.39L613.059 765.919L637.986 726.78L774.746 587.098C784.851 576.3009999999999 797.652 570.2280000000001 812.473 570.2280000000001C839.421 570.2280000000001 863 589.797 863 619.488C863 634.3330000000001 857.61 644.4549999999999 847.505 655.252L606.322 890.0813C590.153 905.6016 575.332 911 559.163 911C543.668 911 527.499 905.6016 512.004 890.0813L271.495 655.927C262.063 645.8050000000001 256 635.008 256 620.163C256 591.146 280.253 570.902 306.527 570.902C320.675 570.902 334.822 576.976 344.254 587.7719999999999L479.667 726.78L505.267 765.919L500.552 693.7149999999999V221.358C500.552 190.317 526.152 164 559.163 164zM271.564 -93C179.853 -93 105 -18.232 105 74.048V337.419C105 368.404 130.625 394 161.645 394C192.665 394 218.291 368.404 218.291 337.419V89.5410000000001C218.291 51.1470000000001 249.311 20.162 287.749 20.162H829.926C867.689 20.162 898.709 51.1470000000001 898.709 88.867V337.419C898.709 368.404 924.335 394 955.355 394C986.375 394 1012 368.404 1012 337.419V72.701C1012 -18.9059999999999 937.822 -93 846.11 -93H271.564z" />
    <glyph glyph-name="arrowshape-turn-up-left"
      unicode="&#x10024C;"
      horiz-adv-x="1246" d="M593.75 -107.4200000000001C635.254 -107.4200000000001 666.504 -76.1700000000001 666.504 -34.668V131.348H676.758C847.168 131.348 948.242 75.1950000000001 1017.58 -54.2C1038.09 -93.26 1063.96 -103.52 1093.26 -103.52C1133.79 -103.52 1161.62 -64.45 1161.62 12.207C1161.62 361.8160000000001 1002.93 571.289 676.758 571.289H666.504V737.793C666.504 779.297 635.254 812.5 592.773 812.5C565.43 812.5 546.387 800.293 515.137 773.9259999999999L126.953 413.086C107.91 394.531 99.6094 372.559 99.6094 352.539C99.6094 333.0080000000001 108.398 310.059 127.441 291.504L515.137 -70.7999999999999C543.457 -95.7 564.941 -107.4200000000001 593.75 -107.4200000000001zM560.547 34.668C557.617 34.668 555.176 36.133 552.246 38.574L229.492 343.262C225.586 347.168 224.609 349.6090000000001 224.609 352.539C224.609 355.4690000000001 226.074 357.91 229.492 361.8160000000001L552.246 668.9449999999999C554.688 670.898 557.617 672.363 560.547 672.363C564.941 672.363 567.871 669.434 567.871 664.5509999999999V482.91C567.871 476.562 572.754 471.68 579.59 471.68H643.555C942.871 471.68 1061.04 283.203 1067.38 47.852C1067.38 44.922 1065.92 43.457 1063.96 43.457C1062.01 43.457 1061.04 44.922 1059.57 47.852C1000.98 169.922 861.816 232.91 643.555 232.91H579.59C572.754 232.91 567.871 228.0270000000001 567.871 221.191V42.9690000000001C567.871 38.086 564.941 34.668 560.547 34.668z" />
    <glyph glyph-name="arrowshape-turn-up-left-fill"
      unicode="&#x10024D;"
      horiz-adv-x="1246" d="M593.75 -107.4200000000001C635.254 -107.4200000000001 666.504 -76.1700000000001 666.504 -34.668V131.348H676.758C847.168 131.348 948.242 75.1950000000001 1017.58 -54.2C1038.09 -93.26 1063.96 -103.52 1093.26 -103.52C1133.79 -103.52 1161.62 -64.45 1161.62 12.207C1161.62 361.8160000000001 1002.93 571.289 676.758 571.289H666.504V737.793C666.504 779.297 635.254 812.5 592.773 812.5C565.43 812.5 546.387 800.293 515.137 773.9259999999999L126.953 413.086C107.91 394.531 99.6094 372.559 99.6094 352.539C99.6094 333.0080000000001 108.398 310.059 127.441 291.504L515.137 -70.7999999999999C543.457 -95.7 564.941 -107.4200000000001 593.75 -107.4200000000001z" />
    <glyph glyph-name="arrowshape-turn-up-right"
      unicode="&#x100250;"
      horiz-adv-x="1241" d="M655.273 -107.4200000000001C684.082 -107.4200000000001 706.055 -95.7 733.887 -70.7999999999999L1121.58 291.504C1140.62 310.059 1149.41 333.0080000000001 1149.41 352.539C1149.41 372.559 1141.11 394.531 1122.07 413.086L733.887 773.9259999999999C702.637 800.293 684.082 812.5 656.25 812.5C613.77 812.5 582.52 779.297 582.52 737.793V571.289H572.266C246.582 571.289 87.4023 361.8160000000001 87.4023 12.207C87.4023 -64.45 115.234 -103.52 155.762 -103.52C185.059 -103.52 210.938 -93.26 231.445 -54.2C300.781 75.1950000000001 401.855 131.348 572.266 131.348H582.52V-34.668C582.52 -76.1700000000001 613.77 -107.4200000000001 655.273 -107.4200000000001zM688.477 34.668C684.082 34.668 681.152 38.086 681.152 42.9690000000001V221.191C681.152 228.0270000000001 676.27 232.91 669.434 232.91H605.469C387.207 232.91 248.047 169.922 189.453 47.852C187.988 44.922 187.012 43.457 185.059 43.457C183.105 43.457 181.641 44.922 181.641 47.852C187.988 283.203 306.152 471.68 605.469 471.68H669.434C676.27 471.68 681.152 476.562 681.152 482.91V664.5509999999999C681.152 669.434 684.082 672.363 688.965 672.363C691.895 672.363 694.336 670.898 696.777 668.9449999999999L1019.53 361.8160000000001C1023.44 357.91 1024.41 355.4690000000001 1024.41 352.539C1024.41 349.6090000000001 1023.44 347.168 1019.53 343.262L696.777 38.574C693.848 36.133 691.406 34.668 688.477 34.668z" />
    <glyph glyph-name="arrowshape-turn-up-right-fill"
      unicode="&#x100251;"
      horiz-adv-x="1246" d="M655.273 -107.4200000000001C684.082 -107.4200000000001 706.055 -95.7 733.887 -70.7999999999999L1121.58 291.504C1140.62 310.059 1149.41 333.0080000000001 1149.41 352.539C1149.41 372.559 1141.11 394.531 1122.07 413.086L733.887 773.9259999999999C702.637 800.293 684.082 812.5 656.25 812.5C613.77 812.5 582.52 779.297 582.52 737.793V571.289H572.266C246.582 571.289 87.4023 361.8160000000001 87.4023 12.207C87.4023 -64.45 115.234 -103.52 155.762 -103.52C185.059 -103.52 210.938 -93.26 231.445 -54.2C300.781 75.1950000000001 401.855 131.348 572.266 131.348H582.52V-34.668C582.52 -76.1700000000001 613.77 -107.4200000000001 655.273 -107.4200000000001z" />
    <glyph glyph-name="bookmark"
      unicode="&#x10025E;"
      horiz-adv-x="1043" d="M199.707 -190.4300000000001C229.98 -190.4300000000001 248.535 -174.7999999999999 292.969 -133.79L506.836 68.848C516.602 78.125 522.949 80.566 528.809 80.566C535.156 80.566 541.504 78.125 551.27 68.848L785.156 -153.3199999999999C808.594 -175.29 827.637 -190.4300000000001 857.91 -190.4300000000001C899.414 -190.4300000000001 933.105 -164.5499999999999 933.105 -107.4200000000001V727.539C933.105 835.938 875.977 894.5312 768.066 894.5312H290.039C182.129 894.5312 124.512 835.938 124.512 727.539V-107.4200000000001C124.512 -164.5499999999999 158.691 -190.4300000000001 199.707 -190.4300000000001zM248.047 -18.5549999999999C242.188 -23.926 236.328 -20.996 236.328 -13.672V717.773C236.328 759.766 257.812 782.715 302.246 782.715H755.859C800.293 782.715 821.777 759.766 821.777 717.773V-13.672C821.777 -20.996 815.918 -23.926 810.059 -18.5549999999999L585.449 189.453C567.383 206.055 549.316 215.8200000000001 528.809 215.8200000000001C508.789 215.8200000000001 490.723 206.543 472.168 189.453L248.047 -18.5549999999999z" />
    <glyph glyph-name="bookmark-fill"
      unicode="&#x10025F;"
      horiz-adv-x="1043" d="M199.707 -190.4300000000001C229.98 -190.4300000000001 248.535 -174.7999999999999 292.969 -133.79L506.836 68.848C516.602 78.125 522.949 80.566 528.809 80.566C535.156 80.566 541.504 78.125 551.27 68.848L785.156 -153.3199999999999C808.594 -175.29 827.637 -190.4300000000001 857.91 -190.4300000000001C899.414 -190.4300000000001 933.105 -164.5499999999999 933.105 -107.4200000000001V727.539C933.105 835.938 875.977 894.5312 768.066 894.5312H290.039C182.129 894.5312 124.512 835.938 124.512 727.539V-107.4200000000001C124.512 -164.5499999999999 158.691 -190.4300000000001 199.707 -190.4300000000001z" />
    <glyph glyph-name="magnifyingglass"
      unicode="&#x1002AB;"
      horiz-adv-x="1145" d="M502.93 51.758C578.125 51.758 648.438 73.242 708.008 110.352L909.18 -90.8199999999999C925.293 -106.9300000000001 946.777 -114.75 969.238 -114.75C1017.09 -114.75 1052.25 -77.6400000000001 1052.25 -30.7619999999999C1052.25 -8.789 1044.92 12.207 1028.81 28.809L829.59 228.516C870.117 290.039 894.043 363.77 894.043 442.871C894.043 657.7149999999999 717.773 833.984 502.93 833.984C288.086 833.984 112.305 657.7149999999999 112.305 442.871C112.305 228.0270000000001 288.086 51.758 502.93 51.758zM502.93 170.898C353.516 170.898 230.957 293.457 230.957 442.871C230.957 592.2850000000001 353.516 714.844 502.93 714.844C652.832 714.844 775.391 592.2850000000001 775.391 442.871C775.391 293.457 652.832 170.898 502.93 170.898z" />
    <glyph glyph-name="heart"
      unicode="&#x1002B4;"
      horiz-adv-x="1163" d="M588.379 -121.5799999999999C608.887 -121.5799999999999 632.324 -111.8199999999999 655.762 -96.6800000000001C920.41 74.707 1089.36 281.25 1089.36 485.352C1089.36 674.316 962.891 802.246 801.758 802.246C711.914 802.246 639.16 763.184 588.379 686.523C537.598 763.184 464.844 802.246 375 802.246C213.867 802.246 87.4023 674.316 87.4023 485.352C87.4023 281.25 255.859 74.707 520.996 -96.6800000000001C544.434 -111.8199999999999 567.871 -121.5799999999999 588.379 -121.5799999999999zM588.379 -0.4880000000001C585.449 -0.4880000000001 582.52 0.977 578.125 3.9059999999999C353.516 154.785 204.102 329.5900000000001 204.102 486.328C204.102 607.422 280.273 686.523 383.301 686.523C464.355 686.523 517.578 632.812 546.875 578.613C558.105 559.082 569.336 548.3399999999999 588.379 548.3399999999999C607.422 548.3399999999999 619.629 559.082 630.371 578.613C659.668 632.812 712.402 686.523 793.457 686.523C896.484 686.523 972.656 607.422 972.656 486.328C972.656 329.5900000000001 823.242 154.785 598.633 3.9059999999999C594.238 0.977 590.82 -0.4880000000001 588.379 -0.4880000000001z" />
    <glyph glyph-name="heart-fill"
      unicode="&#x1002B5;"
      horiz-adv-x="1164" d="M588.379 -121.5799999999999C608.887 -121.5799999999999 632.324 -111.8199999999999 655.762 -96.6800000000001C920.41 74.707 1089.36 281.25 1089.36 485.352C1089.36 674.316 962.891 802.246 801.758 802.246C711.914 802.246 639.16 758.789 588.379 669.922C537.598 758.789 464.844 802.246 375 802.246C213.867 802.246 87.4023 674.316 87.4023 485.352C87.4023 281.25 255.859 74.707 520.996 -96.6800000000001C544.434 -111.8199999999999 567.871 -121.5799999999999 588.379 -121.5799999999999z" />
    <glyph glyph-name="star"
      unicode="&#x1002C2;"
      horiz-adv-x="1300" d="M312.988 -150.8800000000001C338.867 -170.4100000000001 370.117 -164.5499999999999 405.762 -138.6700000000001L655.762 44.922L905.762 -138.6700000000001C941.406 -164.5499999999999 972.656 -170.4100000000001 998.535 -150.8800000000001C1023.93 -131.8399999999999 1028.81 -100.0999999999999 1015.14 -59.57L916.016 234.375L1168.46 415.039C1203.61 440.43 1218.75 468.75 1208.5 499.512C1198.24 529.297 1169.92 543.9449999999999 1126.46 543.457L817.383 541.504L723.145 836.914C709.961 878.418 687.5 901.3672 655.762 901.3672C624.023 901.3672 602.051 878.418 588.379 836.914L494.141 541.504L185.059 543.457C141.602 543.9449999999999 113.281 529.297 103.027 499.512C92.2852 468.75 107.91 440.43 143.066 415.039L395.508 234.375L296.387 -59.57C282.715 -100.0999999999999 287.598 -131.8399999999999 312.988 -150.8800000000001zM413.086 -13.672C412.598 -12.695 412.598 -12.207 413.086 -9.766L501.465 236.328C511.719 264.648 509.766 279.2970000000001 482.91 296.875L266.602 443.848C264.648 445.312 263.6720000000001 446.289 264.1600000000001 447.266C264.648 448.242 265.625 448.73 268.066 448.73L529.297 440.918C559.082 440.43 572.754 448.242 581.055 477.539L653.32 728.516C653.809 730.957 654.785 731.934 655.762 731.934C656.738 731.934 657.715 730.957 658.203 728.516L730.957 477.539C738.77 448.242 752.441 440.43 782.227 440.918L1043.46 448.73C1045.9 448.73 1047.36 448.242 1047.85 447.266C1047.85 446.289 1047.36 445.312 1045.41 443.848L828.613 296.875C802.246 279.2970000000001 799.805 264.648 810.059 236.328L898.438 -9.766C898.926 -12.207 898.926 -12.695 898.438 -13.672C897.461 -14.648 896.484 -14.16 894.531 -12.695L687.988 147.949C664.062 166.504 647.461 166.504 623.535 147.949L416.992 -12.695C415.039 -14.16 414.062 -14.648 413.086 -13.672z" />
    <glyph glyph-name="star-fill"
      unicode="&#x1002C3;"
      horiz-adv-x="1300" d="M312.988 -150.8800000000001C338.867 -170.4100000000001 370.117 -164.5499999999999 405.762 -138.6700000000001L655.762 44.922L905.762 -138.6700000000001C941.406 -164.5499999999999 972.656 -170.4100000000001 998.535 -150.8800000000001C1023.93 -131.8399999999999 1028.81 -100.0999999999999 1015.14 -59.57L916.016 234.375L1168.46 415.039C1203.61 440.43 1218.75 468.75 1208.5 499.512C1198.24 529.297 1169.92 543.9449999999999 1126.46 543.457L817.383 541.504L723.145 836.914C709.961 878.418 687.5 901.3672 655.762 901.3672C624.023 901.3672 602.051 878.418 588.379 836.914L494.141 541.504L185.059 543.457C141.602 543.9449999999999 113.281 529.297 103.027 499.512C92.2852 468.75 107.91 440.43 143.066 415.039L395.508 234.375L296.387 -59.57C282.715 -100.0999999999999 287.598 -131.8399999999999 312.988 -150.8800000000001z" />
    <glyph glyph-name="star-lefthalf-fill"
      unicode="&#x1002C4;"
      horiz-adv-x="1300" d="M312.988 -150.8800000000001C338.867 -170.4100000000001 370.117 -164.5499999999999 405.762 -138.6700000000001L655.762 44.922L905.762 -138.6700000000001C941.406 -164.5499999999999 972.656 -170.4100000000001 998.535 -150.8800000000001C1023.93 -131.8399999999999 1028.81 -100.0999999999999 1015.14 -59.57L916.016 234.375L1168.46 415.039C1203.61 440.43 1218.75 468.75 1208.5 499.512C1198.24 529.297 1169.92 543.9449999999999 1126.46 543.457L817.383 541.504L723.145 836.914C709.961 878.418 687.5 901.3672 655.762 901.3672C624.023 901.3672 602.051 878.418 588.379 836.914L494.141 541.504L185.059 543.457C141.602 543.9449999999999 113.281 529.297 103.027 499.512C92.2852 468.75 107.91 440.43 143.066 415.039L395.508 234.375L296.387 -59.57C282.715 -100.0999999999999 287.598 -131.8399999999999 312.988 -150.8800000000001zM655.762 161.621V731.934C656.738 731.934 657.715 730.957 658.203 728.516L730.957 477.539C738.77 448.242 752.441 440.43 782.227 440.918L1043.46 448.73C1045.9 448.73 1047.36 448.242 1047.85 447.266C1047.85 446.289 1047.36 445.312 1045.41 443.848L828.613 296.875C802.246 279.2970000000001 799.805 264.648 810.059 236.328L898.438 -9.766C898.926 -12.207 898.926 -12.695 898.438 -13.672C897.461 -14.648 896.484 -14.16 894.531 -12.695L687.988 147.949C676.27 157.227 666.016 162.109 655.762 161.621z" />
    <glyph glyph-name="plus-app"
      unicode="&#x10044D;"
      horiz-adv-x="1200" d="M0.3671260616153 954.3491753538718H1199.3679587010824V-244.6516572855953H0.3671260616153V954.3491753538718zM1119.1773522064946 871.9333222314738C1052.9925062447958 937.48379683597 963.8957535387178 952.7577285595336 841.0681099084096 952.7577285595336H357.3941715237302C236.4759367194005 952.7577285595336 146.1052456286428 937.48379683597 80.5551706910908 871.9333222314738C15.0046960865945 806.3828476269775 0.3671260616153 717.2850957535387 0.3671260616153 595.7303913405495V115.8752706078269C0.3671260616153 -7.5888426311407 14.3682264779351 -96.6835970024979 80.5551706910908 -162.2389675270608C146.7417152373023 -227.7843463780182 235.8394671107411 -243.061615320566 358.6671107410491 -243.061615320566H841.0681099084096C963.8957535387178 -243.061615320566 1053.631973355537 -227.7843463780182 1119.1773522064946 -162.2389675270608C1184.7327227310575 -96.0541215653623 1199.3705245628641 -7.5888426311407 1199.3705245628641 115.8752706078269V594.4574521232306C1199.3705245628641 717.9215653621982 1184.7327227310575 806.3828476269775 1119.1773522064946 871.9333222314738zM1053.631973355537 611.6411323896752V98.0561199000832C1053.631973355537 31.2328059950041 1044.7194004995836 -22.8621149042465 1012.895920066611 -55.3180682764363C979.8054954204828 -87.7810158201498 925.0741049125728 -97.3230641132391 858.2507910074937 -97.3230641132391H341.4844296419651C274.6611157368859 -97.3230641132391 219.9297252289759 -87.7810158201498 186.836303080766 -55.3180682764363C155.0158201498751 -22.8621149042465 146.1052456286428 31.2328059950041 146.1052456286428 98.0561199000832V611.0046627810159C146.1052456286428 678.4644462947543 155.0158201498751 732.5593671940051 186.836303080766 765.6527893422149C219.2932556203164 798.1097418817652 274.6611157368859 807.0193172356369 342.1208992506245 807.0193172356369H858.2507910074937C925.0741049125728 807.0193172356369 979.8054954204828 797.4732722731057 1012.895920066611 765.0163197335554C1044.7194004995836 732.5593671940051 1053.631973355537 679.1009159034138 1053.631973355537 611.6411323896752zM599.2316402997502 54.7801831806828C638.6887593671939 54.7801831806828 664.7820149875104 82.781848459617 664.7820149875104 124.1493755203997V290.2529558701082H841.7045795170691C881.7981681931724 290.2529558701082 910.436303080766 315.7087427144047 910.436303080766 354.5303913405495C910.436303080766 394.6239800166528 882.4346378018317 420.7172356369693 841.7045795170691 420.7172356369693H664.7820149875104V594.4574521232306C664.7820149875104 635.8239800166527 638.6887593671939 663.8266444629476 599.2316402997502 663.8266444629476C559.7735220649458 663.8266444629476 534.3167360532889 635.1885095753539 534.3167360532889 594.4574521232306V420.7172356369693H358.6671107410491C317.300582847627 420.7172356369693 289.2979184013322 394.6239800166528 289.2979184013322 354.5303913405495C289.2979184013322 315.7087427144047 318.5735220649459 290.2529558701082 358.6671107410491 290.2529558701082H534.3167360532889V124.1493755203997C534.3167360532889 83.4183180682765 559.7735220649458 54.7801831806828 599.2316402997502 54.7801831806828zM0.3671260616153 954.3491753538718H1199.3679587010824V-244.6516572855953H0.3671260616153V954.3491753538718z" />
    <glyph glyph-name="arrow-top-right-on-square"
      unicode="&#x101000;"
      horiz-adv-x="1177" d="M930.867 311.799C906.142 311.799 886.361 332.9930000000001 886.361 358.424V438.252L893.426 600.7339999999999L829.139 528.677L518.305 219.255C508.414 209.365 497.111 204.42 485.102 204.42C460.376 204.42 438.477 227.026 438.477 251.045C438.477 262.348 444.128 274.358 453.312 284.2480000000001L764.147 593.6700000000001L836.204 657.25L666.658 650.892H584.71C559.985 650.892 538.791 670.672 538.791 695.398C538.791 719.417 558.572 740.61 586.123 740.61L928.748 741.316C958.418 741.316 977.492 721.5360000000001 977.492 693.278V359.837C976.786 332.286 955.593 311.799 930.867 311.799zM389.033 659.346C362.895 659.346 340.289 659.346 340.289 659.346C302.141 659.346 281.654 639.566 281.654 599.299V110.4400000000001C281.654 70.879 302.141 50.3920000000001 340.289 50.3920000000001H830.56C868.708 50.3920000000001 889.901 70.173 889.901 110.4400000000001C889.901 110.4400000000001 889.901 133.7530000000001 889.901 160.598C889.901 187.442 909.681 200.158 932.288 200.158C954.894 200.158 972.555 181.084 972.555 159.891C972.555 138.698 972.555 103.376 972.555 103.376C972.555 15.0700000000001 925.93 -31.5549999999999 836.211 -31.5549999999999H335.343C245.625 -31.5549999999999 199 15.0700000000001 199 103.376V607.069C199 696.081 245.625 742 335.343 742C335.343 742 357.243 742 389.033 742C417.291 742 432.8330000000001 722.9259999999999 432.8330000000001 701.0260000000001C432.8330000000001 679.127 418.704 659.346 389.033 659.346z" />
    <glyph glyph-name="arrow-up-right"
      unicode="&#x101014;"
      horiz-adv-x="1200" d="M1199.510407993339 69.701748542881V843.7077435470442C1199.510407993339 909.6707743547043 1154.487926727727 954.7581975020815 1086.9542048293088 954.7581975020815L314.0183180682764 953.9237368859284C249.8168193172357 953.9237368859284 204.7923397169026 905.4949542048294 204.7923397169026 849.5528726061616C204.7923397169026 791.9408825978352 253.1520399666944 747.6877601998335 312.3517069109076 747.6877601998335H567.4940882597834L866.827643630308 759.3780183180683L726.7493755203997 634.1343880099917L36.3646960865945 -58.045795170691C13.018151540383 -81.4263114071607 0.5115746877602 -108.9833472106577 0.5115746877602 -135.7010824313072C0.5115746877602 -191.6444629475436 52.2062947543714 -244.2406328059949 108.9042464612823 -244.2406328059949C136.421315570358 -244.2406328059949 163.1020815986678 -232.55037468776 186.4476269775188 -209.1698584512906L877.6676103247294 482.1720233139051L1003.5736885928392 624.1137385512073L991.063114071607 336.0527893422149V68.03114071607C991.063114071607 7.9152373022481 1036.0865945045796 -39.6771024146544 1093.6186511240633 -39.6771024146544C1150.3213988343048 -39.6771024146544 1199.510407993339 7.9152373022481 1199.510407993339 69.701748542881z" />
  </font>
</defs>
</svg>
