<?xml version="1.0" encoding="utf-8"?>
<!-- Generator: Adobe Illustrator 22.0.1, SVG Export Plug-In . SVG Version: 6.00 Build 0)  -->
<svg version="1.1" id="Layer_1" xmlns="http://www.w3.org/2000/svg" xmlns:xlink="http://www.w3.org/1999/xlink" x="0px" y="0px"
	 viewBox="0 0 48 48" style="enable-background:new 0 0 48 48;" xml:space="preserve">
<style type="text/css">
	.st0{fill:#C3C6CC;}
	.st1{fill:#E1E3E6;}
</style>
<g transform="translate(-34 -36)">
	<path class="st0" d="M81.5,81.5l-9-9c-0.6-0.6-1.5-0.6-2.1,0l-9,9c-0.6,0.6-0.6,1.5,0,2.1c0.3,0.3,0.7,0.5,1.1,0.5h18.1
		c0.8,0,1.5-0.6,1.5-1.4C82,82.2,81.8,81.8,81.5,81.5z"/>
	<path class="st1" d="M81.8,49L79,40.6c-0.1-0.4-0.3-0.7-0.6-1L34.3,83.7c0.3,0.2,0.6,0.4,0.9,0.3h12.5c0.7,0,1.4-0.3,1.9-0.8
		l31.6-31.6C81.9,51,82.2,49.9,81.8,49z"/>
	<path class="st0" d="M77.4,39L69,36.2c-0.9-0.3-2-0.1-2.7,0.6L34.8,68.3c-0.5,0.5-0.8,1.2-0.8,1.9v12.5c0,0.3,0.1,0.7,0.3,0.9
		l44.1-44.1C78.1,39.3,77.8,39.1,77.4,39z"/>
</g>
</svg>
