<svg width="24" height="24" viewBox="0 0 24 24" fill="none" xmlns="http://www.w3.org/2000/svg">
<g clip-path="url(#clip0)">
<path d="M19.4932 15.7046C19.1908 16.4033 18.8328 17.0465 18.418 17.6379C17.8526 18.444 17.3896 19.002 17.0328 19.3119C16.4798 19.8205 15.8872 20.081 15.2527 20.0958C14.7971 20.0958 14.2478 19.9662 13.6083 19.7033C12.9667 19.4415 12.3771 19.3119 11.838 19.3119C11.2725 19.3119 10.6661 19.4415 10.0175 19.7033C9.36792 19.9662 8.84461 20.1033 8.4445 20.1168C7.836 20.1428 7.22948 19.8749 6.62407 19.3119C6.23766 18.9749 5.75435 18.3971 5.17536 17.5786C4.55414 16.7046 4.04342 15.691 3.64331 14.5355C3.21481 13.2874 3 12.0787 3 10.9087C3 9.56831 3.28962 8.41229 3.86972 7.44355C4.32563 6.66542 4.93215 6.05161 5.69126 5.601C6.45037 5.15039 7.27059 4.92077 8.15389 4.90608C8.63721 4.90608 9.27101 5.05558 10.0586 5.3494C10.844 5.64421 11.3483 5.79371 11.5695 5.79371C11.7348 5.79371 12.295 5.6189 13.2447 5.27039C14.1428 4.94719 14.9008 4.81336 15.5218 4.86608C17.2044 5.00188 18.4686 5.6652 19.3093 6.86023C17.8044 7.77206 17.06 9.04919 17.0748 10.6875C17.0884 11.9637 17.5513 13.0256 18.4612 13.8688C18.8735 14.2602 19.334 14.5626 19.8463 14.7775C19.7352 15.0997 19.6179 15.4083 19.4932 15.7046V15.7046ZM15.6341 0.518525C15.6341 1.51876 15.2687 2.45268 14.5403 3.3171C13.6614 4.34473 12.5982 4.93855 11.4453 4.84484C11.4306 4.72485 11.422 4.59855 11.422 4.46584C11.422 3.50562 11.8401 2.47799 12.5824 1.63776C12.953 1.21234 13.4243 0.858603 13.9959 0.576424C14.5663 0.298455 15.1057 0.144733 15.6131 0.118408C15.628 0.252124 15.6341 0.385848 15.6341 0.518512V0.518525Z" fill="black"/>
</g>
<defs>
<clipPath id="clip0">
<rect x="3" y="0.11792" width="16.8464" height="20" fill="white"/>
</clipPath>
</defs>
</svg>
