<svg width="222" height="239" viewBox="0 0 222 239" fill="none" xmlns="http://www.w3.org/2000/svg">
<path d="M50.0933 237.98H109.376" stroke="black" stroke-width="0.457302" stroke-miterlimit="10"/>
<path d="M90.6177 145.535H67.9355C64.4333 145.535 61.5942 148.374 61.5942 151.876V151.876C61.5942 155.378 64.4333 158.217 67.9355 158.217H90.6177C94.1198 158.217 96.9589 155.378 96.9589 151.876C96.9589 148.374 94.1198 145.535 90.6177 145.535Z" fill="#63C3F8"/>
<path d="M90.6177 158.217H67.9355" stroke="black" stroke-width="0.457302" stroke-miterlimit="10"/>
<path d="M79.2766 158.217V238.458" stroke="black" stroke-width="0.457302" stroke-miterlimit="10"/>
<path d="M125.987 120.901C125.987 120.901 165.748 134.087 180.747 179.449L187.332 182.376L166.114 188.961L131.727 151.876L107.426 135.7" fill="#E3E7E2"/>
<path d="M140.621 199.191C151.202 126.892 114.533 124.02 114.533 124.02L97.5842 151.876L114.371 151.156L118.972 207.088L143.859 204.801L140.621 199.191Z" fill="#EEF0EC"/>
<path d="M140.621 199.191C151.202 126.892 114.533 124.02 114.533 124.02" stroke="black" stroke-width="0.457302" stroke-miterlimit="10"/>
<path d="M106.056 114.183L66.0349 124.02C66.0349 124.02 63.3879 154.721 106.056 151.876L129.166 119.524L106.056 114.183Z" fill="#EEF0EC"/>
<path d="M106.056 151.876L129.166 119.524" stroke="black" stroke-width="0.457302" stroke-miterlimit="10"/>
<path d="M66.0349 124.02C66.0349 124.02 63.3879 154.721 106.056 151.876" stroke="black" stroke-width="0.457302" stroke-miterlimit="10"/>
<path d="M78.0857 53.6077V58.1153C78.0857 59.809 78.6536 61.4538 79.6985 62.7867C80.7435 64.1196 82.2052 65.0636 83.85 65.4679L91.0231 67.2309V49.6069L85.0587 48.141C84.2298 47.9372 83.3654 47.9247 82.5309 48.1042C81.6964 48.2838 80.9136 48.6508 80.2419 49.1774C79.5701 49.7041 79.0269 50.3766 78.6534 51.1441C78.2798 51.9116 78.0857 52.754 78.0857 53.6076V53.6077Z" fill="#EEF0EC"/>
<path d="M78.0857 58.1154C78.0857 59.809 78.6536 61.4538 79.6985 62.7867C80.7435 64.1196 82.2052 65.0637 83.85 65.4679L91.0231 67.231" stroke="black" stroke-width="0.457302" stroke-miterlimit="10"/>
<path d="M85.394 57.2209C85.5851 57.2209 85.7399 57.066 85.7399 56.875C85.7399 56.6839 85.5851 56.5291 85.394 56.5291C85.203 56.5291 85.0481 56.6839 85.0481 56.875C85.0481 57.066 85.203 57.2209 85.394 57.2209Z" fill="black"/>
<path d="M80.0808 57.2209C80.2718 57.2209 80.4267 57.066 80.4267 56.875C80.4267 56.6839 80.2718 56.5291 80.0808 56.5291C79.8897 56.5291 79.7349 56.6839 79.7349 56.875C79.7349 57.066 79.8897 57.2209 80.0808 57.2209Z" fill="black"/>
<path d="M81.6396 58.9386V53.6077H78.969" stroke="black" stroke-width="0.457302" stroke-miterlimit="10"/>
<path d="M86.0456 53.6077H83.375" stroke="black" stroke-width="0.457302" stroke-miterlimit="10"/>
<path d="M90.1709 56.339V58.1903C90.6504 58.1903 91.1103 57.9998 91.4494 57.6607C91.7885 57.3216 91.979 56.8617 91.979 56.3821C91.979 56.3267 91.9766 56.2718 91.9716 56.2176C91.8703 55.0948 90.1709 55.2117 90.1709 56.339Z" fill="#EEF0EC"/>
<path d="M90.1709 58.1903C90.6504 58.1903 91.1103 57.9998 91.4494 57.6607C91.7885 57.3216 91.979 56.8617 91.979 56.3822" stroke="black" stroke-width="0.457302" stroke-miterlimit="10"/>
<path d="M83.0996 59.5614C83.3241 59.7859 83.6287 59.9121 83.9462 59.9121C84.2637 59.9121 84.5683 59.7859 84.7928 59.5614" stroke="#415AFF" stroke-width="0.457302" stroke-linecap="round" stroke-linejoin="round"/>
<path d="M81.6396 58.9427L82.8077 59.2298" stroke="black" stroke-width="0.457302" stroke-miterlimit="10" stroke-linecap="round"/>
<path d="M77.7126 51.7168L87.7936 52.2046C87.7936 52.2046 88.3704 55.5083 90.1711 55.863" stroke="#415AFF" stroke-width="0.457302" stroke-linecap="round" stroke-linejoin="round"/>
<path d="M77.7126 60.4157L73.1599 58.9385C73.1599 58.9385 73.4038 41.7171 88.0375 44.3187C88.0375 44.3187 97.3055 44.6912 98.281 54.6909C99.2566 64.6906 99.1044 65.3308 99.1044 65.3308L91.0232 63.4237" stroke="#415AFF" stroke-width="0.457302" stroke-linecap="round" stroke-linejoin="round"/>
<path d="M213.291 20.4432C194.189 20.4432 177.842 12.2749 171.12 0.70459C164.398 12.2749 148.051 20.4432 128.949 20.4432C126.198 20.4441 123.45 20.2717 120.722 19.9271V83.0878C120.722 90.4292 122.654 97.6413 126.325 103.999C129.996 110.357 135.275 115.637 141.633 119.307L171.12 136.332L200.607 119.307C206.965 115.637 212.244 110.357 215.915 103.999C219.586 97.6413 221.518 90.4292 221.518 83.0878V19.9271C218.79 20.2717 216.042 20.4441 213.291 20.4432Z" fill="#EEF0EC"/>
<path d="M200.607 119.307C206.965 115.637 212.244 110.357 215.915 103.999C219.586 97.6413 221.518 90.4292 221.518 83.0878V19.9271C218.789 20.2718 216.042 20.4441 213.291 20.4432C194.189 20.4432 177.841 12.275 171.12 0.70459V136.332L200.607 119.307Z" fill="#E3E7E2"/>
<path d="M154.94 69.8274C154.107 68.9939 152.755 68.9939 151.922 69.8274C151.089 70.6608 151.089 72.012 151.922 72.8454L165.811 86.7341C167.478 85.0673 167.478 82.3648 165.811 80.698L154.94 69.8274Z" fill="#415AFF"/>
<path d="M197.716 54.8291C198.549 53.9957 198.549 52.6445 197.716 51.8111C196.882 50.9777 195.531 50.9777 194.698 51.8111L165.811 80.698C164.144 82.3648 164.144 85.0673 165.811 86.7341L197.716 54.8291Z" fill="#415AFF"/>
<path d="M106.056 85.9324V114.183L66.0349 124.02V92.556C66.0349 87.1348 67.8526 81.87 71.1974 77.6036C74.5422 73.3372 79.2209 70.3154 84.4855 69.0215H84.4855C87.0498 68.3912 89.7238 68.3524 92.3052 68.9079C94.8867 69.4633 97.308 70.5986 99.3861 72.2277C101.464 73.8569 103.145 75.9373 104.3 78.3116C105.456 80.6858 106.056 83.2918 106.056 85.9324V85.9324Z" fill="#63C3F8"/>
<path d="M77.7124 71.8268C77.7124 71.8268 51.2456 87.6278 41.7342 111.406C32.2228 135.185 80.1108 120.56 80.1108 120.56C80.1108 120.56 87.8992 121.069 90.826 117.406L94.3761 117.054L93.9559 115.373L64.3634 108.869L78.0855 96.2649" stroke="black" stroke-width="0.457302" stroke-miterlimit="10"/>
<path d="M64.3635 108.869L75.2168 111.255C67.299 108.326 75.7392 98.4207 75.7413 98.4182L64.3635 108.869Z" fill="black"/>
<path d="M81.1857 112.566C80.8537 112.327 79.9394 112.11 78.2727 111.926L81.1857 112.566Z" fill="black"/>
<path d="M102.623 75.5428L114.533 93.5853C114.533 93.5853 118.508 72.1226 124.036 70.1715C129.565 68.2203 132.166 67.231 132.166 67.231L132.785 69.1835L130.215 71.8268C130.215 71.8268 132.71 77.3257 128.536 78.6265C128.536 78.6265 140.891 113.719 115.716 116.416" stroke="black" stroke-width="0.457302" stroke-miterlimit="10"/>
<path d="M59.7658 206.769C58.5467 203.356 54.9752 207.864 54.9752 207.864C54.9752 207.864 59.2782 198.723 54.9752 196.651C52.8526 195.628 51.7356 196.831 51.1483 198.312C53.35 185.02 53.8251 159.384 44.9386 158.492C35.2316 157.516 38.5529 182.143 38.5529 182.143C38.5529 182.143 35.8708 175.072 32.4574 178.242C29.044 181.411 35.627 202.137 35.627 202.137C34.8955 199.942 30.9943 198.235 29.5313 202.137C28.0683 206.038 33.6764 214.328 33.6764 214.328L52.9387 217.498C52.9387 217.498 60.985 210.183 59.7658 206.769Z" fill="black"/>
<path d="M58.3324 237.98H30.7504L24.6509 213.333H64.4316L58.3324 237.98Z" fill="#415AFF"/>
<path d="M0 237.98H91.9791" stroke="black" stroke-width="0.457302" stroke-miterlimit="10"/>
<path d="M24.6511 213.333H64.4317" stroke="black" stroke-width="0.457302" stroke-miterlimit="10"/>
<path d="M204.332 233.513V226.72L198.062 232.468L195.971 214.442L179.513 226.198L177.423 218.361L171.675 224.108V214.703L164.622 223.063L158.352 204.253L150.514 223.599L139.019 209.217L130.398 228.811V219.405L125.434 228.549L122.038 216.27L112.633 230.9L98.2641 212.874L93.8231 230.639L89.643 225.676L86.5081 237.98H207.205L208.25 233.252L204.332 233.513Z" fill="#E3E7E2"/>
<path d="M79.7039 237.98H215.054" stroke="black" stroke-width="0.457302" stroke-miterlimit="10"/>
</svg>
