<svg width="222" height="239" viewBox="0 0 222 239" fill="none" xmlns="http://www.w3.org/2000/svg">
<path d="M50.1858 237.98H109.469" stroke="black" stroke-width="0.457302" stroke-miterlimit="10"/>
<path d="M90.7102 145.535H68.028C64.5258 145.535 61.6868 148.374 61.6868 151.876V151.876C61.6868 155.378 64.5258 158.217 68.028 158.217H90.7102C94.2124 158.217 97.0514 155.378 97.0514 151.876C97.0514 148.374 94.2124 145.535 90.7102 145.535Z" fill="#E3E7E2"/>
<path d="M90.7103 158.217H68.0281" stroke="black" stroke-width="0.457302" stroke-miterlimit="10"/>
<path d="M79.3691 158.217V238.458" stroke="black" stroke-width="0.457302" stroke-miterlimit="10"/>
<path d="M126.08 120.901C126.08 120.901 165.841 134.087 180.839 179.449L187.424 182.376L166.207 188.961L131.819 151.876L107.519 135.7" fill="#E3E7E2"/>
<path d="M140.714 199.191C151.295 126.892 114.625 124.02 114.625 124.02L97.6768 151.876L114.464 151.156L119.064 207.088L143.951 204.801L140.714 199.191Z" fill="#EEF0EC"/>
<path d="M140.714 199.191C151.295 126.892 114.625 124.02 114.625 124.02" stroke="black" stroke-width="0.457302" stroke-miterlimit="10"/>
<path d="M106.149 114.183L66.1275 124.02C66.1275 124.02 63.4805 154.721 106.149 151.876L129.258 119.524L106.149 114.183Z" fill="#EEF0EC"/>
<path d="M106.149 151.876L129.258 119.524" stroke="black" stroke-width="0.457302" stroke-miterlimit="10"/>
<path d="M66.1275 124.02C66.1275 124.02 63.4805 154.721 106.149 151.876" stroke="black" stroke-width="0.457302" stroke-miterlimit="10"/>
<path d="M78.1782 53.6077V58.1153C78.1782 59.809 78.7461 61.4538 79.7911 62.7867C80.836 64.1196 82.2977 65.0636 83.9425 65.4679L91.1157 67.2309V49.6069L85.1512 48.141C84.3223 47.9372 83.4579 47.9247 82.6234 48.1042C81.7889 48.2838 81.0062 48.6508 80.3344 49.1774C79.6627 49.7041 79.1194 50.3766 78.7459 51.1441C78.3723 51.9116 78.1782 52.754 78.1782 53.6076V53.6077Z" fill="#EEF0EC"/>
<path d="M78.1782 58.1154C78.1782 59.809 78.7461 61.4538 79.7911 62.7867C80.836 64.1196 82.2977 65.0637 83.9425 65.4679L91.1157 67.231" stroke="black" stroke-width="0.457302" stroke-miterlimit="10"/>
<path d="M85.4865 57.2209C85.6776 57.2209 85.8325 57.066 85.8325 56.875C85.8325 56.6839 85.6776 56.5291 85.4865 56.5291C85.2955 56.5291 85.1406 56.6839 85.1406 56.875C85.1406 57.066 85.2955 57.2209 85.4865 57.2209Z" fill="black"/>
<path d="M80.1733 57.2209C80.3644 57.2209 80.5192 57.066 80.5192 56.875C80.5192 56.6839 80.3644 56.5291 80.1733 56.5291C79.9823 56.5291 79.8274 56.6839 79.8274 56.875C79.8274 57.066 79.9823 57.2209 80.1733 57.2209Z" fill="black"/>
<path d="M81.7322 58.9386V53.6077H79.0615" stroke="black" stroke-width="0.457302" stroke-miterlimit="10"/>
<path d="M86.1381 53.6077H83.4675" stroke="black" stroke-width="0.457302" stroke-miterlimit="10"/>
<path d="M90.2634 56.339V58.1903C90.743 58.1903 91.2029 57.9998 91.542 57.6607C91.881 57.3216 92.0715 56.8617 92.0715 56.3821C92.0715 56.3267 92.0691 56.2718 92.0642 56.2176C91.9629 55.0948 90.2634 55.2117 90.2634 56.339Z" fill="#EEF0EC"/>
<path d="M90.2634 58.1903C90.743 58.1903 91.2029 57.9998 91.542 57.6607C91.881 57.3216 92.0715 56.8617 92.0715 56.3822" stroke="black" stroke-width="0.457302" stroke-miterlimit="10"/>
<path d="M83.1921 59.5614C83.4167 59.7859 83.7212 59.9121 84.0387 59.9121C84.3563 59.9121 84.6608 59.7859 84.8853 59.5614" stroke="black" stroke-width="0.457302" stroke-linecap="round" stroke-linejoin="round"/>
<path d="M81.7322 58.9427L82.9002 59.2298" stroke="black" stroke-width="0.457302" stroke-miterlimit="10" stroke-linecap="round"/>
<path d="M77.8052 51.7168L87.8861 52.2046C87.8861 52.2046 88.4629 55.5083 90.2636 55.863" stroke="black" stroke-width="0.457302" stroke-linecap="round" stroke-linejoin="round"/>
<path d="M77.8051 60.4157L73.2524 58.9385C73.2524 58.9385 73.4963 41.7171 88.13 44.3187C88.13 44.3187 97.398 44.6912 98.3736 54.6909C99.3491 64.6906 99.1969 65.3308 99.1969 65.3308L91.1157 63.4237" stroke="black" stroke-width="0.457302" stroke-linecap="round" stroke-linejoin="round"/>
<path d="M213.384 20.4432C194.281 20.4432 177.934 12.2749 171.213 0.70459C164.491 12.2749 148.144 20.4432 129.041 20.4432C126.291 20.4441 123.543 20.2717 120.814 19.9271V83.0878C120.814 90.4292 122.747 97.6413 126.417 103.999C130.088 110.357 135.368 115.637 141.726 119.307L171.213 136.332L200.699 119.307C207.057 115.637 212.337 110.357 216.008 103.999C219.678 97.6413 221.611 90.4292 221.611 83.0878V19.9271C218.882 20.2717 216.134 20.4441 213.384 20.4432Z" fill="#EEF0EC"/>
<path d="M200.699 119.307C207.057 115.637 212.337 110.357 216.008 103.999C219.678 97.6413 221.611 90.4292 221.611 83.0878V19.9271C218.882 20.2718 216.134 20.4441 213.384 20.4432C194.281 20.4432 177.934 12.275 171.212 0.70459V136.332L200.699 119.307Z" fill="#E3E7E2"/>
<path d="M106.149 85.9324V114.183L66.1274 124.02V92.556C66.1274 87.1348 67.9452 81.87 71.2899 77.6036C74.6347 73.3372 79.3135 70.3154 84.578 69.0215H84.5781C87.1423 68.3912 89.8163 68.3524 92.3978 68.9079C94.9792 69.4633 97.4006 70.5986 99.4786 72.2277C101.557 73.8569 103.237 75.9373 104.393 78.3116C105.548 80.6858 106.149 83.2918 106.149 85.9324V85.9324Z" fill="#C1C7CD"/>
<path d="M77.805 71.8268C77.805 71.8268 51.3381 87.6278 41.8267 111.406C32.3153 135.185 80.2033 120.56 80.2033 120.56C80.2033 120.56 87.9918 121.069 90.9185 117.406L94.4686 117.054L94.0485 115.373L64.456 108.869L78.1781 96.2649" stroke="black" stroke-width="0.457302" stroke-miterlimit="10"/>
<path d="M64.4561 108.869L75.3094 111.255C67.3915 108.326 75.8317 98.4207 75.8338 98.4182L64.4561 108.869Z" fill="black"/>
<path d="M81.2783 112.566C80.9462 112.327 80.0319 112.11 78.3652 111.926L81.2783 112.566Z" fill="black"/>
<path d="M102.715 75.5428L114.625 93.5853C114.625 93.5853 118.601 72.1226 124.129 70.1715C129.657 68.2203 132.259 67.231 132.259 67.231L132.877 69.1835L130.307 71.8268C130.307 71.8268 132.802 77.3257 128.628 78.6265C128.628 78.6265 140.983 113.719 115.809 116.416" stroke="black" stroke-width="0.457302" stroke-miterlimit="10"/>
<path d="M59.8584 206.769C58.6392 203.356 55.0677 207.864 55.0677 207.864C55.0677 207.864 59.3707 198.723 55.0677 196.651C52.9451 195.628 51.8282 196.831 51.2408 198.312C53.4425 185.02 53.9176 159.384 45.0311 158.492C35.3242 157.516 38.6454 182.143 38.6454 182.143C38.6454 182.143 35.9633 175.072 32.5499 178.242C29.1365 181.411 35.7195 202.137 35.7195 202.137C34.988 199.942 31.0868 198.235 29.6238 202.137C28.1609 206.038 33.7689 214.328 33.7689 214.328L53.0312 217.498C53.0312 217.498 61.0775 210.183 59.8584 206.769Z" fill="black"/>
<path d="M58.4249 237.98H30.8429L24.7434 213.333H64.5241L58.4249 237.98Z" fill="#C1C7CD"/>
<path d="M0.0925293 237.98H92.0716" stroke="black" stroke-width="0.457302" stroke-miterlimit="10"/>
<path d="M24.7437 213.333H64.5243" stroke="black" stroke-width="0.457302" stroke-miterlimit="10"/>
<path d="M204.424 233.513V226.72L198.154 232.468L196.064 214.442L179.605 226.198L177.515 218.361L171.768 224.108V214.703L164.714 223.063L158.444 204.253L150.607 223.599L139.112 209.217L130.491 228.811V219.405L125.527 228.549L122.13 216.27L112.725 230.9L98.3566 212.874L93.9156 230.639L89.7355 225.676L86.6006 237.98H207.298L208.343 233.252L204.424 233.513Z" fill="#E3E7E2"/>
<path d="M79.7964 237.98H215.147" stroke="black" stroke-width="0.457302" stroke-miterlimit="10"/>
<path d="M171.351 42.6046C172.94 42.6046 174.222 43.9042 174.201 45.493L173.793 75.3644C173.775 76.7 172.687 77.7731 171.351 77.7731V77.7731C170.016 77.7731 168.928 76.7 168.91 75.3644L168.502 45.493C168.48 43.9042 169.762 42.6046 171.351 42.6046V42.6046ZM171.341 88.2432C169.234 88.2432 167.879 86.9501 167.879 84.9687C167.879 82.9665 169.234 81.6733 171.341 81.6733C173.448 81.6733 174.803 82.9665 174.803 84.9687C174.803 86.9501 173.448 88.2432 171.341 88.2432Z" fill="#F4604D"/>
</svg>
