<svg width="16" height="16" viewBox="0 0 16 16" fill="none"
	xmlns="http://www.w3.org/2000/svg">
	<g clip-path="url(#clip0)">
		<path d="M9.50316 1.96173C9.50316 2.06296 9.49641 2.16418 9.48966 2.25866C9.40747 3.59576 8.98462 4.88981 8.26147 6.01745V6.05119C9.54223 6.05153 10.596 7.10534 10.5964 8.3861V14.0007H15.0003V8.5818C14.9947 5.35342 12.6731 2.55895 9.50046 1.96173" fill="#fff"/>
		<path d="M5.40663 9.60089H1V14.0075H5.40663V9.60089Z" fill="#fff"/>
		<path d="M1.02033 8.4401C1.01358 8.55482 1.00684 8.66954 1.00684 8.78426C4.94784 9.02045 8.32198 6.07819 8.55817 2.20467C8.56492 2.08995 8.57167 1.97523 8.57167 1.86051C4.63741 1.62432 1.25652 4.56658 1.02033 8.4401Z" fill="#fff"/>
	</g>
	<defs>
		<clipPath id="clip0">
			<path d="M1 1H15V15H1V1Z" fill="white"/>
		</clipPath>
	</defs>
</svg>
