<svg width="24" height="24" viewBox="0 0 24 24" fill="none" xmlns="http://www.w3.org/2000/svg">
<g clip-path="url(#clip0)">
<mask id="mask0" mask-type="alpha" maskUnits="userSpaceOnUse" x="2" y="2" width="20" height="21">
<path d="M21.3182 10.2995H12V14.1631H17.3636C16.8636 16.6177 14.7727 18.0268 12 18.0268C8.72727 18.0268 6.09091 15.3904 6.09091 12.1177C6.09091 8.84495 8.72727 6.20858 12 6.20858C13.4091 6.20858 14.6818 6.70858 15.6818 7.52677L18.5909 4.61768C16.8182 3.07222 14.5455 2.11768 12 2.11768C6.45455 2.11768 2 6.57222 2 12.1177C2 17.6631 6.45455 22.1177 12 22.1177C17 22.1177 21.5455 18.4813 21.5455 12.1177C21.5455 11.5268 21.4545 10.8904 21.3182 10.2995Z" fill="white"/>
</mask>
<g mask="url(#mask0)">
<path d="M1.09082 18.0267V6.2085L8.81809 12.1176L1.09082 18.0267Z" fill="#FBBC05"/>
</g>
<mask id="mask1" mask-type="alpha" maskUnits="userSpaceOnUse" x="2" y="2" width="20" height="21">
<path d="M21.3182 10.2995H12V14.1631H17.3636C16.8636 16.6177 14.7727 18.0268 12 18.0268C8.72727 18.0268 6.09091 15.3904 6.09091 12.1177C6.09091 8.84495 8.72727 6.20858 12 6.20858C13.4091 6.20858 14.6818 6.70858 15.6818 7.52677L18.5909 4.61768C16.8182 3.07222 14.5455 2.11768 12 2.11768C6.45455 2.11768 2 6.57222 2 12.1177C2 17.6631 6.45455 22.1177 12 22.1177C17 22.1177 21.5455 18.4813 21.5455 12.1177C21.5455 11.5268 21.4545 10.8904 21.3182 10.2995Z" fill="white"/>
</mask>
<g mask="url(#mask1)">
<path d="M1.09082 6.2085L8.81809 12.1176L11.9999 9.34486L22.909 7.57213V1.2085H1.09082V6.2085Z" fill="#EA4335"/>
</g>
<mask id="mask2" mask-type="alpha" maskUnits="userSpaceOnUse" x="2" y="2" width="20" height="21">
<path d="M21.3182 10.2995H12V14.1631H17.3636C16.8636 16.6177 14.7727 18.0268 12 18.0268C8.72727 18.0268 6.09091 15.3904 6.09091 12.1177C6.09091 8.84495 8.72727 6.20858 12 6.20858C13.4091 6.20858 14.6818 6.70858 15.6818 7.52677L18.5909 4.61768C16.8182 3.07222 14.5455 2.11768 12 2.11768C6.45455 2.11768 2 6.57222 2 12.1177C2 17.6631 6.45455 22.1177 12 22.1177C17 22.1177 21.5455 18.4813 21.5455 12.1177C21.5455 11.5268 21.4545 10.8904 21.3182 10.2995Z" fill="white"/>
</mask>
<g mask="url(#mask2)">
<path d="M1.09082 18.0267L14.7272 7.57213L18.3181 8.02668L22.909 1.2085V23.0267H1.09082V18.0267Z" fill="#34A853"/>
</g>
<mask id="mask3" mask-type="alpha" maskUnits="userSpaceOnUse" x="2" y="2" width="20" height="21">
<path d="M21.3182 10.2995H12V14.1631H17.3636C16.8636 16.6177 14.7727 18.0268 12 18.0268C8.72727 18.0268 6.09091 15.3904 6.09091 12.1177C6.09091 8.84495 8.72727 6.20858 12 6.20858C13.4091 6.20858 14.6818 6.70858 15.6818 7.52677L18.5909 4.61768C16.8182 3.07222 14.5455 2.11768 12 2.11768C6.45455 2.11768 2 6.57222 2 12.1177C2 17.6631 6.45455 22.1177 12 22.1177C17 22.1177 21.5455 18.4813 21.5455 12.1177C21.5455 11.5268 21.4545 10.8904 21.3182 10.2995Z" fill="white"/>
</mask>
<g mask="url(#mask3)">
<path d="M22.9091 23.0267L8.81818 12.1176L7 10.754L22.9091 6.2085V23.0267Z" fill="#4285F4"/>
</g>
</g>
<defs>
<clipPath id="clip0">
<path d="M2 2.11768H22V22.1177H2V2.11768Z" fill="white"/>
</clipPath>
</defs>
</svg>
