<svg width="28" height="25" viewBox="0 0 28 25" fill="none" xmlns="http://www.w3.org/2000/svg">
<g clip-path="url(#clip0)">
<path opacity="0.5" d="M4.98349 3.28418C4.5946 3.59529 4.22793 3.93418 3.87793 4.28418C4.30015 4.01751 4.67237 3.67862 4.98349 3.28418Z" fill="black"/>
<path d="M0 15.9341V24.2896H8.33333V15.9341" fill="#415AFF"/>
<path d="M14.8556 0.328684V0.478684C14.8556 7.87868 8.83333 13.9009 1.43333 13.9009H1.00556C0.666667 13.9009 0.333333 13.8898 0 13.862V13.8565V13.3065V13.712C0 10.5509 1.1 7.63979 2.93889 5.34535V5.33979H2.94444C3.83889 4.22313 4.91111 3.25091 6.11667 2.46757V2.46202H6.12778C8.23333 1.08979 10.7333 0.289795 13.4222 0.289795H13.85L14.8556 0.328684Z" fill="#49C8F5"/>
<path d="M14.8556 0.328684V0.478684C14.8556 7.87868 8.83333 13.9009 1.43333 13.9009H1.00556C0.666667 13.9009 0.333333 13.8898 0 13.862V13.8565V13.3065V13.712C0 10.5509 1.1 7.63979 2.93889 5.34535V5.33979H2.94444C3.83889 4.22313 4.91111 3.25091 6.11667 2.46757V2.46202H6.12778C8.23333 1.08979 10.7333 0.289795 13.4222 0.289795H13.85L14.8556 0.328684Z" fill="#66A7FF"/>
<path d="M16.5218 0.562012C16.5051 3.53423 15.6218 6.30646 14.1162 8.63423C16.894 8.77312 19.1107 11.0676 19.1107 13.8787V24.2898H27.444V13.8842C27.444 7.3009 22.7384 1.80646 16.5218 0.562012Z" fill="#415AFF"/>
</g>
<defs>
<clipPath id="clip0">
<path d="M0 0.289795H27.4444V24.2898H0V0.289795Z" fill="white"/>
</clipPath>
</defs>
</svg>
