<svg width="16" height="16" viewBox="0 0 16 16" fill="none" xmlns="http://www.w3.org/2000/svg">
<path d="M7.52637 15.1738C7.66309 15.1738 7.85449 15.126 8.05273 15.0234C11.9287 12.8906 13.3096 11.9678 13.3096 9.47949V4.27051C13.3096 3.4502 12.9951 3.15625 12.3047 2.8623C11.5459 2.54102 8.99609 1.65918 8.25781 1.39941C8.02539 1.32422 7.76562 1.27637 7.52637 1.27637C7.29395 1.27637 7.02734 1.33789 6.80176 1.39941C6.05664 1.625 3.50684 2.54785 2.74805 2.8623C2.06445 3.14941 1.74316 3.4502 1.74316 4.27051V9.47949C1.74316 11.9678 3.11719 12.8975 7 15.0234C7.19824 15.126 7.39648 15.1738 7.52637 15.1738ZM7.52637 13.7178C7.41699 13.7178 7.30762 13.6836 7.0957 13.5537C3.99219 11.7012 3.04883 11.2158 3.04883 9.21973V4.48242C3.04883 4.23633 3.09668 4.14062 3.28809 4.06543C4.2998 3.66211 6.24805 2.97852 7.15723 2.65723C7.32129 2.5957 7.43066 2.5752 7.52637 2.5752C7.62891 2.5752 7.73828 2.5957 7.89551 2.65723C8.80469 2.97852 10.7393 3.70312 11.7646 4.06543C11.9561 4.13379 12.0107 4.23633 12.0107 4.48242V9.21973C12.0107 11.2227 11.0059 11.7285 7.96387 13.5537C7.73828 13.6836 7.62891 13.7178 7.52637 13.7178Z" fill="#4D88E8"/>
<path d="M6 10L6 8L6 6M9 10L9 6" stroke="#4D88E8" stroke-width="1.5" stroke-linecap="round"/>
</svg>
