<svg width="14" height="17" viewBox="0 0 14 17" fill="none" xmlns="http://www.w3.org/2000/svg">
<path d="M1.31892 9.34727L4.69924 8.92159L4.81961 9.87645C4.93693 10.8101 4.27536 11.6619 3.34202 11.7795C2.40886 11.8967 1.5566 11.2356 1.43929 10.3023L1.31892 9.34727ZM4.71736 3.4543C4.48631 1.62099 3.30291 0.259993 2.07359 0.414981C1.23999 0.519742 0.600841 1.29648 0.347012 2.3561C0.346833 2.35826 0.345577 2.35987 0.344859 2.36166C0.343424 2.36687 0.342886 2.37153 0.341631 2.37619C0.338581 2.38911 0.335711 2.40149 0.332661 2.4144C-0.297876 4.72291 1.03693 6.86907 1.21846 8.31096L1.46763 8.28011L4.56937 7.88905L4.43339 6.81005C4.37438 6.33988 4.42963 5.89285 4.49277 5.57929C4.72382 4.97404 4.8153 4.23516 4.71736 3.4543ZM11.8635 14.0724L8.51655 13.4351L8.33644 14.3808C8.16065 15.3048 8.76733 16.1971 9.69205 16.3727C10.6155 16.5483 11.5076 15.9422 11.6839 15.0176L11.8635 14.0724ZM8.93218 10.1127C8.97541 10.4297 9.00322 10.8789 8.91406 11.3445L8.71046 12.4131L11.7821 12.9976L12.0284 13.0447C12.2999 11.6174 13.7666 9.5584 13.2823 7.21546C13.2805 7.20254 13.2785 7.18998 13.2758 7.17689C13.2747 7.17187 13.2744 7.16738 13.2733 7.162C13.2727 7.16003 13.272 7.15823 13.2713 7.15644C13.0846 6.08175 12.4953 5.26734 11.6701 5.11002C10.453 4.87879 9.18637 6.16265 8.84105 7.97802C8.6945 8.75081 8.7397 9.49472 8.93218 10.1127Z" fill="black"/>
</svg>
