<svg width="16" height="16" viewBox="0 0 16 16" fill="none" xmlns="http://www.w3.org/2000/svg">
<path opacity="0.76" d="M8.60938 15.8828C8.76562 15.8828 8.98438 15.8281 9.21094 15.7109C13.6406 13.2734 15.2188 12.2188 15.2188 9.375V3.42188C15.2188 2.48438 14.8594 2.14844 14.0703 1.8125C13.2031 1.44531 10.2891 0.4375 9.44531 0.140625C9.17969 0.0546875 8.88281 0 8.60938 0C8.34375 0 8.03906 0.0703125 7.78125 0.140625C6.92969 0.398438 4.01562 1.45312 3.14844 1.8125C2.36719 2.14062 2 2.48438 2 3.42188V9.375C2 12.2188 3.57031 13.2812 8.00781 15.7109C8.23438 15.8281 8.46094 15.8828 8.60938 15.8828ZM8.60938 14.2188C8.48438 14.2188 8.35938 14.1797 8.11719 14.0312C4.57031 11.9141 3.49219 11.3594 3.49219 9.07812V3.66406C3.49219 3.38281 3.54688 3.27344 3.76562 3.1875C4.92188 2.72656 7.14844 1.94531 8.1875 1.57812C8.375 1.50781 8.5 1.48438 8.60938 1.48438C8.72656 1.48438 8.85156 1.50781 9.03125 1.57812C10.0703 1.94531 12.2812 2.77344 13.4531 3.1875C13.6719 3.26562 13.7344 3.38281 13.7344 3.66406V9.07812C13.7344 11.3672 12.5859 11.9453 9.10938 14.0312C8.85156 14.1797 8.72656 14.2188 8.60938 14.2188Z" fill="black"/>
</svg>
