<svg width="106" height="19" viewBox="0 0 106 19" fill="none" xmlns="http://www.w3.org/2000/svg">
<g clip-path="url(#clip0)">
<g clip-path="url(#clip1)">
<path opacity="0.8" fill-rule="evenodd" clip-rule="evenodd" d="M59.5881 4.02768C62.4111 4.02768 65.6869 6.11829 65.6869 10.5406L65.6602 11.2107H56.0194C56.1792 13.2745 57.6707 14.5342 59.4816 14.5342C61.0529 14.5342 62.0915 13.623 62.6508 12.4972L65.5169 12.5043C65.5169 12.5618 65.4284 13.161 65.1083 13.7397C64.0112 15.8078 61.9183 17 59.6147 17C55.5933 17 52.9301 14.0517 52.9301 10.5139C52.9301 7.00278 55.6199 4.02768 59.5881 4.02768ZM73.5963 4.02768C76.4194 4.02768 79.6952 6.11829 79.6952 10.5406L79.6685 11.2107H70.0276C70.1874 13.2745 71.6789 14.5342 73.4898 14.5342C75.0611 14.5342 76.0997 13.623 76.659 12.4972L79.5251 12.5043C79.5251 12.5618 79.4365 13.161 79.1167 13.7397C78.0194 15.8078 75.9265 17 73.623 17C69.6015 17 66.9383 14.0517 66.9383 10.5139C66.9383 7.00278 69.6281 4.02768 73.5963 4.02768ZM98.8669 4.00056C100.332 4.01974 102.027 4.63445 103.075 6.01514L103.081 4.42768L105.728 4.43516V11.8148H105.732C105.732 11.8148 105.727 12.8033 105.723 13.9298C105.724 13.9298 105.725 13.9299 105.726 13.9299V16.8718L104.99 16.8681C103.836 16.8681 102.991 16.2531 102.731 15.2733C101.644 16.4108 100.055 16.9894 98.6997 16.9718C95.1313 16.9252 92.5854 13.9971 92.6317 10.4059C92.6778 6.84147 95.2986 3.95393 98.8669 4.00056ZM46.2772 4.06483C49.4996 4.06483 51.6302 6.39667 51.6302 9.69331V16.6352H48.5942V10.015C48.5942 7.95124 47.5023 6.63791 45.5581 6.63791C43.8937 6.63791 42.0862 8.02889 42.0862 9.76786C42.0924 9.93168 42.0446 16.3698 42.0427 16.6272L42.0427 16.6352H39.0066L39 4.45702L39.7352 4.4606C40.8264 4.4606 41.6414 5.05653 41.9513 5.94141C43.097 4.80234 44.5661 4.06483 46.2772 4.06483ZM82.5591 4.42977L86.2068 12.524L89.8813 4.42977H93.2104L87.3786 16.598H85.0616L79.23 4.42977H82.5591ZM99.2864 6.57926C97.1294 6.55111 95.7219 8.30184 95.6943 10.4459C95.6662 12.6166 97.0285 14.3768 99.1856 14.4049C101.289 14.4325 102.696 12.7353 102.725 10.5377C102.753 8.36687 101.39 6.60678 99.2864 6.57926ZM59.5082 6.33271C57.7238 6.33271 56.4189 7.59239 56.2058 9.20052H62.6242C62.4377 7.512 61.2126 6.33271 59.5082 6.33271ZM73.5165 6.33271C71.7321 6.33271 70.4271 7.59239 70.2141 9.20052H76.6324C76.446 7.512 75.221 6.33271 73.5165 6.33271Z" fill="#191919"/>
</g>
<path d="M0 12.1897V18.7001H6.68016V12.1897" fill="#415AFF"/>
<path d="M11.9085 0.0303009V0.147176C11.9085 5.91301 7.08097 10.6053 1.14899 10.6053H0.806072C0.534413 10.6053 0.267206 10.5967 0 10.575V10.5707V10.1421V10.4581C0 7.99511 0.881781 5.72687 2.35587 3.93912V3.93479H2.36032C3.07733 3.06472 3.93684 2.3072 4.90323 1.69685V1.69252H4.91214C6.59999 0.623333 8.60404 0 10.7595 0H11.1024L11.9085 0.0303009Z" fill="#73A8FF"/>
<path d="M13.2447 0.212158C13.2314 2.52801 12.5233 4.68804 11.3164 6.50176C13.5431 6.60998 15.32 8.39773 15.32 10.5881V18.7H22.0002V10.5924C22.0002 5.46287 18.2281 1.18179 13.2447 0.212158Z" fill="#415AFF"/>
</g>
<defs>
<clipPath id="clip0">
<rect width="105.826" height="18.7" fill="white"/>
</clipPath>
<clipPath id="clip1">
<path d="M39 4H105.826V17H39V4Z" fill="white"/>
</clipPath>
</defs>
</svg>
