<svg width="12" height="13" viewBox="0 0 12 13" fill="none" xmlns="http://www.w3.org/2000/svg">
<mask id="mask0" mask-type="alpha" maskUnits="userSpaceOnUse" x="0" y="0" width="12" height="13">
<path fill-rule="evenodd" clip-rule="evenodd" d="M6 0.5C2.68548 0.5 0 3.18548 0 6.5C0 9.81452 2.68548 12.5 6 12.5C9.31452 12.5 12 9.81452 12 6.5C12 3.18548 9.31452 0.5 6 0.5ZM9.48387 7.1774C9.48387 7.33708 9.35323 7.46773 9.19355 7.46773H6.96774V9.69353C6.96774 9.85321 6.8371 9.98386 6.67742 9.98386H5.32258C5.1629 9.98386 5.03226 9.85321 5.03226 9.69353V7.46773H2.80645C2.64677 7.46773 2.51613 7.33708 2.51613 7.1774V5.82257C2.51613 5.66289 2.64677 5.53224 2.80645 5.53224H5.03226V3.30644C5.03226 3.14676 5.1629 3.01611 5.32258 3.01611H6.67742C6.8371 3.01611 6.96774 3.14676 6.96774 3.30644V5.53224H9.19355C9.35323 5.53224 9.48387 5.66289 9.48387 5.82257V7.1774Z" fill="white"/>
</mask>
<g mask="url(#mask0)">
<rect y="0.5" width="12" height="12" fill="#207EEE"/>
</g>
</svg>
