<svg width="12" height="12" viewBox="0 0 12 12" fill="none" xmlns="http://www.w3.org/2000/svg">
<mask id="mask0" mask-type="alpha" maskUnits="userSpaceOnUse" x="0" y="0" width="12" height="12">
<path fill-rule="evenodd" clip-rule="evenodd" d="M6 0C2.68548 0 0 2.68548 0 6C0 9.31452 2.68548 12 6 12C9.31452 12 12 9.31452 12 6C12 2.68548 9.31452 0 6 0ZM9.48387 6.6774C9.48387 6.83708 9.35323 6.96773 9.19355 6.96773H6.96774V9.19353C6.96774 9.35321 6.8371 9.48386 6.67742 9.48386H5.32258C5.1629 9.48386 5.03226 9.35321 5.03226 9.19353V6.96773H2.80645C2.64677 6.96773 2.51613 6.83708 2.51613 6.6774V5.32257C2.51613 5.16289 2.64677 5.03224 2.80645 5.03224H5.03226V2.80644C5.03226 2.64676 5.1629 2.51611 5.32258 2.51611H6.67742C6.8371 2.51611 6.96774 2.64676 6.96774 2.80644V5.03224H9.19355C9.35323 5.03224 9.48387 5.16289 9.48387 5.32257V6.6774Z" fill="white"/>
</mask>
<g mask="url(#mask0)">
<rect width="12" height="12" fill="#999999"/>
</g>
</svg>
