<svg width="12" height="12" viewBox="0 0 12 12" fill="none" xmlns="http://www.w3.org/2000/svg">
<path d="M8.00544 2.31522C6.74949 2.31522 5.71222 1.49999 4.13316 1.49999C3.54828 1.49999 3.02435 1.60274 2.53835 1.78155C2.60571 1.60564 2.63437 1.41729 2.6224 1.22931C2.58087 0.562844 2.03452 0.0282574 1.3673 0.00111674C0.617461 -0.0293989 0 0.56943 0 1.31249C0 1.75841 0.222586 2.15214 0.5625 2.38933V11.4375C0.5625 11.7482 0.814337 12 1.125 12H1.5C1.81067 12 2.0625 11.7482 2.0625 11.4375V9.225C2.72604 8.94225 3.55271 8.70651 4.74457 8.70651C6.00054 8.70651 7.03779 9.52174 8.61685 9.52174C9.74581 9.52174 10.6481 9.13985 11.4881 8.56413C11.6916 8.42465 11.8125 8.19307 11.8125 7.94636V2.2487C11.8125 1.70043 11.2437 1.33769 10.7465 1.56864C9.94166 1.94242 8.95456 2.31522 8.00544 2.31522Z" fill="black"/>
</svg>
