<svg width="9" height="10" viewBox="0 0 9 10" fill="none" xmlns="http://www.w3.org/2000/svg">
<path d="M0.25 1.64062V1.09375C0.25 0.833984 0.458984 0.625 0.71875 0.625H2.90625L3.08984 0.259766C3.16797 0.0996094 3.33008 0 3.50781 0H5.74023C5.91797 0 6.08008 0.0996094 6.16016 0.259766L6.34375 0.625H8.53125C8.79102 0.625 9 0.833984 9 1.09375V1.64062C9 1.76953 8.89453 1.875 8.76562 1.875H0.484375C0.355469 1.875 0.25 1.76953 0.25 1.64062ZM8.375 2.73438V9.0625C8.375 9.58008 7.95508 10 7.4375 10H1.8125C1.29492 10 0.875 9.58008 0.875 9.0625V2.73438C0.875 2.60547 0.980469 2.5 1.10938 2.5H8.14062C8.26953 2.5 8.375 2.60547 8.375 2.73438ZM3.0625 4.0625C3.0625 3.89062 2.92188 3.75 2.75 3.75C2.57812 3.75 2.4375 3.89062 2.4375 4.0625V8.4375C2.4375 8.60938 2.57812 8.75 2.75 8.75C2.92188 8.75 3.0625 8.60938 3.0625 8.4375V4.0625ZM4.9375 4.0625C4.9375 3.89062 4.79688 3.75 4.625 3.75C4.45312 3.75 4.3125 3.89062 4.3125 4.0625V8.4375C4.3125 8.60938 4.45312 8.75 4.625 8.75C4.79688 8.75 4.9375 8.60938 4.9375 8.4375V4.0625ZM6.8125 4.0625C6.8125 3.89062 6.67188 3.75 6.5 3.75C6.32812 3.75 6.1875 3.89062 6.1875 4.0625V8.4375C6.1875 8.60938 6.32812 8.75 6.5 8.75C6.67188 8.75 6.8125 8.60938 6.8125 8.4375V4.0625Z" fill="#767676"/>
</svg>
