<svg width="310" height="70" viewBox="0 0 310 70" fill="none" xmlns="http://www.w3.org/2000/svg">
<circle cx="155" cy="35" r="35" fill="#1C3BC7"/>
<circle cx="35" cy="35" r="35" fill="#00A773"/>
<circle cx="275" cy="35" r="35" fill="#D6EEE6"/>
<path d="M166.645 31.2852C168.848 31.2852 170.676 29.457 170.676 27.2539C170.676 25.0391 168.848 23.2227 166.645 23.2227C164.43 23.2227 162.613 25.0391 162.613 27.2539C162.613 29.457 164.43 31.2852 166.645 31.2852ZM146.16 45.9688H165.074C167.418 45.9688 168.801 44.5977 168.801 42.0312V32.5391C168.039 32.8789 167.219 33.0195 166.363 32.9492V41.5508L160.246 35.4688L163.645 32.1289C163.023 31.7539 162.473 31.2383 162.062 30.6406L156.789 35.8438C156.309 36.3125 155.922 36.5117 155.5 36.5117C155.09 36.5117 154.703 36.3125 154.223 35.8438L145.902 27.6172C145.996 27.6055 146.102 27.6055 146.207 27.6055H160.961C160.855 26.7734 160.996 25.8945 161.324 25.1328H145.902C143.559 25.1328 142.188 26.5039 142.188 29.0703V42.0312C142.188 44.6094 143.57 45.9688 146.16 45.9688ZM144.613 29.4219L150.766 35.4805L144.613 41.5742V29.4219ZM155.5 38.7852C156.414 38.7852 157.258 38.4102 158.113 37.5664L158.676 37.0156L165.191 43.4727C165.062 43.4961 164.922 43.5078 164.77 43.5078H146.207C146.066 43.5078 145.938 43.4961 145.809 43.4727L152.324 37.0156L152.887 37.5664C153.754 38.4219 154.598 38.7852 155.5 38.7852Z" fill="white"/>
<path d="M31.5859 46.0625C32.2773 46.0625 32.8164 45.793 33.1914 45.2305L44.1602 28.2617C44.4414 27.8398 44.5469 27.4648 44.5469 27.1016C44.5469 26.1758 43.8672 25.5078 42.918 25.5078C42.2617 25.5078 41.8633 25.7422 41.4648 26.375L31.5391 42.1016L26.4531 35.6562C26.0664 35.1758 25.668 34.9648 25.0938 34.9648C24.1328 34.9648 23.4414 35.6445 23.4414 36.582C23.4414 36.9922 23.582 37.3789 23.9219 37.7891L29.9922 45.2656C30.4375 45.8164 30.9297 46.0625 31.5859 46.0625Z" fill="#D6EEE6"/>
<line x1="70" y1="34.5" x2="120" y2="34.5" stroke="#00A773" stroke-width="3"/>
<line x1="190" y1="34.5" x2="240" y2="34.5" stroke="#00A773" stroke-width="3" stroke-dasharray="4 4"/>
<path d="M271.867 23.6914C272.02 23.6914 272.125 23.5977 272.16 23.4336C272.441 21.7344 272.453 21.7344 274.164 21.418C274.34 21.3828 274.434 21.2773 274.434 21.125C274.434 20.9609 274.34 20.8672 274.176 20.8203C272.441 20.4805 272.477 20.4805 272.16 18.8164C272.125 18.6523 272.02 18.5586 271.867 18.5586C271.703 18.5586 271.598 18.6641 271.574 18.8164C271.246 20.5039 271.293 20.5156 269.559 20.8203C269.395 20.8555 269.289 20.9727 269.289 21.125C269.289 21.2656 269.383 21.3828 269.559 21.418C271.293 21.7578 271.27 21.7461 271.574 23.4336C271.598 23.5859 271.703 23.6914 271.867 23.6914ZM280.199 26.8086C280.434 26.8086 280.598 26.6562 280.621 26.4102C280.938 23.7383 281.055 23.6562 283.797 23.2227C284.055 23.1992 284.207 23.0469 284.207 22.8125C284.207 22.6016 284.055 22.4492 283.844 22.4141C281.066 21.8633 280.938 21.8984 280.621 19.2266C280.598 18.9922 280.434 18.8398 280.199 18.8398C280 18.8398 279.824 18.9922 279.812 19.2148C279.461 21.9453 279.379 22.0273 276.59 22.4141C276.379 22.4375 276.227 22.6016 276.227 22.8125C276.227 23.0352 276.367 23.1875 276.578 23.2227C279.391 23.7852 279.449 23.7617 279.812 26.4453C279.824 26.6562 280 26.8086 280.199 26.8086ZM272.066 25.6953C271.902 25.8594 271.773 26.0469 271.68 26.2461C270.625 25.4492 269.348 25.5547 268.375 26.5273C268.07 26.832 267.895 27.1953 267.836 27.582C266.805 26.9492 265.691 27.0664 264.824 27.9453C263.98 28.7773 263.863 29.9258 264.461 30.9336C264.098 30.9688 263.758 31.1445 263.488 31.4141C262.48 32.4219 262.48 33.8281 263.512 34.8477L264.18 35.5273C263.816 35.5508 263.441 35.7266 263.148 36.0195C262.141 37.0273 262.176 38.5039 263.23 39.5586L270.578 46.8945C273.754 50.082 277.539 50.7969 280.855 49.1562C283.023 49.1797 285.156 48.2656 287.008 46.4258C290.172 43.2617 290.688 39.3711 288.566 34.8711L285.883 29.1992C285.344 28.0742 284.43 27.3828 283.316 27.3945C282.754 27.3945 281.781 27.6758 281.324 28.5664C280.492 27.9805 279.438 27.9922 278.594 28.5898L275.699 25.6953C274.598 24.5938 273.168 24.6289 272.066 25.6953ZM278.195 32.7266L273.121 27.6406C273.156 27.5469 273.215 27.4531 273.297 27.3711C273.602 27.0781 274.035 27.0898 274.352 27.418L277.633 30.6875C277.656 30.8984 277.703 31.0977 277.785 31.2969L278.336 32.6211C278.348 32.668 278.348 32.7031 278.324 32.7383C278.289 32.7734 278.242 32.7617 278.195 32.7266ZM281.945 45.6406C278.957 48.6289 275.23 48.5586 271.914 45.2539L264.906 38.2344C264.625 37.9531 264.613 37.5664 264.883 37.2852C265.164 37.0039 265.574 37.0039 265.855 37.2969L270.145 41.5859C270.531 41.9727 271.129 41.9375 271.492 41.5742C271.867 41.1992 271.891 40.6016 271.504 40.2148L265.059 33.7695C264.777 33.4883 264.766 33.1016 265.047 32.8203C265.316 32.5391 265.727 32.5391 266.008 32.832L272.02 38.832C272.406 39.2188 273.004 39.1953 273.367 38.832C273.73 38.457 273.766 37.8594 273.379 37.4727L266.312 30.4062C266.02 30.1133 266.008 29.7148 266.289 29.4336C266.559 29.1641 266.969 29.1641 267.25 29.457L274.164 36.3594C274.539 36.7344 275.137 36.7227 275.512 36.3477C275.887 35.9727 275.898 35.375 275.523 35L269.688 29.1523C269.395 28.8711 269.383 28.4727 269.664 28.1914C269.945 27.9219 270.344 27.9219 270.625 28.2148L278.957 36.5352C279.473 37.0508 280.105 36.9922 280.527 36.5703C280.879 36.2188 281.043 35.7148 280.785 35.0586L279.309 31.1914C279.145 30.7578 279.309 30.4062 279.637 30.2539C279.988 30.0898 280.316 30.2539 280.539 30.6992L283.234 36.5234C285.016 40.3672 284.406 43.1797 281.945 45.6406ZM285.133 35.6211L282.707 30.4883C282.672 30.3945 282.66 30.3008 282.66 30.207C282.66 29.8789 282.918 29.5742 283.34 29.5742C283.598 29.5742 283.867 29.75 284.008 30.0547L286.668 35.7734C288.449 39.6172 287.852 42.4297 285.379 44.8789C285.344 44.9141 285.32 44.9492 285.285 44.9727C286.844 42.2656 286.797 39.125 285.133 35.6211ZM264.613 50.7734C264.824 50.7734 264.941 50.6445 264.977 50.4453C265.363 48.1484 265.363 48.1133 267.742 47.668C267.965 47.6211 268.082 47.5156 268.082 47.3047C268.082 47.1055 267.965 46.9883 267.766 46.9531C265.352 46.4609 265.398 46.4375 264.977 44.1758C264.941 43.9766 264.824 43.8477 264.613 43.8477C264.426 43.8477 264.297 43.9766 264.262 44.1758C263.828 46.4727 263.898 46.5078 261.484 46.9531C261.285 46.9883 261.156 47.1055 261.156 47.3047C261.156 47.5156 261.285 47.6211 261.484 47.668C263.898 48.1484 263.852 48.1602 264.262 50.4453C264.297 50.6445 264.426 50.7734 264.613 50.7734Z" fill="#00A773"/>
</svg>
