<svg xmlns="http://www.w3.org/2000/svg" width="8" height="18" viewBox="0 0 8 18">
  <path fill="#623CEA" d="M5.73894283,0.836639606 L5.82272727,0.763636364 C6.1239735,0.537701693 6.53987275,0.572664068 6.79972403,0.829851917 L6.87272727,0.913636364 L12.6,8.55 C12.8485281,8.88137085 12.7813708,9.35147186 12.45,9.6 L12.4345189,9.61131052 C12.4187678,9.65817985 12.3975087,9.70427203 12.3709824,9.74859732 L12.3272727,9.81363636 L6.6,17.45 C6.35147186,17.7813708 5.88137085,17.8485281 5.55,17.6 C5.24875377,17.3740653 5.16586586,16.9650126 5.34000784,16.6435428 L5.4,16.55 L11.062,9 L5.67272727,1.81363636 C5.4467926,1.51239014 5.48175498,1.09649088 5.73894283,0.836639606 L5.82272727,0.763636364 L5.73894283,0.836639606 Z" transform="translate(-5)"/>
</svg>
