<svg xmlns="http://www.w3.org/2000/svg" width="12" height="16" viewBox="0 0 12 16">
  <path fill="#FFF" fill-rule="evenodd" d="M14.7952842,6.15458159 L13.7514767,16.3237826 C13.7260326,16.5716694 13.6933055,16.659352 13.6385431,16.7470328 C13.5837807,16.8347137 13.5090603,16.9021572 13.416246,16.9476804 C13.3234318,16.9932037 13.2328658,17.0168067 12.9836766,17.0168067 L7.29712366,17.0168067 C7.04793451,17.0168067 6.9573685,16.9932037 6.86455426,16.9476804 C6.77174003,16.9021572 6.69701954,16.8347137 6.64225718,16.7470328 C6.58749483,16.659352 6.55476768,16.5716694 6.5293236,16.3237826 L5.48551607,6.15458159 L14.7952842,6.15458159 Z M11.8128136,8.18572938 L11.1717218,8.18572938 L11.1717218,14.956222 L11.8128136,14.956222 L11.8128136,8.18572938 Z M9.10907852,8.18572938 L8.4679867,8.18572938 L8.4679867,14.956222 L9.10907852,14.956222 L9.10907852,8.18572938 Z M10.9154077,2.26904603 C11.5569922,2.27315196 11.8973514,2.36849205 12.2083282,2.54413235 C12.5262932,2.72371961 12.775834,2.98725662 12.9458836,3.32305561 L12.9569803,3.34524647 C13.0639996,3.56203073 13.1380973,3.79499423 13.1763373,4.1255556 L14.6479314,4.12633642 C14.9946435,4.12633642 15.181869,4.17453433 15.3510997,4.26503994 C15.5203305,4.35554554 15.6531438,4.48835884 15.7436494,4.65758961 C15.834155,4.82682038 15.8823529,5.01404586 15.8823529,5.36075792 L15.8823529,5.50696925 L4.53781513,5.50696925 L4.53781513,5.36075792 C4.53781513,5.01404586 4.58601304,4.82682038 4.67651865,4.65758961 C4.76702425,4.48835884 4.89983755,4.35554554 5.06906832,4.26503994 C5.23829909,4.17453433 5.42552457,4.12633642 5.77223663,4.12633642 L7.13242425,4.12479816 C7.17199956,3.78333701 7.24986846,3.5460437 7.36279025,3.32305561 C7.53283981,2.98725662 7.78238062,2.72371961 8.10034564,2.54413235 L8.12135797,2.5324132 C8.43379258,2.36038743 8.78171842,2.26890756 9.43697842,2.26890756 L10.9154077,2.26904603 Z M10.912172,2.91663597 L9.3965018,2.91663597 C8.89034886,2.91958119 8.63111585,2.97876219 8.38953867,3.11520545 C8.17843826,3.23443538 8.01643194,3.40552828 7.90353421,3.62846885 C7.83011562,3.77344946 7.78032222,3.92445144 7.75050035,4.12590703 L12.5581641,4.12584355 C12.5283412,3.92441972 12.4785505,3.77343423 12.4051396,3.62846885 C12.2922419,3.40552828 12.1302356,3.23443538 11.9191352,3.11520545 L11.8995046,3.10431138 C11.663365,2.9756043 11.4046452,2.91950159 10.912172,2.91663597 Z" transform="translate(-4 -2)"/>
</svg>
