<svg width="15" height="15" viewBox="0 0 15 15" fill="none" xmlns="http://www.w3.org/2000/svg">
  <path d="M13.5 0H1.5C0.75 0 0 0.675 0 1.5V3.7575C0 4.2975 0.3225 4.7625 0.75 5.025V13.5C0.75 14.325 1.575 15 2.25 15H12.75C13.425 15 14.25 14.325 14.25 13.5V5.025C14.6775 4.7625 15 4.2975 15 3.7575V1.5C15 0.675 14.25 0 13.5 0ZM9 9H6C5.5875 9 5.25 8.6625 5.25 8.25C5.25 7.8375 5.5875 7.5 6 7.5H9C9.4125 7.5 9.75 7.8375 9.75 8.25C9.75 8.6625 9.4125 9 9 9ZM13.5 3.75H1.5V1.5H13.5V3.75Z" fill="#C2C6CE"/>
</svg>
