<svg xmlns="http://www.w3.org/2000/svg" width="207" height="26" viewBox="0 0 207 26">
    <g fill="none" fill-rule="evenodd">
        <path fill="#007BC7" fill-rule="nonzero" d="M13 0c7.18 0 13 5.82 13 13s-5.82 13-13 13S0 20.18 0 13 5.82 0 13 0zm-2.885 11.187c-2.595 0-4.698 2.103-4.698 4.698s2.103 4.698 4.698 4.698c2.594 0 4.697-2.103 4.697-4.698s-2.103-4.698-4.697-4.698zm1.325 2.01c.742 0 1.345.603 1.345 1.345 0 .744-.603 1.346-1.345 1.346-.744 0-1.347-.602-1.347-1.346 0-.742.603-1.345 1.347-1.345zm-1.325-5.33V9.56c3.487 0 6.325 2.838 6.325 6.325h1.693c0-4.42-3.597-8.017-8.018-8.017zm0-3.534v1.693c2.633 0 5.109 1.026 6.971 2.888 1.863 1.862 2.887 4.339 2.887 6.97h1.694c0-3.084-1.202-5.985-3.384-8.168C16.1 5.535 13.2 4.333 10.115 4.333z"/>
        <text fill="#1A3458" font-family="Roboto-Medium, Roboto" font-size="18" font-weight="400">
            <tspan x="34" y="19">Inoreader Companion</tspan>
        </text>
    </g>
</svg>
