<svg xmlns="http://www.w3.org/2000/svg" width="88" height="20" viewBox="0 0 88 20">
    <g fill="none" fill-rule="evenodd">
        <path fill="#007BC7" fill-rule="nonzero" d="M9.905 0c5.47 0 9.905 4.435 9.905 9.905s-4.435 9.905-9.905 9.905S0 15.375 0 9.905 4.435 0 9.905 0zM7.707 8.524c-1.977 0-3.58 1.602-3.58 3.579s1.603 3.58 3.58 3.58c1.976 0 3.579-1.603 3.579-3.58s-1.603-3.58-3.58-3.58zm1.009 1.53c.566 0 1.025.46 1.025 1.026 0 .567-.46 1.025-1.025 1.025-.567 0-1.026-.458-1.026-1.025 0-.566.46-1.025 1.026-1.025zm-1.01-4.06v1.29c2.657 0 4.82 2.162 4.82 4.819h1.29c0-3.368-2.74-6.109-6.11-6.109zm0-2.692v1.29c2.007 0 3.893.78 5.312 2.2 1.42 1.418 2.2 3.305 2.2 5.31h1.29c0-2.35-.916-4.56-2.578-6.223-1.663-1.662-3.872-2.577-6.224-2.577z"/>
        <text fill="#1A3458" font-family="Roboto-Medium, Roboto" font-size="14" font-weight="400">
            <tspan x="28" y="15">Inoreader</tspan>
        </text>
    </g>
</svg>
